<svg width="28" height="28" fill="none" xmlns="http://www.w3.org/2000/svg"><path fill-rule="evenodd" clip-rule="evenodd" d="M13.49 27.652C10.484 22.17.606 16.64.637 9.182c.012-2.789 2.991-6.964 6.329-6.103 2.998.773 3.859 4.283 7.06 4.958-.4-.47 4.685-6.305 5.474-6.704 2.28-1.153 4.19 1.608 5.014 3.391 1.224 2.653.761 5.75-.496 8.34-1.413 2.908-4.307 4.985-6.187 7.603-.382.532-4.366 6.939-4.34 6.985Z" fill="#1EDBCF"/><path d="M7.339 18.977C3.193 15.229-1.695 6.165 4.246 3.45c4.285-1.958 10.618 7.147 10.618 7.147.26-3.4 2.36-8.181 5.899-9.6 3.54-1.42 6.29 4.429 5.764 7.189.128 7.133-6.69 11.722-9.741 17.532" stroke="#1F2573" stroke-width="1.184" stroke-linecap="round" stroke-linejoin="round"/></svg>