<svg width="32" height="32" fill="none" xmlns="http://www.w3.org/2000/svg">
<path d="M17.5799 5.33276C17.5554 5.81464 17.4443 8.00919 17.5799 8.39444" stroke="#1F2573" stroke-width="1.2" stroke-linecap="round" stroke-linejoin="round"/>
<path d="M10.1041 5.40771C10.1041 6.74302 10.0825 7.43141 10.1041 8.39184" stroke="#1F2573" stroke-width="1.2" stroke-linecap="round" stroke-linejoin="round"/>
<path fill-rule="evenodd" clip-rule="evenodd" d="M19.3486 9.09312C19.3586 9.19099 19.8603 23.7098 19.1363 23.7392C16.9629 23.8284 13.0233 23.8607 10.8619 23.6733C10.1984 23.6161 9.05885 23.8047 8.63462 23.0886C8.30038 22.5242 8.50648 17.253 8.55749 16.6467C8.64623 15.6009 8.65701 14.5297 8.68107 13.4797C8.70802 12.3111 8.63669 11.1429 8.72917 9.976C8.76608 9.50615 8.64416 8.32801 9.05471 8.08998C9.31181 7.9411 10.8118 7.98879 11.2157 8.02238C12.1844 8.102 16.9343 8.22724 18.3484 8.24507C19.1019 8.25461 19.2864 8.48601 19.3486 9.09312Z" fill="#1EDBCF"/>
<path fill-rule="evenodd" clip-rule="evenodd" d="M19.3486 9.09312C19.3586 9.19099 19.8603 23.7098 19.1363 23.7392C16.9629 23.8284 13.0233 23.8607 10.8619 23.6733C10.1984 23.6161 9.05885 23.8047 8.63462 23.0886C8.30038 22.5242 8.50648 17.253 8.55749 16.6467C8.64623 15.6009 8.65701 14.5297 8.68107 13.4797C8.70802 12.3111 8.63669 11.1429 8.72917 9.976C8.76608 9.50615 8.64416 8.32801 9.05471 8.08998C9.31181 7.9411 10.8118 7.98879 11.2157 8.02238C12.1844 8.102 16.9343 8.22724 18.3484 8.24507C19.1019 8.25461 19.2864 8.48601 19.3486 9.09312Z" stroke="#1EDBCF" stroke-width="0.622038" stroke-linecap="round" stroke-linejoin="round"/>
<path d="M16.9887 10.8713C10.7115 11.505 10.8305 22.4582 17.2586 20.33" stroke="#1F2573" stroke-width="1.2" stroke-linecap="round" stroke-linejoin="round"/>
<path d="M9.97888 15.0149C11.2524 15.1397 12.7868 15.0393 14.0723 14.9133C15.2587 14.7976 16.3954 14.7507 17.5789 14.5964" stroke="#1F2573" stroke-width="1.2" stroke-linecap="round" stroke-linejoin="round"/>
<path d="M10.0609 18.0618C10.3628 18.1095 12.5681 17.8101 13.1396 17.7657C14.5545 17.6554 16.2249 17.9071 17.595 17.5679" stroke="#1F2573" stroke-width="1.2" stroke-linecap="round" stroke-linejoin="round"/>
<path fill-rule="evenodd" clip-rule="evenodd" d="M25.4951 5.34064C25.9903 5.06155 25.8795 4.1484 25.8911 3.69556C25.9048 3.1378 25.9131 2.94911 25.3321 2.86037C24.4733 2.72974 23.4926 2.78158 22.6184 2.816C21.1558 2.87405 19.6633 2.80604 18.192 2.80604C15.1067 2.80604 11.9666 2.66546 8.89541 2.91677C7.91632 2.99722 7.74547 3.22903 7.71561 4.10527C7.70192 4.50587 7.51448 5.03211 7.97728 5.27346C8.42722 5.50818 9.51662 5.32032 10.023 5.31369C11.6693 5.29254 25.153 5.53347 25.4951 5.34064Z" fill="white"/>
<path fill-rule="evenodd" clip-rule="evenodd" d="M25.4951 5.34064C25.9903 5.06155 25.8795 4.1484 25.8911 3.69556C25.9048 3.1378 25.9131 2.94911 25.3321 2.86037C24.4733 2.72974 23.4926 2.78158 22.6184 2.816C21.1558 2.87405 19.6633 2.80604 18.192 2.80604C15.1067 2.80604 11.9666 2.66546 8.89541 2.91677C7.91632 2.99722 7.74547 3.22903 7.71561 4.10527C7.70192 4.50587 7.51448 5.03211 7.97728 5.27346C8.42722 5.50818 9.51662 5.32032 10.023 5.31369C11.6693 5.29254 25.153 5.53347 25.4951 5.34064Z" stroke="#1F2573" stroke-width="1.2" stroke-linecap="round" stroke-linejoin="round"/>
<path fill-rule="evenodd" clip-rule="evenodd" d="M21.4075 30.6049C21.6866 31.1871 22.5994 31.0569 23.0526 31.0706C23.6104 31.0868 23.7991 31.0963 23.8878 30.4133C24.0184 29.4036 23.967 19.3688 23.9322 18.3412C23.8741 16.6215 23.9421 14.8665 23.9421 13.1368C23.9421 10.0905 24.0271 7.04792 24.0271 4.00325C24.0271 3.19668 24.186 2.20805 24.0271 1.41557C23.9566 1.06391 24.023 1.08755 23.6282 1.02783C23.1625 0.956922 22.6545 1.04608 22.2046 1.02783C21.6825 1.00586 21.4502 0.954849 21.4137 1.5603C21.3213 3.10171 21.4345 4.6622 21.4229 6.21232C21.4034 8.7888 21.3698 11.3649 21.3511 13.9413C21.3383 15.7113 21.3262 17.4816 21.3345 19.2523C21.3374 19.8976 21.1177 29.9991 21.4075 30.6049Z" fill="white"/>
<path fill-rule="evenodd" clip-rule="evenodd" d="M21.4075 30.6049C21.6866 31.1871 22.5994 31.0569 23.0526 31.0706C23.6104 31.0868 23.7991 31.0963 23.8878 30.4133C24.0184 29.4036 23.967 19.3688 23.9322 18.3412C23.8741 16.6215 23.9421 14.8665 23.9421 13.1368C23.9421 10.0905 24.0271 7.04792 24.0271 4.00325C24.0271 3.19668 24.186 2.20805 24.0271 1.41557C23.9566 1.06391 24.023 1.08755 23.6282 1.02783C23.1625 0.956922 22.6545 1.04608 22.2046 1.02783C21.6825 1.00586 21.4502 0.954849 21.4137 1.5603C21.3213 3.10171 21.4345 4.6622 21.4229 6.21232C21.4034 8.7888 21.3698 11.3649 21.3511 13.9413C21.3383 15.7113 21.3262 17.4816 21.3345 19.2523C21.3374 19.8976 21.1177 29.9991 21.4075 30.6049Z" stroke="#1F2573" stroke-width="1.2" stroke-linecap="round" stroke-linejoin="round"/>
</svg>
