<svg width="800" height="174" fill="none" xmlns="http://www.w3.org/2000/svg">
  <path opacity=".6" d="M0 171v-17h25.941v-22.768H69.5v8.791h20.183V52h62.905v69.928h38.237v-34.35h38.237v19.321h32.48V171h280.94V75.923h40.989v30.976h24.669V58.747h67.428v73.302h100.359v15.948H800V171H0Z" fill="#F1F1F1"/>
  <path fill-rule="evenodd" clip-rule="evenodd" d="M508.964 170.977s-1.044-133.911-1.11-134.322c.07-.089 43.296-1.03 45.296-.217 1.925.783 2.101 64.557 2.309 66.499.237 2.223 84.079-5.904 84.041 5.527-.023 7.068-.5 55.068-2 62.513 0 0-82.267-1.58-82.421-.433l-46.115.433Z" fill="#fff" stroke="#1F2573" stroke-width="1.5" stroke-linecap="round" stroke-linejoin="round"/>
  <path fill-rule="evenodd" clip-rule="evenodd" d="M515.599 54.352a.769.769 0 0 1-.101-.145c-.29-.545-.103-2.28-.099-2.934.014-1.972.173-3.938.198-5.91.006-.545.02-1.117.23-1.59.446-1.008 2.236-.774 2.974-.81 1.488-.074 24.397-.26 27.374-.202 1.278.026.713 2.328.69 3.406-.038 1.8-.019 3.604.058 5.404.024.573.053 1.157-.06 1.713-.236 1.154-.919 1.426-1.749 1.39-1.476-.066-29.132.109-29.515-.322Z" fill="#E8FBFA"/>
  <path clip-rule="evenodd" d="M515.599 54.352a.769.769 0 0 1-.101-.145c-.29-.545-.103-2.28-.099-2.934.014-1.972.173-3.938.198-5.91.006-.545.02-1.117.23-1.59.446-1.008 2.236-.774 2.974-.81 1.488-.074 24.397-.26 27.374-.202 1.278.026.713 2.328.69 3.406-.038 1.8-.019 3.604.058 5.404.024.573.053 1.157-.06 1.713-.236 1.154-.919 1.426-1.749 1.39-1.476-.066-29.132.109-29.515-.322Z" stroke="#1EDBCF" stroke-width="1.5" stroke-linecap="round" stroke-linejoin="round"/>
  <path fill-rule="evenodd" clip-rule="evenodd" d="M547.252 63.013c.037.045.07.092.097.145.279.546.098 2.28.093 2.933-.013 1.974-.166 2.462-.191 4.434-.007.545-.02 1.118-.221 1.591-.432 1.008-2.156.774-2.867.812-1.434.073-24.019.263-26.889.205-1.294-.026-.668-2.45-.669-3.298-.002-2.522-.209-3.58.176-6.076.027-.177.06-.362.165-.495.113-.142.285-.196.447-.238 1.685-.434 29.489-.443 29.859-.013Z" fill="#E8FBFA"/>
  <path clip-rule="evenodd" d="M547.252 63.013c.037.045.07.092.097.145.279.546.098 2.28.093 2.933-.013 1.974-.166 2.462-.191 4.434-.007.545-.02 1.118-.221 1.591-.432 1.008-2.156.774-2.867.812-1.434.073-24.019.263-26.889.205-1.294-.026-.668-2.45-.669-3.298-.002-2.522-.209-3.58.176-6.076.027-.177.06-.362.165-.495.113-.142.285-.196.447-.238 1.685-.434 29.489-.443 29.859-.013Z" stroke="#1EDBCF" stroke-width="1.5" stroke-linecap="round" stroke-linejoin="round"/>
  <path fill-rule="evenodd" clip-rule="evenodd" d="M515.599 93.455a.737.737 0 0 1-.101-.145c-.29-.545-.103-2.28-.099-2.933.014-1.973.173-6.295.198-8.265.006-.546.02-1.118.23-1.592.446-1.008 2.236-.773 2.974-.809 1.488-.074 24.397-.26 27.374-.202 1.278.026.713 2.327.69 3.405-.038 1.802-.019 5.961.058 7.761.024.572.053 1.157-.06 1.712-.236 1.154-.919 1.426-1.749 1.39-1.476-.066-29.132.109-29.515-.322Z" fill="#E8FBFA"/>
  <path clip-rule="evenodd" d="M515.599 93.455a.737.737 0 0 1-.101-.145c-.29-.545-.103-2.28-.099-2.933.014-1.973.173-6.295.198-8.265.006-.546.02-1.118.23-1.592.446-1.008 2.236-.773 2.974-.809 1.488-.074 24.397-.26 27.374-.202 1.278.026.713 2.327.69 3.405-.038 1.802-.019 5.961.058 7.761.024.572.053 1.157-.06 1.712-.236 1.154-.919 1.426-1.749 1.39-1.476-.066-29.132.109-29.515-.322Z" stroke="#1EDBCF" stroke-width="1.5" stroke-linecap="round" stroke-linejoin="round"/>
  <path fill-rule="evenodd" clip-rule="evenodd" d="M545.482 102.54c.103.193.158.425.206.649.689 3.218.403 8.419.273 11.723-.004.101-.012.213-.078.281-.053.055-.132.064-.203.07-4.788.428-23.302.853-28.104.394-.22-.021-.454-.051-.63-.243-.219-.237-.288-.653-.338-1.036-.225-1.727-.286-10.745.179-11.604.289-.536.931-.603 1.48-.612 3.951-.065 22.088-.047 26.037-.112.362-.005.76.004 1.028.281a.958.958 0 0 1 .15.209Z" fill="#E8FBFA"/>
  <path clip-rule="evenodd" d="M545.482 102.54c.103.193.158.425.206.649.689 3.218.403 8.419.273 11.723-.004.101-.012.213-.078.281-.053.055-.132.064-.203.07-4.788.428-23.302.853-28.104.394-.22-.021-.454-.051-.63-.243-.219-.237-.288-.653-.338-1.036-.225-1.727-.286-10.745.179-11.604.289-.536.931-.603 1.48-.612 3.951-.065 22.088-.047 26.037-.112.362-.005.76.004 1.028.281a.958.958 0 0 1 .15.209Z" stroke="#1EDBCF" stroke-width="1.5" stroke-linecap="round" stroke-linejoin="round"/>
  <path fill-rule="evenodd" clip-rule="evenodd" d="M515.62 130.795c.096 1.556-.176 3.233.457 4.68.062.14.134.284.256.372.158.111.363.106.553.098 3.739-.168 28.58-.148 29.206-1.251.318-.559.301-1.249.273-1.897l-.317-7.762c-.019-.474-.083-1.029-.478-1.271-.223-.137-.5-.132-.758-.123-4.619.155-23.212.309-27.829.465-.347.012-.734.042-.964.31-.166.194-.209.467-.241.723a30.462 30.462 0 0 0-.158 5.656Zm45.52-4.841c.21 3.034-.391 6.301 1.007 9.122.138.274.295.555.565.725.348.216.8.207 1.22.192 8.249-.327 63.053-.289 64.436-2.439.7-1.089.662-2.435.602-3.698-.232-5.044-.467-10.085-.7-15.131-.042-.924-.182-2.006-1.055-2.477-.493-.267-1.103-.258-1.673-.24-10.189.302-51.21.603-61.397.908-.765.022-1.618.081-2.125.603-.368.377-.463.91-.533 1.409-.52 3.661-.603 7.35-.347 11.026Z" fill="#E8FBFA"/>
  <path clip-rule="evenodd" d="M515.62 130.795c.096 1.556-.176 3.233.457 4.68.062.14.134.284.256.372.158.111.363.106.553.098 3.739-.168 28.58-.148 29.206-1.251.318-.559.301-1.249.273-1.897l-.317-7.762c-.019-.474-.083-1.029-.478-1.271-.223-.137-.5-.132-.758-.123-4.619.155-23.212.309-27.829.465-.347.012-.734.042-.964.31-.166.194-.209.467-.241.723a30.462 30.462 0 0 0-.158 5.656Z" stroke="#1EDBCF" stroke-width="1.5" stroke-linecap="round" stroke-linejoin="round"/>
  <path d="M520.378 169.976c-.643-.869.754-22.955 1.598-25.768.764-2.547 5.409-2.166 8.52-1.956 3.301.223 6.526.182 9.824.164 1.781-.009 3.269 1.265 3.397 2.921.534 6.936-.307 22.553-.203 24.44" stroke="#1F2573" stroke-width="1.5" stroke-linecap="round" stroke-linejoin="round"/>
  <path fill-rule="evenodd" clip-rule="evenodd" d="M571.34 171c-1.332-.935 1.559-24.704 3.306-27.731 1.581-2.741 11.191-2.331 17.628-2.105 6.83.239 13.504.196 20.328.177 3.684-.01 6.763 1.361 7.028 3.143 1.104 7.464-.636 24.271-.42 26.302" fill="#151A50"/>
  <path fill-rule="evenodd" clip-rule="evenodd" d="M504.247 37.103c.229.222.583.24.903.244 15.636.196 35.424.236 51.063.12.503-.003 2.125-.034 2.543-.317.374-.254 1.137-6.008-.478-6.478-1.614-.472-44.805-.088-48.996.179-1.068.068-3.673-.288-4.578.415-.765.595-1.231 5.083-.457 5.837Z" fill="#15459e"/>
  <path clip-rule="evenodd" d="M504.247 37.103c.229.222.583.24.903.244 15.636.196 35.424.236 51.063.12.503-.003 2.125-.034 2.543-.317.374-.254 1.137-6.008-.478-6.478-1.614-.472-44.805-.088-48.996.179-1.068.068-3.673-.288-4.578.415-.765.595-1.231 5.083-.457 5.837Z" stroke="#15459e" stroke-width="1.5" stroke-linecap="round" stroke-linejoin="round"/>
  <path d="M533.091 142.562c-.283.312-.341.747-.362 1.155-.234 4.191-.621 17.388-.859 26.289" stroke="#1F2573" stroke-width="1.5" stroke-linecap="round" stroke-linejoin="round"/>
  <path fill-rule="evenodd" clip-rule="evenodd" d="M208.453 170.395s1.132-146.216 1.204-146.664c-.076-.097-46.964-1.126-49.134-.237-2.088.855-2.279 70.488-2.504 72.61-.683 6.435-.017 70.606.412 73.818.232 1.75 50.022.473 50.022.473Zm-57.563.184s.336-137.457.41-137.894c-.076-.092-42.194-.884-44.355-.011-2.079.84-1.354 1.68-1.587 3.742-.707 6.253-2.093 132.46-.875 133.927 1.1 1.325 46.407.236 46.407.236Z" fill="#fff" stroke="#1F2573" stroke-width="1.5" stroke-linecap="round" stroke-linejoin="round"/>
  <path clip-rule="evenodd" d="M201.256 42.907a.882.882 0 0 0 .109-.157c.315-.591.112-2.47.107-3.18-.015-2.138-.187-4.268-.214-6.405-.007-.591-.022-1.212-.249-1.724-.485-1.093-2.426-.839-3.226-.878-1.614-.08-26.464-.283-29.694-.219-1.386.028-.773 2.523-.748 3.691a92.24 92.24 0 0 1-.063 5.857c-.026.622-.058 1.255.065 1.858.256 1.25.997 1.545 1.897 1.506 1.602-.072 31.6.117 32.016-.35Z" stroke="#979CD8" stroke-width="1.5" stroke-linecap="round" stroke-linejoin="round"/>
  <path fill-rule="evenodd" clip-rule="evenodd" d="M201.256 42.907a.882.882 0 0 0 .109-.157c.315-.591.112-2.47.107-3.18-.015-2.138-.187-4.268-.214-6.405-.007-.591-.022-1.212-.249-1.724-.485-1.093-2.426-.839-3.226-.878-1.614-.08-26.464-.283-29.694-.219-1.386.028-.773 2.523-.748 3.691a92.24 92.24 0 0 1-.063 5.857c-.026.622-.058 1.255.065 1.858.256 1.25.997 1.545 1.897 1.506 1.602-.072 31.6.117 32.016-.35Zm-34.335 9.387a.823.823 0 0 0-.106.157c-.302.591-.106 2.47-.101 3.18.015 2.138.181 2.667.208 4.805.007.59.021 1.21.24 1.724.468 1.092 2.338.84 3.109.88 1.556.08 26.055.285 29.167.222 1.404-.028.724-2.654.726-3.575.002-2.733.227-3.879-.191-6.585-.029-.191-.065-.393-.179-.536-.122-.154-.309-.213-.485-.259-1.828-.47-31.987-.48-32.388-.013Z" fill="#979CD8"/>
  <path clip-rule="evenodd" d="M166.921 52.294a.823.823 0 0 0-.106.157c-.302.591-.106 2.47-.101 3.18.015 2.138.181 2.667.208 4.805.007.59.021 1.21.24 1.724.468 1.092 2.338.84 3.109.88 1.556.08 26.055.285 29.167.222 1.404-.028.724-2.654.726-3.575.002-2.733.227-3.879-.191-6.585-.029-.191-.065-.393-.179-.536-.122-.154-.309-.213-.485-.259-1.828-.47-31.987-.48-32.388-.013Z" stroke="#979CD8" stroke-width="1.5" stroke-linecap="round" stroke-linejoin="round"/>
  <path fill-rule="evenodd" clip-rule="evenodd" d="M201.256 85.287a.837.837 0 0 0 .109-.157c.315-.59.112-2.47.107-3.179-.015-2.138-.187-6.822-.214-8.958-.007-.591-.022-1.211-.249-1.725-.485-1.093-2.426-.838-3.226-.877-1.614-.08-26.464-.282-29.694-.219-1.386.029-.773 2.522-.748 3.69.041 1.954.02 6.462-.063 8.412-.026.62-.058 1.254.065 1.856.256 1.25.997 1.546 1.897 1.506 1.602-.071 31.6.118 32.016-.349Z" fill="#979CD8"/>
  <path clip-rule="evenodd" d="M201.256 85.287a.837.837 0 0 0 .109-.157c.315-.59.112-2.47.107-3.179-.015-2.138-.187-6.822-.214-8.958-.007-.591-.022-1.211-.249-1.725-.485-1.093-2.426-.838-3.226-.877-1.614-.08-26.464-.282-29.694-.219-1.386.029-.773 2.522-.748 3.69.041 1.954.02 6.462-.063 8.412-.026.62-.058 1.254.065 1.856.256 1.25.997 1.546 1.897 1.506 1.602-.071 31.6.118 32.016-.349Z" stroke="#979CD8" stroke-width="1.5" stroke-linecap="round" stroke-linejoin="round"/>
  <path fill-rule="evenodd" clip-rule="evenodd" d="M168.841 95.136c-.112.209-.172.46-.223.703-.748 3.488-.438 9.125-.297 12.706.005.109.014.231.085.305.058.06.143.07.22.076 5.194.464 25.277.925 30.486.427.238-.023.491-.055.683-.264.237-.257.312-.707.366-1.123.244-1.872.31-11.646-.194-12.577-.313-.58-1.01-.653-1.605-.663-4.286-.07-23.959-.05-28.243-.122-.393-.005-.824.005-1.115.305a1.06 1.06 0 0 0-.163.227Z" fill="#979CD8"/>
  <path clip-rule="evenodd" d="M168.841 95.136c-.112.209-.172.46-.223.703-.748 3.488-.438 9.125-.297 12.706.005.109.014.231.085.305.058.06.143.07.22.076 5.194.464 25.277.925 30.486.427.238-.023.491-.055.683-.264.237-.257.312-.707.366-1.123.244-1.872.31-11.646-.194-12.577-.313-.58-1.01-.653-1.605-.663-4.286-.07-23.959-.05-28.243-.122-.393-.005-.824.005-1.115.305a1.06 1.06 0 0 0-.163.227Z" stroke="#979CD8" stroke-width="1.5" stroke-linecap="round" stroke-linejoin="round"/>
  <path fill-rule="evenodd" clip-rule="evenodd" d="M201.232 125.759c-.103 1.686.192 3.503-.495 5.072-.068.152-.145.308-.278.403-.171.12-.393.115-.6.107-4.056-.182-31-.161-31.68-1.357-.345-.605-.326-1.353-.297-2.056l.345-8.413c.021-.513.089-1.115.518-1.377.243-.149.543-.144.823-.134 5.009.168 25.178.336 30.186.505.377.012.796.046 1.045.335.181.21.228.506.262.784.256 2.035.297 4.087.171 6.131Z" fill="#979CD8"/>
  <path clip-rule="evenodd" d="M201.232 125.759c-.103 1.686.192 3.503-.495 5.072-.068.152-.145.308-.278.403-.171.12-.393.115-.6.107-4.056-.182-31-.161-31.68-1.357-.345-.605-.326-1.353-.297-2.056l.345-8.413c.021-.513.089-1.115.518-1.377.243-.149.543-.144.823-.134 5.009.168 25.178.336 30.186.505.377.012.796.046 1.045.335.181.21.228.506.262.784.256 2.035.297 4.087.171 6.131Z" stroke="#979CD8" stroke-width="1.5" stroke-linecap="round" stroke-linejoin="round"/>
  <path d="M196.071 170.393c.698-1.009-.817-26.665-1.733-29.933-.829-2.957-5.867-2.515-9.241-2.271-3.581.258-7.08.212-10.657.191a3.665 3.665 0 0 0-3.685 3.392c-.579 8.057.333 26.198.22 28.39" stroke="#1F2573" stroke-width="1.5" stroke-linecap="round" stroke-linejoin="round"/>
  <path fill-rule="evenodd" clip-rule="evenodd" d="M213.568 24.212c-.248.24-.631.26-.978.264-16.961.213-38.426.256-55.39.13-.545-.003-2.305-.037-2.758-.344-.406-.275-1.233-6.511.518-7.02 1.751-.512 48.602-.096 53.148.193 1.158.074 3.984-.312 4.965.45.83.645 1.335 5.509.495 6.327Z" fill="#1EDBCF"/>
  <path clip-rule="evenodd" d="M213.568 24.212c-.248.24-.631.26-.978.264-16.961.213-38.426.256-55.39.13-.545-.003-2.305-.037-2.758-.344-.406-.275-1.233-6.511.518-7.02 1.751-.512 48.602-.096 53.148.193 1.158.074 3.984-.312 4.965.45.83.645 1.335 5.509.495 6.327Z" stroke="#1EDBCF" stroke-width="1.5" stroke-linecap="round" stroke-linejoin="round"/>
  <path d="M182.281 138.512c.308.362.37.868.394 1.342.253 4.873.673 20.219.931 30.571" stroke="#1F2573" stroke-width="1.5" stroke-linecap="round" stroke-linejoin="round"/>
  <path opacity=".102" fill-rule="evenodd" clip-rule="evenodd" d="M113.662 170.818c-.783-.968-.53-24.955.414-28.144.857-2.888 6.386-2.547 10.087-2.37 4.43.213 9.688-.177 14.135-.075 1.275.03 2.315 1.008 2.487 2.27.959 7.034.225 25.615.395 27.837" fill="#1EDBCF"/>
  <path opacity=".102" d="M113.662 170.818c-.783-.968-.53-24.955.414-28.144.857-2.888 6.386-2.547 10.087-2.37 4.43.213 9.688-.177 14.135-.075 1.275.03 2.315 1.008 2.487 2.27.959 7.034.225 25.615.395 27.837" stroke="#1EDBCF" stroke-width="1.5" stroke-linecap="round" stroke-linejoin="round"/>
  <path fill-rule="evenodd" clip-rule="evenodd" d="m106.983 33.875-.029-.013c-2.888-1.387 3.151-7.632 4.225-8.821 2.89-3.201 6.624-5.65 10.737-6.963 4.561-1.451 8.946.295 13.274 1.548 5.003 1.45 8.642 3.304 12.921 6.374 1.921 1.378 5.049 6.829 4.897 7.374-.464 1.662-23.116.48-34.534.575l-10.331.084c-.394.003-.802.003-1.16-.158Z" fill="#15459e"/>
  <path clip-rule="evenodd" d="m106.983 33.875-.029-.013c-2.888-1.387 3.151-7.632 4.225-8.821 2.89-3.201 6.624-5.65 10.737-6.963 4.561-1.451 8.946.295 13.274 1.548 5.003 1.45 8.642 3.304 12.921 6.374 1.921 1.378 5.049 6.829 4.897 7.374-.464 1.662-23.116.48-34.534.575l-10.331.084c-.394.003-.802.003-1.16-.158Z" stroke="#15459e" stroke-width="1.5" stroke-linecap="round" stroke-linejoin="round"/>
  <path clip-rule="evenodd" d="M142.378 66.316a.765.765 0 0 0 .102-.146c.292-.55.103-2.302.099-2.963a8262.64 8262.64 0 0 0-.199-17.235c-.007-.55-.019-1.127-.232-1.605-.452-1.019-2.26-.782-3.006-.819-1.503-.075-20.466-.263-23.475-.202-1.294.026-.721 2.348-.699 3.438.04 1.82.02 14.906-.058 16.724-.024.579-.054 1.17.061 1.73.238 1.165.928 1.44 1.768 1.404 1.492-.068 25.252.109 25.639-.326Zm-26.011 9.176c-.105.195-.161.43-.209.656-.696 3.25-.407 17.389-.276 20.725.004.102.013.216.079.284.054.056.133.065.205.071 4.84.433 19.36.862 24.214.4.221-.024.458-.053.636-.248.221-.238.292-.66.342-1.046.226-1.744.288-19.739-.181-20.606-.292-.542-.941-.61-1.497-.618-3.992-.065-18.132-.048-22.123-.113-.365-.006-.767.004-1.038.284a.918.918 0 0 0-.152.211Zm25.989 50.753c-.096 1.571.18 3.263-.461 4.726-.063.142-.135.287-.259.374-.16.114-.367.109-.56.101-3.777-.17-24.694-.15-25.327-1.263-.321-.565-.303-1.262-.276-1.916.107-2.613.215-18.556.322-21.169.019-.48.082-1.042.483-1.285.226-.137.504-.132.767-.124 4.667.156 19.266.313 23.934.469.351.013.742.043.974.314.168.195.211.471.244.731.238 1.896.276 17.138.159 19.042Z" stroke="#1F2573" stroke-width="1.5" stroke-linecap="round" stroke-linejoin="round"/>
  <path d="M151.215 32.222c-5.818-7.193-14.581-13.271-23.837-13.36-9.256-.09-18.678 5.502-21.811 14.204m36.526 21.849a201.354 201.354 0 0 0-26.782.425m26.129 31.147c-5.641-.7-11.349-.595-17.033-.487l-7.866.148m25.87 32.521a84.681 84.681 0 0 1-14.178.406c-1.392-.078-2.782-.191-4.173-.302l-8.134-.654" stroke="#1F2573" stroke-width="1.5" stroke-linecap="round" stroke-linejoin="round"/>
  <path d="m128.996 43.281.764 22.97c.005.173-.007.381-.157.469-.152.086-.364-.178-.205-.248m-.628 8.52c.37 7.531.59 15.07.663 22.61m-.203 8.455c-.071 8.555-.552 16.654.001 25.191" stroke="#1F2573" stroke-width="1.5" stroke-linecap="round" stroke-linejoin="round"/>
  <path fill-rule="evenodd" clip-rule="evenodd" d="M228.094 168.85c-.011 1.11.901 2.034 2.094 2.119 2.464.178 86.955-.415 88.591-1.198 3.299-1.581 2.216-73.762 1.22-75.304-4.059.77-8.14.321-12.225.436-7.735.216-79.313 1.154-79.466 1.074-.163 2.896-.095 61.331-.214 72.873Z" fill="#fff" stroke="#1F2573" stroke-width="1.5" stroke-linecap="round" stroke-linejoin="round"/>
  <path fill-rule="evenodd" clip-rule="evenodd" d="M307.295 76.908c-.201-.158-9.483-.425-14.71-.418-6.214.012-12.435.514-18.65.463-9.549-.08-26 1.572-28.393 1.909-2.365.333-17.149 15.964-17.535 17.51-.207.825 4.386.4 8.06.412 14.536 0 27.415-.02 41.952 0 6.989.01 13.056-.611 20.046-.62 3.134-.002 20.386.846 21.588-.601 1.052-1.268-1.764-3.436-2.515-4.901-1.405-2.747-2.933-4.614-4.845-7.037-2.028-2.57-2.998-5.135-4.998-6.717Z" fill="#1EDBCF"/>
  <path clip-rule="evenodd" d="M307.295 76.908c-.201-.158-9.483-.425-14.71-.418-6.214.012-12.435.514-18.65.463-9.549-.08-26 1.572-28.393 1.909-2.365.333-17.149 15.964-17.535 17.51-.207.825 4.386.4 8.06.412 14.536 0 27.415-.02 41.952 0 6.989.01 13.056-.611 20.046-.62 3.134-.002 20.386.846 21.588-.601 1.052-1.268-1.764-3.436-2.515-4.901-1.405-2.747-2.933-4.614-4.845-7.037-2.028-2.57-2.998-5.135-4.998-6.717Z" stroke="#1EDBCF" stroke-width="1.5"/>
  <path fill-rule="evenodd" clip-rule="evenodd" d="M261.352 170.75c-.044-1.419-.198-3.806-.318-5.328-.148-1.893.023-3.739.154-5.669.294-4.357 1.66-9.28 4.92-12.701 3.6-3.78 8.464-6.456 13.761-4.979 5.983 1.667 6.586 6.529 7.382 11.714.388 2.537.185 5.221.217 7.788.017 1.236.219 8.779.026 8.637" fill="#1F2573"/>
  <path d="M261.352 170.75c-.044-1.419-.198-3.806-.318-5.328-.148-1.893.023-3.739.154-5.669.294-4.357 1.66-9.28 4.92-12.701 3.6-3.78 8.464-6.456 13.761-4.979 5.983 1.667 6.586 6.529 7.382 11.714.388 2.537.185 5.221.217 7.788.017 1.236.219 8.779.026 8.637" stroke="#1F2573" stroke-width="1.5"/>
  <path fill-rule="evenodd" clip-rule="evenodd" d="M285.851 119.993c-.075-.943.138-1.959-.359-2.837a.527.527 0 0 0-.201-.224c-.124-.068-.285-.066-.434-.06-2.934.101-20.716.09-21.207.757-.249.339-.236.757-.215 1.151l.25 4.704c.015.288.065.625.374.771.177.083.392.08.596.075 3.624-.094 16.502-.188 20.127-.282.272-.007.576-.027.755-.188.131-.118.164-.283.19-.439.185-1.137.214-2.285.124-3.428Z" fill="#15459e"/>
  <path clip-rule="evenodd" d="M285.851 119.993c-.075-.943.138-1.959-.359-2.837a.527.527 0 0 0-.201-.224c-.124-.068-.285-.066-.434-.06-2.934.101-20.716.09-21.207.757-.249.339-.236.757-.215 1.151l.25 4.704c.015.288.065.625.374.771.177.083.392.08.596.075 3.624-.094 16.502-.188 20.127-.282.272-.007.576-.027.755-.188.131-.118.164-.283.19-.439.185-1.137.214-2.285.124-3.428Z" stroke="#15459e" stroke-width="1.5" stroke-linecap="round" stroke-linejoin="round"/>
  <path fill-rule="evenodd" clip-rule="evenodd" d="M236.263 124.078a.472.472 0 0 1-.08-.088c-.227-.331-.08-1.382-.076-1.779.01-1.195.135-2.387.154-3.582.006-.33.016-.677.181-.964.35-.612 1.755-.469 2.334-.491 1.167-.045 15.89-.158 18.226-.122 1.004.016.561 1.411.542 2.064a39.77 39.77 0 0 0 .045 3.276c.02.348.043.701-.047 1.038-.184.699-.72.865-1.372.842-1.159-.04-19.607.066-19.907-.194Z" fill="#15459e"/>
  <path clip-rule="evenodd" d="M236.263 124.078a.472.472 0 0 1-.08-.088c-.227-.331-.08-1.382-.076-1.779.01-1.195.135-2.387.154-3.582.006-.33.016-.677.181-.964.35-.612 1.755-.469 2.334-.491 1.167-.045 15.89-.158 18.226-.122 1.004.016.561 1.411.542 2.064a39.77 39.77 0 0 0 .045 3.276c.02.348.043.701-.047 1.038-.184.699-.72.865-1.372.842-1.159-.04-19.607.066-19.907-.194Z" stroke="#15459e" stroke-width="1.5" stroke-linecap="round" stroke-linejoin="round"/>
  <path fill-rule="evenodd" clip-rule="evenodd" d="M257.848 129.327a.515.515 0 0 1 .076.087c.22.332.077 1.382.074 1.78-.011 1.195-.131 2.386-.151 3.581-.004.331-.014.678-.174.965-.337.611-1.691.469-2.248.491-1.126.045-15.595.16-17.847.125-1.016-.016-.524-1.484-.524-1.999-.004-1.528-.165-3.064.137-4.578.021-.106.047-.22.13-.301.088-.085.223-.118.351-.143 1.321-.263 19.886-.268 20.176-.008Z" fill="#15459e"/>
  <path clip-rule="evenodd" d="M257.848 129.327a.515.515 0 0 1 .076.087c.22.332.077 1.382.074 1.78-.011 1.195-.131 2.386-.151 3.581-.004.331-.014.678-.174.965-.337.611-1.691.469-2.248.491-1.126.045-15.595.16-17.847.125-1.016-.016-.524-1.484-.524-1.999-.004-1.528-.165-3.064.137-4.578.021-.106.047-.22.13-.301.088-.085.223-.118.351-.143 1.321-.263 19.886-.268 20.176-.008Z" stroke="#15459e" stroke-width="1.5" stroke-linecap="round" stroke-linejoin="round"/>
  <path fill-rule="evenodd" clip-rule="evenodd" d="M264.596 135.724a1.252 1.252 0 0 1-.162-.393c-.541-1.951-.316-3.675-.214-5.678.003-.061.009-.13.061-.171.043-.033.103-.039.159-.043 3.759-.259 16.574-.517 20.342-.239.173.013.357.032.496.147.17.145.226.397.265.629.175 1.047.224 5.086-.14 5.606-.227.325-.732.365-1.163.371-3.1.039-15.62.028-18.72.068-.284.003-.596-.003-.806-.17a.588.588 0 0 1-.118-.127Z" fill="#15459e"/>
  <path clip-rule="evenodd" d="M264.596 135.724a1.252 1.252 0 0 1-.162-.393c-.541-1.951-.316-3.675-.214-5.678.003-.061.009-.13.061-.171.043-.033.103-.039.159-.043 3.759-.259 16.574-.517 20.342-.239.173.013.357.032.496.147.17.145.226.397.265.629.175 1.047.224 5.086-.14 5.606-.227.325-.732.365-1.163.371-3.1.039-15.62.028-18.72.068-.284.003-.596-.003-.806-.17a.588.588 0 0 1-.118-.127Z" stroke="#15459e" stroke-width="1.5" stroke-linecap="round" stroke-linejoin="round"/>
  <path fill-rule="evenodd" clip-rule="evenodd" d="M238.181 160.641a.452.452 0 0 1-.061-.087c-.173-.331-.058-1.381-.055-1.779.011-1.195.108-13.812.126-15.007.005-.331.013-.677.14-.965.27-.612 1.343-.472 1.785-.495.894-.047 12.156-.191 13.943-.159.768.013.426 1.409.411 2.062-.026 1.093-.016 13.611.027 14.701.015.348.031.702-.037 1.039-.143.7-.554.867-1.052.845-.886-.037-14.998.106-15.227-.155Z" fill="#1F2573"/>
  <path clip-rule="evenodd" d="M238.181 160.641a.452.452 0 0 1-.061-.087c-.173-.331-.058-1.381-.055-1.779.011-1.195.108-13.812.126-15.007.005-.331.013-.677.14-.965.27-.612 1.343-.472 1.785-.495.894-.047 12.156-.191 13.943-.159.768.013.426 1.409.411 2.062-.026 1.093-.016 13.611.027 14.701.015.348.031.702-.037 1.039-.143.7-.554.867-1.052.845-.886-.037-14.998.106-15.227-.155Z" stroke="#1F2573" stroke-width="1.5"/>
  <path fill-rule="evenodd" clip-rule="evenodd" d="M310.872 116.845c.082.117.125.257.162.393.541 1.95.316 3.675.214 5.678-.003.061-.009.129-.061.171-.042.033-.103.038-.16.042-3.757.259-15.031.517-18.799.239-.172-.013-.357-.031-.496-.148-.17-.143-.225-.396-.264-.628-.176-1.047-.224-5.086.14-5.606.227-.325.732-.366 1.162-.37 3.1-.04 14.078-.03 17.178-.068.283-.004.596.002.806.17a.59.59 0 0 1 .118.127Z" fill="#15459e"/>
  <path clip-rule="evenodd" d="M310.872 116.845c.082.117.125.257.162.393.541 1.95.316 3.675.214 5.678-.003.061-.009.129-.061.171-.042.033-.103.038-.16.042-3.757.259-15.031.517-18.799.239-.172-.013-.357-.031-.496-.148-.17-.143-.225-.396-.264-.628-.176-1.047-.224-5.086.14-5.606.227-.325.732-.366 1.162-.37 3.1-.04 14.078-.03 17.178-.068.283-.004.596.002.806.17a.59.59 0 0 1 .118.127Z" stroke="#15459e" stroke-width="1.5" stroke-linecap="round" stroke-linejoin="round"/>
  <path fill-rule="evenodd" clip-rule="evenodd" d="M308.867 141.948c.185 1.528 1.021 16.533.019 17.532-.232.23-.519.256-.792.272-2.637.152-11.375.061-14.012-.24-.137-.015-.281-.036-.391-.173-.136-.168-.18-.464-.212-.735-.211-1.82-.299-13.699-.213-15.536.026-.528.093-1.13.373-1.387.145-.133.321-.145.488-.152.719-.028 14.678-.097 14.74.419Z" fill="#1F2573"/>
  <path clip-rule="evenodd" d="M308.867 141.948c.185 1.528 1.021 16.533.019 17.532-.232.23-.519.256-.792.272-2.637.152-11.375.061-14.012-.24-.137-.015-.281-.036-.391-.173-.136-.168-.18-.464-.212-.735-.211-1.82-.299-13.699-.213-15.536.026-.528.093-1.13.373-1.387.145-.133.321-.145.488-.152.719-.028 14.678-.097 14.74.419Z" stroke="#1F2573" stroke-width="1.5"/>
  <path fill-rule="evenodd" clip-rule="evenodd" d="M311.544 131.33c-.076-.942.138-1.959-.359-2.836a.543.543 0 0 0-.201-.225c-.124-.067-.285-.065-.435-.059-2.934.101-19.172.089-19.665.757-.248.339-.235.757-.214 1.15l.249 4.704c.015.289.065.626.376.772.176.083.392.08.595.074 3.624-.094 14.96-.188 18.584-.281.272-.007.576-.027.756-.188.131-.118.164-.283.19-.439.184-1.137.213-2.286.124-3.429Z" fill="#15459e"/>
  <path clip-rule="evenodd" d="M311.544 131.33c-.076-.942.138-1.959-.359-2.836a.543.543 0 0 0-.201-.225c-.124-.067-.285-.065-.435-.059-2.934.101-19.172.089-19.665.757-.248.339-.235.757-.214 1.15l.249 4.704c.015.289.065.626.376.772.176.083.392.08.595.074 3.624-.094 14.96-.188 18.584-.281.272-.007.576-.027.756-.188.131-.118.164-.283.19-.439.184-1.137.213-2.286.124-3.429Z" stroke="#15459e" stroke-width="1.5" stroke-linecap="round" stroke-linejoin="round"/>
  <path d="M228.165 96.3c4.005-6.073 16.546-18.505 18.504-18.795 1.53-.228 54.894-1.63 56.844-1.492 1.263.089 3.547-.226 4.585.308 3.094 1.592 12.175 18.415 11.968 18.415" stroke="#1F2573" stroke-width="1.5" stroke-linecap="round" stroke-linejoin="round"/>
  <path clip-rule="evenodd" d="M246.863 108.844a7.99 7.99 0 0 0 .492-4.06c-.208-1.431-1.053-2.819-2.37-3.42-2.152-.983-4.781.467-5.935 2.53-1.624 2.905-.982 7.395 2.863 8.017 2.478.4 4.141-1.083 4.95-3.067Zm14.046 1.638c1.878 2.006 5.205 1.978 6.881-.379.436-.614.647-1.357.81-2.094.292-1.323.431-2.802-.286-3.953-1.448-2.324-5.662-2.369-7.305-.302-1.465 1.839-1.755 4.961-.1 6.728Zm20.23-1.702c2.852 3.802 8.934.663 9.1-3.617.18-4.649-6.053-6.543-8.82-3.047-1.453 1.835-1.717 4.623-.371 6.538l.091.126Z" stroke="#1F2573" stroke-width="1.5" stroke-linecap="round" stroke-linejoin="round"/>
  <path d="M305.767 100.094c-3.661-.314-7.125 5.456-4.86 8.371 4.085 5.261 11.709-.419 8.854-5.712-1.241-2.298-4.13-3.452-6.464-1.992m-50.509-23.286c-3.422 6.406-6.766 11.29-10.03 17.778m19.131-17.728c-.917 6.839-2.149 11.358-3.689 18.085m13.886-18.672c.238 6.981-.039 11.703-.831 18.644m9.907-18.644c-.145 6.772-.29 11.268-.434 18.041m9.064-18.747c.623 6.793 1.436 12.008 2.442 18.756m7.713-18.33c1.31 6.766 3.039 11.176 5.176 17.73" stroke="#1F2573" stroke-width="1.5" stroke-linecap="round" stroke-linejoin="round"/>
  <path fill-rule="evenodd" clip-rule="evenodd" d="M423.159 76.894c3.066-.234 35.41-.864 37.339 1.008 1.205 1.168 1.947 2.708 2.665 4.212 3.62 7.583 7.009 15.33 10.843 22.807 2.111 4.116 3.718 65.172 1.722 65.435-5.125.675-37.644.494-37.644.494" fill="#fff"/>
  <path d="M423.159 76.894c3.066-.234 35.41-.864 37.339 1.008 1.205 1.168 1.947 2.708 2.665 4.212 3.62 7.583 7.009 15.33 10.843 22.807 2.111 4.116 3.718 65.172 1.722 65.435-5.125.675-37.644.494-37.644.494" stroke="#1F2573" stroke-width="1.5" stroke-linecap="round" stroke-linejoin="round"/>
  <path fill-rule="evenodd" clip-rule="evenodd" d="M400.289 170.324s-1.129-15.316-1.07-22.303c.078-9.18.559-42.088.5-42.463.067-.079 39.925-.016 40.106 1.75.549 5.359.855 62.044-.219 63.286-.969 1.123-39.317-.27-39.317-.27Z" fill="#fff" stroke="#1F2573" stroke-width="1.5" stroke-linecap="round" stroke-linejoin="round"/>
  <path fill-rule="evenodd" clip-rule="evenodd" d="M424.632 170.565c-.078-.19.661-21.586.675-23.879.001-.36-.003-.741-.199-1.047-.194-.302-.541-.478-.879-.621-2.205-.93-5.818-.804-8.237-.726-3.388.109-4.149 1.445-4.407 4.453-.552 6.41-1.15 13.784-.975 21.536" fill="#15459e"/>
  <path d="M424.632 170.565c-.078-.19.661-21.586.675-23.879.001-.36-.003-.741-.199-1.047-.194-.302-.541-.478-.879-.621-2.205-.93-5.818-.804-8.237-.726-3.388.109-4.149 1.445-4.407 4.453-.552 6.41-1.15 13.784-.975 21.536" stroke="#15459e" stroke-width="1.5" stroke-linecap="round" stroke-linejoin="round"/>
  <path fill-rule="evenodd" clip-rule="evenodd" d="M398.211 105.995c.152.344.387.639.71.828 1.514.89 5.273.278 7.006.319 3.022.072 6.044.166 9.066.249l17.529.481c6.093.167 20.974.333 27.068.501 4.263.116 16.967.191 16.907-.895-.059-1.087-1.276-4.115-1.74-5.093l-4.457-9.41c-2.36-4.98-4.312-11.996-9.006-15.224-2.053-1.412-13.365-1.847-15.811-2.19-7.62-1.067-18.58-.443-22.351.47-4.933 1.197-8.951 7.922-12.253 11.84-3.87 4.596-7.694 9.235-11.401 13.97-.583.746-1.18 1.525-1.402 2.455-.133.557-.093 1.183.135 1.699Z" fill="#979CD8"/>
  <path clip-rule="evenodd" d="M398.211 105.995c.152.344.387.639.71.828 1.514.89 5.273.278 7.006.319 3.022.072 6.044.166 9.066.249l17.529.481c6.093.167 20.974.333 27.068.501 4.263.116 16.967.191 16.907-.895-.059-1.087-1.276-4.115-1.74-5.093l-4.457-9.41c-2.36-4.98-4.312-11.996-9.006-15.224-2.053-1.412-13.365-1.847-15.811-2.19-7.62-1.067-18.58-.443-22.351.47-4.933 1.197-8.951 7.922-12.253 11.84-3.87 4.596-7.694 9.235-11.401 13.97-.583.746-1.18 1.525-1.402 2.455-.133.557-.093 1.183.135 1.699Z" stroke="#979CD8" stroke-width="1.5" stroke-linecap="round" stroke-linejoin="round"/>
  <path d="M399.752 105.509c.228-1.951 21.246-26.164 23.49-28.653.097-.107 15.09 25.53 16.968 30.431 9.924-.032 24.273-.111 34.193-.296" stroke="#1F2573" stroke-width="1.5" stroke-linecap="round" stroke-linejoin="round"/>
  <path clip-rule="evenodd" d="M463.84 124.034c4.189.845 5.136-4.645 3.37-7.279-.523-.78-1.362-1.405-2.302-1.439-4.125-.144-5.596 7.804-1.068 8.718Zm.331 19.034c6.46 1.258 6.383-12.771-.497-9.5-1.98.941-2.408 3.514-2.58 5.698-.153 1.921 1.334 3.462 3.077 3.802Zm-48.217-27.681c-2.296 0-4.387.297-6.652.423-.319 2.192-.045 4.579-.196 6.813-.177 2.629-.274 5.268-.424 7.899-.021.376-.297 2.606-.171 2.76.481.585 2.974.173 3.716.14 2.425-.111 4.956-.11 7.331-.197 2.139-.079 4.968.165 7.026-.197 2.83-.496 1.963-4.862 1.963-7.394 0-2.528.32-5.036.197-7.549-.036-.721.019-2.451-.528-2.865-.571-.429-3.128-.029-3.852-.029-2.823 0-5.583.196-8.41.196Z" stroke="#1F2573" stroke-width="1.5" stroke-linecap="round" stroke-linejoin="round"/>
  <path fill-rule="evenodd" clip-rule="evenodd" d="M344.32 112.052c.343-2.707.497-5.512.128-7.951-.766-5.07-2.239-10.014-2.806-15.117-.837-7.547-.2-14.58 2.193-21.921 1.387-4.258 7.58-10.903 10.812-4.226 1.163 2.402 1.216 6.425 1.831 9.09.736 3.181 1.668 5.052 3.487 7.665 3.411 4.899 4.303 10.422 3.113 16.12-1.087 5.205-.354 8.736 1.113 13.685 1.481 4.997 4.698 9.825 5.423 15.009.491 3.518.556 7.484-.053 11.006-1.275 7.367-6.066 13.672-13.982 14.376-5.757.512-10.379-2.697-13.444-7.295-3.098-4.651-2.216-10.856-1.128-16.003.702-3.327 1.948-6.477 2.57-9.825.269-1.44.539-3.009.743-4.613Z" fill="#1EDBCF"/>
  <path clip-rule="evenodd" d="M344.32 112.052c.343-2.707.497-5.512.128-7.951-.766-5.07-2.239-10.014-2.806-15.117-.837-7.547-.2-14.58 2.193-21.921 1.387-4.258 7.58-10.903 10.812-4.226 1.163 2.402 1.216 6.425 1.831 9.09.736 3.181 1.668 5.052 3.487 7.665 3.411 4.899 4.303 10.422 3.113 16.12-1.087 5.205-.354 8.736 1.113 13.685 1.481 4.997 4.698 9.825 5.423 15.009.491 3.518.556 7.484-.053 11.006-1.275 7.367-6.066 13.672-13.982 14.376-5.757.512-10.379-2.697-13.444-7.295-3.098-4.651-2.216-10.856-1.128-16.003.702-3.327 1.948-6.477 2.57-9.825.269-1.44.539-3.009.743-4.613Z" stroke="#1EDBCF" stroke-width="1.5" stroke-linecap="round" stroke-linejoin="round"/>
  <path d="M354.49 136.413c-4.385-8.824-.316-19.374-.693-28.473-.407-9.841-5.025-21.753-2.784-31.635" stroke="#fff" stroke-width="1.5" stroke-linecap="round" stroke-linejoin="round"/>
  <path d="M351.677 145.225c.338 6.715-3.858 23.537-4.248 25.721m9.73-26.591c-.356 4.339.689 22.501.949 26.644" stroke="#1F2573" stroke-width="1.5" stroke-linecap="round" stroke-linejoin="round"/>
  <path d="M672.865 76.182c-2.07 1.456-3.045 5.294-4.198 7.41-1.238 2.276-4 5.256-3.336 7.857.716 2.8 4.139 6.101 5.605 8.645 1.459 2.535 4.034 5.755 2.589 8.427-1.839 3.402-5.08 5.892-6.913 9.345-.485.914-1.554 2.677-1.301 3.723.096.391 1.285 1.411 1.603 1.798.582.709.993 1.539 1.486 2.271 1.984 2.944 3.467 5.946 5.2 8.985 1.262 2.209 1.804 2.258.135 4.415-1.372 1.772-2.64 3.539-4.145 5.217-1.252 1.394-3.563 3.42-4.003 5.235-.414 1.708 1.233 3.026 2.562 4.418 2.836 2.969 4.567 7.134 7.552 9.672l.035-.631" stroke="#9499D5" stroke-width="1.5" stroke-linecap="round" stroke-linejoin="round"/>
  <path d="M700.306 66.892c.146.008-3.361-1.689-5.092-2.517-3.355-1.604-19.966-9.58-25.191-11.588-2.485-.955-3.559-1.056-5.997-.219-1.552.534-3.109 1.197-4.719 1.554-3.489.775-42.143 11.002-50.824 13.622" stroke="#1EDBCF" stroke-width="1.5" stroke-linecap="round" stroke-linejoin="round"/>
  <path d="M676.299 168.049c0-5.865-.741-86.942-2.203-92.069m-10.867-.603c1.582 3.985.893 89.322 1.587 92.043" stroke="#1F2573" stroke-width="1.5" stroke-linecap="round" stroke-linejoin="round"/>
  <path clip-rule="evenodd" d="M649.035 73.81c-7.228-.292-14.53-.19-21.743-.831-4.991-.443-10.022-.614-15.056-.614-2.608 0-5.148-.115-7.709-.357-1.454-.137-1.845.14-2.404-1.2-.279-.67-.06-2.319.411-2.68.879-.677 5.863-.367 7.03-.387 3.614-.064 7.386.197 10.993.36 10.806.49 21.56.272 32.373.246 5.345-.012 10.689.13 16.034.247 2.902.063 5.801-.132 8.703-.104 2.594.026 4.877-.203 7.444.002.073 1.46.124 4.088 0 5.57-1.933.447-4.28.078-6.279.224-2.058.152-24.419-.261-29.797-.477Z" stroke="#1F2573" stroke-width="1.5" stroke-linecap="round" stroke-linejoin="round"/>
  <path d="M673.07 67.745c-1.635-3.729-3.065-10.523-5.875-15.556-1.174 5.457-2.506 10.898-3.147 15.958" stroke="#1F2573" stroke-width="1.5" stroke-linecap="round" stroke-linejoin="round"/>
  <path fill-rule="evenodd" clip-rule="evenodd" d="M706.732 72.577c.355 4.59.334 9.267.074 13.79-6.704.457-15.345.374-22.065.027-.664-2.421-1.294-17.756-.553-18.672.712-.875 5.57-.51 6.657-.51 5.107 0 10.225-.053 15.309.183.252 1.707.441 3.439.578 5.182Z" fill="#15459e"/>
  <path clip-rule="evenodd" d="M706.732 72.577c.355 4.59.334 9.267.074 13.79-6.704.457-15.345.374-22.065.027-.664-2.421-1.294-17.756-.553-18.672.712-.875 5.57-.51 6.657-.51 5.107 0 10.225-.053 15.309.183.252 1.707.441 3.439.578 5.182Z" stroke="#15459e" stroke-width="1.5" stroke-linecap="round" stroke-linejoin="round"/>
</svg>
