<?xml version="1.0" encoding="utf-8"?>
<svg width="31px" height="31px" viewbox="0 0 31 31" version="1.1" xmlns:xlink="http://www.w3.org/1999/xlink" xmlns="http://www.w3.org/2000/svg">
  <g id="Group-5-Copy-3" transform="translate(0.25 0.25)">
    <path d="M1.33433 1.32543L1.33447 18.191C1.5334 18.191 1.7306 18.183 1.927 18.1928C2.31327 18.2117 2.6022 18.4921 2.60007 18.8338C2.5978 19.176 2.30553 19.4637 1.92313 19.4746C1.51233 19.4865 1.10087 19.4866 0.690067 19.475C0.270067 19.4633 0.0355335 19.2286 0.00380013 18.8138C-0.00299987 18.7254 0.00140013 18.6361 0.00140013 18.5473C0.0012668 12.681 0.0012668 6.8149 0.00140013 0.948633C0.00140013 0.186767 0.186067 0.0001 0.940867 0.0001C10.2734 -3.33333e-05 19.6059 -3.33333e-05 28.9385 0.0001C29.6762 0.0001 29.8691 0.1917 29.8691 0.9241C29.8693 10.2678 29.8694 19.6114 29.8691 28.9553C29.8691 29.6688 29.671 29.8678 28.9606 29.8678C19.6058 29.8681 10.251 29.8681 0.8962 29.8678C0.205133 29.8677 0.00180013 29.6648 0.00153346 28.9748C0.000733465 27.397 0.000733465 25.8194 0.00153346 24.2418C0.00193346 23.5973 0.219533 23.373 0.853133 23.3668C1.19753 23.3634 1.54233 23.3569 1.8862 23.3712C2.297 23.388 2.59527 23.6678 2.5978 24.0144C2.60073 24.3922 2.3094 24.654 1.86567 24.6669C1.69073 24.6721 1.51567 24.6677 1.3222 24.6677L1.3222 28.5414L28.5459 28.5404L28.5349 1.33117L1.33433 1.32543Z" id="Fill-3" fill="#1E1E1E" fill-rule="evenodd" stroke="#1E1E1E" stroke-width="0.5" />
  </g>
</svg>