<?xml version="1.0" encoding="utf-8"?>
<svg width="31px" height="31px" viewbox="0 0 31 31" version="1.1" xmlns:xlink="http://www.w3.org/1999/xlink" xmlns="http://www.w3.org/2000/svg">
  <g id="Group-5-Copy-2" transform="translate(0.25 0.25)">
    <path d="M15.6022 14.3001L14.2505 14.3012L14.2563 12.9694L14.2563 1.32543L1.33433 1.32543L1.33447 18.191C1.5334 18.191 1.7306 18.183 1.927 18.1928C2.31327 18.2117 2.6022 18.4921 2.60007 18.8338C2.5978 19.176 2.30553 19.4637 1.92313 19.4746C1.51233 19.4865 1.10087 19.4866 0.690067 19.475C0.270067 19.4633 0.0355335 19.2286 0.00380013 18.8138C-0.00299987 18.7254 0.00140013 18.6361 0.00140013 18.5473C0.0012668 12.681 0.0012668 6.8149 0.00140013 0.948633C0.00140013 0.186767 0.186067 0.0001 0.940867 0.0001C10.2734 -3.33333e-05 19.6059 -3.33333e-05 28.9385 0.0001C29.6762 0.0001 29.8691 0.1917 29.8691 0.9241C29.8693 10.2678 29.8694 19.6114 29.8691 28.9553C29.8691 29.6688 29.671 29.8678 28.9606 29.8678C19.6058 29.8681 10.251 29.8681 0.8962 29.8678C0.205133 29.8677 0.00180013 29.6648 0.00153346 28.9748C0.000733465 27.397 0.000733465 25.8194 0.00153346 24.2418C0.00193346 23.5973 0.219533 23.373 0.853133 23.3668C1.19753 23.3634 1.54233 23.3569 1.8862 23.3712C2.297 23.388 2.59527 23.6678 2.5978 24.0144C2.60073 24.3922 2.3094 24.654 1.86567 24.6669C1.69073 24.6721 1.51567 24.6677 1.3222 24.6677L1.3222 28.5414L28.5459 28.5404L28.5459 14.3094L24.6718 14.3094C24.6718 14.503 24.6774 14.7085 24.6706 14.9134C24.6577 15.3013 24.3869 15.5836 24.0323 15.588C23.6773 15.5922 23.389 15.316 23.3843 14.9262C23.3739 14.0606 23.3737 13.1946 23.3853 12.329C23.3902 11.9574 23.6709 11.69 24.0146 11.6834C24.3702 11.6766 24.6541 11.9565 24.6702 12.3397C24.6785 12.5388 24.6717 12.7384 24.6717 12.964L28.5349 12.964L28.5349 1.33117L15.6121 1.33117L15.6121 12.9702L18.1878 12.9702C18.1878 12.7537 18.1803 12.5462 18.1893 12.3393C18.2059 11.9552 18.4893 11.6756 18.843 11.6833C19.1874 11.6906 19.4681 11.9621 19.4721 12.3294C19.4817 13.1958 19.4813 14.0624 19.4726 14.9288C19.469 15.3117 19.1765 15.593 18.8221 15.5874C18.4785 15.5821 18.2074 15.312 18.1897 14.9437C18.1797 14.7362 18.1879 14.5278 18.1879 14.3001L15.6022 14.3001Z" id="Fill-3" fill="#1E1E1E" fill-rule="evenodd" stroke="#1E1E1E" stroke-width="0.5" />
  </g>
</svg>