<?xml version="1.0" encoding="utf-8"?>
<svg width="31px" height="31px" viewbox="0 0 31 31" version="1.1" xmlns:xlink="http://www.w3.org/1999/xlink" xmlns="http://www.w3.org/2000/svg">
  <g id="Group-5" transform="translate(0.25 0.25)">
    <path d="M15.6022 14.3001L15.6022 18.1854C15.7958 18.1854 15.9794 18.1822 16.1627 18.1861C16.6157 18.1956 16.8845 18.4436 16.877 18.8404C16.8695 19.2276 16.6071 19.4712 16.1754 19.4734C15.3534 19.4781 14.5313 19.4781 13.7093 19.4736C13.2559 19.4712 12.9871 19.22 12.9934 18.8217C12.9995 18.4356 13.2615 18.1958 13.693 18.1861C13.8691 18.1822 14.0455 18.1854 14.2505 18.1854L14.2505 14.3012L11.6837 14.3012C11.6837 14.4822 11.6855 14.6556 11.6833 14.8288C11.677 15.2925 11.4163 15.5942 11.0298 15.5877C10.6531 15.5814 10.3969 15.2866 10.3951 14.8438C10.3918 14.0329 10.3911 13.222 10.3954 12.411C10.3977 11.9748 10.6679 11.679 11.0455 11.6832C11.4221 11.6873 11.6755 11.9805 11.6831 12.4242C11.6861 12.599 11.6835 12.774 11.6835 12.9694L14.2563 12.9694L14.2563 1.32543L1.33433 1.32543L1.33433 12.9626L5.1986 12.9626C5.1986 12.7658 5.19273 12.5601 5.1998 12.3548C5.21327 11.9672 5.48553 11.6857 5.84073 11.6829C6.19473 11.6801 6.48127 11.9577 6.48593 12.3473C6.49633 13.2018 6.4958 14.0566 6.48673 14.9112C6.48247 15.3064 6.20873 15.5824 5.853 15.5874C5.48673 15.5926 5.21047 15.3026 5.19927 14.895C5.19407 14.707 5.19833 14.5189 5.19833 14.3056L1.33447 14.3056L1.33447 18.191C1.5334 18.191 1.7306 18.183 1.927 18.1928C2.31327 18.2117 2.6022 18.4921 2.60007 18.8338C2.5978 19.176 2.30553 19.4637 1.92313 19.4746C1.51233 19.4865 1.10087 19.4866 0.690067 19.475C0.270067 19.4633 0.0355335 19.2286 0.00380013 18.8138C-0.00299987 18.7254 0.00140013 18.6361 0.00140013 18.5473C0.0012668 12.681 0.0012668 6.8149 0.00140013 0.948633C0.00140013 0.186767 0.186067 0.0001 0.940867 0.0001C10.2734 -3.33333e-05 19.6059 -3.33333e-05 28.9385 0.0001C29.6762 0.0001 29.8691 0.1917 29.8691 0.9241C29.8693 10.2678 29.8694 19.6114 29.8691 28.9553C29.8691 29.6688 29.671 29.8678 28.9606 29.8678C19.6058 29.8681 10.251 29.8681 0.8962 29.8678C0.205133 29.8677 0.00180013 29.6648 0.00153346 28.9748C0.000733465 27.397 0.000733465 25.8194 0.00153346 24.2418C0.00193346 23.5973 0.219533 23.373 0.853133 23.3668C1.19753 23.3634 1.54233 23.3569 1.8862 23.3712C2.297 23.388 2.59527 23.6678 2.5978 24.0144C2.60073 24.3922 2.3094 24.654 1.86567 24.6669C1.69073 24.6721 1.51567 24.6677 1.3222 24.6677L1.3222 28.5414L14.2514 28.5414L14.2514 24.6701C14.0362 24.6701 13.8277 24.6781 13.6198 24.6682C13.2481 24.6508 12.9946 24.3854 12.9935 24.0264C12.9923 23.666 13.2391 23.39 13.6161 23.3846C14.4927 23.3722 15.3698 23.3725 16.2465 23.384C16.6263 23.389 16.8742 23.6588 16.8767 24.0185C16.8793 24.3914 16.6186 24.6553 16.225 24.6694C16.0277 24.6765 15.8301 24.6706 15.6119 24.6706L15.6119 28.5404L28.5459 28.5404L28.5459 14.3094L24.6718 14.3094C24.6718 14.503 24.6774 14.7085 24.6706 14.9134C24.6577 15.3013 24.3869 15.5836 24.0323 15.588C23.6773 15.5922 23.389 15.316 23.3843 14.9262C23.3739 14.0606 23.3737 13.1946 23.3853 12.329C23.3902 11.9574 23.6709 11.69 24.0146 11.6834C24.3702 11.6766 24.6541 11.9565 24.6702 12.3397C24.6785 12.5388 24.6717 12.7384 24.6717 12.964L28.5349 12.964L28.5349 1.33117L15.6121 1.33117L15.6121 12.9702L18.1878 12.9702C18.1878 12.7537 18.1803 12.5462 18.1893 12.3393C18.2059 11.9552 18.4893 11.6756 18.843 11.6833C19.1874 11.6906 19.4681 11.9621 19.4721 12.3294C19.4817 13.1958 19.4813 14.0624 19.4726 14.9288C19.469 15.3117 19.1765 15.593 18.8221 15.5874C18.4785 15.5821 18.2074 15.312 18.1897 14.9437C18.1797 14.7362 18.1879 14.5278 18.1879 14.3001L15.6022 14.3001Z" id="Fill-3" fill="#1E1E1E" fill-rule="evenodd" stroke="#1E1E1E" stroke-width="0.5" />
  </g>
</svg>