<?xml version="1.0" encoding="utf-8"?>
<svg width="40px" height="40px" viewbox="0 0 40 40" version="1.1" xmlns:xlink="http://www.w3.org/1999/xlink" xmlns="http://www.w3.org/2000/svg">
  <g id="Group-12">
    <path d="M35.3929 3.49707C34.903 3.06765 34.379 2.67062 33.9308 2.2012C33.2765 1.51525 33.2848 0.998227 33.8679 0.406822C34.4154 -0.148219 35.0236 -0.146566 35.6762 0.481202C36.9056 1.66434 38.1179 2.865 39.3182 4.07757C39.8392 4.60385 39.8141 5.39889 39.2808 5.93145C38.1129 7.09872 36.938 8.25905 35.7516 9.40715C35.0977 10.0399 34.462 10.0872 33.9179 9.58963C33.3645 9.08385 33.3698 8.34203 33.9952 7.69145C34.4051 7.26533 34.8871 6.90831 35.3364 6.52021L35.1592 6.28649L11.7747 6.28649C12.3162 6.84451 12.7579 7.2769 13.1734 7.7331C13.7744 8.39327 13.7916 8.98732 13.2547 9.56153C12.7506 10.1007 12.0901 10.0991 11.4359 9.47195C10.2048 8.29079 8.9929 7.08881 7.80083 5.86798C7.24844 5.30203 7.27852 4.58897 7.83918 4.02732C9.00645 2.85938 10.1827 1.70005 11.3711 0.55393C12.0385 -0.0893762 12.6623 -0.135988 13.1899 0.366492C13.7671 0.915582 13.7337 1.63095 13.0858 2.32616C12.6931 2.74732 12.2855 3.15393 11.8868 3.56914C11.8722 3.58434 11.8802 3.62071 11.8712 3.70963L35.1896 3.70963L35.3929 3.49707ZM7.90391 33.8513C7.39217 34.3042 6.89862 34.778 6.26986 35.3608L6.26986 11.9085C6.34126 11.8616 6.41267 11.8143 6.48374 11.7674C6.95746 12.2993 7.39151 12.8745 7.91449 13.3518C8.53366 13.9171 9.29333 13.739 9.7254 13.0229C10.1376 12.3386 9.84374 11.8196 9.36176 11.335C8.19713 10.1637 7.03647 8.98788 5.8649 7.82391C5.33928 7.30127 4.67482 7.29135 4.10325 7.84243C2.89432 9.00838 1.6973 10.1879 0.52804 11.3932C-0.161546 12.1039 -0.160555 12.7885 0.442421 13.3419C1.00473 13.8586 1.59383 13.7803 2.31482 13.0844C2.74953 12.6649 3.17664 12.2371 3.70854 11.7132L3.70854 35.2722C3.59945 35.2517 3.53267 35.2596 3.50093 35.2299C3.07713 34.8368 2.66259 34.4335 2.2368 34.0424C1.49829 33.3634 0.944239 33.329 0.39085 33.9175C-0.148654 34.4907 -0.104687 35.1145 0.567049 35.8028C1.70126 36.9657 2.84573 38.1191 4.00044 39.2619C4.54226 39.7981 5.26556 39.8732 5.77796 39.376C7.08209 38.1109 8.36143 36.8186 9.61002 35.499C10.0983 34.9826 10.0302 34.3942 9.51118 33.8851C8.98556 33.3697 8.4411 33.3756 7.90391 33.8513ZM26.0757 12.4233C27.0474 12.4233 28.0192 12.4227 28.9909 12.4222L28.9918 12.4222C31.242 12.4209 33.4924 12.4195 35.7428 12.4253C38.0112 12.4309 39.638 13.9668 39.6486 16.2313C39.6783 22.7863 39.6753 29.3413 39.6499 35.8964C39.641 38.0904 38.002 39.662 35.7897 39.666C29.2899 39.6775 22.7901 39.6785 16.2902 39.6656C14.0115 39.6617 12.431 38.0822 12.4271 35.8207C12.4168 29.3208 12.4158 22.8207 12.4268 16.3208C12.431 14.0151 14.0281 12.4313 16.3256 12.4253C18.5907 12.4193 20.8557 12.4207 23.121 12.4221C24.1059 12.4227 25.0907 12.4233 26.0757 12.4233ZM26.0353 37.1893C26.9926 37.1893 27.9499 37.1894 28.9071 37.1895C31.0614 37.1898 33.2157 37.1901 35.3699 37.1889C36.8674 37.1883 37.2291 36.8432 37.2307 35.3446C37.2373 29.1215 37.237 22.8987 37.231 16.6752C37.2297 15.3182 36.7871 14.8782 35.4562 14.8775C29.1782 14.8746 22.9001 14.8749 16.6218 14.8775C15.3153 14.8779 14.8697 15.3142 14.8691 16.5922C14.8664 22.898 14.8661 29.2038 14.8691 35.5093C14.8697 36.8088 15.2453 37.1856 16.5358 37.1876C18.7098 37.1906 20.884 37.1901 23.0582 37.1896L23.0654 37.1896C24.0554 37.1894 25.0454 37.1892 26.0353 37.1893Z" id="Combined-Shape" fill="#1E1E1E" fill-rule="evenodd" stroke="none" />
  </g>
</svg>