<svg width="32" height="32" viewBox="0 0 32 32" fill="none" xmlns="http://www.w3.org/2000/svg">
<path d="M10.5995 30.1572L10.5993 30.1573L7.39021 30.9794L7.39919 30.4795C7.39906 30.4795 7.39892 30.4795 7.39879 30.4795C6.65046 30.466 6.10783 30.3006 5.71245 30.0578C5.3192 29.8163 5.04174 29.48 4.85059 29.0741C4.51636 28.3645 4.45124 27.4511 4.53038 26.5404C5.25534 26.5916 5.98091 26.5931 6.69399 26.5842C6.90183 26.5817 7.10802 26.5782 7.31289 26.5748C7.97921 26.5637 8.6317 26.5529 9.28255 26.5724L9.28328 26.5724C9.98331 26.5924 10.6833 26.6053 11.3823 26.6131C11.3927 26.7198 11.404 26.8277 11.4152 26.9348C11.4285 27.0626 11.4418 27.1894 11.4533 27.3118C11.4907 27.7084 11.5141 28.0937 11.4905 28.4584C11.4441 29.1749 11.2232 29.7578 10.5995 30.1572Z" fill="#1F2573" stroke="#1F2573"/>
<path d="M26.7152 30.1748L26.715 30.1749L23.9767 30.4795C23.9766 30.4795 23.9765 30.4795 23.9765 30.4795C23.3424 30.4664 22.888 30.3071 22.5567 30.0746C22.2241 29.8412 21.9809 29.5097 21.8108 29.0967C21.5152 28.3794 21.4575 27.459 21.526 26.5455C22.1424 26.5918 22.7574 26.5928 23.3589 26.5842C23.5421 26.5816 23.7234 26.5782 23.9031 26.5748C24.4855 26.5637 25.0521 26.5529 25.6182 26.5723L25.6191 26.5724C26.2122 26.5917 26.8051 26.6044 27.3972 26.6123C27.4061 26.7163 27.4157 26.8215 27.4253 26.9263C27.437 27.0545 27.4487 27.1821 27.4589 27.306C27.4917 27.7035 27.5125 28.0927 27.4916 28.4624C27.4497 29.201 27.2471 29.7855 26.7152 30.1748Z" fill="#1F2573" stroke="#1F2573"/>
<path fill-rule="evenodd" clip-rule="evenodd" d="M6.39087 15.3529C5.9069 16.1462 6.01514 18.7408 6.00376 20.0292C5.99032 21.6147 5.98239 22.151 6.55013 22.4033C7.38951 22.7746 15.7309 22.6284 16.5851 22.5294C18.0146 22.3644 19.4734 22.5577 20.9112 22.5577C23.4435 22.5577 25.9727 22.7993 28.5035 22.7993C29.174 22.7993 29.9958 23.2508 30.6546 22.7993C30.9469 22.5989 30.9272 22.7876 30.9769 21.6654C31.0358 20.3416 30.9617 18.8976 30.9769 17.6186C30.9951 16.1345 31.0375 15.4743 30.5343 15.3706C29.6111 13.5825 29.5108 12.0468 28.2222 12.0138C26.0805 11.9584 22.725 12.0947 20.5833 12.0417C19.1121 12.0052 10.2497 11.9956 8.77778 12.0192C8.24141 12.0274 6.8945 14.5289 6.39087 15.3529Z" fill="#1EDBCF"/>
<path fill-rule="evenodd" clip-rule="evenodd" d="M13.8182 4.72726C13.559 5.48175 13.0063 8.15927 13.0002 9.38462C12.993 10.8925 13.1904 11.8092 13.9036 11.4325C14.3532 11.7856 18.8212 11.6466 19.2787 11.5525C20.0444 11.3955 20.8259 11.5793 21.596 11.5793C22.9524 11.5793 24.3071 11.8092 25.6628 11.8092C26.0219 11.8092 26.4621 12.2385 26.815 11.8092C26.9715 11.6186 26.961 11.798 26.9876 10.7307C27.0192 9.47171 26.9795 8.09838 26.9876 6.88201C26.9974 5.47056 27.0201 4.84273 26.7505 4.74408C26.256 3.0435 24.9359 2.01972 23.7692 1.54447C23.7692 1.54447 22.2241 1.07215 21.0769 1.0217C20.2889 0.986944 15.9423 0.999234 15.1538 1.02166C13.5385 1.0217 14.088 3.94362 13.8182 4.72726Z" fill="#1EDBCF"/>
<path fill-rule="evenodd" clip-rule="evenodd" d="M8.54174 18.8507C7.84347 19.086 7.09439 19.0821 6.58622 18.5536C5.93067 17.8721 5.85016 16.9532 6.21922 16.1319C6.57447 15.341 7.64004 14.8441 8.63559 15.0444C9.58143 15.2349 10.0329 16.1674 9.99813 16.9124C9.95558 17.8272 9.51283 18.5234 8.54174 18.8507Z" stroke="#1F2573" stroke-linecap="round" stroke-linejoin="round"/>
<path fill-rule="evenodd" clip-rule="evenodd" d="M8.54174 18.8507C7.84347 19.086 7.09439 19.0821 6.58622 18.5536C5.93067 17.8721 5.85016 16.9532 6.21922 16.1319C6.57447 15.341 7.64004 14.8441 8.63559 15.0444C9.58143 15.2349 10.0329 16.1674 9.99813 16.9124C9.95558 17.8272 9.51283 18.5234 8.54174 18.8507Z" fill="#979CD8" stroke="#1F2573" stroke-linecap="round" stroke-linejoin="round"/>
<path fill-rule="evenodd" clip-rule="evenodd" d="M23.5417 19.8134C22.8435 20.1075 22.0944 20.1027 21.5862 19.442C20.9307 18.5902 20.8502 17.4416 21.2192 16.4148C21.5745 15.4263 22.64 14.8051 23.6356 15.0556C24.5814 15.2936 25.0329 16.4592 24.9981 17.3905C24.9556 18.534 24.5128 19.4042 23.5417 19.8134Z" fill="#979CD8"/>
<path fill-rule="evenodd" clip-rule="evenodd" d="M23.5417 18.8507C22.8435 19.086 22.0944 19.0821 21.5862 18.5536C20.9307 17.8721 20.8502 16.9532 21.2192 16.1319C21.5745 15.341 22.64 14.8441 23.6356 15.0444C24.5814 15.2349 25.0329 16.1674 24.9981 16.9124C24.9556 17.8272 24.5128 18.5234 23.5417 18.8507Z" stroke="#1F2573" stroke-linecap="round" stroke-linejoin="round"/>
<path fill-rule="evenodd" clip-rule="evenodd" d="M1.46905 23.1585C0.888279 23.4533 1.01817 24.4174 1.00452 24.8961C0.988384 25.4852 0.978869 25.6845 1.66016 25.7783C2.66741 25.9162 12.6771 25.8619 13.7021 25.8251C15.4175 25.7638 17.1681 25.8356 18.8935 25.8356C21.9322 25.8356 24.9672 25.9254 28.0043 25.9254C28.8088 25.9254 29.795 26.0932 30.5855 25.9254C30.9362 25.851 30.9127 25.9211 30.9722 25.5041C31.043 25.0122 30.954 24.4756 30.9722 24.0004C30.9942 23.4489 31.045 23.2036 30.4411 23.1651C28.9035 23.0674 27.347 23.187 25.8007 23.1747C23.2307 23.1541 20.661 23.1187 18.091 23.099C16.3255 23.0854 14.5596 23.0727 12.7933 23.0814C12.1496 23.0845 2.0734 22.8523 1.46905 23.1585Z" stroke="#1F2573" stroke-width="1.2" stroke-linecap="round" stroke-linejoin="round"/>
<path fill-rule="evenodd" clip-rule="evenodd" d="M3.40651 15.789C3 17.9361 3.01574 19.1768 3.00391 20.4653C2.98993 22.0507 2.98168 22.5871 3.57214 22.8393C4.44509 23.2107 13.1201 23.0645 14.0085 22.9655C15.4952 22.8005 17.0124 22.9938 18.5077 22.9938C21.1412 22.9938 23.7716 23.2354 26.4037 23.2354C27.101 23.2354 27.9556 23.6869 28.6407 23.2354C28.9447 23.035 28.9243 23.2236 28.9759 22.1014C29.0372 20.7776 28.9602 19.3336 28.9759 18.0546C28.9813 17.6236 29 16.9361 28.5156 15.8067C27.5556 14.0185 27.4512 12.4829 26.1111 12.4499C23.8837 12.3945 20.394 12.5308 18.1667 12.4778C16.6366 12.4412 8 11.436 5.88889 12.4552C4.5 12.936 3.5 14.9361 3.40651 15.789Z" stroke="#1F2573" stroke-width="1.2" stroke-linecap="round" stroke-linejoin="round"/>
<path d="M5.5 12C6.36607 11 6.35531 10.4322 6.36607 9.11646C6.36607 8.30525 6.14286 7.01265 6.85714 5.8716C7.57143 4.73055 9.63492 3.04398 11.1429 3.01892C12.3204 2.99936 14.9659 2.9886 16.1428 3.01892C17.8562 3.06294 18.7152 2.97294 20.4286 3.01892C22.1419 3.0649 24.7143 4.73055 25.4286 6.44213C25.7286 7.16097 25.8821 7.88485 25.8674 9.11646C25.8553 10.1779 25.5 11 26.5 12" stroke="#1F2573" stroke-width="1.2" stroke-linecap="round" stroke-linejoin="round"/>
<path fill-rule="evenodd" clip-rule="evenodd" d="M3.79971 9.72071C4.14792 10.2859 4.02951 11.1853 3.54225 11.713C3.02345 12.2755 2.17084 11.8994 1.55972 11.5347C0.674789 11.0068 0.899528 9.6898 1.81095 9.20024C2.57748 8.7887 3.37789 9.03553 3.79971 9.72071Z" fill="#1F2573" stroke="#1F2573" stroke-linecap="round" stroke-linejoin="round"/>
<path fill-rule="evenodd" clip-rule="evenodd" d="M28.2003 11.2793C27.8521 10.7141 27.9705 9.81474 28.4577 9.28703C28.9766 8.72454 29.8292 9.10058 30.4403 9.46527C31.3252 9.99322 31.1005 11.3102 30.1891 11.7998C29.4225 12.2113 28.6221 11.9645 28.2003 11.2793Z" fill="#1F2573" stroke="#1F2573" stroke-linecap="round" stroke-linejoin="round"/>
<path d="M14.5 7.5C13.8095 8.88165 12.786 9.99645 13.4653 11.765" stroke="#1F2573" stroke-linecap="round" stroke-linejoin="round"/>
<path d="M18 7.5C17.3095 8.88165 16.1087 9.9965 16.788 11.7651" stroke="#1F2573" stroke-linecap="round" stroke-linejoin="round"/>
<path d="M18 17C16.32 17 15.5 16.5 12.5 17" stroke="#1F2573" stroke-linecap="round" stroke-linejoin="round"/>
<path d="M17 19C15.6667 19 15 18.5 13 19" stroke="#1F2573" stroke-linecap="round" stroke-linejoin="round"/>
</svg>
