<?xml version="1.0" encoding="utf-8"?>
<svg width="40px" height="40px" viewbox="0 0 40 40" version="1.1" xmlns:xlink="http://www.w3.org/1999/xlink" xmlns="http://www.w3.org/2000/svg">
  <g id="Group-30">
    <path d="M35.8118 37.1978C35.4457 37.1984 35.0716 37.199 34.6861 37.199L34.6861 36.447C34.6862 34.8708 34.6863 33.2946 34.6864 31.7185C34.6869 23.3263 34.6874 14.934 34.6805 6.54184C34.6802 6.19672 34.6521 5.81424 34.5059 5.51242C33.7882 4.02779 33.0124 2.57126 32.2851 1.09093C31.9162 0.34085 31.3747 -0.00229092 30.5225 2.31305e-05C23.3902 0.0162215 16.2583 0.0162215 9.1261 2.31305e-05C8.27718 -0.00196034 7.72941 0.327626 7.36015 1.08267C6.63486 2.56432 5.86296 4.02283 5.13569 5.50349C5.00974 5.76002 4.95784 6.07804 4.95751 6.36763C4.9515 14.9644 4.95341 23.5607 4.95532 32.1573L4.95532 32.1594C4.95562 33.5031 4.95592 34.8467 4.95618 36.1904L4.95618 37.1994C4.56745 37.1994 4.18985 37.1986 3.8199 37.1978L3.81902 37.1978C3.01081 37.1961 2.23912 37.1945 1.46759 37.2013C0.551557 37.2096 0.007425 37.6681 0.000152275 38.4106C-0.00745103 39.1524 0.549243 39.6529 1.43519 39.6532C13.6891 39.6572 25.9426 39.6575 38.1965 39.6529C39.0997 39.6526 39.6454 39.1663 39.6418 38.4208C39.6378 37.681 39.0835 37.2083 38.1836 37.201C37.4068 37.1951 36.6299 37.1964 35.8137 37.1978L35.8118 37.1978ZM31.4068 4.86647L8.23057 4.86647C8.60511 4.12035 8.88875 3.46316 9.2623 2.86184C9.38858 2.65887 9.74197 2.48829 9.99222 2.4873C16.5446 2.46713 23.0967 2.46713 29.6487 2.4873C29.8993 2.48796 30.2537 2.6582 30.3793 2.86118C30.7519 3.46283 31.0345 4.12068 31.4068 4.86647ZM7.46296 7.52333L32.2038 7.52333L32.2038 37.1359L24.7516 37.1359C24.7516 36.905 24.7521 36.6724 24.7526 36.4386L24.7526 36.4369C24.7537 35.9222 24.7549 35.4018 24.7506 34.8813C24.7317 32.5911 23.4481 30.7412 21.4147 30.0658C19.3063 29.3656 17.2395 30.0129 15.8299 31.8278C15.0848 32.7868 14.8914 33.9194 14.861 35.0923C14.8492 35.5422 14.852 35.9927 14.8549 36.4648C14.8563 36.682 14.8577 36.9037 14.8577 37.1319L7.46296 37.1319L7.46296 7.52333ZM27.2715 13.034C28.246 13.0112 29.1075 12.1309 29.1029 11.1626C29.0982 10.1874 28.2291 9.28723 27.2827 9.27632C26.2933 9.26541 25.3987 10.1838 25.4139 11.1947C25.4282 12.1629 26.33 13.0562 27.2715 13.034ZM21.6629 11.1369C21.6808 12.1112 20.8424 12.9928 19.8593 13.0338C18.9247 13.0731 18.0054 12.1865 17.978 11.2206C17.9495 10.2027 18.8186 9.28472 19.819 9.27678C20.7624 9.26885 21.6451 10.1591 21.6629 11.1369ZM12.4678 9.27864C11.4784 9.23599 10.5544 10.1252 10.5375 11.1358C10.5213 12.1074 11.3842 13.0171 12.3382 13.034C13.3061 13.0512 14.2023 12.1877 14.2228 11.2185C14.2437 10.2271 13.4225 9.31963 12.4678 9.27864ZM14.2273 18.6426C14.2088 19.6132 13.3212 20.4793 12.3529 20.472C11.4012 20.4651 10.5268 19.559 10.5354 18.5884C10.5437 17.5841 11.4746 16.6747 12.4538 16.7143C13.4118 16.753 14.2462 17.6598 14.2273 18.6426ZM29.1061 18.5864C29.116 19.557 28.2635 20.4393 27.2853 20.4721C26.3464 20.5031 25.435 19.6126 25.4149 18.6446C25.3937 17.6284 26.2734 16.7147 27.2734 16.714C28.2162 16.7134 29.0962 17.6126 29.1061 18.5864ZM19.8327 20.4722C20.8079 20.4497 21.6714 19.5697 21.669 18.6011C21.6667 17.6289 20.794 16.7234 19.8499 16.7142C18.8578 16.7043 17.9619 17.62 17.9755 18.6299C17.9887 19.5995 18.8899 20.4937 19.8327 20.4722ZM27.2433 27.91C28.2156 27.9074 29.0929 27.038 29.1045 26.0664C29.1164 25.0879 28.2684 24.1808 27.3154 24.152C26.3359 24.1226 25.4123 25.039 25.4113 26.0409C25.4103 27.0105 26.2942 27.9127 27.2433 27.91ZM19.8097 27.9096C20.7869 27.8924 21.6569 27.024 21.6639 26.0587C21.6712 25.0792 20.8209 24.1754 19.8698 24.1519C18.886 24.1278 17.9713 25.0425 17.9736 26.0478C17.9763 27.0187 18.8712 27.9258 19.8097 27.9096ZM10.5363 26.0538C10.5303 25.0488 11.441 24.1325 12.4258 24.152C13.3746 24.1712 14.2311 25.075 14.2265 26.0528C14.2222 27.0184 13.3564 27.8879 12.3776 27.9093C11.4404 27.9302 10.5422 27.025 10.5363 26.0538ZM22.3096 36.4413C22.3096 36.6546 22.2848 36.8685 22.2676 37.1379L17.4322 37.1379C17.4322 36.8106 17.4216 36.4848 17.4111 36.1611C17.3875 35.4332 17.3641 34.7161 17.4623 34.0162C17.6154 32.9237 18.8689 32.1432 20.0117 32.2291C21.1602 32.3161 22.1678 33.2301 22.2845 34.3769C22.3346 34.8694 22.3256 35.3681 22.3166 35.8666C22.3131 36.0583 22.3097 36.25 22.3096 36.4413Z" id="Combined-Shape" fill="#1E1E1E" fill-rule="evenodd" stroke="none" />
  </g>
</svg>