<svg width="1759" height="125" fill="none" xmlns="http://www.w3.org/2000/svg"><g opacity=".2"><path fill-rule="evenodd" clip-rule="evenodd" d="M399 113.3l.5-16.4-.1-.7c-.1-.3-.4-.4-.6-.5-1.4-.6-3.8-.5-5.4-.5-2.2.1-2.7 1-2.9 3-.3 4.5-.7 9.6-.6 14.9" fill="#979CD8"/><path d="M399 113.3l.5-16.4-.1-.7c-.1-.3-.4-.4-.6-.5-1.4-.6-3.8-.5-5.4-.5-2.2.1-2.7 1-2.9 3-.3 4.5-.7 9.6-.6 14.9" stroke="#979CD8" stroke-width="1.5" stroke-linecap="round" stroke-linejoin="round"/><path fill-rule="evenodd" clip-rule="evenodd" d="M381.8 69.9l.5.5c1 .6 3.5.2 4.7.2l6.1.2c4 0 7.9.2 11.8.3l12.3.3c3 .1 11-1.2 11-1.9-.1-.7-.4-1.4-.7-2l-3-6.3c-1.6-3.3-3-7.9-6.1-10a11 11 0 00-4.7-1.5c-5.2-.7-12.6-.3-15.1.3-3.3.8-6 5.3-8.3 7.9-2.6 3-5.1 6-7.6 9.2-.4.5-.8 1-1 1.6l.1 1.2z" fill="#979CD8"/><path clip-rule="evenodd" d="M381.8 69.9l.5.5c1 .6 3.5.2 4.7.2l6.1.2c4 0 7.9.2 11.8.3l12.3.3c3 .1 11-1.2 11-1.9-.1-.7-.4-1.4-.7-2l-3-6.3c-1.6-3.3-3-7.9-6.1-10a11 11 0 00-4.7-1.5c-5.2-.7-12.6-.3-15.1.3-3.3.8-6 5.3-8.3 7.9-2.6 3-5.1 6-7.6 9.2-.4.5-.8 1-1 1.6l.1 1.2z" stroke="#979CD8" stroke-width="1.5" stroke-linecap="round" stroke-linejoin="round"/><path clip-rule="evenodd" d="M383.2 113.1s-.8-10.3-.7-15l.3-28.5s26 0 26.2 1.1c.4 3.7.6 41.8-.1 42.6-.7.8-25.7-.2-25.7-.2z" stroke="#F4F4FB" stroke-width="1.5" stroke-linecap="round" stroke-linejoin="round"/><path d="M382.8 69.5a247.6 247.6 0 0115.6-19c1.3 1.5 9.6 17 10.9 20.2 6.4 0 12.4 0 19-.2" stroke="#F4F4FB" stroke-width="1.5" stroke-linecap="round" stroke-linejoin="round"/><path d="M398.2 50.4c2.2-.2 19-.4 20.3.9.9.8 1.4 1.8 2 2.8 2.5 5.1 5 10.3 7.7 15.3 1.5 2.8 2.8 43.6 1.3 43.8-3.6.4-20.6.3-20.6.3" stroke="#F4F4FB" stroke-width="1.5" stroke-linecap="round" stroke-linejoin="round"/><path clip-rule="evenodd" d="M390.6 88.8c6.4 3.8 12.7-5.7 8.8-11-2.5-3.4-8-3.1-10.7 0-2.6 3-1.5 9 1.9 11zM419 81.8c2.7.6 3.3-3 2.2-4.8-.4-.5-1-1-1.5-1-2.7 0-3.7 5.2-.7 5.8zM419.2 94.4c4.2.8 4.1-8.4-.4-6.3-1.2.6-1.5 2.3-1.6 3.8-.1 1.3.8 2.3 2 2.5z" stroke="#F4F4FB" stroke-width="1.5" stroke-linecap="round" stroke-linejoin="round"/><path d="M435.6 96c.2 4.7-2.6 16.4-3 17.9M439.3 95.5c-.3 3 .5 15.6.6 18.4" stroke="#F4F4FB" stroke-width="1.5" stroke-linecap="round" stroke-linejoin="round"/><path fill-rule="evenodd" clip-rule="evenodd" d="M431 73.2c.5-7-3.5-13.7-1.8-20.5.8-3.4.3-6.5 2.2-9.6.4-.9 1.4-4.2 2.5-4.3 1.9-.2 3.2 4 3.6 4.9.7 1.5 1 3.3 2 4.8 1.1 1.6 2.9 2.8 3.6 4.6 2.1 5-.9 9.1-.1 14 .8 5.4 4 10.4 5 15.7 1.2 7.3-5.7 16-16.2 12-8.9-3.6-1.2-16.7-.8-21.6z" fill="#979CD8"/><path clip-rule="evenodd" d="M431 73.2c.5-7-3.5-13.7-1.8-20.5.8-3.4.3-6.5 2.2-9.6.4-.9 1.4-4.2 2.5-4.3 1.9-.2 3.2 4 3.6 4.9.7 1.5 1 3.3 2 4.8 1.1 1.6 2.9 2.8 3.6 4.6 2.1 5-.9 9.1-.1 14 .8 5.4 4 10.4 5 15.7 1.2 7.3-5.7 16-16.2 12-8.9-3.6-1.2-16.7-.8-21.6z" stroke="#979CD8" stroke-width="1.5" stroke-linecap="round" stroke-linejoin="round"/><path d="M437.5 90c-3-6.1-.2-13.4-.5-19.7-.3-6.9-3.4-15.1-1.9-22" stroke="#fff" stroke-width="1.5" stroke-linecap="round" stroke-linejoin="round"/><path fill-rule="evenodd" clip-rule="evenodd" d="M32.8 113.4l-.2-3.7c-.1-1.3 0-2.6.1-4 .2-3 1.1-6.4 3.4-8.8 2.5-2.6 5.8-4.5 9.4-3.5 4.2 1.2 4.6 4.6 5.1 8.2.3 1.8.1 3.6.2 5.4v6M64.4 48l-10.1-.2c-4.3 0-8.6.3-12.8.3-6.6 0-18 1-19.6 1.3a63 63 0 00-12 12.2c-.2.6 3 .3 5.5.3h28.9c4.8 0 9-.4 13.8-.4 2.1 0 14 .6 14.8-.5.7-.8-1.2-2.3-1.7-3.4-1-1.9-2-3.2-3.4-4.9-1.4-1.8-2-3.5-3.4-4.6z" fill="#979CD8"/><path clip-rule="evenodd" d="M64.4 48l-10.1-.2c-4.3 0-8.6.3-12.8.3-6.6 0-18 1-19.6 1.3a63 63 0 00-12 12.2c-.2.6 3 .3 5.5.3h28.9c4.8 0 9-.4 13.8-.4 2.1 0 14 .6 14.8-.5.7-.8-1.2-2.3-1.7-3.4-1-1.9-2-3.2-3.4-4.9-1.4-1.8-2-3.5-3.4-4.6z" stroke="#979CD8" stroke-width="1.5"/><path fill-rule="evenodd" clip-rule="evenodd" d="M49.7 78c0-.6 0-1.3-.3-2h-.1l-.3-.1c-2 0-14.3 0-14.6.5-.2.3-.2.5-.2.8l.2 3.3c0 .2 0 .4.3.5h.4l13.8-.1.5-.1.2-.3V78z" fill="#F4F4FB"/><path fill-rule="evenodd" clip-rule="evenodd" d="M49.7 78c0-.6 0-1.3-.3-2h-.1l-.3-.1c-2 0-14.3 0-14.6.5-.2.3-.2.5-.2.8l.2 3.3c0 .2 0 .4.3.5h.4l13.8-.1.5-.1.2-.3V78z" fill="#979CD8"/><path fill-rule="evenodd" clip-rule="evenodd" d="M15.6 81v-.1c-.2-.3-.1-1-.1-1.3v-2.5c0-.2 0-.5.2-.7.2-.4 1.2-.3 1.6-.3h12.5c.7 0 .4.9.4 1.4v3c-.1.4-.5.6-1 .5H15.7z" fill="#F4F4FB"/><path fill-rule="evenodd" clip-rule="evenodd" d="M15.6 81v-.1c-.2-.3-.1-1-.1-1.3v-2.5c0-.2 0-.5.2-.7.2-.4 1.2-.3 1.6-.3h12.5c.7 0 .4.9.4 1.4v3c-.1.4-.5.6-1 .5H15.7z" fill="#979CD8"/><path fill-rule="evenodd" clip-rule="evenodd" d="M30.4 84.6c.2.3.1 1 .1 1.3l-.1 2.5-.1.6c-.2.5-1.2.4-1.6.4H16.5c-.7 0-.4-1-.4-1.3 0-1-.1-2.2.1-3.2v-.2l.3-.1c1-.2 13.7-.2 13.9 0z" fill="#F4F4FB"/><path fill-rule="evenodd" clip-rule="evenodd" d="M30.4 84.6c.2.3.1 1 .1 1.3l-.1 2.5-.1.6c-.2.5-1.2.4-1.6.4H16.5c-.7 0-.4-1-.4-1.3 0-1-.1-2.2.1-3.2v-.2l.3-.1c1-.2 13.7-.2 13.9 0z" fill="#979CD8"/><path fill-rule="evenodd" clip-rule="evenodd" d="M35 89v-.2c-.4-1.4-.3-2.6-.2-4v-.1h.1a174.3 174.3 0 0114.4-.1l.1.4c.2.8.2 3.6 0 4-.2.2-.6.2-.9.2H35.1V89z" fill="#F4F4FB"/><path fill-rule="evenodd" clip-rule="evenodd" d="M35 89v-.2c-.4-1.4-.3-2.6-.2-4v-.1h.1a174.3 174.3 0 0114.4-.1l.1.4c.2.8.2 3.6 0 4-.2.2-.6.2-.9.2H35.1V89zM16.9 106.4c-.2-.3-.1-1-.1-1.3V94.6l.2-.6c.2-.5 1-.4 1.2-.4l9.6-.1c.5 0 .3 1 .3 1.4v11c-.1.5-.4.6-.7.6l-10.5-.1z" fill="#979CD8"/><path fill-rule="evenodd" clip-rule="evenodd" d="M66.9 75.9v.2c.4 1.4.3 2.6.2 4v.1H67a148.8 148.8 0 01-13.3.1l-.2-.4c-.1-.8-.1-3.6.1-4 .2-.2.5-.2.8-.2h12.4v.2z" fill="#F4F4FB"/><path fill-rule="evenodd" clip-rule="evenodd" d="M66.9 75.9v.2c.4 1.4.3 2.6.2 4v.1H67a148.8 148.8 0 01-13.3.1l-.2-.4c-.1-.8-.1-3.6.1-4 .2-.2.5-.2.8-.2h12.4v.2z" fill="#979CD8"/><path fill-rule="evenodd" clip-rule="evenodd" d="M65.5 93.4a61 61 0 010 12.2l-.6.2a98.3 98.3 0 01-9.9-.3l-.1-.5a190.5 190.5 0 01.1-11.8l.3-.1c.5 0 10.1-.1 10.2.3z" fill="#F4F4FB"/><path fill-rule="evenodd" clip-rule="evenodd" d="M65.5 93.4a61 61 0 010 12.2l-.6.2a98.3 98.3 0 01-9.9-.3l-.1-.5a190.5 190.5 0 01.1-11.8l.3-.1c.5 0 10.1-.1 10.2.3z" fill="#979CD8"/><path fill-rule="evenodd" clip-rule="evenodd" d="M67.3 86c0-.7.1-1.4-.2-2l-.2-.2h-.3c-2 0-13.1 0-13.5.5-.2.3-.1.5-.1.8l.1 3.3c0 .2 0 .4.3.5h.4l12.8-.1.5-.1.1-.3c.2-.8.2-1.6.1-2.4z" fill="#F4F4FB"/><path fill-rule="evenodd" clip-rule="evenodd" d="M67.3 86c0-.7.1-1.4-.2-2l-.2-.2h-.3c-2 0-13.1 0-13.5.5-.2.3-.1.5-.1.8l.1 3.3c0 .2 0 .4.3.5h.4l12.8-.1.5-.1.1-.3c.2-.8.2-1.6.1-2.4z" fill="#979CD8"/><path clip-rule="evenodd" d="M10 112.1c0 .8.6 1.4 1.4 1.5 1.7.1 59.8-.3 60.9-.9 2.3-1 1.5-51.3.8-52.4-2.8.5-5.6.2-8.4.3-5.3.1-54.5.8-54.6.7-.1 2 0 42.8-.2 50.8z" stroke="#F4F4FB" stroke-width="1.5" stroke-linecap="round" stroke-linejoin="round"/><path d="M10 61.6a60.6 60.6 0 0112.7-13.1c1-.2 37.8-1.2 39.1-1 .9 0 2.4-.2 3.2.1a58.6 58.6 0 018.2 12.9" stroke="#F4F4FB" stroke-width="1.5" stroke-linecap="round" stroke-linejoin="round"/><path clip-rule="evenodd" d="M22.9 70.3c.3-.9.4-2 .3-2.8a3 3 0 00-1.6-2.4c-1.5-.7-3.3.3-4.1 1.8-1.1 2-.7 5.1 2 5.5 1.7.3 2.8-.7 3.4-2.1zM32.5 71.4a3 3 0 004.7-.2l.6-1.5c.2-1 .3-2-.2-2.7-1-1.7-3.9-1.7-5-.2-1 1.2-1.2 3.4 0 4.6zM46.4 70.3c2 2.6 6.2.4 6.3-2.6.1-3.2-4.2-4.5-6-2a4 4 0 00-.3 4.6z" stroke="#F4F4FB" stroke-width="1.5" stroke-linecap="round" stroke-linejoin="round"/><path d="M63.3 64.2C60.8 64 58.5 68 60 70c2.8 3.7 8-.3 6-4-.8-1.5-2.7-2.3-4.3-1.3M27 48.4c-2.4 4.5-4.7 8-7 12.4M33.2 48.5c-.6 4.7-1.5 7.9-2.6 12.6M40.2 48c.2 5 0 8.2-.6 13M46.4 48c0 4.8-.2 8-.3 12.6M52.4 47.6c.4 4.7 1 8.3 1.6 13M59.3 47.9c1 4.7 2.1 7.8 3.6 12.3" stroke="#F4F4FB" stroke-width="1.5" stroke-linecap="round" stroke-linejoin="round"/><path fill-rule="evenodd" clip-rule="evenodd" d="M582.1 113.4l-.2-3.7.1-4c.2-3 1.2-6.4 3.4-8.8 2.5-2.6 5.8-4.5 9.5-3.5 4 1.2 4.5 4.6 5 8.2.3 1.8.2 3.6.2 5.4v6M613.7 48l-10-.2c-4.4 0-8.6.3-13 .3-6.5 0-17.8 1-19.4 1.3a63 63 0 00-12 12.2c-.2.6 3 .3 5.5.3h28.8c4.8 0 9-.4 13.8-.4 2.1 0 14 .6 14.8-.5.7-.8-1.2-2.3-1.7-3.4-1-1.9-2-3.2-3.3-4.9-1.4-1.8-2.1-3.5-3.5-4.6z" fill="#979CD8"/><path clip-rule="evenodd" d="M613.7 48l-10-.2c-4.4 0-8.6.3-13 .3-6.5 0-17.8 1-19.4 1.3a63 63 0 00-12 12.2c-.2.6 3 .3 5.5.3h28.8c4.8 0 9-.4 13.8-.4 2.1 0 14 .6 14.8-.5.7-.8-1.2-2.3-1.7-3.4-1-1.9-2-3.2-3.3-4.9-1.4-1.8-2.1-3.5-3.5-4.6z" stroke="#979CD8" stroke-width="1.5"/><path fill-rule="evenodd" clip-rule="evenodd" d="M599 78c0-.6 0-1.3-.3-2h-.1l-.3-.1c-2 0-14.2 0-14.6.5-.2.3-.1.5-.1.8l.1 3.3c0 .2 0 .4.3.5h.4l13.8-.1.6-.1v-.3c.2-.8.2-1.6.2-2.4z" fill="#F4F4FB"/><path fill-rule="evenodd" clip-rule="evenodd" d="M599 78c0-.6 0-1.3-.3-2h-.1l-.3-.1c-2 0-14.2 0-14.6.5-.2.3-.1.5-.1.8l.1 3.3c0 .2 0 .4.3.5h.4l13.8-.1.6-.1v-.3c.2-.8.2-1.6.2-2.4z" fill="#979CD8"/><path fill-rule="evenodd" clip-rule="evenodd" d="M564.9 81v-.1c-.2-.3-.1-1-.1-1.3v-2.5c0-.2 0-.5.2-.7.2-.4 1.2-.3 1.6-.3h12.5c.7 0 .4.9.4 1.4v3c-.1.4-.5.6-1 .5H565z" fill="#F4F4FB"/><path fill-rule="evenodd" clip-rule="evenodd" d="M564.9 81v-.1c-.2-.3-.1-1-.1-1.3v-2.5c0-.2 0-.5.2-.7.2-.4 1.2-.3 1.6-.3h12.5c.7 0 .4.9.4 1.4v3c-.1.4-.5.6-1 .5H565z" fill="#979CD8"/><path fill-rule="evenodd" clip-rule="evenodd" d="M579.7 84.6c.2.3.1 1 .1 1.3v2.5c0 .2 0 .4-.2.6-.2.5-1.2.4-1.5.4h-12.3c-.7 0-.4-1-.4-1.3l.1-3.2.1-.2.3-.1c.9-.2 13.6-.2 13.8 0z" fill="#F4F4FB"/><path fill-rule="evenodd" clip-rule="evenodd" d="M579.7 84.6c.2.3.1 1 .1 1.3v2.5c0 .2 0 .4-.2.6-.2.5-1.2.4-1.5.4h-12.3c-.7 0-.4-1-.4-1.3l.1-3.2.1-.2.3-.1c.9-.2 13.6-.2 13.8 0z" fill="#979CD8"/><path fill-rule="evenodd" clip-rule="evenodd" d="M584.4 89l-.1-.2c-.4-1.4-.3-2.6-.2-4v-.1h.2a174.2 174.2 0 0114.3-.1l.2.4c0 .8.1 3.6-.1 4-.2.2-.5.2-.8.2h-13.5V89z" fill="#F4F4FB"/><path fill-rule="evenodd" clip-rule="evenodd" d="M584.4 89l-.1-.2c-.4-1.4-.3-2.6-.2-4v-.1h.2a174.2 174.2 0 0114.3-.1l.2.4c0 .8.1 3.6-.1 4-.2.2-.5.2-.8.2h-13.5V89zM566.2 106.4c-.2-.3 0-1 0-1.3V94.6l.1-.6c.2-.5 1-.4 1.2-.4l9.6-.1c.5 0 .3 1 .3 1.4v11c-.1.5-.4.6-.7.6l-10.5-.1z" fill="#979CD8"/><path fill-rule="evenodd" clip-rule="evenodd" d="M616.2 75.9v.2c.5 1.4.3 2.6.2 4v.1h-.1a148.8 148.8 0 01-13.3.1l-.2-.4c0-.8-.1-3.6.1-4 .2-.2.5-.2.8-.2h12.4v.2z" fill="#F4F4FB"/><path fill-rule="evenodd" clip-rule="evenodd" d="M616.2 75.9v.2c.5 1.4.3 2.6.2 4v.1h-.1a148.8 148.8 0 01-13.3.1l-.2-.4c0-.8-.1-3.6.1-4 .2-.2.5-.2.8-.2h12.4v.2z" fill="#979CD8"/><path fill-rule="evenodd" clip-rule="evenodd" d="M614.8 93.4a61 61 0 010 12.2l-.5.2a98.3 98.3 0 01-10-.3v-.5a190.4 190.4 0 010-11.8l.4-.1c.5 0 10-.1 10.1.3z" fill="#F4F4FB"/><path fill-rule="evenodd" clip-rule="evenodd" d="M614.8 93.4a61 61 0 010 12.2l-.5.2a98.3 98.3 0 01-10-.3v-.5a190.4 190.4 0 010-11.8l.4-.1c.5 0 10-.1 10.1.3z" fill="#979CD8"/><path fill-rule="evenodd" clip-rule="evenodd" d="M616.6 86c0-.7.1-1.4-.2-2l-.1-.2h-.3c-2 0-13.2 0-13.6.5l-.1.8.2 3.3c0 .2 0 .4.2.5h.4l12.8-.1.5-.1.2-.3V86z" fill="#F4F4FB"/><path fill-rule="evenodd" clip-rule="evenodd" d="M616.6 86c0-.7.1-1.4-.2-2l-.1-.2h-.3c-2 0-13.2 0-13.6.5l-.1.8.2 3.3c0 .2 0 .4.2.5h.4l12.8-.1.5-.1.2-.3V86z" fill="#979CD8"/><path clip-rule="evenodd" d="M559.3 112.1c0 .8.6 1.4 1.4 1.5 1.7.1 59.8-.3 61-.9 2.2-1 1.4-51.3.8-52.4-2.8.5-5.6.2-8.5.3-5.3.1-54.5.8-54.6.7l-.1 50.8z" stroke="#F4F4FB" stroke-width="1.5" stroke-linecap="round" stroke-linejoin="round"/><path d="M559.3 61.6A60.6 60.6 0 01572 48.5c1-.2 37.8-1.2 39.1-1 .9 0 2.5-.2 3.2.1a58.6 58.6 0 018.2 12.9" stroke="#F4F4FB" stroke-width="1.5" stroke-linecap="round" stroke-linejoin="round"/><path clip-rule="evenodd" d="M572.2 70.3c.3-.9.4-2 .3-2.8A3 3 0 00571 65c-1.5-.7-3.3.3-4.1 1.8-1.1 2-.7 5.1 2 5.5 1.7.3 2.8-.7 3.4-2.1zM581.8 71.4a3 3 0 004.8-.2c.3-.5.4-1 .5-1.5.2-1 .3-2-.2-2.7-1-1.7-3.9-1.7-5-.2-1 1.2-1.2 3.4 0 4.6zM595.7 70.3c2 2.6 6.2.4 6.3-2.6.1-3.2-4.2-4.5-6-2a4 4 0 00-.3 4.6z" stroke="#F4F4FB" stroke-width="1.5" stroke-linecap="round" stroke-linejoin="round"/><path d="M612.7 64.2c-2.5-.2-5 3.8-3.4 5.8 2.8 3.7 8-.3 6.1-4-.8-1.5-2.8-2.3-4.4-1.3M576.2 48.4c-2.3 4.5-4.6 8-6.9 12.4M582.5 48.5c-.6 4.7-1.5 7.9-2.5 12.6M589.5 48c.2 5 0 8.2-.6 13M595.8 48l-.3 12.6M601.7 47.6c.4 4.7 1 8.3 1.7 13M608.7 47.9c.9 4.7 2 7.8 3.5 12.3" stroke="#F4F4FB" stroke-width="1.5" stroke-linecap="round" stroke-linejoin="round"/><path fill-rule="evenodd" clip-rule="evenodd" d="M301.6 27.8v-.1c-.3-.4-.2-1.7-.2-2.2l.2-4.2c0-.4 0-.8.2-1.2.3-.7 1.6-.5 2-.6 1.1 0 17.5-.2 19.7-.1.9 0 .5 1.7.5 2.4V27c-.2.8-.7 1-1.3 1-1 0-20.8 0-21.1-.2z" fill="#979CD8"/><path clip-rule="evenodd" d="M301.6 27.8v-.1c-.3-.4-.2-1.7-.2-2.2l.2-4.2c0-.4 0-.8.2-1.2.3-.7 1.6-.5 2-.6 1.1 0 17.5-.2 19.7-.1.9 0 .5 1.7.5 2.4V27c-.2.8-.7 1-1.3 1-1 0-20.8 0-21.1-.2z" stroke="#979CD8" stroke-width="1.5" stroke-linecap="round" stroke-linejoin="round"/><path fill-rule="evenodd" clip-rule="evenodd" d="M324.2 34l.1.2c.2.3 0 1.6 0 2v3.3c0 .4 0 .8-.2 1.1-.3.8-1.6.6-2 .6l-19.3.2c-1 0-.5-1.8-.5-2.4 0-1.8-.1-2.6.1-4.4 0-.1 0-.3.2-.4l.3-.1c1.2-.4 21-.4 21.3 0z" fill="#979CD8"/><path clip-rule="evenodd" d="M324.2 34l.1.2c.2.3 0 1.6 0 2v3.3c0 .4 0 .8-.2 1.1-.3.8-1.6.6-2 .6l-19.3.2c-1 0-.5-1.8-.5-2.4 0-1.8-.1-2.6.1-4.4 0-.1 0-.3.2-.4l.3-.1c1.2-.4 21-.4 21.3 0z" stroke="#979CD8" stroke-width="1.5" stroke-linecap="round" stroke-linejoin="round"/><path fill-rule="evenodd" clip-rule="evenodd" d="M301.6 56.1V56c-.3-.4-.2-1.7-.2-2.1l.2-6c0-.4 0-.8.2-1.2.3-.7 1.6-.5 2-.6l19.7-.1c.9 0 .5 1.7.5 2.5v6.8c-.2.9-.7 1-1.3 1-1 0-20.8.1-21.1-.2z" fill="#979CD8"/><path clip-rule="evenodd" d="M301.6 56.1V56c-.3-.4-.2-1.7-.2-2.1l.2-6c0-.4 0-.8.2-1.2.3-.7 1.6-.5 2-.6l19.7-.1c.9 0 .5 1.7.5 2.5v6.8c-.2.9-.7 1-1.3 1-1 0-20.8.1-21.1-.2z" stroke="#979CD8" stroke-width="1.5" stroke-linecap="round" stroke-linejoin="round"/><path fill-rule="evenodd" clip-rule="evenodd" d="M323 62.7l.1.4c.5 2.4.3 6.1.2 8.5v.2h-.2a209.8 209.8 0 01-20.5.2 46.8 46.8 0 01-.1-9.2c.1-.3.6-.4 1-.4h18.6l.8.1v.2z" fill="#979CD8"/><path clip-rule="evenodd" d="M323 62.7l.1.4c.5 2.4.3 6.1.2 8.5v.2h-.2a209.8 209.8 0 01-20.5.2 46.8 46.8 0 01-.1-9.2c.1-.3.6-.4 1-.4h18.6l.8.1v.2z" stroke="#979CD8" stroke-width="1.5" stroke-linecap="round" stroke-linejoin="round"/><path fill-rule="evenodd" clip-rule="evenodd" d="M301.6 83.1c0 1.2-.1 2.4.3 3.4l.2.3h.4c2.7 0 20.5 0 21-.8l.1-1.4-.2-5.6c0-.4 0-.8-.4-1h-.5l-20 .3c-.2 0-.4 0-.6.2l-.2.5c-.1 1.4-.2 2.8 0 4.1z" fill="#979CD8"/><path clip-rule="evenodd" d="M301.6 83.1c0 1.2-.1 2.4.3 3.4l.2.3h.4c2.7 0 20.5 0 21-.8l.1-1.4-.2-5.6c0-.4 0-.8-.4-1h-.5l-20 .3c-.2 0-.4 0-.6.2l-.2.5c-.1 1.4-.2 2.8 0 4.1z" stroke="#979CD8" stroke-width="1.5" stroke-linecap="round" stroke-linejoin="round"/><path clip-rule="evenodd" d="M296.8 113l-.8-98c.1-.1 31-.8 32.5-.2 1.3.6 1.5 47.1 1.6 48.5.5 4.3 0 47.2-.3 49.3-.1 1.2-33 .4-33 .4z" stroke="#F4F4FB" stroke-width="1.5" stroke-linecap="round" stroke-linejoin="round"/><path d="M305 113c-.4-.7.6-17.9 1.2-20 .5-2 3.8-1.7 6-1.6 2.4.2 4.7.2 7 .2 1.4 0 2.4 1 2.5 2.2.4 5.4-.2 17.5-.1 19" stroke="#F4F4FB" stroke-width="1.5" stroke-linecap="round" stroke-linejoin="round"/><path fill-rule="evenodd" clip-rule="evenodd" d="M293.5 15.3l.6.2a1971 1971 0 0038.4-.2c.2-.2.8-4.3-.4-4.7-1.1-.3-32 0-35 .2-.8 0-2.7-.3-3.3.3-.6.4-.9 3.6-.3 4.2z" fill="#979CD8"/><path clip-rule="evenodd" d="M293.5 15.3l.6.2a1971 1971 0 0038.4-.2c.2-.2.8-4.3-.4-4.7-1.1-.3-32 0-35 .2-.8 0-2.7-.3-3.3.3-.6.4-.9 3.6-.3 4.2z" stroke="#979CD8" stroke-width="1.5" stroke-linecap="round" stroke-linejoin="round"/><path d="M314.1 91.7c-.2.2-.2.5-.3.9l-.6 20.4" stroke="#F4F4FB" stroke-width="1.5" stroke-linecap="round" stroke-linejoin="round"/><path fill-rule="evenodd" clip-rule="evenodd" d="M359.4 113.2c.5-.6.3-16.6-.3-18.8-.6-1.9-4.2-1.7-6.7-1.5-2.9.1-6.4-.2-9.3 0-.8 0-1.5.6-1.6 1.4-.7 4.7-.2 17.1-.3 18.6" fill="#979CD8"/><path d="M359.4 113.2c.5-.6.3-16.6-.3-18.8-.6-1.9-4.2-1.7-6.7-1.5-2.9.1-6.4-.2-9.3 0-.8 0-1.5.6-1.6 1.4-.7 4.7-.2 17.1-.3 18.6" stroke="#979CD8" stroke-width="1.5" stroke-linecap="round" stroke-linejoin="round"/><path fill-rule="evenodd" clip-rule="evenodd" d="M363.8 21.7c1.9-.9-2-5-2.8-5.9-2-2.1-4.4-3.7-7-4.6-3-1-6 .2-8.8 1-3.3 1-5.7 2.2-8.6 4.3-1.2.9-3.3 4.5-3.2 5 .3 1 15.3.2 22.8.3h7.6z" fill="#303AB2"/><path clip-rule="evenodd" d="M363.8 21.7s0 0 0 0c1.9-.9-2-5-2.8-5.9-2-2.1-4.4-3.7-7-4.6-3-1-6 .2-8.8 1-3.3 1-5.7 2.2-8.6 4.3-1.2.9-3.3 4.5-3.2 5 .3 1 15.3.2 22.8.3h7.6z" stroke="#303AB2" stroke-width="1.5" stroke-linecap="round" stroke-linejoin="round"/><path clip-rule="evenodd" d="M340.4 43.4s0 0 0 0c-.2-.4-.1-1.6-.1-2a6326.5 6326.5 0 01.3-12.6c.3-.7 1.5-.6 2-.6 1 0 13.5-.2 15.4-.1.9 0 .5 1.5.5 2.3V42.7c-.2.8-.6 1-1.2 1-1-.1-16.6 0-16.9-.3zM357.6 49.6l.1.4a117.3 117.3 0 010 14 142.2 142.2 0 01-16.4.2l-.2-.7c-.2-1.2-.2-13.2.1-13.8.2-.4.6-.4 1-.4h14.6l.7.1v.2zM340.4 83.5c.1 1 0 2.1.3 3.1l.2.3h.4c2.5 0 16.3 0 16.7-.8.2-.4.2-.8.2-1.3l-.2-14.1c0-.4-.1-.7-.4-.9h-.5l-15.8.2c-.2 0-.4 0-.6.3l-.2.4c-.1 1.3-.1 11.5 0 12.8z" stroke="#F4F4FB" stroke-width="1.5" stroke-linecap="round" stroke-linejoin="round"/><path clip-rule="evenodd" d="M334.8 113l-.3-92c0-.1 27.9-.6 29.3 0 1.4.5.9 1 1 2.4.5 4.2 1.4 88.6.6 89.5-.7 1-30.6.2-30.6.2z" stroke="#F4F4FB" stroke-width="1.5" stroke-linecap="round" stroke-linejoin="round"/><path d="M334.6 20.6c3.8-4.8 9.6-8.8 15.7-8.9 6.1 0 12.3 3.7 14.4 9.5M340.6 35.8a131 131 0 0117.7.3M341 56.9a78 78 0 0111.3-.3h5.2M340.4 78.4c3.1.4 6.2.4 9.4.3l2.7-.2 5.4-.5" stroke="#F4F4FB" stroke-width="1.5" stroke-linecap="round" stroke-linejoin="round"/><path d="M349.2 28l-.5 15.4.1.3c.1 0 .3-.1.2-.2M349.4 49.2c-.2 5-.4 10-.4 15.1M349 70c.1 5.7.5 11.1 0 16.8" stroke="#F4F4FB" stroke-width="1.5" stroke-linecap="round" stroke-linejoin="round"/><path fill-rule="evenodd" clip-rule="evenodd" d="M851 27.8l-.2-.1c-.2-.4 0-1.7 0-2.2l.1-4.2c0-.4 0-.8.2-1.2.3-.7 1.6-.5 2.1-.6 1 0 17.5-.2 19.6-.1.9 0 .5 1.7.5 2.4V27c-.2.8-.7 1-1.3 1-1 0-20.8 0-21-.2z" fill="#979CD8"/><path clip-rule="evenodd" d="M851 27.8l-.2-.1c-.2-.4 0-1.7 0-2.2l.1-4.2c0-.4 0-.8.2-1.2.3-.7 1.6-.5 2.1-.6 1 0 17.5-.2 19.6-.1.9 0 .5 1.7.5 2.4V27c-.2.8-.7 1-1.3 1-1 0-20.8 0-21-.2z" stroke="#979CD8" stroke-width="1.5" stroke-linecap="round" stroke-linejoin="round"/><path fill-rule="evenodd" clip-rule="evenodd" d="M873.6 34v.2c.2.3.1 1.6.1 2l-.1 3.3c0 .4 0 .8-.2 1.1-.3.8-1.5.6-2 .6l-19.3.2c-1 0-.5-1.8-.5-2.4 0-1.8-.1-2.6.2-4.4v-.4l.4-.1c1.2-.4 21-.4 21.4 0z" fill="#979CD8"/><path clip-rule="evenodd" d="M873.6 34v.2c.2.3.1 1.6.1 2l-.1 3.3c0 .4 0 .8-.2 1.1-.3.8-1.5.6-2 .6l-19.3.2c-1 0-.5-1.8-.5-2.4 0-1.8-.1-2.6.2-4.4v-.4l.4-.1c1.2-.4 21-.4 21.4 0z" stroke="#979CD8" stroke-width="1.5" stroke-linecap="round" stroke-linejoin="round"/><path fill-rule="evenodd" clip-rule="evenodd" d="M851 56.1l-.2-.1c-.2-.4 0-1.7 0-2.1l.1-6c0-.4 0-.8.2-1.2.3-.7 1.6-.5 2.1-.6l19.6-.1c.9 0 .5 1.7.5 2.5v6.8c-.2.9-.7 1-1.3 1-1 0-20.8.1-21-.2z" fill="#979CD8"/><path clip-rule="evenodd" d="M851 56.1l-.2-.1c-.2-.4 0-1.7 0-2.1l.1-6c0-.4 0-.8.2-1.2.3-.7 1.6-.5 2.1-.6l19.6-.1c.9 0 .5 1.7.5 2.5v6.8c-.2.9-.7 1-1.3 1-1 0-20.8.1-21-.2z" stroke="#979CD8" stroke-width="1.5" stroke-linecap="round" stroke-linejoin="round"/><path fill-rule="evenodd" clip-rule="evenodd" d="M872.3 62.7l.1.4c.5 2.4.3 6.1.2 8.5v.2h-.2a209.8 209.8 0 01-20.5.2c-.2-.2-.2-.5-.3-.8a47 47 0 01.2-8.4c.2-.3.6-.4 1-.4h18.6l.8.1v.2z" fill="#979CD8"/><path clip-rule="evenodd" d="M872.3 62.7l.1.4c.5 2.4.3 6.1.2 8.5v.2h-.2a209.8 209.8 0 01-20.5.2c-.2-.2-.2-.5-.3-.8a47 47 0 01.2-8.4c.2-.3.6-.4 1-.4h18.6l.8.1v.2z" stroke="#979CD8" stroke-width="1.5" stroke-linecap="round" stroke-linejoin="round"/><path fill-rule="evenodd" clip-rule="evenodd" d="M851 83.1c0 1.2-.2 2.4.3 3.4l.1.3h.4c2.7 0 20.5 0 21-.8.2-.4.1-1 .1-1.4l-.2-5.6c0-.4 0-.8-.3-1h-.6l-19.9.3c-.2 0-.5 0-.7.2l-.2.5c-.1 1.4-.2 2.8 0 4.1z" fill="#979CD8"/><path clip-rule="evenodd" d="M851 83.1c0 1.2-.2 2.4.3 3.4l.1.3h.4c2.7 0 20.5 0 21-.8.2-.4.1-1 .1-1.4l-.2-5.6c0-.4 0-.8-.3-1h-.6l-19.9.3c-.2 0-.5 0-.7.2l-.2.5c-.1 1.4-.2 2.8 0 4.1z" stroke="#979CD8" stroke-width="1.5" stroke-linecap="round" stroke-linejoin="round"/><path clip-rule="evenodd" d="M846.2 113l-.8-98c0-.1 31-.8 32.4-.2 1.4.6 1.5 47.1 1.6 48.5.5 4.3 0 47.2-.2 49.3-.2 1.2-33 .4-33 .4z" stroke="#F4F4FB" stroke-width="1.5" stroke-linecap="round" stroke-linejoin="round"/><path d="M854.3 113c-.4-.7.6-17.9 1.2-20 .5-2 3.8-1.7 6-1.6 2.4.2 4.7.2 7.1.2 1.3 0 2.3 1 2.4 2.2.4 5.4-.2 17.5-.1 19" stroke="#F4F4FB" stroke-width="1.5" stroke-linecap="round" stroke-linejoin="round"/><path fill-rule="evenodd" clip-rule="evenodd" d="M842.8 15.3l.6.2a1971 1971 0 0038.4-.2c.3-.2.8-4.3-.4-4.7-1.1-.3-32 0-35 .2-.8 0-2.6-.3-3.3.3-.5.4-.9 3.6-.3 4.2z" fill="#979CD8"/><path clip-rule="evenodd" d="M842.8 15.3l.6.2a1971 1971 0 0038.4-.2c.3-.2.8-4.3-.4-4.7-1.1-.3-32 0-35 .2-.8 0-2.6-.3-3.3.3-.5.4-.9 3.6-.3 4.2z" stroke="#979CD8" stroke-width="1.5" stroke-linecap="round" stroke-linejoin="round"/><path d="M863.4 91.7c-.2.2-.2.5-.2.9-.2 3.2-.5 13.5-.6 20.4" stroke="#F4F4FB" stroke-width="1.5" stroke-linecap="round" stroke-linejoin="round"/><path fill-rule="evenodd" clip-rule="evenodd" d="M908.7 113.2c.5-.6.3-16.6-.3-18.8-.6-1.9-4.2-1.7-6.6-1.5-3 .1-6.4-.2-9.4 0-.8 0-1.5.6-1.6 1.4-.6 4.7-.2 17.1-.3 18.6" fill="#979CD8"/><path d="M908.7 113.2c.5-.6.3-16.6-.3-18.8-.6-1.9-4.2-1.7-6.6-1.5-3 .1-6.4-.2-9.4 0-.8 0-1.5.6-1.6 1.4-.6 4.7-.2 17.1-.3 18.6" stroke="#979CD8" stroke-width="1.5" stroke-linecap="round" stroke-linejoin="round"/><path fill-rule="evenodd" clip-rule="evenodd" d="M913 21.7h.1c2-.9-2-5-2.8-5.9-1.9-2.1-4.3-3.7-7-4.6-3-1-6 .2-8.8 1-3.3 1-5.7 2.2-8.5 4.3-1.3.9-3.4 4.5-3.3 5 .3 1 15.3.2 22.8.3h7.6z" fill="#303AB2"/><path clip-rule="evenodd" d="M913 21.7h.1c2-.9-2-5-2.8-5.9-1.9-2.1-4.3-3.7-7-4.6-3-1-6 .2-8.8 1-3.3 1-5.7 2.2-8.5 4.3-1.3.9-3.4 4.5-3.3 5 .3 1 15.3.2 22.8.3h7.6z" stroke="#303AB2" stroke-width="1.5" stroke-linecap="round" stroke-linejoin="round"/><path clip-rule="evenodd" d="M889.7 43.4s0 0 0 0c-.2-.4 0-1.6 0-2V29.7c0-.3 0-.7.2-1 .3-.7 1.5-.6 2-.6 1 0 13.5-.2 15.5-.1.8 0 .4 1.5.4 2.3V42.7c-.1.8-.6 1-1.1 1-1-.1-16.7 0-17-.3zM906.9 49.6l.1.4a117 117 0 010 14 142.2 142.2 0 01-16.4.2l-.2-.7c-.1-1.2-.2-13.2.1-13.8.2-.4.7-.4 1-.4h14.6l.7.1.1.2zM889.8 83.5c0 1-.2 2.1.3 3.1l.1.3h.4c2.5 0 16.3 0 16.7-.8.2-.4.2-.8.2-1.3l-.2-14.1c0-.4 0-.7-.3-.9h-.5l-15.8.2c-.3 0-.5 0-.7.3l-.1.4c-.2 1.3-.2 11.5-.1 12.8z" stroke="#F4F4FB" stroke-width="1.5" stroke-linecap="round" stroke-linejoin="round"/><path clip-rule="evenodd" d="M884.1 113l-.2-92c0-.1 27.8-.6 29.2 0 1.4.5 1 1 1 2.4.5 4.2 1.4 88.6.6 89.5-.7 1-30.6.2-30.6.2z" stroke="#F4F4FB" stroke-width="1.5" stroke-linecap="round" stroke-linejoin="round"/><path d="M884 20.6c3.8-4.8 9.5-8.8 15.6-8.9 6.1 0 12.4 3.7 14.4 9.5M890 35.8a131 131 0 0117.6.3M890.4 56.9a78 78 0 0111.2-.3h5.2M889.7 78.4c3.1.4 6.3.4 9.4.3l2.7-.2 5.4-.5" stroke="#F4F4FB" stroke-width="1.5" stroke-linecap="round" stroke-linejoin="round"/><path d="M898.6 28l-.5 15.4v.3c.2 0 .3-.1.2-.2M898.7 49.2c-.2 5-.4 10-.4 15.1M898.4 70c0 5.7.4 11.1 0 16.8M501.8 51.4c3.5.5 8.6 6.1 8.8 9.7M501.1 51.2c-2-1.4-10.3-1.5-10 2.2M502 51.4c.1-.2 4.3-4.6 9.5-.2M502 50.5c.3-3.4 4.5-6.4 8-5.6M501 50.7c-1.3-3-7.2-6.9-10.5-5.1M501.2 51.1c-.2-2.2.3-6.8 1.3-8.8M501.7 52.2c-3.9-1.2-8 5-6 9.7M501.5 51.6c5.4 16.3 6.3 42.5 6 63M470.9 96.7c.2 4.6-2.6 16.2-2.9 17.7M474.6 96c-.3 3 .4 15.6.6 18.4" stroke="#F4F4FB" stroke-width="1.5" stroke-linecap="round" stroke-linejoin="round"/><path fill-rule="evenodd" clip-rule="evenodd" d="M466 73.8a21 21 0 000-5.5c-.5-3.4-1.5-6.8-1.9-10.4-.6-5.2-.1-10 1.5-15 1-3 5.1-7.6 7.3-3 .8 1.7.8 4.5 1.2 6.3.5 2.2 1.1 3.5 2.4 5.3 2.3 3.3 2.9 7.1 2 11-.7 3.7-.2 6 .8 9.5 1 3.4 3.2 6.8 3.7 10.3a26 26 0 010 7.6c-1 5-4.2 9.4-9.5 10-3.9.3-7-2-9-5.1-2.1-3.2-1.6-7.5-.8-11 .5-2.3 1.3-4.5 1.7-6.8l.5-3.2z" fill="#979CD8"/><path clip-rule="evenodd" d="M466 73.8a21 21 0 000-5.5c-.5-3.4-1.5-6.8-1.9-10.4-.6-5.2-.1-10 1.5-15 1-3 5.1-7.6 7.3-3 .8 1.7.8 4.5 1.2 6.3.5 2.2 1.1 3.5 2.4 5.3 2.3 3.3 2.9 7.1 2 11-.7 3.7-.2 6 .8 9.5 1 3.4 3.2 6.8 3.7 10.3a26 26 0 010 7.6c-1 5-4.2 9.4-9.5 10-3.9.3-7-2-9-5.1-2.1-3.2-1.6-7.5-.8-11 .5-2.3 1.3-4.5 1.7-6.8l.5-3.2z" stroke="#F4F4FB" stroke-width="1.5" stroke-linecap="round" stroke-linejoin="round"/><path d="M472.8 90.6c-3-6-.2-13.3-.5-19.6-.3-6.8-3.4-15-1.9-21.8M528.7 79c.1 2.8-.6 13.8-1.7 16.4M531 78.5c-.1 2-.1 13.8.5 17" stroke="#F4F4FB" stroke-width="1.5" stroke-linecap="round" stroke-linejoin="round"/><path fill-rule="evenodd" clip-rule="evenodd" d="M523.6 70.8c0-1.2-.2-2.4-.5-3.5-.6-2.4-2-4.3-2.6-6.7-.6-2.7-.9-5.7-.4-8.4 1.3-6.5 7-10.3 13.2-8 4 1.6 6.2 5.3 5.7 9.7-.4 3.5-2 6.7-2 10.2-.1 1.6-.4 3-.2 4.5.4 4.9-.9 12.2-7 12-5.7-.1-5.8-5.4-6.2-9.8z" fill="#979CD8"/><path clip-rule="evenodd" d="M523.6 70.8c0-1.2-.2-2.4-.5-3.5-.6-2.4-2-4.3-2.6-6.7-.6-2.7-.9-5.7-.4-8.4 1.3-6.5 7-10.3 13.2-8 4 1.6 6.2 5.3 5.7 9.7-.4 3.5-2 6.7-2 10.2-.1 1.6-.4 3-.2 4.5.4 4.9-.9 12.2-7 12-5.7-.1-5.8-5.4-6.2-9.8z" stroke="#979CD8" stroke-width="1.5" stroke-linecap="round" stroke-linejoin="round"/><path d="M530 76c-1.9-3.8-.1-8.4-.3-12.4-.2-4.2-2.1-9.4-1.2-13.7M532.4 57.2c.8-1.8 1.5-4.1 1.8-5.7M526 64c-1.6-1.3-2-4.5-2.9-6.2M538.2 96.8c0-1.4-.1-3 .4-4.3M528.5 104.7v-3.5M519 98.1a6 6 0 01.3-4M511.6 102.2c0-1-.2-1.9-.5-2.8M517.8 111a6 6 0 01.1-3.6M527.4 114.8c-.6-1.4.1-4 .7-4.7M536.4 111v-3.2M498.5 112.5c0-1 .4-2.2.4-3.3M483.3 113c.1-1.3-.4-2.7-.3-4M490.2 107.5c0-1.5-.1-3 .2-4.4M484 99.1c0-.7-.1-1.5.1-2M498.9 99.7l.3-2.7M491.9 94.5c0-.5 0-1.1.2-1.7M462.6 102.8c.3-.5.4-1 .5-1.6M459.5 112c0-1-.2-2.3.1-3.2M543.7 101.7l-.2 3M237.3 51.4c3.5.5 8.6 6.1 8.8 9.7M236.6 51.2c-2-1.4-10.3-1.5-10 2.2M237.5 51.4c.1-.2 4.3-4.6 9.5-.2M237.4 50.5c.4-3.4 4.6-6.4 8-5.6M236.5 50.7c-1.3-3-7.2-6.9-10.5-5.1M236.7 51.1c-.2-2.2.3-6.8 1.3-8.8M237.2 52.2c-3.9-1.2-8 5-6 9.7M237 51.6c5.4 16.3 6.3 42.5 6 63M206.4 96.7c.2 4.6-2.6 16.2-2.9 17.7M210 96c-.2 3 .5 15.6.7 18.4" stroke="#F4F4FB" stroke-width="1.5" stroke-linecap="round" stroke-linejoin="round"/><path fill-rule="evenodd" clip-rule="evenodd" d="M201.4 73.8a21 21 0 00.1-5.5c-.5-3.4-1.5-6.8-1.9-10.4-.6-5.2-.1-10 1.5-15 1-3 5.1-7.6 7.3-3 .8 1.7.8 4.5 1.2 6.3.5 2.2 1.1 3.5 2.4 5.3 2.3 3.3 2.9 7.1 2 11-.7 3.7-.2 6 .8 9.5 1 3.4 3.2 6.8 3.7 10.3a26 26 0 010 7.6c-1 5-4.2 9.4-9.5 10-3.9.3-7-2-9-5.1-2.1-3.2-1.6-7.5-.8-11 .5-2.3 1.3-4.5 1.7-6.8l.5-3.2z" fill="#979CD8"/><path clip-rule="evenodd" d="M201.4 73.8a21 21 0 00.1-5.5c-.5-3.4-1.5-6.8-1.9-10.4-.6-5.2-.1-10 1.5-15 1-3 5.1-7.6 7.3-3 .8 1.7.8 4.5 1.2 6.3.5 2.2 1.1 3.5 2.4 5.3 2.3 3.3 2.9 7.1 2 11-.7 3.7-.2 6 .8 9.5 1 3.4 3.2 6.8 3.7 10.3a26 26 0 010 7.6c-1 5-4.2 9.4-9.5 10-3.9.3-7-2-9-5.1-2.1-3.2-1.6-7.5-.8-11 .5-2.3 1.3-4.5 1.7-6.8l.5-3.2z" stroke="#F4F4FB" stroke-width="1.5" stroke-linecap="round" stroke-linejoin="round"/><path d="M208.3 90.6c-3-6-.2-13.3-.5-19.6-.3-6.8-3.4-15-1.9-21.8M264.2 79c.1 2.8-.6 13.8-1.7 16.4M266.5 78.5c-.1 2-.1 13.8.5 17" stroke="#F4F4FB" stroke-width="1.5" stroke-linecap="round" stroke-linejoin="round"/><path fill-rule="evenodd" clip-rule="evenodd" d="M259.1 70.8c0-1.2-.2-2.4-.5-3.5-.6-2.4-2-4.3-2.6-6.7-.6-2.7-.9-5.7-.4-8.4 1.3-6.5 7-10.3 13.2-8 4 1.6 6.2 5.3 5.7 9.7-.4 3.5-2 6.7-2 10.2-.1 1.6-.4 3-.2 4.5.4 4.9-.9 12.2-7 12-5.7-.1-5.8-5.4-6.2-9.8z" fill="#979CD8"/><path clip-rule="evenodd" d="M259.1 70.8c0-1.2-.2-2.4-.5-3.5-.6-2.4-2-4.3-2.6-6.7-.6-2.7-.9-5.7-.4-8.4 1.3-6.5 7-10.3 13.2-8 4 1.6 6.2 5.3 5.7 9.7-.4 3.5-2 6.7-2 10.2-.1 1.6-.4 3-.2 4.5.4 4.9-.9 12.2-7 12-5.7-.1-5.8-5.4-6.2-9.8z" stroke="#979CD8" stroke-width="1.5" stroke-linecap="round" stroke-linejoin="round"/><path d="M265.5 76c-1.9-3.8-.1-8.4-.3-12.4-.2-4.2-2.1-9.4-1.2-13.7M268 57.2c.7-1.8 1.4-4.1 1.7-5.7M261.4 64c-1.5-1.3-2-4.5-2.8-6.2M273.7 96.8c0-1.4-.1-3 .4-4.3M264 104.7v-3.5M254.5 98.1a6 6 0 01.3-4M247 102.2c.1-1 0-1.9-.4-2.8M253.3 111a6 6 0 01.1-3.6M263 114.8c-.7-1.4 0-4 .6-4.7M271.9 111v-3.2M234 112.5c0-1 .4-2.2.4-3.3M218.8 113c.1-1.3-.4-2.7-.3-4M225.7 107.5c0-1.5-.1-3 .2-4.4M219.5 99.1c0-.7-.1-1.5.1-2M234.4 99.7l.3-2.7M227.4 94.5c0-.5 0-1.1.2-1.7M198 102.8c.4-.5.5-1 .6-1.6M195 112c0-1-.2-2.3.1-3.2M279.2 101.7l-.2 3M786.6 51.4c3.5.5 8.6 6.1 8.8 9.7M786 51.2c-2.2-1.4-10.4-1.5-10.1 2.2M786.8 51.4c.1-.2 4.3-4.6 9.5-.2M786.8 50.5c.3-3.4 4.5-6.4 8-5.6M785.8 50.7c-1.3-3-7.1-6.9-10.5-5.1M786 51.1c-.2-2.2.3-6.8 1.3-8.8M786.5 52.2c-3.9-1.2-8 5-6 9.7M786.4 51.6c5.3 16.3 6.2 42.5 5.9 63M755.7 96.7c.2 4.6-2.6 16.2-2.9 17.7M759.4 96c-.2 3 .5 15.6.6 18.4" stroke="#F4F4FB" stroke-width="1.5" stroke-linecap="round" stroke-linejoin="round"/><path fill-rule="evenodd" clip-rule="evenodd" d="M750.7 73.8a21 21 0 00.1-5.5c-.5-3.4-1.5-6.8-1.9-10.4-.5-5.2-.1-10 1.5-15 1-3 5.1-7.6 7.3-3 .8 1.7.8 4.5 1.2 6.3.5 2.2 1.2 3.5 2.4 5.3 2.3 3.3 2.9 7.1 2 11-.6 3.7-.2 6 .8 9.5 1 3.4 3.2 6.8 3.7 10.3a26 26 0 010 7.6c-.9 5-4.1 9.4-9.5 10-3.9.3-7-2-9-5.1-2.1-3.2-1.5-7.5-.8-11 .5-2.3 1.3-4.5 1.7-6.8l.5-3.2z" fill="#979CD8"/><path clip-rule="evenodd" d="M750.7 73.8a21 21 0 00.1-5.5c-.5-3.4-1.5-6.8-1.9-10.4-.5-5.2-.1-10 1.5-15 1-3 5.1-7.6 7.3-3 .8 1.7.8 4.5 1.2 6.3.5 2.2 1.2 3.5 2.4 5.3 2.3 3.3 2.9 7.1 2 11-.6 3.7-.2 6 .8 9.5 1 3.4 3.2 6.8 3.7 10.3a26 26 0 010 7.6c-.9 5-4.1 9.4-9.5 10-3.9.3-7-2-9-5.1-2.1-3.2-1.5-7.5-.8-11 .5-2.3 1.3-4.5 1.7-6.8l.5-3.2z" stroke="#F4F4FB" stroke-width="1.5" stroke-linecap="round" stroke-linejoin="round"/><path d="M757.6 90.6c-3-6-.2-13.3-.5-19.6-.2-6.8-3.4-15-1.8-21.8M813.5 79c.2 2.8-.6 13.8-1.7 16.4M815.8 78.5a124 124 0 00.5 17" stroke="#F4F4FB" stroke-width="1.5" stroke-linecap="round" stroke-linejoin="round"/><path fill-rule="evenodd" clip-rule="evenodd" d="M808.4 70.8c0-1.2-.2-2.4-.5-3.5-.6-2.4-2-4.3-2.6-6.7-.6-2.7-.9-5.7-.4-8.4 1.3-6.5 7.1-10.3 13.2-8 4 1.6 6.2 5.3 5.7 9.7-.4 3.5-1.9 6.7-2 10.2-.1 1.6-.4 3-.2 4.5.5 4.9-.9 12.2-7 12-5.7-.1-5.8-5.4-6.2-9.8z" fill="#979CD8"/><path clip-rule="evenodd" d="M808.4 70.8c0-1.2-.2-2.4-.5-3.5-.6-2.4-2-4.3-2.6-6.7-.6-2.7-.9-5.7-.4-8.4 1.3-6.5 7.1-10.3 13.2-8 4 1.6 6.2 5.3 5.7 9.7-.4 3.5-1.9 6.7-2 10.2-.1 1.6-.4 3-.2 4.5.5 4.9-.9 12.2-7 12-5.7-.1-5.8-5.4-6.2-9.8z" stroke="#979CD8" stroke-width="1.5" stroke-linecap="round" stroke-linejoin="round"/><path d="M814.8 76c-1.8-3.8-.1-8.4-.3-12.4-.2-4.2-2.1-9.4-1.2-13.7M817.2 57.2c.9-1.8 1.5-4.1 1.9-5.7M810.8 64c-1.6-1.3-2-4.5-2.9-6.2M823 96.8c0-1.4 0-3 .4-4.3M813.3 104.7v-3.5M803.9 98.1a6 6 0 01.2-4M796.4 102.2c0-1-.2-1.9-.4-2.8M802.6 111a6 6 0 01.1-3.6M812.2 114.8c-.6-1.4.1-4 .7-4.7M821.2 111v-3.2M783.3 112.5c.1-1 .5-2.2.4-3.3M768 113c.2-1.3-.2-2.7-.2-4M775 107.5c0-1.5-.1-3 .3-4.4M768.8 99.1c0-.7-.1-1.5.1-2M783.7 99.7l.3-2.7M776.7 94.5c0-.5 0-1.1.3-1.7M747.4 102.8c.3-.5.4-1 .5-1.6M744.3 112c0-1-.2-2.3.1-3.2M828.5 101.7c0 .8-.2 2.5-.1 3M105 43.3c1.5 1 2.2 4 3 5.5 1 1.7 3 4 2.4 6-.5 2-3 4.5-4 6.4-1 1.9-3 4.3-1.9 6.3 1.3 2.6 3.7 4.4 5 7 .4.7 1.1 2 1 2.8-.1.3-1 1-1.2 1.3l-1 1.7c-1.5 2.3-2.6 4.5-3.9 6.8-.9 1.6-1.3 1.7 0 3.3l3 3.9c.9 1 2.5 2.6 2.9 4 .3 1.2-1 2.2-1.9 3.2-2 2.3-3.3 5.4-5.5 7.3v-.5" stroke="#F4F4FB" stroke-width="1.5" stroke-linecap="round" stroke-linejoin="round"/><path fill-rule="evenodd" clip-rule="evenodd" d="M160.5 113l-.4-13.2V99l.7-.5c1.6-.7 4.1-.6 5.8-.5 2.4 0 3 1 3.1 3.3.4 4.7.8 5.7.7 11.5M178.6 70.7c-.2.2-.3.4-.6.5-1 .7-3.7.2-5 .3-2.1 0-4.3 0-6.5.2L154 72l-13 .4c-3.1 0-11.7-1.4-11.7-2.1 0-.8.4-1.5.8-2.2 1-2.3 2-4.5 3.2-6.7 1.6-3.6 3-8.6 6.4-10.9 1.5-1 3.3-1.3 5-1.6 5.5-.7 13.4-.3 16 .4 3.6.8 6.5 5.6 8.9 8.4a357 357 0 018.1 10c.5.5.9 1 1 1.7v1.3z" fill="#979CD8"/><path clip-rule="evenodd" d="M178.8 112.8l-.4-11.7c0-6.6-.4-30.5-.3-30.8 0 0-28.1 0-28.3 1.3-.4 3.9-.6 40.5.2 41.4.7.8 28.8-.2 28.8-.2z" stroke="#F4F4FB" stroke-width="1.5" stroke-linecap="round" stroke-linejoin="round"/><path d="M178 70.3A267.2 267.2 0 00161.2 50a200 200 0 00-11.6 21.7l-20.5-.2" stroke="#F4F4FB" stroke-width="1.5" stroke-linecap="round" stroke-linejoin="round"/><path d="M161.5 49.6c-2.4-.1-20.4-.3-22 1-.9 1-1.4 2-2 3.1-2.8 5.5-5.4 11-8.4 16.5-1.6 3-3 42.5-1.4 42.7 4 .5 22.2.3 22.2.3" stroke="#F4F4FB" stroke-width="1.5" stroke-linecap="round" stroke-linejoin="round"/><path clip-rule="evenodd" d="M159.9 78.7c-.2 0-.3.2-.4.3-.4.5-.3 1.7-.3 2.4v4c0 1.1-.6 3.5.4 4.4 1.1.9 3 .2 4.3.1h2.7c.8 0 2.2.3 2.8-.3.5-.6.3-2.8.4-3.7v-4l-.1-2.4c-.2-1.7-2.4-1.3-3.8-1.4l-3.3.3c-.9 0-1.8-.1-2.7.3zM140.1 77.1c-.6-.5-2-.1-2.8-.1h-2.9l-.7 7c2.1 0 4.3.1 6.4 0v-3.3c0-.8.5-3.2 0-3.6zM140.1 89c-.6-.5-2 0-2.8 0h-2.9l-.7 6.9c2.1 0 4.3.2 6.4 0v-3.2c0-.8.5-3.2 0-3.6z" stroke="#F4F4FB" stroke-width="1.5" stroke-linecap="round" stroke-linejoin="round"/><path d="M85 36.3l3.8-1.9c2.4-1.2 14.5-7.1 18.2-8.7 1.8-.7 2.6-.7 4.4-.1 1.1.4 2.2.9 3.4 1.1 2.5.6 30.6 8.3 36.9 10.3M102.5 113.6c0-4.5.5-66.6 1.6-70.5M112 42.7c-1.2 3-.7 68.3-1.2 70.4" stroke="#F4F4FB" stroke-width="1.5" stroke-linecap="round" stroke-linejoin="round"/><path clip-rule="evenodd" d="M122.3 41.5c5.2-.2 10.5-.1 15.7-.6 3.6-.4 7.3-.5 11-.5 1.8 0 3.7 0 5.5-.3 1 0 1.4.2 1.8-.9.2-.5 0-1.7-.3-2-.7-.5-4.3-.2-5.1-.2-2.6-.1-5.4.1-8 .2-7.8.4-15.6.2-23.5.2l-11.6.2h-6.3c-1.9 0-3.5-.2-5.4 0v4c1.4.4 3.1.1 4.6.3 1.4 0 17.7-.2 21.6-.4z" stroke="#F4F4FB" stroke-width="1.5" stroke-linecap="round" stroke-linejoin="round"/><path d="M104.8 37c1.2-2.8 2.3-8 4.3-11.7.8 4 1.8 8.2 2.3 12" stroke="#F4F4FB" stroke-width="1.5" stroke-linecap="round" stroke-linejoin="round"/><path fill-rule="evenodd" clip-rule="evenodd" d="M80.4 40.6c-.2 3.4-.2 7 0 10.3 4.8.3 11 .3 16 0 .4-1.8.9-13.3.4-14-.5-.6-4-.3-4.9-.3H81a59 59 0 00-.5 4z" fill="#979CD8"/><path clip-rule="evenodd" d="M80.4 40.6c-.2 3.4-.2 7 0 10.3 4.8.3 11 .3 16 0 .4-1.8.9-13.3.4-14-.5-.6-4-.3-4.9-.3H81a59 59 0 00-.5 4z" stroke="#F4F4FB" stroke-width="1.5" stroke-linecap="round" stroke-linejoin="round"/><path d="M654.3 43.3c1.5 1 2.2 4 3 5.5 1 1.7 3 4 2.5 6-.6 2-3 4.5-4.1 6.4-1 1.9-3 4.3-1.9 6.3 1.4 2.6 3.7 4.4 5 7 .4.7 1.2 2 1 2.8 0 .3-1 1-1.2 1.3l-1 1.7c-1.5 2.3-2.6 4.5-3.8 6.8-1 1.6-1.3 1.7-.1 3.3l3 3.9c.9 1 2.6 2.6 2.9 4 .3 1.2-1 2.2-1.9 3.2-2 2.3-3.3 5.4-5.5 7.3v-.5" stroke="#F4F4FB" stroke-width="1.5" stroke-linecap="round" stroke-linejoin="round"/><path fill-rule="evenodd" clip-rule="evenodd" d="M709.9 113l-.5-13.2.1-.8.6-.5c1.6-.7 4.1-.6 5.8-.5 2.4 0 3 1 3.1 3.3.4 4.7.8 5.7.7 11.5M727.9 70.7l-.5.5c-1.1.7-3.8.2-5 .3-2.2 0-4.4 0-6.6.2l-12.5.3-13.1.4c-3.1 0-11.7-1.4-11.6-2.1 0-.8.3-1.5.7-2.2l3.2-6.7c1.7-3.6 3-8.6 6.4-10.9 1.5-1 3.3-1.3 5-1.6 5.5-.7 13.4-.3 16.1.4 3.5.8 6.4 5.6 8.8 8.4l8.2 10c.4.5.8 1 1 1.7l-.1 1.3z" fill="#979CD8"/><path clip-rule="evenodd" d="M728.1 112.8l-.4-11.7c0-6.6-.4-30.5-.3-30.8 0 0-28.1 0-28.2 1.3-.4 3.9-.6 40.5.1 41.4.7.8 28.8-.2 28.8-.2z" stroke="#F4F4FB" stroke-width="1.5" stroke-linecap="round" stroke-linejoin="round"/><path d="M727.4 70.3A267 267 0 00710.6 50a200.2 200.2 0 00-11.7 21.7l-20.4-.2" stroke="#F4F4FB" stroke-width="1.5" stroke-linecap="round" stroke-linejoin="round"/><path d="M710.8 49.6c-2.4-.1-20.4-.3-21.9 1-1 1-1.5 2-2 3.1l-8.4 16.5c-1.7 3-3 42.5-1.5 42.7 4 .5 22.3.3 22.3.3" stroke="#F4F4FB" stroke-width="1.5" stroke-linecap="round" stroke-linejoin="round"/><path clip-rule="evenodd" d="M709.2 78.7l-.4.3c-.4.5-.3 1.7-.3 2.4v4c0 1.1-.6 3.5.4 4.4 1.1.9 3 .2 4.3.1h2.8c.7 0 2.1.3 2.7-.3.5-.6.3-2.8.4-3.7v-4l-.1-2.4c-.2-1.7-2.4-1.3-3.8-1.4-1.1 0-2.2.3-3.2.3s-2-.1-2.8.3zM689.5 77.1c-.7-.5-2.1-.1-2.9-.1h-2.9l-.6 7h6.3v-3.3c0-.8.6-3.2 0-3.6zM689.5 89c-.7-.5-2.1 0-2.9 0h-2.9l-.6 6.9c2 0 4.2.2 6.3 0v-3.2c0-.8.6-3.2 0-3.6z" stroke="#F4F4FB" stroke-width="1.5" stroke-linecap="round" stroke-linejoin="round"/><path d="M634.4 36.3l3.7-1.9c2.4-1.2 14.5-7.1 18.3-8.7 1.8-.7 2.5-.7 4.3-.1 1.1.4 2.3.9 3.4 1.1 2.6.6 30.6 8.3 36.9 10.3M651.8 113.6c0-4.5.5-66.6 1.6-70.5M661.3 42.7c-1.2 3-.7 68.3-1.2 70.4" stroke="#F4F4FB" stroke-width="1.5" stroke-linecap="round" stroke-linejoin="round"/><path clip-rule="evenodd" d="M671.6 41.5c5.2-.2 10.5-.1 15.7-.6 3.7-.4 7.3-.5 11-.5 1.9 0 3.7 0 5.6-.3 1 0 1.3.2 1.7-.9.2-.5 0-1.7-.3-2-.6-.5-4.3-.2-5.1-.2-2.6-.1-5.4.1-8 .2-7.8.4-15.6.2-23.4.2l-11.7.2h-6.3c-1.9 0-3.5-.2-5.4 0v4c1.4.4 3.1.1 4.6.3 1.5 0 17.7-.2 21.6-.4z" stroke="#F4F4FB" stroke-width="1.5" stroke-linecap="round" stroke-linejoin="round"/><path d="M654.2 37c1.1-2.8 2.2-8 4.2-11.7.9 4 1.8 8.2 2.3 12" stroke="#F4F4FB" stroke-width="1.5" stroke-linecap="round" stroke-linejoin="round"/><path fill-rule="evenodd" clip-rule="evenodd" d="M629.7 40.6c-.2 3.4-.2 7 0 10.3 4.8.3 11.1.3 16 0 .5-1.8 1-13.3.4-14-.5-.6-4-.3-4.8-.3h-11.1l-.5 4z" fill="#979CD8"/><path clip-rule="evenodd" d="M629.7 40.6c-.2 3.4-.2 7 0 10.3 4.8.3 11.1.3 16 0 .5-1.8 1-13.3.4-14-.5-.6-4-.3-4.8-.3h-11.1l-.5 4z" stroke="#F4F4FB" stroke-width="1.5" stroke-linecap="round" stroke-linejoin="round"/></g><g opacity=".2"><path fill-rule="evenodd" clip-rule="evenodd" d="M967.6 113.3l.5-16.4-.1-.7c-.2-.3-.4-.4-.6-.5-1.5-.6-3.8-.5-5.4-.5-2.2.1-2.7 1-2.9 3-.3 4.5-.7 9.6-.6 14.9" fill="#979CD8"/><path d="M967.6 113.3l.5-16.4-.1-.7c-.2-.3-.4-.4-.6-.5-1.5-.6-3.8-.5-5.4-.5-2.2.1-2.7 1-2.9 3-.3 4.5-.7 9.6-.6 14.9" stroke="#979CD8" stroke-width="1.5" stroke-linecap="round" stroke-linejoin="round"/><path fill-rule="evenodd" clip-rule="evenodd" d="M950.4 69.9c0 .2.2.4.5.5 1 .6 3.5.2 4.7.2l6 .2c4 0 8 .2 11.9.3l12.3.3c2.9.1 11-1.2 10.9-1.9 0-.7-.4-1.4-.7-2l-3-6.3c-1.6-3.3-2.9-7.9-6-10a11 11 0 00-4.8-1.5c-5.1-.7-12.5-.3-15 .3-3.4.8-6 5.3-8.3 7.9-2.6 3-5.2 6-7.7 9.2-.4.5-.8 1-1 1.6 0 .4 0 .8.2 1.2z" fill="#979CD8"/><path clip-rule="evenodd" d="M950.4 69.9c0 .2.2.4.5.5 1 .6 3.5.2 4.7.2l6 .2c4 0 8 .2 11.9.3l12.3.3c2.9.1 11-1.2 10.9-1.9 0-.7-.4-1.4-.7-2l-3-6.3c-1.6-3.3-2.9-7.9-6-10a11 11 0 00-4.8-1.5c-5.1-.7-12.5-.3-15 .3-3.4.8-6 5.3-8.3 7.9-2.6 3-5.2 6-7.7 9.2-.4.5-.8 1-1 1.6 0 .4 0 .8.2 1.2z" stroke="#979CD8" stroke-width="1.5" stroke-linecap="round" stroke-linejoin="round"/><path clip-rule="evenodd" d="M951.7 113.1s-.7-10.3-.7-15l.4-28.5s26 0 26.2 1.1c.3 3.7.5 41.8-.2 42.6-.6.8-25.7-.2-25.7-.2z" stroke="#F4F4FB" stroke-width="1.5" stroke-linecap="round" stroke-linejoin="round"/><path d="M951.4 69.5a247.9 247.9 0 0115.6-19c1.3 1.5 9.6 17 10.8 20.2 6.5 0 12.5 0 19-.2" stroke="#F4F4FB" stroke-width="1.5" stroke-linecap="round" stroke-linejoin="round"/><path d="M966.8 50.4c2.2-.2 19-.4 20.3.9.9.8 1.4 1.8 2 2.8 2.5 5.1 5 10.3 7.7 15.3 1.5 2.8 2.7 43.6 1.3 43.8-3.7.4-20.6.3-20.6.3" stroke="#F4F4FB" stroke-width="1.5" stroke-linecap="round" stroke-linejoin="round"/><path clip-rule="evenodd" d="M959.2 88.8c6.3 3.8 12.7-5.7 8.8-11-2.5-3.4-8-3.1-10.7 0-2.7 3-1.5 9 1.9 11zM987.5 81.8c2.8.6 3.4-3 2.2-4.8-.3-.5-.9-1-1.5-1-2.7 0-3.6 5.2-.7 5.8zM987.7 94.4c4.3.8 4.2-8.4-.3-6.3-1.3.6-1.6 2.3-1.7 3.8 0 1.3 1 2.3 2 2.5z" stroke="#F4F4FB" stroke-width="1.5" stroke-linecap="round" stroke-linejoin="round"/><path d="M1004.1 96c.3 4.7-2.6 16.4-2.8 17.9M1007.9 95.5c-.3 3 .4 15.6.6 18.4" stroke="#F4F4FB" stroke-width="1.5" stroke-linecap="round" stroke-linejoin="round"/><path fill-rule="evenodd" clip-rule="evenodd" d="M999.6 73.2c.4-7-3.5-13.7-1.9-20.5.9-3.4.4-6.5 2.2-9.6.5-.9 1.5-4.2 2.6-4.3 1.8-.2 3.1 4 3.6 4.9.7 1.5 1 3.3 2 4.8 1.1 1.6 2.8 2.8 3.6 4.6 2.1 5-.9 9.1-.1 14 .8 5.4 4 10.4 5 15.7 1.2 7.3-5.7 16-16.2 12-9-3.6-1.2-16.7-.8-21.6z" fill="#979CD8"/><path clip-rule="evenodd" d="M999.6 73.2c.4-7-3.5-13.7-1.9-20.5.9-3.4.4-6.5 2.2-9.6.5-.9 1.5-4.2 2.6-4.3 1.8-.2 3.1 4 3.6 4.9.7 1.5 1 3.3 2 4.8 1.1 1.6 2.8 2.8 3.6 4.6 2.1 5-.9 9.1-.1 14 .8 5.4 4 10.4 5 15.7 1.2 7.3-5.7 16-16.2 12-9-3.6-1.2-16.7-.8-21.6z" stroke="#979CD8" stroke-width="1.5" stroke-linecap="round" stroke-linejoin="round"/><path d="M1006 90c-3-6.1-.2-13.4-.4-19.7-.3-6.9-3.4-15.1-2-22" stroke="#fff" stroke-width="1.5" stroke-linecap="round" stroke-linejoin="round"/><path fill-rule="evenodd" clip-rule="evenodd" d="M1609 113.3l.5-16.4-.1-.7c-.1-.3-.4-.4-.6-.5-1.4-.6-3.8-.5-5.4-.5-2.2.1-2.7 1-2.9 3-.3 4.5-.7 9.6-.6 14.9" fill="#979CD8"/><path d="M1609 113.3l.5-16.4-.1-.7c-.1-.3-.4-.4-.6-.5-1.4-.6-3.8-.5-5.4-.5-2.2.1-2.7 1-2.9 3-.3 4.5-.7 9.6-.6 14.9" stroke="#979CD8" stroke-width="1.5" stroke-linecap="round" stroke-linejoin="round"/><path fill-rule="evenodd" clip-rule="evenodd" d="M1591.8 69.9l.5.5c1 .6 3.5.2 4.7.2l6.1.2c4 0 7.9.2 11.8.3l12.3.3c3 .1 11-1.2 11-1.9-.1-.7-.4-1.4-.8-2l-3-6.3c-1.5-3.3-2.9-7.9-6-10a11 11 0 00-4.8-1.5c-5-.7-12.5-.3-15 .3-3.3.8-6 5.3-8.3 7.9-2.6 3-5.1 6-7.6 9.2-.4.5-.8 1-1 1.6l.1 1.2z" fill="#979CD8"/><path clip-rule="evenodd" d="M1591.8 69.9l.5.5c1 .6 3.5.2 4.7.2l6.1.2c4 0 7.9.2 11.8.3l12.3.3c3 .1 11-1.2 11-1.9-.1-.7-.4-1.4-.8-2l-3-6.3c-1.5-3.3-2.9-7.9-6-10a11 11 0 00-4.8-1.5c-5-.7-12.5-.3-15 .3-3.3.8-6 5.3-8.3 7.9-2.6 3-5.1 6-7.6 9.2-.4.5-.8 1-1 1.6l.1 1.2z" stroke="#979CD8" stroke-width="1.5" stroke-linecap="round" stroke-linejoin="round"/><path clip-rule="evenodd" d="M1593.2 113.1s-.8-10.3-.7-15l.3-28.5s26 0 26.2 1.1c.4 3.7.6 41.8-.1 42.6-.7.8-25.7-.2-25.7-.2z" stroke="#F4F4FB" stroke-width="1.5" stroke-linecap="round" stroke-linejoin="round"/><path d="M1592.8 69.5a247.6 247.6 0 0115.6-19c1.3 1.5 9.6 17 10.8 20.2 6.5 0 12.5 0 19-.2" stroke="#F4F4FB" stroke-width="1.5" stroke-linecap="round" stroke-linejoin="round"/><path d="M1608.2 50.4c2.2-.2 19-.4 20.3.9.9.8 1.4 1.8 2 2.8 2.5 5.1 5 10.3 7.7 15.3 1.5 2.8 2.8 43.6 1.3 43.8-3.6.4-20.6.3-20.6.3" stroke="#F4F4FB" stroke-width="1.5" stroke-linecap="round" stroke-linejoin="round"/><path clip-rule="evenodd" d="M1600.6 88.8c6.4 3.8 12.7-5.7 8.8-11-2.5-3.4-8-3.1-10.7 0-2.6 3-1.5 9 1.9 11zM1629 81.8c2.7.6 3.3-3 2.2-4.8-.4-.5-1-1-1.5-1-2.7 0-3.7 5.2-.8 5.8zM1629.2 94.4c4.2.8 4.1-8.4-.4-6.3-1.3.6-1.5 2.3-1.6 3.8-.1 1.3.8 2.3 2 2.5z" stroke="#F4F4FB" stroke-width="1.5" stroke-linecap="round" stroke-linejoin="round"/><path d="M1645.6 96c.2 4.7-2.6 16.4-3 17.9M1649.3 95.5c-.3 3 .5 15.6.6 18.4" stroke="#F4F4FB" stroke-width="1.5" stroke-linecap="round" stroke-linejoin="round"/><path fill-rule="evenodd" clip-rule="evenodd" d="M1641 73.2c.5-7-3.5-13.7-1.8-20.5.8-3.4.3-6.5 2.1-9.6.5-.9 1.5-4.2 2.6-4.3 1.9-.2 3.2 4 3.6 4.9.7 1.5 1 3.3 2 4.8 1.1 1.6 2.8 2.8 3.6 4.6 2.2 5-.9 9.1-.1 14 .8 5.4 4 10.4 5 15.7 1.2 7.3-5.7 16-16.2 12-8.9-3.6-1.2-16.7-.8-21.6z" fill="#979CD8"/><path clip-rule="evenodd" d="M1641 73.2c.5-7-3.5-13.7-1.8-20.5.8-3.4.3-6.5 2.1-9.6.5-.9 1.5-4.2 2.6-4.3 1.9-.2 3.2 4 3.6 4.9.7 1.5 1 3.3 2 4.8 1.1 1.6 2.8 2.8 3.6 4.6 2.2 5-.9 9.1-.1 14 .8 5.4 4 10.4 5 15.7 1.2 7.3-5.7 16-16.2 12-8.9-3.6-1.2-16.7-.8-21.6z" stroke="#979CD8" stroke-width="1.5" stroke-linecap="round" stroke-linejoin="round"/><path d="M1647.5 90c-3-6.1-.2-13.4-.5-19.7-.3-6.9-3.4-15.1-1.9-22" stroke="#fff" stroke-width="1.5" stroke-linecap="round" stroke-linejoin="round"/><path fill-rule="evenodd" clip-rule="evenodd" d="M1242.8 113.4l-.2-3.7c-.1-1.3 0-2.6.1-4 .2-3 1.1-6.4 3.4-8.8 2.5-2.6 5.8-4.5 9.4-3.5 4.2 1.2 4.6 4.6 5.1 8.2.3 1.8.2 3.6.2 5.4v6M1274.4 48l-10.1-.2c-4.3 0-8.6.3-12.8.3-6.6 0-18 1-19.6 1.3a63 63 0 00-12 12.2c-.2.6 3 .3 5.5.3h28.9c4.8 0 9-.4 13.8-.4 2.1 0 14 .6 14.8-.5.7-.8-1.2-2.3-1.7-3.4-1-1.9-2-3.2-3.4-4.9-1.4-1.8-2-3.5-3.4-4.6z" fill="#979CD8"/><path clip-rule="evenodd" d="M1274.4 48l-10.1-.2c-4.3 0-8.6.3-12.8.3-6.6 0-18 1-19.6 1.3a63 63 0 00-12 12.2c-.2.6 3 .3 5.5.3h28.9c4.8 0 9-.4 13.8-.4 2.1 0 14 .6 14.8-.5.7-.8-1.2-2.3-1.7-3.4-1-1.9-2-3.2-3.4-4.9-1.4-1.8-2-3.5-3.4-4.6z" stroke="#979CD8" stroke-width="1.5"/><path fill-rule="evenodd" clip-rule="evenodd" d="M1259.7 78c-.1-.6 0-1.3-.3-2h-.1l-.3-.1c-2 0-14.3 0-14.6.5-.2.3-.2.5-.2.8l.2 3.3c0 .2 0 .4.3.5h.4l13.8-.1.5-.1.2-.3V78z" fill="#F4F4FB"/><path fill-rule="evenodd" clip-rule="evenodd" d="M1259.7 78c-.1-.6 0-1.3-.3-2h-.1l-.3-.1c-2 0-14.3 0-14.6.5-.2.3-.2.5-.2.8l.2 3.3c0 .2 0 .4.3.5h.4l13.8-.1.5-.1.2-.3V78z" fill="#979CD8"/><path fill-rule="evenodd" clip-rule="evenodd" d="M1225.6 81v-.1c-.3-.3-.1-1-.1-1.3v-2.5c0-.2 0-.5.2-.7.2-.4 1.2-.3 1.6-.3h12.5c.7 0 .4.9.4 1.4v3c-.1.4-.5.6-1 .5h-13.6z" fill="#F4F4FB"/><path fill-rule="evenodd" clip-rule="evenodd" d="M1225.6 81v-.1c-.3-.3-.1-1-.1-1.3v-2.5c0-.2 0-.5.2-.7.2-.4 1.2-.3 1.6-.3h12.5c.7 0 .4.9.4 1.4v3c-.1.4-.5.6-1 .5h-13.6z" fill="#979CD8"/><path fill-rule="evenodd" clip-rule="evenodd" d="M1240.4 84.6c.2.3.1 1 .1 1.3l-.1 2.5-.1.6c-.3.5-1.2.4-1.6.4h-12.2c-.7 0-.4-1-.4-1.3 0-1-.1-2.2.1-3.2v-.2l.3-.1c1-.2 13.7-.2 13.9 0z" fill="#F4F4FB"/><path fill-rule="evenodd" clip-rule="evenodd" d="M1240.4 84.6c.2.3.1 1 .1 1.3l-.1 2.5-.1.6c-.3.5-1.2.4-1.6.4h-12.2c-.7 0-.4-1-.4-1.3 0-1-.1-2.2.1-3.2v-.2l.3-.1c1-.2 13.7-.2 13.9 0z" fill="#979CD8"/><path fill-rule="evenodd" clip-rule="evenodd" d="M1245 89v-.2c-.4-1.4-.3-2.6-.2-4v-.1h.1a174.1 174.1 0 0114.4-.1l.1.4c.2.8.2 3.6 0 4-.2.2-.6.2-.9.2h-13.4V89z" fill="#F4F4FB"/><path fill-rule="evenodd" clip-rule="evenodd" d="M1245 89v-.2c-.4-1.4-.3-2.6-.2-4v-.1h.1a174.1 174.1 0 0114.4-.1l.1.4c.2.8.2 3.6 0 4-.2.2-.6.2-.9.2h-13.4V89zM1226.9 106.4c-.2-.3-.1-1-.1-1.3V94.6l.2-.6c.2-.5 1-.4 1.2-.4l9.6-.1c.5 0 .3 1 .3 1.4a699.2 699.2 0 000 11c-.1.5-.4.6-.8.6l-10.4-.1z" fill="#979CD8"/><path fill-rule="evenodd" clip-rule="evenodd" d="M1276.9 75.9v.2c.4 1.4.3 2.6.2 4v.1h-.1a149 149 0 01-13.3.1l-.2-.4c-.1-.8-.1-3.6.1-4 .2-.2.5-.2.8-.2h12.4v.2z" fill="#F4F4FB"/><path fill-rule="evenodd" clip-rule="evenodd" d="M1276.9 75.9v.2c.4 1.4.3 2.6.2 4v.1h-.1a149 149 0 01-13.3.1l-.2-.4c-.1-.8-.1-3.6.1-4 .2-.2.5-.2.8-.2h12.4v.2z" fill="#979CD8"/><path fill-rule="evenodd" clip-rule="evenodd" d="M1275.5 93.4c.1 1 .7 11.5 0 12.2l-.5.2a98.5 98.5 0 01-10-.3l-.1-.5a195.2 195.2 0 01.1-11.8l.3-.1c.5 0 10.1-.1 10.2.3z" fill="#F4F4FB"/><path fill-rule="evenodd" clip-rule="evenodd" d="M1275.5 93.4c.1 1 .7 11.5 0 12.2l-.5.2a98.5 98.5 0 01-10-.3l-.1-.5a195.2 195.2 0 01.1-11.8l.3-.1c.5 0 10.1-.1 10.2.3z" fill="#979CD8"/><path fill-rule="evenodd" clip-rule="evenodd" d="M1277.3 86c0-.7.1-1.4-.2-2l-.2-.2h-.3c-2 0-13.1 0-13.5.5l-.1.8.1 3.3c0 .2 0 .4.3.5h.4l12.8-.1.5-.1.1-.3c.2-.8.2-1.6.1-2.4z" fill="#F4F4FB"/><path fill-rule="evenodd" clip-rule="evenodd" d="M1277.3 86c0-.7.1-1.4-.2-2l-.2-.2h-.3c-2 0-13.1 0-13.5.5l-.1.8.1 3.3c0 .2 0 .4.3.5h.4l12.8-.1.5-.1.1-.3c.2-.8.2-1.6.1-2.4z" fill="#979CD8"/><path clip-rule="evenodd" d="M1220 112.1c0 .8.6 1.4 1.4 1.5 1.7.1 59.8-.3 60.9-.9 2.3-1 1.5-51.3.8-52.4-2.8.5-5.6.2-8.4.3-5.3.1-54.5.8-54.6.7l-.1 50.8z" stroke="#F4F4FB" stroke-width="1.5" stroke-linecap="round" stroke-linejoin="round"/><path d="M1220 61.6a60.4 60.4 0 0112.7-13.1c1-.2 37.8-1.2 39.1-1 .9 0 2.4-.2 3.2.1a58.6 58.6 0 018.2 12.9" stroke="#F4F4FB" stroke-width="1.5" stroke-linecap="round" stroke-linejoin="round"/><path clip-rule="evenodd" d="M1232.8 70.3c.4-.9.5-2 .4-2.8a3 3 0 00-1.6-2.4c-1.5-.7-3.3.3-4.1 1.8-1.1 2-.7 5.1 2 5.5 1.7.3 2.8-.7 3.3-2.1zM1242.5 71.4a3 3 0 004.7-.2l.6-1.5c.2-1 .3-2-.2-2.7-1-1.7-3.9-1.7-5-.2-1 1.2-1.2 3.4 0 4.6zM1256.4 70.3c2 2.6 6.2.4 6.3-2.6.1-3.2-4.2-4.5-6-2a4 4 0 00-.4 4.5h.1z" stroke="#F4F4FB" stroke-width="1.5" stroke-linecap="round" stroke-linejoin="round"/><path d="M1273.3 64.2c-2.5-.2-4.8 3.8-3.3 5.8 2.8 3.7 8-.3 6-4-.8-1.5-2.7-2.3-4.3-1.3M1237 48.4c-2.4 4.5-4.7 8-7 12.4M1243.2 48.5c-.7 4.7-1.5 7.9-2.5 12.6M1250.2 48c.2 5 0 8.2-.6 13M1256.4 48c0 4.8-.2 8-.3 12.6M1262.4 47.6c.4 4.7 1 8.3 1.6 13M1269.3 47.9c1 4.7 2.1 7.8 3.6 12.3" stroke="#F4F4FB" stroke-width="1.5" stroke-linecap="round" stroke-linejoin="round"/><path fill-rule="evenodd" clip-rule="evenodd" d="M1037 27.8v-.1c-.3-.4-.1-1.7-.1-2.2l.1-4.2c0-.4 0-.8.2-1.2.3-.7 1.6-.5 2.1-.6 1 0 17.5-.2 19.6-.1 1 0 .5 1.7.5 2.4a63.8 63.8 0 000 5.2c-.2.8-.7 1-1.3 1-1 0-20.8 0-21-.2z" fill="#979CD8"/><path clip-rule="evenodd" d="M1037 27.8v-.1c-.3-.4-.1-1.7-.1-2.2l.1-4.2c0-.4 0-.8.2-1.2.3-.7 1.6-.5 2.1-.6 1 0 17.5-.2 19.6-.1 1 0 .5 1.7.5 2.4a63.8 63.8 0 000 5.2c-.2.8-.7 1-1.3 1-1 0-20.8 0-21-.2z" stroke="#979CD8" stroke-width="1.5" stroke-linecap="round" stroke-linejoin="round"/><path fill-rule="evenodd" clip-rule="evenodd" d="M1059.7 34v.2c.2.3.1 1.6.1 2l-.1 3.3c0 .4 0 .8-.2 1.1-.3.8-1.5.6-2 .6l-19.3.2c-.9 0-.5-1.8-.5-2.4 0-1.8-.1-2.6.2-4.4l.1-.4.3-.1c1.2-.4 21.1-.4 21.4 0z" fill="#979CD8"/><path clip-rule="evenodd" d="M1059.7 34v.2c.2.3.1 1.6.1 2l-.1 3.3c0 .4 0 .8-.2 1.1-.3.8-1.5.6-2 .6l-19.3.2c-.9 0-.5-1.8-.5-2.4 0-1.8-.1-2.6.2-4.4l.1-.4.3-.1c1.2-.4 21.1-.4 21.4 0z" stroke="#979CD8" stroke-width="1.5" stroke-linecap="round" stroke-linejoin="round"/><path fill-rule="evenodd" clip-rule="evenodd" d="M1037 56.1V56c-.3-.4-.1-1.7-.1-2.1l.1-6c0-.4 0-.8.2-1.2.3-.7 1.6-.5 2.1-.6l19.6-.1c1 0 .5 1.7.5 2.5a131.6 131.6 0 000 6.8c-.2.9-.7 1-1.3 1-1 0-20.8.1-21-.2z" fill="#979CD8"/><path clip-rule="evenodd" d="M1037 56.1V56c-.3-.4-.1-1.7-.1-2.1l.1-6c0-.4 0-.8.2-1.2.3-.7 1.6-.5 2.1-.6l19.6-.1c1 0 .5 1.7.5 2.5a131.6 131.6 0 000 6.8c-.2.9-.7 1-1.3 1-1 0-20.8.1-21-.2z" stroke="#979CD8" stroke-width="1.5" stroke-linecap="round" stroke-linejoin="round"/><path fill-rule="evenodd" clip-rule="evenodd" d="M1058.4 62.7l.2.4c.5 2.4.3 6.1.2 8.5l-.1.2h-.2a209.7 209.7 0 01-20.5.2c-.2-.2-.2-.5-.3-.8a47 47 0 01.2-8.4c.2-.3.6-.4 1-.4h18.7l.7.1.1.2z" fill="#979CD8"/><path clip-rule="evenodd" d="M1058.4 62.7l.2.4c.5 2.4.3 6.1.2 8.5l-.1.2h-.2a209.7 209.7 0 01-20.5.2c-.2-.2-.2-.5-.3-.8a47 47 0 01.2-8.4c.2-.3.6-.4 1-.4h18.7l.7.1.1.2z" stroke="#979CD8" stroke-width="1.5" stroke-linecap="round" stroke-linejoin="round"/><path fill-rule="evenodd" clip-rule="evenodd" d="M1037 83.1c.1 1.2 0 2.4.4 3.4 0 .1 0 .2.2.3h.4c2.6 0 20.4 0 20.8-.8.3-.4.3-1 .2-1.4l-.2-5.6c0-.4 0-.8-.3-1h-.6l-19.9.3c-.2 0-.5 0-.7.2l-.1.5c-.2 1.4-.2 2.8-.2 4.1z" fill="#979CD8"/><path clip-rule="evenodd" d="M1037 83.1c.1 1.2 0 2.4.4 3.4 0 .1 0 .2.2.3h.4c2.6 0 20.4 0 20.8-.8.3-.4.3-1 .2-1.4l-.2-5.6c0-.4 0-.8-.3-1h-.6l-19.9.3c-.2 0-.5 0-.7.2l-.1.5c-.2 1.4-.2 2.8-.2 4.1z" stroke="#979CD8" stroke-width="1.5" stroke-linecap="round" stroke-linejoin="round"/><path clip-rule="evenodd" d="M1032.3 113l-.8-98c0-.1 31-.8 32.4-.2 1.4.6 1.5 47.1 1.6 48.5.5 4.3 0 47.2-.2 49.3-.2 1.2-33 .4-33 .4z" stroke="#F4F4FB" stroke-width="1.5" stroke-linecap="round" stroke-linejoin="round"/><path d="M1040.5 113c-.5-.7.5-17.9 1-20 .6-2 4-1.7 6.2-1.6 2.3.2 4.7.2 7 .2 1.3 0 2.4 1 2.5 2.2.3 5.4-.3 17.5-.2 19" stroke="#F4F4FB" stroke-width="1.5" stroke-linecap="round" stroke-linejoin="round"/><path fill-rule="evenodd" clip-rule="evenodd" d="M1029 15.3l.6.2a1970.7 1970.7 0 0038.3-.2c.3-.2.8-4.3-.3-4.7-1.2-.3-32 0-35 .2-.8 0-2.7-.3-3.4.3-.5.4-.8 3.6-.3 4.2z" fill="#979CD8"/><path clip-rule="evenodd" d="M1029 15.3l.6.2a1970.7 1970.7 0 0038.3-.2c.3-.2.8-4.3-.3-4.7-1.2-.3-32 0-35 .2-.8 0-2.7-.3-3.4.3-.5.4-.8 3.6-.3 4.2z" stroke="#979CD8" stroke-width="1.5" stroke-linecap="round" stroke-linejoin="round"/><path d="M1049.5 91.7c-.2.2-.2.5-.2.9-.2 3.2-.5 13.5-.6 20.4" stroke="#F4F4FB" stroke-width="1.5" stroke-linecap="round" stroke-linejoin="round"/><path fill-rule="evenodd" clip-rule="evenodd" d="M1094.8 113.2c.5-.6.4-16.6-.3-18.8-.5-1.9-4.2-1.7-6.6-1.5-3 .1-6.4-.2-9.4 0-.8 0-1.5.6-1.6 1.4-.6 4.7-.1 17.1-.3 18.6" fill="#979CD8"/><path d="M1094.8 113.2c.5-.6.4-16.6-.3-18.8-.5-1.9-4.2-1.7-6.6-1.5-3 .1-6.4-.2-9.4 0-.8 0-1.5.6-1.6 1.4-.6 4.7-.1 17.1-.3 18.6" stroke="#979CD8" stroke-width="1.5" stroke-linecap="round" stroke-linejoin="round"/><path fill-rule="evenodd" clip-rule="evenodd" d="M1099.2 21.7c2-.9-2-5-2.8-5.9-1.9-2.1-4.3-3.7-7-4.6-3-1-6 .2-8.8 1-3.3 1-5.7 2.2-8.5 4.3-1.3.9-3.3 4.5-3.3 5 .4 1 15.3.2 22.8.3h7.6z" fill="#303AB2"/><path clip-rule="evenodd" d="M1099.2 21.7s0 0 0 0c2-.9-2-5-2.8-5.9-1.9-2.1-4.3-3.7-7-4.6-3-1-6 .2-8.8 1-3.3 1-5.7 2.2-8.5 4.3-1.3.9-3.3 4.5-3.3 5 .4 1 15.3.2 22.8.3h7.6z" stroke="#303AB2" stroke-width="1.5" stroke-linecap="round" stroke-linejoin="round"/><path clip-rule="evenodd" d="M1075.9 43.4h-.1c-.2-.4 0-1.6 0-2V29.7c0-.3 0-.7.2-1 .3-.7 1.5-.6 2-.6 1 0 13.5-.2 15.5-.1.8 0 .5 1.5.4 2.3V42.7c-.1.8-.6 1-1.1 1-1-.1-16.7 0-17-.3zM1093 49.6l.2.4c.4 2.2.2 11.6.1 13.8v.2h-.1a142.2 142.2 0 01-16.4.2c-.2-.2-.2-.5-.3-.7a139 139 0 01.2-13.8c.1-.4.6-.4 1-.4h14.5l.7.1.1.2zM1075.9 83.5c0 1-.1 2.1.3 3.1l.1.3h.4c2.5 0 16.3 0 16.7-.8.2-.4.2-.8.2-1.3l-.2-14.1c0-.4 0-.7-.3-.9h-.5l-15.8.2c-.3 0-.5 0-.7.3l-.1.4c-.2 1.3-.2 11.5-.1 12.8z" stroke="#F4F4FB" stroke-width="1.5" stroke-linecap="round" stroke-linejoin="round"/><path clip-rule="evenodd" d="M1070.3 113l-.3-92c0-.1 27.8-.6 29.2 0 1.4.5 1 1 1 2.4.5 4.2 1.5 88.6.7 89.5-.8 1-30.7.2-30.7.2z" stroke="#F4F4FB" stroke-width="1.5" stroke-linecap="round" stroke-linejoin="round"/><path d="M1070 20.6c3.9-4.8 9.7-8.8 15.8-8.9 6 0 12.3 3.7 14.3 9.5M1076 35.8a131 131 0 0117.7.3M1076.5 56.9a78 78 0 0111.2-.3h5.2M1075.8 78.4c3.1.4 6.3.4 9.4.3l2.7-.2 5.4-.5" stroke="#F4F4FB" stroke-width="1.5" stroke-linecap="round" stroke-linejoin="round"/><path d="M1084.7 28l-.5 15.4v.3c.2 0 .3-.1.2-.2M1084.8 49.2l-.4 15.1M1084.5 70c0 5.7.4 11.1 0 16.8" stroke="#F4F4FB" stroke-width="1.5" stroke-linecap="round" stroke-linejoin="round"/><path fill-rule="evenodd" clip-rule="evenodd" d="M1511.6 27.8v-.1c-.3-.4-.2-1.7-.1-2.2v-4.2l.3-1.2c.3-.7 1.5-.5 2-.6 1.2 0 17.5-.2 19.7-.1.9 0 .5 1.7.5 2.4a63.8 63.8 0 000 5.2c-.2.8-.7 1-1.3 1-1 0-20.8 0-21.1-.2z" fill="#979CD8"/><path clip-rule="evenodd" d="M1511.6 27.8v-.1c-.3-.4-.2-1.7-.1-2.2v-4.2l.3-1.2c.3-.7 1.5-.5 2-.6 1.2 0 17.5-.2 19.7-.1.9 0 .5 1.7.5 2.4a63.8 63.8 0 000 5.2c-.2.8-.7 1-1.3 1-1 0-20.8 0-21.1-.2z" stroke="#979CD8" stroke-width="1.5" stroke-linecap="round" stroke-linejoin="round"/><path fill-rule="evenodd" clip-rule="evenodd" d="M1534.2 34l.1.2c.2.3 0 1.6 0 2v3.3c0 .4 0 .8-.2 1.1-.3.8-1.6.6-2 .6l-19.3.2c-1 0-.5-1.8-.5-2.4 0-1.8-.1-2.6.1-4.4l.1-.4.4-.1c1.2-.4 21-.4 21.3 0z" fill="#979CD8"/><path clip-rule="evenodd" d="M1534.2 34l.1.2c.2.3 0 1.6 0 2v3.3c0 .4 0 .8-.2 1.1-.3.8-1.6.6-2 .6l-19.3.2c-1 0-.5-1.8-.5-2.4 0-1.8-.1-2.6.1-4.4l.1-.4.4-.1c1.2-.4 21-.4 21.3 0z" stroke="#979CD8" stroke-width="1.5" stroke-linecap="round" stroke-linejoin="round"/><path fill-rule="evenodd" clip-rule="evenodd" d="M1511.6 56.1V56c-.3-.4-.2-1.7-.1-2.1v-6l.3-1.2c.3-.7 1.5-.5 2-.6l19.7-.1c.9 0 .5 1.7.5 2.5a131.6 131.6 0 000 6.8c-.2.9-.7 1-1.3 1-1 0-20.8.1-21.1-.2z" fill="#979CD8"/><path clip-rule="evenodd" d="M1511.6 56.1V56c-.3-.4-.2-1.7-.1-2.1v-6l.3-1.2c.3-.7 1.5-.5 2-.6l19.7-.1c.9 0 .5 1.7.5 2.5a131.6 131.6 0 000 6.8c-.2.9-.7 1-1.3 1-1 0-20.8.1-21.1-.2z" stroke="#979CD8" stroke-width="1.5" stroke-linecap="round" stroke-linejoin="round"/><path fill-rule="evenodd" clip-rule="evenodd" d="M1533 62.7l.1.4c.5 2.4.3 6.1.2 8.5v.2h-.2a209.9 209.9 0 01-20.5.2 47 47 0 01-.1-9.2c.2-.3.6-.4 1-.4h18.6l.8.1v.2z" fill="#979CD8"/><path clip-rule="evenodd" d="M1533 62.7l.1.4c.5 2.4.3 6.1.2 8.5v.2h-.2a209.9 209.9 0 01-20.5.2 47 47 0 01-.1-9.2c.2-.3.6-.4 1-.4h18.6l.8.1v.2z" stroke="#979CD8" stroke-width="1.5" stroke-linecap="round" stroke-linejoin="round"/><path fill-rule="evenodd" clip-rule="evenodd" d="M1511.6 83.1c0 1.2-.1 2.4.3 3.4l.2.3h.4c2.7 0 20.5 0 21-.8l.1-1.4-.2-5.6c0-.4 0-.8-.4-1h-.5l-20 .3c-.2 0-.4 0-.6.2l-.2.5c-.2 1.4-.2 2.8 0 4.1z" fill="#979CD8"/><path clip-rule="evenodd" d="M1511.6 83.1c0 1.2-.1 2.4.3 3.4l.2.3h.4c2.7 0 20.5 0 21-.8l.1-1.4-.2-5.6c0-.4 0-.8-.4-1h-.5l-20 .3c-.2 0-.4 0-.6.2l-.2.5c-.2 1.4-.2 2.8 0 4.1z" stroke="#979CD8" stroke-width="1.5" stroke-linecap="round" stroke-linejoin="round"/><path clip-rule="evenodd" d="M1506.8 113l-.8-98c.1-.1 31-.8 32.5-.2 1.3.6 1.5 47.1 1.6 48.5.5 4.3 0 47.2-.3 49.3-.1 1.2-33 .4-33 .4z" stroke="#F4F4FB" stroke-width="1.5" stroke-linecap="round" stroke-linejoin="round"/><path d="M1515 113c-.5-.7.5-17.9 1.2-20 .5-2 3.8-1.7 6-1.6 2.4.2 4.7.2 7 .2 1.3 0 2.4 1 2.5 2.2.4 5.4-.2 17.5-.1 19" stroke="#F4F4FB" stroke-width="1.5" stroke-linecap="round" stroke-linejoin="round"/><path fill-rule="evenodd" clip-rule="evenodd" d="M1503.5 15.3l.6.2a1970.7 1970.7 0 0038.4-.2c.2-.2.8-4.3-.4-4.7-1.1-.3-32 0-35 .2-.8 0-2.7-.3-3.3.3-.5.4-.9 3.6-.3 4.2z" fill="#979CD8"/><path clip-rule="evenodd" d="M1503.5 15.3l.6.2a1970.7 1970.7 0 0038.4-.2c.2-.2.8-4.3-.4-4.7-1.1-.3-32 0-35 .2-.8 0-2.7-.3-3.3.3-.5.4-.9 3.6-.3 4.2z" stroke="#979CD8" stroke-width="1.5" stroke-linecap="round" stroke-linejoin="round"/><path d="M1524.1 91.7c-.2.2-.2.5-.3.9l-.6 20.4" stroke="#F4F4FB" stroke-width="1.5" stroke-linecap="round" stroke-linejoin="round"/><path fill-rule="evenodd" clip-rule="evenodd" d="M1569.4 113.2c.5-.6.3-16.6-.3-18.8-.6-1.9-4.2-1.7-6.7-1.5-2.9.1-6.4-.2-9.3 0-.8 0-1.5.6-1.6 1.4-.7 4.7-.2 17.1-.3 18.6" fill="#979CD8"/><path d="M1569.4 113.2c.5-.6.3-16.6-.3-18.8-.6-1.9-4.2-1.7-6.7-1.5-2.9.1-6.4-.2-9.3 0-.8 0-1.5.6-1.6 1.4-.7 4.7-.2 17.1-.3 18.6" stroke="#979CD8" stroke-width="1.5" stroke-linecap="round" stroke-linejoin="round"/><path fill-rule="evenodd" clip-rule="evenodd" d="M1573.8 21.7c1.9-.9-2-5-2.8-5.9-2-2.1-4.4-3.7-7-4.6-3-1-6 .2-8.8 1-3.3 1-5.7 2.2-8.6 4.3-1.2.9-3.3 4.5-3.2 5 .3 1 15.3.2 22.8.3h7.6z" fill="#303AB2"/><path clip-rule="evenodd" d="M1573.8 21.7s0 0 0 0c1.9-.9-2-5-2.8-5.9-2-2.1-4.4-3.7-7-4.6-3-1-6 .2-8.8 1-3.3 1-5.7 2.2-8.6 4.3-1.2.9-3.3 4.5-3.2 5 .3 1 15.3.2 22.8.3h7.6z" stroke="#303AB2" stroke-width="1.5" stroke-linecap="round" stroke-linejoin="round"/><path clip-rule="evenodd" d="M1550.4 43.4s0 0 0 0c-.2-.4-.1-1.6-.1-2l.1-11.6c0-.3 0-.7.2-1 .3-.7 1.5-.6 2-.6 1 0 13.5-.2 15.4-.1.9 0 .5 1.5.5 2.3V42.7c-.2.8-.6 1-1.2 1-1-.1-16.6 0-16.9-.3zM1567.6 49.6l.1.4c.5 2.2.3 11.6.2 13.8v.2h-.2a142.2 142.2 0 01-16.4.2l-.2-.7a139 139 0 01.1-13.8c.2-.4.6-.4 1-.4h14.6l.7.1v.2zM1550.4 83.5c.1 1 0 2.1.3 3.1l.2.3h.4c2.5 0 16.3 0 16.7-.8.2-.4.2-.8.2-1.3l-.2-14.1c0-.4-.1-.7-.4-.9h-.5l-15.8.2c-.2 0-.4 0-.6.3l-.2.4c-.1 1.3-.1 11.5 0 12.8z" stroke="#F4F4FB" stroke-width="1.5" stroke-linecap="round" stroke-linejoin="round"/><path clip-rule="evenodd" d="M1544.8 113l-.3-92c0-.1 27.9-.6 29.3 0 1.4.5.9 1 1 2.4.5 4.2 1.4 88.6.6 89.5-.7 1-30.6.2-30.6.2z" stroke="#F4F4FB" stroke-width="1.5" stroke-linecap="round" stroke-linejoin="round"/><path d="M1544.6 20.6c3.8-4.8 9.6-8.8 15.7-8.9 6.1 0 12.3 3.7 14.4 9.5M1550.6 35.8a131 131 0 0117.7.3M1551 56.9a78 78 0 0111.3-.3h5.2M1550.4 78.4c3.1.4 6.2.4 9.3.3l2.8-.2 5.4-.5" stroke="#F4F4FB" stroke-width="1.5" stroke-linecap="round" stroke-linejoin="round"/><path d="M1559.3 28l-.6 15.4.1.3c.2 0 .3-.1.2-.2M1559.4 49.2c-.3 5-.4 10-.4 15.1M1559 70c.1 5.7.5 11.1 0 16.8M1162.5 51.4c3.4.5 8.5 6.1 8.8 9.7M1161.8 51.2c-2.1-1.4-10.4-1.5-10 2.2M1162.7 51.4c0-.2 4.2-4.6 9.5-.2M1162.6 50.5c.3-3.4 4.6-6.4 8-5.6M1161.7 50.7c-1.4-3-7.2-6.9-10.5-5.1M1161.9 51.1c-.2-2.2.3-6.8 1.3-8.8M1162.3 52.2c-3.8-1.2-8 5-6 9.7M1162.2 51.6c5.4 16.3 6.3 42.5 6 63M1131.5 96.7c.3 4.6-2.5 16.2-2.8 17.7M1135.3 96c-.3 3 .4 15.6.6 18.4" stroke="#F4F4FB" stroke-width="1.5" stroke-linecap="round" stroke-linejoin="round"/><path fill-rule="evenodd" clip-rule="evenodd" d="M1126.6 73.8a21 21 0 000-5.5c-.4-3.4-1.4-6.8-1.8-10.4-.6-5.2-.1-10 1.5-15 .9-3 5-7.6 7.3-3 .7 1.7.8 4.5 1.2 6.3.5 2.2 1.1 3.5 2.3 5.3 2.3 3.3 3 7.1 2.1 11-.7 3.7-.2 6 .8 9.5 1 3.4 3.2 6.8 3.7 10.3a26 26 0 010 7.6c-1 5-4.2 9.4-9.5 10-3.9.3-7-2-9-5.1-2.2-3.2-1.6-7.5-.8-11 .4-2.3 1.3-4.5 1.7-6.8l.5-3.2z" fill="#979CD8"/><path clip-rule="evenodd" d="M1126.6 73.8a21 21 0 000-5.5c-.4-3.4-1.4-6.8-1.8-10.4-.6-5.2-.1-10 1.5-15 .9-3 5-7.6 7.3-3 .7 1.7.8 4.5 1.2 6.3.5 2.2 1.1 3.5 2.3 5.3 2.3 3.3 3 7.1 2.1 11-.7 3.7-.2 6 .8 9.5 1 3.4 3.2 6.8 3.7 10.3a26 26 0 010 7.6c-1 5-4.2 9.4-9.5 10-3.9.3-7-2-9-5.1-2.2-3.2-1.6-7.5-.8-11 .4-2.3 1.3-4.5 1.7-6.8l.5-3.2z" stroke="#F4F4FB" stroke-width="1.5" stroke-linecap="round" stroke-linejoin="round"/><path d="M1133.5 90.6c-3-6-.3-13.3-.5-19.6-.3-6.8-3.4-15-1.9-21.8M1189.4 79c.1 2.8-.7 13.8-1.7 16.4M1191.7 78.5c-.2 2-.2 13.8.5 17" stroke="#F4F4FB" stroke-width="1.5" stroke-linecap="round" stroke-linejoin="round"/><path fill-rule="evenodd" clip-rule="evenodd" d="M1184.3 70.8c-.1-1.2-.2-2.4-.5-3.5-.6-2.4-2.1-4.3-2.6-6.7-.6-2.7-1-5.7-.4-8.4 1.3-6.5 7-10.3 13.2-8 4 1.6 6.2 5.3 5.7 9.7-.5 3.5-2 6.7-2 10.2-.2 1.6-.4 3-.3 4.5.5 4.9-.8 12.2-6.9 12-5.7-.1-5.8-5.4-6.2-9.8z" fill="#979CD8"/><path clip-rule="evenodd" d="M1184.3 70.8c-.1-1.2-.2-2.4-.5-3.5-.6-2.4-2.1-4.3-2.6-6.7-.6-2.7-1-5.7-.4-8.4 1.3-6.5 7-10.3 13.2-8 4 1.6 6.2 5.3 5.7 9.7-.5 3.5-2 6.7-2 10.2-.2 1.6-.4 3-.3 4.5.5 4.9-.8 12.2-6.9 12-5.7-.1-5.8-5.4-6.2-9.8z" stroke="#979CD8" stroke-width="1.5" stroke-linecap="round" stroke-linejoin="round"/><path d="M1190.7 76c-1.9-3.8-.2-8.4-.3-12.4-.2-4.2-2.2-9.4-1.2-13.7M1193 57.2a31 31 0 002-5.7M1186.6 64c-1.5-1.3-2-4.5-2.8-6.2M1198.9 96.8c0-1.4-.1-3 .4-4.3M1189.2 104.7v-3.5M1179.7 98.1a6 6 0 01.3-4M1172.3 102.2c0-1-.2-1.9-.5-2.8M1178.5 111c-.4-.9-.3-2.7 0-3.6M1188 114.8c-.5-1.4.2-4 .8-4.7M1197 111v-3.2M1159.2 112.5c0-1 .4-2.2.4-3.3M1144 113c.1-1.3-.4-2.7-.3-4M1150.8 107.5c0-1.5 0-3 .3-4.4M1144.6 99.1c0-.7 0-1.5.2-2M1159.6 99.7l.3-2.7M1152.5 94.5c0-.5 0-1.1.3-1.7M1123.2 102.8c.3-.5.5-1 .6-1.6M1120.1 112c0-1-.1-2.3.2-3.2M1204.4 101.7c0 .8-.3 2.5-.2 3M1711.8 51.4c3.5.5 8.6 6.1 8.8 9.7M1711.1 51.2c-2-1.4-10.3-1.5-10 2.2M1712 51.4c.1-.2 4.3-4.6 9.5-.2M1712 50.5c.3-3.4 4.5-6.4 8-5.6M1711 50.7c-1.3-3-7.2-6.9-10.5-5.1M1711.2 51.1c-.2-2.2.3-6.8 1.3-8.8M1711.7 52.2c-3.9-1.2-8 5-6 9.7M1711.5 51.6c5.4 16.3 6.3 42.5 6 63M1680.9 96.7c.2 4.6-2.6 16.2-2.9 17.7M1684.6 96c-.3 3 .4 15.6.6 18.4" stroke="#F4F4FB" stroke-width="1.5" stroke-linecap="round" stroke-linejoin="round"/><path fill-rule="evenodd" clip-rule="evenodd" d="M1676 73.8c.2-1.8.3-3.8 0-5.5-.5-3.4-1.5-6.8-1.9-10.4-.5-5.2-.1-10 1.5-15 1-3 5.1-7.6 7.3-3 .8 1.7.8 4.5 1.2 6.3.5 2.2 1.1 3.5 2.4 5.3 2.3 3.3 2.9 7.1 2 11-.7 3.7-.2 6 .8 9.5 1 3.4 3.2 6.8 3.7 10.3a26 26 0 010 7.6c-1 5-4.2 9.4-9.5 10-3.9.3-7-2-9-5.1-2.2-3.2-1.5-7.5-.8-11 .5-2.3 1.3-4.5 1.7-6.8l.5-3.2z" fill="#979CD8"/><path clip-rule="evenodd" d="M1676 73.8c.2-1.8.3-3.8 0-5.5-.5-3.4-1.5-6.8-1.9-10.4-.5-5.2-.1-10 1.5-15 1-3 5.1-7.6 7.3-3 .8 1.7.8 4.5 1.2 6.3.5 2.2 1.1 3.5 2.4 5.3 2.3 3.3 2.9 7.1 2 11-.7 3.7-.2 6 .8 9.5 1 3.4 3.2 6.8 3.7 10.3a26 26 0 010 7.6c-1 5-4.2 9.4-9.5 10-3.9.3-7-2-9-5.1-2.2-3.2-1.5-7.5-.8-11 .5-2.3 1.3-4.5 1.7-6.8l.5-3.2z" stroke="#F4F4FB" stroke-width="1.5" stroke-linecap="round" stroke-linejoin="round"/><path d="M1682.8 90.6c-3-6-.2-13.3-.5-19.6-.3-6.8-3.4-15-1.9-21.8M1738.7 79c.1 2.8-.6 13.8-1.7 16.4M1741 78.5c-.1 2-.1 13.8.5 17" stroke="#F4F4FB" stroke-width="1.5" stroke-linecap="round" stroke-linejoin="round"/><path fill-rule="evenodd" clip-rule="evenodd" d="M1733.6 70.8c0-1.2-.2-2.4-.5-3.5-.6-2.4-2-4.3-2.6-6.7-.6-2.7-.9-5.7-.4-8.4 1.3-6.5 7-10.3 13.2-8 4 1.6 6.2 5.3 5.7 9.7-.4 3.5-2 6.7-2 10.2-.1 1.6-.4 3-.3 4.5.5 4.9-.8 12.2-6.9 12-5.7-.1-5.8-5.4-6.2-9.8z" fill="#979CD8"/><path clip-rule="evenodd" d="M1733.6 70.8c0-1.2-.2-2.4-.5-3.5-.6-2.4-2-4.3-2.6-6.7-.6-2.7-.9-5.7-.4-8.4 1.3-6.5 7-10.3 13.2-8 4 1.6 6.2 5.3 5.7 9.7-.4 3.5-2 6.7-2 10.2-.1 1.6-.4 3-.3 4.5.5 4.9-.8 12.2-6.9 12-5.7-.1-5.8-5.4-6.2-9.8z" stroke="#979CD8" stroke-width="1.5" stroke-linecap="round" stroke-linejoin="round"/><path d="M1740 76c-1.9-3.8-.1-8.4-.3-12.4-.2-4.2-2.1-9.4-1.2-13.7M1742.4 57.2c.8-1.8 1.5-4.1 1.8-5.7M1736 64c-1.6-1.3-2-4.5-2.9-6.2M1748.2 96.8c0-1.4-.1-3 .4-4.3M1738.5 104.7v-3.5M1729 98.1a6 6 0 01.3-4M1721.6 102.2c0-1-.2-1.9-.4-2.8M1727.8 111c-.4-.9-.3-2.7.1-3.6M1737.4 114.8c-.6-1.4.1-4 .7-4.7M1746.4 111v-3.2M1708.5 112.5c0-1 .4-2.2.4-3.3M1693.3 113c.1-1.3-.4-2.7-.3-4M1700.2 107.5c0-1.5-.1-3 .3-4.4M1694 99.1c0-.7-.1-1.5.1-2M1708.9 99.7l.3-2.7M1701.8 94.5l.3-1.7M1672.6 102.8c.3-.5.4-1 .5-1.6M1669.5 112c0-1-.2-2.3.1-3.2M1753.7 101.7l-.2 3M1447.3 51.4c3.5.5 8.6 6.1 8.8 9.7M1446.6 51.2c-2-1.4-10.3-1.5-10 2.2M1447.5 51.4c.1-.2 4.3-4.6 9.5-.2M1447.4 50.5c.4-3.4 4.6-6.4 8-5.6M1446.5 50.7c-1.3-3-7.2-6.9-10.5-5.1M1446.7 51.1c-.2-2.2.3-6.8 1.3-8.8M1447.2 52.2c-3.9-1.2-8 5-6 9.7M1447 51.6c5.4 16.3 6.3 42.5 6 63M1416.4 96.7c.2 4.6-2.6 16.2-2.9 17.7M1420 96c-.2 3 .5 15.6.7 18.4" stroke="#F4F4FB" stroke-width="1.5" stroke-linecap="round" stroke-linejoin="round"/><path fill-rule="evenodd" clip-rule="evenodd" d="M1411.4 73.8c.3-1.8.3-3.8.1-5.5-.5-3.4-1.5-6.8-1.9-10.4-.6-5.2-.1-10 1.5-15 1-3 5.1-7.6 7.3-3 .8 1.7.8 4.5 1.2 6.3.5 2.2 1.1 3.5 2.4 5.3 2.3 3.3 2.9 7.1 2 11-.7 3.7-.2 6 .8 9.5 1 3.4 3.2 6.8 3.7 10.3a26 26 0 010 7.6c-1 5-4.2 9.4-9.5 10-3.9.3-7-2-9-5.1-2.2-3.2-1.5-7.5-.8-11 .5-2.3 1.3-4.5 1.7-6.8l.5-3.2z" fill="#979CD8"/><path clip-rule="evenodd" d="M1411.4 73.8c.3-1.8.3-3.8.1-5.5-.5-3.4-1.5-6.8-1.9-10.4-.6-5.2-.1-10 1.5-15 1-3 5.1-7.6 7.3-3 .8 1.7.8 4.5 1.2 6.3.5 2.2 1.1 3.5 2.4 5.3 2.3 3.3 2.9 7.1 2 11-.7 3.7-.2 6 .8 9.5 1 3.4 3.2 6.8 3.7 10.3a26 26 0 010 7.6c-1 5-4.2 9.4-9.5 10-3.9.3-7-2-9-5.1-2.2-3.2-1.5-7.5-.8-11 .5-2.3 1.3-4.5 1.7-6.8l.5-3.2z" stroke="#F4F4FB" stroke-width="1.5" stroke-linecap="round" stroke-linejoin="round"/><path d="M1418.3 90.6c-3-6-.2-13.3-.5-19.6-.3-6.8-3.4-15-1.9-21.8M1474.2 79c.1 2.8-.6 13.8-1.7 16.4M1476.5 78.5c-.1 2-.1 13.8.5 17" stroke="#F4F4FB" stroke-width="1.5" stroke-linecap="round" stroke-linejoin="round"/><path fill-rule="evenodd" clip-rule="evenodd" d="M1469.1 70.8c0-1.2-.2-2.4-.5-3.5-.6-2.4-2-4.3-2.6-6.7-.6-2.7-.9-5.7-.4-8.4 1.3-6.5 7-10.3 13.2-8 4 1.6 6.2 5.3 5.7 9.7-.4 3.5-2 6.7-2 10.2-.1 1.6-.4 3-.3 4.5.5 4.9-.8 12.2-6.9 12-5.7-.1-5.8-5.4-6.2-9.8z" fill="#979CD8"/><path clip-rule="evenodd" d="M1469.1 70.8c0-1.2-.2-2.4-.5-3.5-.6-2.4-2-4.3-2.6-6.7-.6-2.7-.9-5.7-.4-8.4 1.3-6.5 7-10.3 13.2-8 4 1.6 6.2 5.3 5.7 9.7-.4 3.5-2 6.7-2 10.2-.1 1.6-.4 3-.3 4.5.5 4.9-.8 12.2-6.9 12-5.7-.1-5.8-5.4-6.2-9.8z" stroke="#979CD8" stroke-width="1.5" stroke-linecap="round" stroke-linejoin="round"/><path d="M1475.5 76c-1.9-3.8-.1-8.4-.3-12.4-.2-4.2-2.1-9.4-1.2-13.7M1478 57.2a31 31 0 001.7-5.7M1471.4 64c-1.5-1.3-2-4.5-2.8-6.2M1483.7 96.8c0-1.4-.1-3 .4-4.3M1474 104.7v-3.5M1464.5 98.1a6 6 0 01.3-4M1457 102.2c.2-1 0-1.9-.3-2.8M1463.3 111c-.4-.9-.3-2.7.1-3.6M1473 114.8c-.7-1.4 0-4 .6-4.7M1481.9 111v-3.2M1444 112.5c0-1 .4-2.2.4-3.3M1428.8 113c.1-1.3-.4-2.7-.3-4M1435.7 107.5c0-1.5-.1-3 .2-4.4M1429.5 99.1c0-.7-.1-1.5.1-2M1444.4 99.7l.3-2.7M1437.3 94.5l.3-1.7M1408 102.8c.4-.5.5-1 .6-1.6M1405 112c0-1-.2-2.3.1-3.2M1489.2 101.7l-.2 3M1315 43.3c1.5 1 2.2 4 3 5.5 1 1.7 3 4 2.4 6-.5 2-3 4.5-4 6.4-1 1.9-3 4.3-1.9 6.3 1.3 2.6 3.7 4.4 5 7 .4.7 1.1 2 1 2.8-.1.3-1 1-1.2 1.3l-1 1.7c-1.5 2.3-2.6 4.5-3.8 6.8-1 1.6-1.4 1.7-.2 3.3l3 3.9c1 1 2.6 2.6 3 4 .3 1.2-1 2.2-1.9 3.2-2 2.3-3.3 5.4-5.5 7.3v-.5" stroke="#F4F4FB" stroke-width="1.5" stroke-linecap="round" stroke-linejoin="round"/><path fill-rule="evenodd" clip-rule="evenodd" d="M1370.5 113l-.5-13.2c0-.3 0-.6.2-.8l.6-.5c1.6-.7 4.1-.6 5.8-.5 2.4 0 3 1 3.1 3.3.4 4.7.8 5.7.7 11.5M1388.5 70.7c0 .2-.2.4-.5.5-1 .7-3.7.2-5 .3-2.2 0-4.3 0-6.5.2l-12.6.3-13 .4c-3.1 0-11.7-1.4-11.7-2.1 0-.8.4-1.5.8-2.2 1-2.3 2-4.5 3.2-6.7 1.6-3.6 3-8.6 6.4-10.9 1.5-1 3.3-1.3 5-1.6 5.5-.7 13.4-.3 16 .4 3.6.8 6.5 5.6 8.9 8.4l8.2 10c.4.5.8 1 1 1.7 0 .4 0 .9-.2 1.3z" fill="#979CD8"/><path clip-rule="evenodd" d="M1388.8 112.8l-.4-11.7c0-6.6-.4-30.5-.3-30.8 0 0-28.1 0-28.3 1.3-.3 3.9-.6 40.5.2 41.4.7.8 28.8-.2 28.8-.2z" stroke="#F4F4FB" stroke-width="1.5" stroke-linecap="round" stroke-linejoin="round"/><path d="M1388 70.3a266.8 266.8 0 00-16.8-20.4 198.3 198.3 0 00-11.6 21.7l-20.5-.2" stroke="#F4F4FB" stroke-width="1.5" stroke-linecap="round" stroke-linejoin="round"/><path d="M1371.5 49.6c-2.4-.1-20.4-.3-22 1-.8 1-1.4 2-2 3.1-2.8 5.5-5.4 11-8.4 16.5-1.6 3-3 42.5-1.4 42.7 4 .5 22.2.3 22.2.3" stroke="#F4F4FB" stroke-width="1.5" stroke-linecap="round" stroke-linejoin="round"/><path clip-rule="evenodd" d="M1369.9 78.7c-.2 0-.3.2-.4.3-.4.5-.3 1.7-.3 2.4v4c0 1.1-.7 3.5.4 4.4 1.1.9 3 .2 4.3.1h2.8c.7 0 2 .3 2.7-.3.5-.6.3-2.8.3-3.7v-4-2.4c-.2-1.7-2.4-1.3-3.8-1.4l-3.3.3c-.9 0-1.8-.1-2.7.3zM1350.1 77.1c-.6-.5-2-.1-2.8-.1h-2.9l-.7 7c2.1 0 4.3.1 6.4 0v-3.3c0-.8.5-3.2 0-3.6zM1350.1 89c-.6-.5-2 0-2.8 0h-2.9l-.7 6.9c2.1 0 4.3.2 6.4 0v-3.2c0-.8.5-3.2 0-3.6z" stroke="#F4F4FB" stroke-width="1.5" stroke-linecap="round" stroke-linejoin="round"/><path d="M1295 36.3l3.8-1.9c2.4-1.2 14.5-7.1 18.2-8.7 1.8-.7 2.6-.7 4.4-.1 1.1.4 2.2.9 3.4 1.1 2.5.6 30.6 8.3 36.9 10.3M1312.5 113.6c0-4.5.5-66.6 1.6-70.5M1322 42.7c-1.2 3-.7 68.3-1.2 70.4" stroke="#F4F4FB" stroke-width="1.5" stroke-linecap="round" stroke-linejoin="round"/><path clip-rule="evenodd" d="M1332.3 41.5c5.2-.2 10.5-.1 15.7-.6 3.6-.4 7.3-.5 11-.5 1.8 0 3.7 0 5.5-.3 1 0 1.4.2 1.8-.9.2-.5 0-1.7-.3-2-.7-.5-4.3-.2-5.1-.2-2.6-.1-5.4.1-8 .2-7.8.4-15.6.2-23.5.2l-11.6.2h-6.3c-1.9 0-3.5-.2-5.4 0v4c1.4.4 3.1.1 4.6.3 1.4 0 17.7-.2 21.6-.4z" stroke="#F4F4FB" stroke-width="1.5" stroke-linecap="round" stroke-linejoin="round"/><path d="M1314.8 37c1.2-2.8 2.3-8 4.3-11.7.8 4 1.8 8.2 2.3 12" stroke="#F4F4FB" stroke-width="1.5" stroke-linecap="round" stroke-linejoin="round"/><path fill-rule="evenodd" clip-rule="evenodd" d="M1290.4 40.6c-.2 3.4-.2 7 0 10.3 4.8.3 11 .3 16 0 .4-1.8.9-13.3.4-14-.5-.6-4-.3-4.9-.3h-11l-.5 4z" fill="#979CD8"/><path clip-rule="evenodd" d="M1290.4 40.6c-.2 3.4-.2 7 0 10.3 4.8.3 11 .3 16 0 .4-1.8.9-13.3.4-14-.5-.6-4-.3-4.9-.3h-11l-.5 4z" stroke="#F4F4FB" stroke-width="1.5" stroke-linecap="round" stroke-linejoin="round"/></g></svg>