<svg width="32" height="32" fill="none" xmlns="http://www.w3.org/2000/svg">
  <mask id="a" maskUnits="userSpaceOnUse" x="0" y="0" width="32" height="23">
    <path d="M0 .08h31.963v22.548H0V.08z" fill="#fff"/>
  </mask>
  <g mask="url(#a)">
    <path d="M31.957 16.47a15.868 15.868 0 01-1.395 6.09 204.05 204.05 0 00-2.03-.602 46.485 46.485 0 00-2.79-.717 40.357 40.357 0 00-6.778-.947l-.18-.008a40.17 40.17 0 00-4.59.05c-.313.02-.62.044-.923.07-1.932.166-3.643.424-5.191.616-1.01.126-2.011.304-3.002.534a32.2 32.2 0 00-3.646 1.072 15.85 15.85 0 01-1.426-7.055C.255 6.773 7.608-.162 16.431.086c8.823.248 15.774 7.583 15.526 16.384z" fill="#1EDBCF"/>
  </g>
  <path d="M26.142 21.101c-.134.709-.333 1.374-.622 1.936l-4.665 2.624-9.516 5.352a15.918 15.918 0 01-4.094-2.049h-.001a15.662 15.662 0 01-.886-2.418c-.493-1.751-.747-3.586-.88-5.13a40.1 40.1 0 01-.04-.486c-.174-2.348-.373-4.743-.132-7.092.177-1.725.544-3.444 1.387-4.893C7.886 6.894 9.042 5.313 11.3 4.28c1.786-.818 4.009-.831 5.893-.73 3.284.18 4.7 2.053 6.626 4.668 1.76 2.386 2.47 5.51 2.56 8.369.041 1.308.049 3.007-.236 4.513z" fill="#15459e"/>
  <path d="M26.142 21.241c-.134.709-.333 1.374-.622 1.936l-4.665 2.624-9.37 5.15c-1.473-.488-3.042-1.132-4.288-1.999-.401-.951-.68-1.707-.839-2.266-.493-1.751-.747-3.586-.88-5.13a40.114 40.114 0 01-.04-.486c-.174-2.348-.373-4.744-.132-7.092.177-1.726.544-3.444 1.387-4.894C7.886 7.035 9.042 5.453 11.3 4.42c1.786-.817 4.009-.83 5.893-.729 3.284.18 4.7 2.053 6.626 4.667 1.76 2.387 2.47 5.51 2.56 8.37.041 1.308.049 3.007-.236 4.513z" stroke="#15459e"/>
  <path d="M28.532 21.958a46.463 46.463 0 00-2.789-.717 40.367 40.367 0 00-6.78-.947l-.179-.008a40.194 40.194 0 00-4.589.05c-.314.02-.622.044-.924.07-1.932.166-3.643.424-5.191.616-1.01.126-2.011.304-3.002.533a32.2 32.2 0 00-3.646 1.073 16.04 16.04 0 005.412 6.476h.001a15.915 15.915 0 004.095 2.049c1.447.48 2.989.759 4.592.804a15.957 15.957 0 0011.985-4.903 15.92 15.92 0 003.045-4.495c-.684-.206-1.36-.407-2.03-.6z" fill="#fff"/>
  <path d="M18.6 17.285c-.077 1.014.431 4.126.131 4.884-.813 2.052-4.45 1.21-4.804.835-.744-.785-.795-4.99-.888-6.056-.143-1.63-.774-4.277 1.617-4.175 1.647.07 5.815 2.882 4.873 4.692l-.929-.18z" fill="#F48C9B"/>
  <path d="M18.6 17.285c-.077 1.014.431 4.126.131 4.884-.813 2.052-4.45 1.21-4.804.835-.744-.785-.795-4.99-.888-6.056-.143-1.63-.774-4.277 1.617-4.175 1.647.07 5.815 2.882 4.873 4.692l-.929-.18z" stroke="#F48C9B"/>
  <path d="M15.368 20.996c5.548 1.729 7.778-8.203 3.68-12.107-1.165-1.11-4.19-1.64-6.917 1.303-1.985 2.141-.163 9.745 3.237 10.804z" fill="#F48C9B"/>
  <path d="M15.368 20.996c5.548 1.729 7.778-8.203 3.68-12.107-1.165-1.11-4.19-1.64-6.917 1.303-1.985 2.141-.163 9.745 3.237 10.804z" stroke="#F48C9B"/>
  <path d="M18.78 13.103c.194.559.482 1.505.593 2.2.216 1.359-.44 1.419-1.48 2.054" stroke="#fff"/>
  <path d="M18.044 11.582c-1.812 1.567-5.506 2.9-7.877 1.683-2.673-1.373 1.452-4.9 2.757-5.64 1.751-.996 3.875-.963 5.647-.038.774.405 1.75.885 1.502 1.82-.216.815-1.422 1.65-2.029 2.175z" fill="#15459e"/>
  <path d="M18.044 11.582c-1.812 1.567-5.506 2.9-7.877 1.683-2.673-1.373 1.452-4.9 2.757-5.64 1.751-.996 3.875-.963 5.647-.038.774.405 1.75.885 1.502 1.82-.216.815-1.422 1.65-2.029 2.175z" stroke="#15459e"/>
</svg>