<svg xmlns="http://www.w3.org/2000/svg" xmlns:xlink="http://www.w3.org/1999/xlink" width="413" height="97" viewBox="0 0 413 97"><defs><path id="a" d="M0 95.86h103.78V0H0z"/></defs><g fill="none" fill-rule="evenodd"><path stroke="#979CD8" stroke-dasharray="4" d="M121 52.44c25.86 10.63 48.38 4.53 67.55-18.3C217.31-.13 251.36 73 286.5 73 321.6 73 331.58 15.9 412 47.7"/><g transform="translate(1 1)"><path fill="#E8E8E8" d="M.84 46.67c.14.28.32.55.54.8 2.28 2.53 9 1.23 12.23 1.22a4265 4265 0 0114.3-.02 14360.05 14360.05 0 0142.7.08c.28.54-.39-38.6-.39-38.6-.03-.2-.05-.3-.08-.3-2.06-.58-68.23-1.2-69.09.33-.7 1.24-.33 3.82-.38 5.17C.54 19.14.5 22.92.44 26.71.34 35.3.3 31.03.5 39.62c.05 2.15-.63 5.06.35 7.05"/><path stroke="#E8E8E8" stroke-linecap="round" stroke-linejoin="round" stroke-width="1.43" d="M.84 46.67c.14.28.32.55.54.8 2.28 2.53 9 1.23 12.23 1.22a4265 4265 0 0114.3-.02 14360.05 14360.05 0 0142.7.08c.28.54-.39-38.6-.39-38.6-.03-.2-.05-.3-.08-.3-2.06-.58-68.23-1.2-69.09.33-.7 1.24-.33 3.82-.38 5.17C.54 19.14.5 22.92.44 26.71.34 35.3.3 31.03.5 39.62c.05 2.15-.63 5.06.35 7.05z"/><path fill="#FFF" d="M2.37 45.03c.25.6 2.82 2.1 2.82 2.1 15.78-.16 57.17-.02 66.9.01.27.53-.4-38.61-.4-38.61-.03-.18-.06-.29-.09-.3-2.05-.57-68.22-1.19-69.08.34-.76 1.35-.98 34.52-.15 36.46"/><path stroke="#FFF" stroke-linecap="round" stroke-linejoin="round" stroke-width="1.43" d="M2.37 45.03c.25.6 2.82 2.1 2.82 2.1 15.78-.16 57.17-.02 66.9.01.27.53-.4-38.61-.4-38.61-.03-.18-.06-.29-.09-.3-2.05-.57-68.22-1.19-69.08.34-.76 1.35-.98 34.52-.15 36.46z"/><path stroke="#1F2573" stroke-linecap="round" stroke-linejoin="round" stroke-width="1.43" d="M3.69 7.88c.15 0 .26 33.6.3 37.37l27.5.38M70.8 4.86c.02-1.83.12-3.5-.12-4.4C66.82.25 62.83.3 58.95.3c-4.63 0-54.77.23-55.29.73l.03 5.25c6.24-.09 6.4.17 12.64.08l16.83-.25c5.63-.08 11.44.27 17.03-.2 3.88-.32 7.82-.25 11.72-.28 1.97-.01 3.92-.15 5.85-.27 2.07-.12 3.08 1.2 3.26 3.18.31 3.45-.11 7.1-.26 10.56-.14 3.4.56 10.63.56 14.05"/><path fill="#C1C5DB" d="M13.92 2.86c1.14-.4 1.3 1.95-.04 1.75-1.5-.22-.7-2.58.43-1.76"/><path stroke="#C1C5DB" stroke-linecap="round" stroke-linejoin="round" stroke-width="1.43" d="M13.92 2.86c1.14-.4 1.3 1.95-.04 1.75-1.5-.22-.7-2.58.43-1.76"/><path fill="#C1C5DB" d="M9.79 2.81c1.12-.3 1.93 1.6.52 1.96-1.85.46-1.5-3.02-.15-2.2"/><path stroke="#C1C5DB" stroke-linecap="round" stroke-linejoin="round" stroke-width="1.43" d="M9.79 2.81c1.12-.3 1.93 1.6.52 1.96-1.85.46-1.5-3.02-.15-2.2"/><path fill="#C1C5DB" d="M5.71 2.48c.95.19 2 1.62.61 2.06-1.59.51-1.71-2.67-.47-1.93"/><path stroke="#C1C5DB" stroke-linecap="round" stroke-linejoin="round" stroke-width="1.43" d="M5.71 2.48c.95.19 2 1.62.61 2.06-1.59.51-1.71-2.67-.47-1.93"/><mask id="b" fill="#fff"><use xlink:href="#a"/></mask><path fill="#303AB2" d="M9.94 32.3h9.84V13.34H9.94z" mask="url(#b)"/><path stroke="#303AB2" stroke-linecap="round" stroke-linejoin="round" stroke-width="1.43" d="M9.94 32.3h9.84V13.34H9.94z" mask="url(#b)"/><path fill="#1EDBCF" d="M25.03 32.79h9.08v-8.3h-9.08z" mask="url(#b)"/><path stroke="#1EDBCF" stroke-linecap="round" stroke-linejoin="round" stroke-width="1.43" d="M25.03 32.79h9.08v-8.3h-9.08z" mask="url(#b)"/><path fill="#979CD8" d="M39.58 32.3h9.84V17.56h-9.84z" mask="url(#b)"/><path stroke="#979CD8" stroke-linecap="round" stroke-linejoin="round" stroke-width="1.43" d="M39.58 32.3h9.84V17.56h-9.84z" mask="url(#b)"/><path fill="#F48C9B" d="M55.21 32.3h9.47V22.1H55.2z" mask="url(#b)"/><path stroke="#F48C9B" stroke-linecap="round" stroke-linejoin="round" stroke-width="1.43" d="M55.21 32.3h9.47V22.1H55.2z" mask="url(#b)"/><path fill="#E8E8E8" d="M31.82 93.1l.18.93c.07.27.14.55.33.75.15.15.35.23.55.3 3.53 1.2 8.05-.25 11.68-.35l14.15-.4 29.24-.72 12.26-.3c.29.51-.62-47.12-.62-47.12-.04-.18-.07-.27-.1-.28-2.05-.5-67.5.6-68.32 2.12-.65 1.22-.22 3.73-.23 5.04-.04 3.7 0 7.38.06 11.07.13 8.37.01 16.76.43 25.13.06 1.29.16 2.56.38 3.83" mask="url(#b)"/><path stroke="#E8E8E8" stroke-linecap="round" stroke-linejoin="round" stroke-width="1.43" d="M31.82 93.1l.18.93c.07.27.14.55.33.75.15.15.35.23.55.3 3.53 1.2 8.05-.25 11.68-.35l14.15-.4 29.24-.72 12.26-.3c.29.51-.62-47.12-.62-47.12-.04-.18-.07-.27-.1-.28-2.05-.5-67.5.6-68.32 2.12-.65 1.22-.22 3.73-.23 5.04-.04 3.7 0 7.38.06 11.07.13 8.37.01 16.76.43 25.13.06 1.29.16 2.56.38 3.83z" mask="url(#b)"/><path fill="#FFF" d="M103.26 88.88c-.24.74-2.75 2.63-2.75 2.63-3.63.04-7.26.11-10.89.19a5533.5 5533.5 0 00-45.57 1.13l-5.6.16c-1.64.04-4.7 1.09-4.8-1.14-.37-8.4-.5-28.15-.64-36.55a8264.35 8264.35 0 01-.3-19.28c.01-.22.04-.35.06-.36 2.04-.75 68.17-3.09 69.08-1.24.81 1.63 2.16 52.07 1.4 54.46" mask="url(#b)"/><path stroke="#FFF" stroke-linecap="round" stroke-linejoin="round" stroke-width="1.43" d="M103.26 88.88c-.24.74-2.75 2.63-2.75 2.63-3.63.04-7.26.11-10.89.19a5533.5 5533.5 0 00-45.57 1.13l-5.6.16c-1.64.04-4.7 1.09-4.8-1.14-.37-8.4-.5-28.15-.64-36.55a8264.35 8264.35 0 01-.3-19.28c.01-.22.04-.35.06-.36 2.04-.75 68.17-3.09 69.08-1.24.81 1.63 2.16 52.07 1.4 54.46z" mask="url(#b)"/><path stroke="#1F2573" stroke-linecap="round" stroke-linejoin="round" stroke-width="1.43" d="M33.84 41.14c-.07-1.83-.17-2.68.39-4.41 3.84-.32 7.83-.36 11.7-.46 4.64-.12 54.77-1.22 55.3-.74l.11 5.25c-6.24.08-6.39.34-12.63.42l-16.83.2c-5.64.06-11.43.57-17.03.24-3.9-.22-7.83-.04-11.72.04-1.98.03-3.93-.06-5.86-.12-2.07-.07-3.05 1.27-3.18 3.26-.22 3.46.46 17.2.55 20.62l.7 26.74 66.7-2.6c-.05-3.77-.17-32.03-.36-35.86-.05-1-.45-11.34-.3-11.34" mask="url(#b)"/><g mask="url(#b)"><path fill="#C1C5DB" d="M36.53 38.3c-1.15-.36-1.25 1.99.1 1.76 1.49-.26.61-2.6-.5-1.75"/><path stroke="#C1C5DB" stroke-linecap="round" stroke-linejoin="round" stroke-width="1.43" d="M36.53 38.3c-1.15-.36-1.25 1.99.1 1.76 1.49-.26.61-2.6-.5-1.75"/></g><path fill="#C1C5DB" d="M44.13 39.96c1.3.29 1.53-1.32.6-1.95-.34-.23-.82-.16-1.13.1-.7.61-.34 1.66.53 1.85" mask="url(#b)"/><path stroke="#C1C5DB" stroke-linecap="round" stroke-linejoin="round" stroke-width="1.43" d="M44.13 39.96c1.3.29 1.53-1.32.6-1.95-.34-.23-.82-.16-1.13.1-.7.61-.34 1.66.53 1.85z" mask="url(#b)"/><g mask="url(#b)"><path fill="#C1C5DB" d="M40.43 37.83c-.94.22-1.95 1.67-.55 2.08 1.6.47 1.64-2.71.42-1.95"/><path stroke="#C1C5DB" stroke-linecap="round" stroke-linejoin="round" stroke-width="1.43" d="M40.43 37.83c-.94.22-1.95 1.67-.55 2.08 1.6.47 1.64-2.71.42-1.95"/></g><path stroke="#1F2573" stroke-linecap="round" stroke-linejoin="round" stroke-width="1.43" d="M38.93 56.37l6.86 3.43 10.82 1.86 12.55-4.96 8.34-7.97 13.25 2.74 5.2 4.41" mask="url(#b)"/><path fill="#1EDBCF" d="M44.7 62.07l-.06-.05-1.44-1.34a1.96 1.96 0 01-.55-.88 2.02 2.02 0 01.54-2.02 2.05 2.05 0 012.4-.32 2.05 2.05 0 01.95 1.15 2.14 2.14 0 01-.05 1.36 2.14 2.14 0 01-.23.42l-.11.14-1.4 1.5-.05.04" mask="url(#b)"/><path stroke="#1EDBCF" stroke-linecap="round" stroke-linejoin="round" stroke-width="1.43" d="M44.7 62.07l-.06-.05-1.44-1.34a1.96 1.96 0 01-.55-.88 2.02 2.02 0 01.54-2.02 2.05 2.05 0 012.4-.32 2.05 2.05 0 01.95 1.15 2.14 2.14 0 01-.05 1.36 2.14 2.14 0 01-.23.42l-.11.14-1.4 1.5-.05.04z" mask="url(#b)"/><path fill="#1EDBCF" d="M77.77 51.87c-.28-.08-.57-.48-.78-.67l-.94-.88a2.23 2.23 0 01-.62-1 2.27 2.27 0 01.05-1.45 2.24 2.24 0 011.55-1.4 2.3 2.3 0 011.73.19 2.28 2.28 0 011.08 1.31c.1.28.11.56.1.84a2 2 0 01-.15.7 2.53 2.53 0 01-.39.64c-.51.56-1.06 1.08-1.5 1.7 0 .01-.02.03-.04.03a.1.1 0 01-.05 0h-.04" mask="url(#b)"/><path stroke="#1EDBCF" stroke-linecap="round" stroke-linejoin="round" stroke-width="1.43" d="M77.77 51.87c-.28-.08-.57-.48-.78-.67l-.94-.88a2.23 2.23 0 01-.62-1 2.27 2.27 0 01.05-1.45 2.24 2.24 0 011.55-1.4 2.3 2.3 0 011.73.19 2.28 2.28 0 011.08 1.31c.1.28.11.56.1.84a2 2 0 01-.15.7 2.53 2.53 0 01-.39.64c-.51.56-1.06 1.08-1.5 1.7 0 .01-.02.03-.04.03a.1.1 0 01-.05 0h-.04z" mask="url(#b)"/><path fill="#1EDBCF" d="M69.52 60.35l-.09-.08c-.74-.68-1.49-1.36-2.22-2.05a3.01 3.01 0 01-.83-1.36 3.02 3.02 0 01-.13-1 3.11 3.11 0 01.95-2.1 3 3 0 011.33-.75 3.12 3.12 0 013.8 2.03c.12.37.15.75.14 1.13a2.69 2.69 0 01-.21.95 3.33 3.33 0 01-.53.87l-2.13 2.28-.08.08" mask="url(#b)"/><path stroke="#1EDBCF" stroke-linecap="round" stroke-linejoin="round" stroke-width="1.43" d="M69.52 60.35l-.09-.08c-.74-.68-1.49-1.36-2.22-2.05a3.01 3.01 0 01-.83-1.36 3.02 3.02 0 01-.13-1 3.11 3.11 0 01.95-2.1 3 3 0 011.33-.75 3.12 3.12 0 013.8 2.03c.12.37.15.75.14 1.13a2.69 2.69 0 01-.21.95 3.33 3.33 0 01-.53.87l-2.13 2.28-.08.08z" mask="url(#b)"/><path fill="#1EDBCF" d="M57.06 65.4l-.09-.08c-.74-.68-1.49-1.36-2.22-2.05a3 3 0 01-.83-1.35 3.1 3.1 0 01.06-1.95 3.06 3.06 0 01.76-1.15 3 3 0 011.33-.76 3.11 3.11 0 013.8 2.04c.12.37.15.75.14 1.13a2.68 2.68 0 01-.21.95 3.27 3.27 0 01-.53.86l-2.13 2.28a2.3 2.3 0 01-.08.08" mask="url(#b)"/><path stroke="#1EDBCF" stroke-linecap="round" stroke-linejoin="round" stroke-width="1.43" d="M57.06 65.4l-.09-.08c-.74-.68-1.49-1.36-2.22-2.05a3 3 0 01-.83-1.35 3.1 3.1 0 01.06-1.95 3.06 3.06 0 01.76-1.15 3 3 0 011.33-.76 3.11 3.11 0 013.8 2.04c.12.37.15.75.14 1.13a2.68 2.68 0 01-.21.95 3.27 3.27 0 01-.53.86l-2.13 2.28a2.3 2.3 0 01-.08.08z" mask="url(#b)"/><path fill="#1EDBCF" d="M90.7 56.88l-.12-.1c-.9-.84-1.82-1.67-2.72-2.52a3.7 3.7 0 01-1.02-1.66 3.82 3.82 0 01.08-2.4c.2-.54.5-1.01.92-1.41a3.7 3.7 0 011.64-.92 3.84 3.84 0 011.09-.15c.63.02 1.22.17 1.78.48a3.8 3.8 0 011.8 2.17c.14.45.17.92.16 1.38 0 .4-.1.8-.25 1.17a4.06 4.06 0 01-.44.8 2.44 2.44 0 01-.2.26l-2.62 2.8-.1.1" mask="url(#b)"/><path stroke="#1EDBCF" stroke-linecap="round" stroke-linejoin="round" stroke-width="1.43" d="M90.7 56.88l-.12-.1c-.9-.84-1.82-1.67-2.72-2.52a3.7 3.7 0 01-1.02-1.66 3.82 3.82 0 01.08-2.4c.2-.54.5-1.01.92-1.41a3.7 3.7 0 011.64-.92 3.84 3.84 0 011.09-.15c.63.02 1.22.17 1.78.48a3.8 3.8 0 011.8 2.17c.14.45.17.92.16 1.38 0 .4-.1.8-.25 1.17a4.06 4.06 0 01-.44.8 2.44 2.44 0 01-.2.26l-2.62 2.8-.1.1z" mask="url(#b)"/><path stroke="#F48C9B" stroke-linecap="round" stroke-linejoin="round" stroke-width="1.43" d="M38.56 74.77l6.21.95 11.37-3.8 14.19 3.12 9.93-9.32 14.07 11.51 4.75-2.15" mask="url(#b)"/><path fill="#303AB2" d="M69.99 79.98l-2.55-2.72a2.33 2.33 0 01-.2-.26 3.97 3.97 0 01-.42-.77 3.2 3.2 0 01-.25-1.14 3.66 3.66 0 011.91-3.46 3.83 3.83 0 011.73-.46 3.7 3.7 0 011.06.14 3.64 3.64 0 012.72 3.42c.02.4-.03.8-.15 1.19a3.6 3.6 0 01-1 1.62c-.87.82-1.76 1.63-2.65 2.45l-.1.1a3.21 3.21 0 01-.1-.1" mask="url(#b)"/><path stroke="#303AB2" stroke-linecap="round" stroke-linejoin="round" stroke-width="1.43" d="M69.99 79.98l-2.55-2.72a2.33 2.33 0 01-.2-.26 3.97 3.97 0 01-.42-.77 3.2 3.2 0 01-.25-1.14 3.66 3.66 0 011.91-3.46 3.83 3.83 0 011.73-.46 3.7 3.7 0 011.06.14 3.64 3.64 0 012.72 3.42c.02.4-.03.8-.15 1.19a3.6 3.6 0 01-1 1.62c-.87.82-1.76 1.63-2.65 2.45l-.1.1a3.21 3.21 0 01-.1-.1z" mask="url(#b)"/><path fill="#303AB2" d="M44.48 79.28h-.06l-.04-.04c-.45-.63-1.01-1.18-1.55-1.75a2.4 2.4 0 01-.4-.66 2.03 2.03 0 01-.16-.73 2.34 2.34 0 011.23-2.22 2.45 2.45 0 011.11-.3 2.39 2.39 0 011.7.67 2.37 2.37 0 010 3.42l-.98.9c-.22.2-.51.61-.8.7l-.05.01" mask="url(#b)"/><path stroke="#303AB2" stroke-linecap="round" stroke-linejoin="round" stroke-width="1.43" d="M44.48 79.28h-.06l-.04-.04c-.45-.63-1.01-1.18-1.55-1.75a2.4 2.4 0 01-.4-.66 2.03 2.03 0 01-.16-.73 2.34 2.34 0 011.23-2.22 2.45 2.45 0 011.11-.3 2.39 2.39 0 011.7.67 2.37 2.37 0 010 3.42l-.98.9c-.22.2-.51.61-.8.7l-.05.01z" mask="url(#b)"/><path fill="#303AB2" d="M80.07 68.7l-1.46-1.55a1.69 1.69 0 01-.11-.15 2.3 2.3 0 01-.24-.44 1.82 1.82 0 01-.15-.65 2.24 2.24 0 01.1-.78 2.13 2.13 0 012-1.47 2.14 2.14 0 012.07 2.72c-.1.36-.3.67-.57.93l-1.52 1.4a1.02 1.02 0 01-.06.05l-.06-.05" mask="url(#b)"/><path stroke="#303AB2" stroke-linecap="round" stroke-linejoin="round" stroke-width="1.43" d="M80.07 68.7l-1.46-1.55a1.69 1.69 0 01-.11-.15 2.3 2.3 0 01-.24-.44 1.82 1.82 0 01-.15-.65 2.24 2.24 0 01.1-.78 2.13 2.13 0 012-1.47 2.14 2.14 0 012.07 2.72c-.1.36-.3.67-.57.93l-1.52 1.4a1.02 1.02 0 01-.06.05l-.06-.05z" mask="url(#b)"/><path fill="#303AB2" d="M94 79.77l-1.46-1.56a1.54 1.54 0 01-.12-.15 2.33 2.33 0 01-.24-.44 1.84 1.84 0 01-.14-.65 2.08 2.08 0 01.55-1.55 2.13 2.13 0 011.53-.7c.21 0 .41.03.61.08a2.1 2.1 0 011.56 1.96c.01.23-.02.46-.09.68a2.06 2.06 0 01-.56.93l-1.52 1.4-.07.06-.05-.06" mask="url(#b)"/><path stroke="#303AB2" stroke-linecap="round" stroke-linejoin="round" stroke-width="1.43" d="M94 79.77l-1.46-1.56a1.54 1.54 0 01-.12-.15 2.33 2.33 0 01-.24-.44 1.84 1.84 0 01-.14-.65 2.08 2.08 0 01.55-1.55 2.13 2.13 0 011.53-.7c.21 0 .41.03.61.08a2.1 2.1 0 011.56 1.96c.01.23-.02.46-.09.68a2.06 2.06 0 01-.56.93l-1.52 1.4-.07.06-.05-.06z" mask="url(#b)"/><path fill="#303AB2" d="M56.07 74.77l-1.37-1.46a1.23 1.23 0 01-.1-.14 2.1 2.1 0 01-.23-.42 1.72 1.72 0 01-.14-.6 1.96 1.96 0 01.52-1.46 2 2 0 012-.58c.34.09.62.25.86.48a1.97 1.97 0 01.61 1.36 1.93 1.93 0 01-.61 1.5c-.47.45-.95.89-1.43 1.32l-.06.05a.94.94 0 01-.05-.05" mask="url(#b)"/><path stroke="#303AB2" stroke-linecap="round" stroke-linejoin="round" stroke-width="1.43" d="M56.07 74.77l-1.37-1.46a1.23 1.23 0 01-.1-.14 2.1 2.1 0 01-.23-.42 1.72 1.72 0 01-.14-.6 1.96 1.96 0 01.52-1.46 2 2 0 012-.58c.34.09.62.25.86.48a1.97 1.97 0 01.61 1.36 1.93 1.93 0 01-.61 1.5c-.47.45-.95.89-1.43 1.32l-.06.05a.94.94 0 01-.05-.05z" mask="url(#b)"/><path stroke="#1F2573" stroke-linecap="round" stroke-linejoin="round" stroke-width="1.43" d="M25 33.17c.32.4 8.74-.08 9.3.21.59-.39 2.5-2.55 2.68-3.22.26-.96-.1-5.64-.14-7.54 0-.08-.1-.12-.16-.07-1.23 1-2.22 1.63-3.89 1.63l-5.97.03-1.75.01c-.12 0-.19-.14-.1-.22a9.1 9.1 0 012.13-1.6c.04-.03 7.28-.3 8.81-.31m3.74 10.7c.33.4 8.75-.08 9.3.21.6-.39 2.5-2.55 2.68-3.22.27-.96.11-14.86.05-14.81l-9.93.21c-.79.45-1.5.96-2.13 1.6-.08.1-.02.24.1.23h1.76l8.09-.07 1.35-1.22M10.26 32.5c.34.4 9.2.27 9.3.2-.01-.01 2.5-2.55 2.7-3.22.26-.95-.28-18.64-.34-18.6l-9.93.22c-.8.45-1.51.96-2.13 1.6-.08.09-.02.23.1.23h1.76l8.09-.07 1.35-1.22M55.1 32.79c.33.4 8.75-.08 9.3.21.6-.39 2.45-1.44 2.64-2.1.26-.96-.04-8.24-.09-10.14 0-.08-.1-.12-.16-.07-1.23 1-1.84 1.69-1.84 1.58 0-.11-6.03.07-8.02.08l-1.75.01c-.12 0-.19-.14-.1-.22a9.14 9.14 0 012.12-1.6c.05-.03 7.29-.3 8.82-.31" mask="url(#b)"/></g></g></svg>