<svg xmlns="http://www.w3.org/2000/svg" xmlns:xlink="http://www.w3.org/1999/xlink" width="411" height="96" viewBox="0 0 411 96"><defs><path id="a" d="M1.53 2.67h115.41V94.1H1.53z"/></defs><g fill="none" fill-rule="evenodd"><path stroke="#979CD8" stroke-dasharray="4" d="M410 51.44c-24.35 10.63-45.55 4.53-63.6-18.3C319.3-1.13 287.25 72 254.17 72 221.11 72 211.72 14.9 136 46.7"/><mask id="b" fill="#fff"><use xlink:href="#a"/></mask><g mask="url(#b)"><path fill="#1F2573" d="M40.47 15.67a.6.6 0 00.03-.33.58.58 0 00-.45-.48.6.6 0 00-.58.27.6.6 0 00-.1.28c-.06.7.9.77 1.1.26"/><path stroke="#1F2573" stroke-linecap="round" stroke-linejoin="round" stroke-width="1.8" d="M40.47 15.67a.6.6 0 00.03-.33.58.58 0 00-.45-.48.6.6 0 00-.58.27.6.6 0 00-.1.28c-.06.7.9.77 1.1.26z"/><path stroke="#1F2573" stroke-linecap="round" stroke-linejoin="round" stroke-width="1.8" d="M37.07 13.71a21.63 21.63 0 013.31 2.21c-.02.07.1.11.13.05.02-.07-.1-.11-.12-.05"/><path fill="#303AB2" d="M38.6 43.73c0 14.77-7.3 26.75-16.3 26.75-11.74 0-14.6-13.77-15.09-23.03-.33-6.3-.62-12.67.22-18.95.61-4.49 1.83-9.32 6.7-10.87.97-.3 1.98-.44 3-.58 4.2-.57 7.56-.48 11.15 1.9a19.15 19.15 0 015.98 6.77c3 5.4 4.34 11.86 4.34 18.01"/><path stroke="#303AB2" stroke-linecap="round" stroke-linejoin="round" stroke-width="1.8" d="M38.6 43.73c0 14.77-7.3 26.75-16.3 26.75-11.74 0-14.6-13.77-15.09-23.03-.33-6.3-.62-12.67.22-18.95.61-4.49 1.83-9.32 6.7-10.87.97-.3 1.98-.44 3-.58 4.2-.57 7.56-.48 11.15 1.9a19.15 19.15 0 015.98 6.77c3 5.4 4.34 11.86 4.34 18.01z"/><path fill="#B2CECB" d="M38.4 63.62c-1.77.18-3.54.42-5.3.63-2.67.32-5.33.2-7.38-1.82-.36-.35-.67-.76-1.08-1.04-.7-.46-1.58-.5-2.42-.54a44.65 44.65 0 01-9.66-1.56c-2.7-.75-4.6-1.16-4.89-4.47-.14-1.58.23-3.16.63-4.69a100.25 100.25 0 017.88-20.62c3.1-6.02 8.05-12.85 15.52-12.75 6.64.09 9.72 5.8 11.4 11.5 2.18 7.44 3.24 15.32 4.68 22.95.05.24.1.5.26.7.15.17.38.27.6.36 2.5 1.02 5.18 2.35 7.88 2.74.75.1 1.53.11 2.26.35.72.23 1.42.77 1.57 1.52.1.46-.03.93-.2 1.36a6.26 6.26 0 01-4.4 3.82c-1.15.25-2.33.17-3.5.09-2.69-.19-6.13-.77-8.72.28-.8.38-1.75.93-2.63 1.1-.8.17-1.67 0-2.5.09"/><path stroke="#B2CECB" stroke-linecap="round" stroke-linejoin="round" stroke-width="1.8" d="M38.4 63.62c-1.77.18-3.54.42-5.3.63-2.67.32-5.33.2-7.38-1.82-.36-.35-.67-.76-1.08-1.04-.7-.46-1.58-.5-2.42-.54a44.65 44.65 0 01-9.66-1.56c-2.7-.75-4.6-1.16-4.89-4.47-.14-1.58.23-3.16.63-4.69a100.25 100.25 0 017.88-20.62c3.1-6.02 8.05-12.85 15.52-12.75 6.64.09 9.72 5.8 11.4 11.5 2.18 7.44 3.24 15.32 4.68 22.95.05.24.1.5.26.7.15.17.38.27.6.36 2.5 1.02 5.18 2.35 7.88 2.74.75.1 1.53.11 2.26.35.72.23 1.42.77 1.57 1.52.1.46-.03.93-.2 1.36a6.26 6.26 0 01-4.4 3.82c-1.15.25-2.33.17-3.5.09-2.69-.19-6.13-.77-8.72.28-.8.38-1.75.93-2.63 1.1-.8.17-1.67 0-2.5.09z"/><path stroke="#FFF" stroke-linecap="round" stroke-linejoin="round" stroke-width="1.8" d="M29.43 17.14c.31 3.96 5.82 3.65 7.26 1.42"/><path fill="#F48C9B" d="M35.43 14.6c.08.62.1 1.2.1 1.63.02.4.02.83-.2 1.16-1.3 1.93-3.3 1.25-4.06.66-.14-.12-.34-.17-.31-.34.12-.89.15-3.09.2-4.48.05-1.14.25-3.02 2.15-2.46 1.42.41 1.94 2.26 2.12 3.83"/><path stroke="#F48C9B" stroke-linecap="round" stroke-linejoin="round" stroke-width="1.8" d="M35.43 14.6c.08.62.1 1.2.1 1.63.02.4.02.83-.2 1.16-1.3 1.93-3.3 1.25-4.06.66-.14-.12-.34-.17-.31-.34.12-.89.15-3.09.2-4.48.05-1.14.25-3.02 2.15-2.46 1.42.41 1.94 2.26 2.12 3.83z"/><path fill="#F48C9B" d="M33.65 17.12c4.54.47 5.04-7.53 1.36-9.9-1.04-.68-3.47-.62-5.23 2.08-1.28 1.96 1.09 7.53 3.87 7.82"/><path stroke="#F48C9B" stroke-linecap="round" stroke-linejoin="round" stroke-width="1.8" d="M33.65 17.12c4.54.47 5.04-7.53 1.36-9.9-1.04-.68-3.47-.62-5.23 2.08-1.28 1.96 1.09 7.53 3.87 7.82z"/><path stroke="#FFF" stroke-linecap="round" stroke-linejoin="round" stroke-width="1.8" d="M36.41 10.67c.27.4.69 1.1.9 1.62.42 1.03-.16 1.17-1 1.8"/><path fill="#303AB2" d="M29.81 6.6c.13-.46.27-.9.88-1.01 1.67-.28 3.04.13 4.63-.62 1.15-.54 2.9-.84 2.44 1.19-.24 1-.9 1.87-1.69 2.53-1.62 1.36-5.07 2.01-5.6 4.39-.03.15-.06.32-.15.46s-.28.22-.42.14a.46.46 0 01-.16-.2c-.48-.9-.91-1.95-.37-2.92.1-.17.22-.38.13-.55-.12-.27-.51-.17-.79-.27-.36-.11-.5-.58-.4-.94.2-.7.91-.94 1.25-1.5.13-.21.19-.46.25-.7"/><path stroke="#303AB2" stroke-linecap="round" stroke-linejoin="round" stroke-width="1.8" d="M29.81 6.6c.13-.46.27-.9.88-1.01 1.67-.28 3.04.13 4.63-.62 1.15-.54 2.9-.84 2.44 1.19-.24 1-.9 1.87-1.69 2.53-1.62 1.36-5.07 2.01-5.6 4.39-.03.15-.06.32-.15.46s-.28.22-.42.14a.46.46 0 01-.16-.2c-.48-.9-.91-1.95-.37-2.92.1-.17.22-.38.13-.55-.12-.27-.51-.17-.79-.27-.36-.11-.5-.58-.4-.94.2-.7.91-.94 1.25-1.5.13-.21.19-.46.25-.7z"/><path fill="#1F2573" d="M31.47 14.34c.5.22 1.14.18 1.57-.17.23-.2.39-.46.49-.75.44-1.25-.59-3.61-2.25-3.05-1.7.57-1.22 3.35.19 3.97"/><path stroke="#1F2573" stroke-linecap="round" stroke-linejoin="round" stroke-width="1.8" d="M31.47 14.34c.5.22 1.14.18 1.57-.17.23-.2.39-.46.49-.75.44-1.25-.59-3.61-2.25-3.05-1.7.57-1.22 3.35.19 3.97z"/><path stroke="#1F2573" stroke-linecap="round" stroke-linejoin="round" stroke-width="1.8" d="M31.8 11.8l-.21-.06c-.2-1.27-.39-2.58-.13-3.84.26-1.26 1.06-2.5 2.3-2.93.1-.03.25-.03.25.07m-4.58 10.2a17.95 17.95 0 00-3.52 1.23c-4.6 2.15-7.81 6.43-10.15 10.83a77.5 77.5 0 00-5.4 13.51c-.67 2.2-1.02 4.38-1.74 6.56-.83 2.53-1.48 5.18-1.34 7.87"/><path stroke="#FFF" stroke-linecap="round" stroke-linejoin="round" stroke-width="1.8" d="M38.98 30.86c.05 3.4.12 6.8.34 10.2.2 2.85-.29 6.42 1.14 9.02.25.44.54.86.7 1.33.55 1.48-.14 3.04.33 4.51.21.67.53 1.33.55 2.03.02.84-.4 1.64-.67 2.45-.28.81-.4 1.76.13 2.46"/><path fill="#1F2573" d="M30.96 74.42l-.01.53a1222.2 1222.2 0 01-1.68 29c-.02.34-.17.86-.5.8-.23-.03-.66.08-.68-.89-.19-8.97-.92-25.49-.9-27.16.02-1.17-.33-3.28.47-4.2.77-.9 2.64-.5 3.08.58.18.42.21.88.22 1.34"/><path fill="#FFF" d="M105.94 68.6c.2-.03.42-.03.63-.02l1.76.06c.19 0 .4.03.5.18.06.08.07.2.07.3.08 2.77-.2 5.64-.25 8.42l-.16 9.2-.35 19c-.08 4.38-.4 15.25-.63 16.3-.01.06-.03.12-.07.17-.06.05-.14.06-.22.07a3.68 3.68 0 01-.76-.03c-.06-.01-.13-.02-.17-.07-.06-.05-.06-.13-.06-.2-.1-2.93-.15-5.86-.19-8.8a8272.93 8272.93 0 00-.65-35.78 1568.69 1568.69 0 00-.1-4.34c-.02-.92-.5-3.51.13-4.2a.91.91 0 01.52-.26"/><path stroke="#1F2573" stroke-linecap="round" stroke-linejoin="round" stroke-width="1.8" d="M105.94 68.6c.2-.03.42-.03.63-.02l1.76.06c.19 0 .4.03.5.18.06.08.07.2.07.3.08 2.77-.2 5.64-.25 8.42l-.16 9.2-.35 19c-.08 4.38-.4 15.25-.63 16.3-.01.06-.03.12-.07.17-.06.05-.14.06-.22.07a3.68 3.68 0 01-.76-.03c-.06-.01-.13-.02-.17-.07-.06-.05-.06-.13-.06-.2-.1-2.93-.15-5.86-.19-8.8a8272.93 8272.93 0 00-.65-35.78 1568.69 1568.69 0 00-.1-4.34c-.02-.92-.5-3.51.13-4.2a.91.91 0 01.52-.26z"/><path fill="#FFF" d="M97.71 68.24c.13 0 .26 0 .36.08.12.1.14.28.14.43.05 3.23-.22 6.5-.36 9.73l-.75 16.6-.21 4.58c-.07 1.53-.18 3.06-.27 4.58a84.5 84.5 0 00-.15 3.38c0 .25.1.63-.1.83-.17.17-.44.11-.66.11-.17 0-.34-.01-.47-.11-.15-.13-.16-.34-.17-.53-.18-5.9-.32-11.83-.32-17.74a2496.51 2496.51 0 00-.32-18.97c-.01-.73-.12-1.6.11-2.3a1 1 0 01.63-.68c.16-.04.33-.04.5-.04l2.04.05"/><path stroke="#1F2573" stroke-linecap="round" stroke-linejoin="round" stroke-width="1.8" d="M97.71 68.24c.13 0 .26 0 .36.08.12.1.14.28.14.43.05 3.23-.22 6.5-.36 9.73l-.75 16.6-.21 4.58c-.07 1.53-.18 3.06-.27 4.58a84.5 84.5 0 00-.15 3.38c0 .25.1.63-.1.83-.17.17-.44.11-.66.11-.17 0-.34-.01-.47-.11-.15-.13-.16-.34-.17-.53-.18-5.9-.32-11.83-.32-17.74a2496.51 2496.51 0 00-.32-18.97c-.01-.73-.12-1.6.11-2.3a1 1 0 01.63-.68c.16-.04.33-.04.5-.04l2.04.05z"/><path fill="#1F2573" d="M46.64 71.75l-.06.6c-.32 3-3.06 2.25-5.5 2.19l-26.92-.72a4.48 4.48 0 01-1.5-.21c-.96-.38-1.5-1.4-1.58-2.38-.03-.46.38-6.4.08-6.4h25.27c2.05 0 4.12.07 6.16 0 .79-.03 3.78-.85 4.3-.2.11.13.12.31.12.48a76.43 76.43 0 01-.37 6.64"/><path stroke="#1F2573" stroke-linecap="round" stroke-linejoin="round" stroke-width="1.8" d="M46.64 71.75l-.06.6c-.32 3-3.06 2.25-5.5 2.19l-26.92-.72a4.48 4.48 0 01-1.5-.21c-.96-.38-1.5-1.4-1.58-2.38-.03-.46.38-6.4.08-6.4h25.27c2.05 0 4.12.07 6.16 0 .79-.03 3.78-.85 4.3-.2.11.13.12.31.12.48a76.43 76.43 0 01-.37 6.64z"/><path fill="#FFF" d="M46 60.57c-.23.09 25.22 10.4 25.22 10.4s4.96 38.12 4.83 38.14l-6.47.35c-.1.02-6.73-31.04-6.73-31.04l-8.78-3.94.1-1.9-17.08-9.04 17.09 9.04-2.56 40.13-6.74.05s-2.5-33.8-2.7-34.86c0 0-22.54-7.76-23.94-8.97-1.4-1.21-2.25-3.53-1.57-5.25 6.1-.82 12.2-1.43 18.33-2.03 3.31-.32 7.85.04 11-1.08"/><path stroke="#1F2573" stroke-linecap="round" stroke-linejoin="round" stroke-width="1.8" d="M46 60.57c-.23.09 25.22 10.4 25.22 10.4s4.96 38.12 4.83 38.14l-6.47.35c-.1.02-6.73-31.04-6.73-31.04l-8.78-3.94.1-1.9-17.08-9.04 17.09 9.04-2.56 40.13-6.74.05s-2.5-33.8-2.7-34.86c0 0-22.54-7.76-23.94-8.97-1.4-1.21-2.25-3.53-1.57-5.25 6.1-.82 12.2-1.43 18.33-2.03 3.31-.32 7.85.04 11-1.08z"/><path fill="#1EDBCF" d="M114.76 66.56c-1.33-.46-2.96-.34-4.46-.34H-29.43c1.18 0 2.85-1.17 4.03-1.47 1.98-.51 3.89-1.25 5.77-2.04 3.84-1.6 7.63-3.49 11.76-4.22a43.8 43.8 0 016.45-.5L15 57.56c4.77-.13 9.59.24 14.38.24h55.7c2 0 10.12 0 12.08.3 1.97.32 3.68 1.28 5.55 1.86 1.81.57 3.64 1.2 5.44 1.85 1.79.65 8.63 3.44 9.05 3.86.64.63-1.35 1.27-2.43.9"/><path stroke="#1EDBCF" stroke-linecap="round" stroke-linejoin="round" stroke-width="1.8" d="M114.76 66.56c-1.33-.46-2.96-.34-4.46-.34H-29.43c1.18 0 2.85-1.17 4.03-1.47 1.98-.51 3.89-1.25 5.77-2.04 3.84-1.6 7.63-3.49 11.76-4.22a43.8 43.8 0 016.45-.5L15 57.56c4.77-.13 9.59.24 14.38.24h55.7c2 0 10.12 0 12.08.3 1.97.32 3.68 1.28 5.55 1.86 1.81.57 3.64 1.2 5.44 1.85 1.79.65 8.63 3.44 9.05 3.86.64.63-1.35 1.27-2.43.9z"/><path fill="#303AB2" d="M117 70.4c-1.84.48-3.97.2-5.88.2h-13.9c-4.22 0-14.45.36-18.66.43-18.84.35-37.68.19-56.52.03l-19.59-.17-28.62-.24c-1.16 0-4.22-.37-4.22-.37l-.18-4.05s1.85-.53 2.94-.56c9.94-.26 19.88-.1 29.84-.1h96.16c6.28 0 12.57-.11 18.84.06l.11 4.68a5.8 5.8 0 01-.31.09"/><path stroke="#303AB2" stroke-linecap="round" stroke-linejoin="round" stroke-width="1.8" d="M117 70.4c-1.84.48-3.97.2-5.88.2h-13.9c-4.22 0-14.45.36-18.66.43-18.84.35-37.68.19-56.52.03l-19.59-.17-28.62-.24c-1.16 0-4.22-.37-4.22-.37l-.18-4.05s1.85-.53 2.94-.56c9.94-.26 19.88-.1 29.84-.1h96.16c6.28 0 12.57-.11 18.84.06l.11 4.68a5.8 5.8 0 01-.31.09z"/><path fill="#1F2573" d="M67.58 61.55c-.18-.76-1-1.45-1.46-1.99a23 23 0 01-1.77-2.3 1.07 1.07 0 00-.29-.33c-.15-.1-.35-.1-.53-.1l-26.64.04h-4.8c-1.51 0-3.67-.43-4.96.44-.28.18-.52.42-.77.65a22 22 0 00-2.55 2.71c-.29.39-.49.86-.48 1.34 0 .2.05.4.04.6 0 .2-.05.4-.06.6 0 .21.05.43.21.55.3.22 1.2.1 1.6.18.6.12 1.17.03 1.8.02 1.56-.03 3.12-.03 4.68-.02 2.71 0 5.43.05 8.15.05h20.8c2.1 0 4.18.01 6.28-.14.12 0 .25-.02.36-.07.57-.27.45-1.5.42-2a1.29 1.29 0 00-.03-.23"/><path stroke="#1EDBCF" stroke-linecap="round" stroke-linejoin="round" stroke-width="1.8" d="M44.47 88.39c-.66-.08-1.2.44-1.55.93-.51.71-.93 1.52-.88 2.37.06.84.7 1.7 1.63 1.83.54.07 1.16-.16 1.34-.62.18-.47-.3-1.07-.83-.95-.27.06-.47.27-.62.48a3.27 3.27 0 00-.55 2.63c.11.49.38 1 .9 1.18.5.2 1.22-.12 1.18-.61-.6-.54-1.64.04-2 .72-.32.62-.39 1.37-.02 1.95.37.6 1.25.93 1.93.64"/><path fill="#1F2573" d="M-.13 62.84a5.38 5.38 0 01-1.1.28 7 7 0 01-2.82-.05c-.87-.22-2.09-.62-2.15-1.42-.07-.85-.03-1.71-.09-2.57-.1-1.82-.35-3.66-.09-5.48.02-.11.05-.24.16-.3.07-.03.14-.04.22-.05 2.15-.24 4.34-.24 6.51-.3.08 0 .17 0 .23.04s.07.12.08.18c.17 1.62.22 3.25.26 4.87.02.78.1 1.57.05 2.35-.03.75-.03 1.75-.85 2.25a2.73 2.73 0 01-.41.2"/><path stroke="#1F2573" stroke-linecap="round" stroke-linejoin="round" stroke-width="1.8" d="M-.13 62.84a5.38 5.38 0 01-1.1.28 7 7 0 01-2.82-.05c-.87-.22-2.09-.62-2.15-1.42-.07-.85-.03-1.71-.09-2.57-.1-1.82-.35-3.66-.09-5.48.02-.11.05-.24.16-.3.07-.03.14-.04.22-.05 2.15-.24 4.34-.24 6.51-.3.08 0 .17 0 .23.04s.07.12.08.18c.17 1.62.22 3.25.26 4.87.02.78.1 1.57.05 2.35-.03.75-.03 1.75-.85 2.25a2.73 2.73 0 01-.41.2z"/><path stroke="#1EDBCF" stroke-linecap="round" stroke-linejoin="round" stroke-width="1.8" d="M109.55 83.05c-1.1.36-2.11 1.4-1.68 2.56.17.45.56.86 1.07.96.46.09 1.24-.15 1.04-.73-.44-1.27-1.99 1.27-1.91 1.93.13 1.16 2.13 1.57 1.99.28-.88.07-1.8.6-1.95 1.46-.14.85.54 1.64 1.5 1.53"/><path stroke="#1F2573" stroke-linecap="round" stroke-linejoin="round" stroke-width="1.8" d="M42.42 51.76c3.42-.7 7.32-.33 9.94 1.57"/><path stroke="#FFF" stroke-linecap="round" stroke-linejoin="round" stroke-width="1.8" d="M26.76 31.24l-.46.94C24.34 36.3 23.84 41 21.7 45.05c-.75 1.42-1.7 2.77-2.27 4.28-.11.3-.9 4.21-1.1 4.16.7.19 1.05.77 1.67 1.04.62.26 1.44.31 2.1.42.89.14 2.1.48 3 .3.5-.1 1.03-.28 1.52-.13.43.13.75.47 1.15.67.9.45 1.97.07 2.95-.19a10.73 10.73 0 015.96.19"/><path stroke="#303AB2" stroke-linecap="round" stroke-linejoin="round" stroke-width="1.8" d="M46.38 46.48c.36-.54.73-1.09.9-1.7.19-.63.14-1.36-.26-1.86s-1.23-.68-1.72-.25c-.18.16-.3.48-.1.63a.4.4 0 00.22.09c.52.03.92-.45 1.18-.9.26-.47.5-.99.47-1.53-.01-.54-.34-1.1-.86-1.24-.52-.14-1.15.33-1.05.86a1.64 1.64 0 001.16-1.27 1.64 1.64 0 00-.66-1.6"/><path fill="#303AB2" d="M72.93 60.47a12.47 12.47 0 01-.18-.22c-.06-.08-.13-.16-.14-.26-.02-.28.35-.39.62-.39.97-.01 8.87-.61 8.93.5.01.11-.05.22-.1.31a3.7 3.7 0 01-1.86 1.5c-.37.14-.78.12-1.14.25-.46.16-.83.5-1.33.6-1.95.45-3.6-.86-4.8-2.3"/><path stroke="#303AB2" stroke-linecap="round" stroke-linejoin="round" stroke-width="1.8" d="M72.93 60.47a12.47 12.47 0 01-.18-.22c-.06-.08-.13-.16-.14-.26-.02-.28.35-.39.62-.39.97-.01 8.87-.61 8.93.5.01.11-.05.22-.1.31a3.7 3.7 0 01-1.86 1.5c-.37.14-.78.12-1.14.25-.46.16-.83.5-1.33.6-1.95.45-3.6-.86-4.8-2.3z"/><path fill="#303AB2" d="M107.87 45.05c-.68.59-3.49.3-4.37.34a1773.4 1773.4 0 01-11.99.55c-5.26.23-10.53-.13-15.79.04-5.74.2-11.1.09-17.2.07-.84 0-1.7.09-2.4-.37-1.5-.98-1-3.76-1.03-5.31-.04-2.2.01-4.39.06-6.58l.27-12.47c.01-.3 0-.64.09-.94.48-1.72 2.87-1.14 4.3-1.14h36.33c1.98 0 10.75-.64 11.72.42.44.47.48 1.18.5 1.82.14 6.58.3 13.17.04 19.74-.04.96.27 3.03-.48 3.78a.87.87 0 01-.05.05"/><path stroke="#303AB2" stroke-linecap="round" stroke-linejoin="round" stroke-width="1.8" d="M107.87 45.05c-.68.59-3.49.3-4.37.34a1773.4 1773.4 0 01-11.99.55c-5.26.23-10.53-.13-15.79.04-5.74.2-11.1.09-17.2.07-.84 0-1.7.09-2.4-.37-1.5-.98-1-3.76-1.03-5.31-.04-2.2.01-4.39.06-6.58l.27-12.47c.01-.3 0-.64.09-.94.48-1.72 2.87-1.14 4.3-1.14h36.33c1.98 0 10.75-.64 11.72.42.44.47.48 1.18.5 1.82.14 6.58.3 13.17.04 19.74-.04.96.27 3.03-.48 3.78a.87.87 0 01-.05.05z"/><path fill="#1F2573" d="M86.75 61.92a.62.62 0 01-.14.16c-.45.36-5.36.24-6.69.32-.94.05-1.89.11-2.84.05-.48-.03-1.03-.24-1.03-.24s.64-7.7.89-10.37c.34-3.66.56-7.3 1-10.95.18-1.53 0-4.03 1.68-4.81.79-.36 2.72-.32 3.57-.11.5.12 1.02.37 1.26.84.13.27.17.57.2.87l1.57 16.6c.12 1.25.53 7.64.53 7.64"/><path stroke="#1F2573" stroke-linecap="round" stroke-linejoin="round" stroke-width="1.8" d="M86.75 61.92a.62.62 0 01-.14.16c-.45.36-5.36.24-6.69.32-.94.05-1.89.11-2.84.05-.48-.03-1.03-.24-1.03-.24s.64-7.7.89-10.37c.34-3.66.56-7.3 1-10.95.18-1.53 0-4.03 1.68-4.81.79-.36 2.72-.32 3.57-.11.5.12 1.02.37 1.26.84.13.27.17.57.2.87l1.57 16.6c.12 1.25.53 7.64.53 7.64z"/><path stroke="#1F2573" stroke-linecap="round" stroke-linejoin="round" stroke-width="1.8" d="M75.63 47.16c-6.14.16-12.28.05-18.41-.07-.15 0-.3 0-.43-.06-.5-.2-.37-1.02-.4-1.48-.1-2.83-.14-5.66-.2-8.5-.07-3.64.15-7.3.08-10.94-.04-2.1-.04-6-.04-6 9.16-.22 19.16-.24 28.33-.25l8.9-.02 14.87-.03c.29 0 .6 0 .85.14.47.25.5.83.5 1.32-.11 4.25.07 8.5-.03 12.76-.05 2.2 0 11.02-.23 11.48-.57 1.1-4.32.7-5.53.73-2.16.07-4.33.13-6.5.18-3.27.09-6 .26-9.27.17"/><path stroke="#FFF" stroke-linecap="round" stroke-linejoin="round" stroke-width="1.8" d="M27.9 58.56c10.96.26 21.92.04 32.86-.66m-33.63 2.61c1.67-.14 3.34-.28 5-.1 1 .11 1.99.33 2.98.44 1.68.2 3.37.07 5.05-.04 7.87-.5 15.75-.7 23.63-.59h.03M25.6 61.94c13.12.26 26.25.19 39.37-.23l-.47.02m-6.41-3.06c.22.39.47.77.76 1.14m-2.29.38l.76 1.52m-3.43-3.04c.2.36.32.74.38 1.14m-1.53.38l.38 1.52m-2.67-3.04l.38 1.14m-1.85.76c.09.46.17.68.25 1.14m-2.42-3.04l.01 1.52m-1.8.38c-.16.45-.23.68-.23 1.14m-1.22-3.04l-.39 1.52m-2.67.76c-.1.4-.22.77-.38 1.14m-1.53-3.42c-.56.7-.69 1.15-1.15 1.9m-6.5 0c-.35.46-.4.69-.76 1.14m-.76-3.43c-.36.47-.9 1.38-1.15 1.91m33.25 0c.23.51.49 1.02.76 1.52"/><path fill="#F48C9B" d="M58.93 57.32c.13-.22.25-.34.33-.26.38.35.2 1.11.2 1.58 0 .72-.12 1.42-.23 2.14-.03.2-.06.4-.03.6.02.11.08.23.17.3.15.09.35.01.46-.13.12-.13.16-.31.2-.5.19-.73.32-1.42.39-2.17.04-.52.24-1.48.78-1.7.54-.22.5 2.37.5 2.73 0 .27.05.6.29.68.22.08.44-.13.52-.36.26-.73.13-1.61.16-2.37a.96.96 0 01.06-.38c.06-.11.17-.2.3-.19.12.02.2.15.26.27.23.46.24 1.03.54 1.45.48.68.86.2.73-.51-.24-1.3-.65-2.69-1.65-3.56-1.92-1.68-4.92-1.36-7.13-.66-.32.1-2.4.98-1.78 1.57.08.07.2.1.32.1.82.05 2.69-.85 3.02.54.05.21.02.44-.01.66l-.37 2.73c-.03.18-.05.38 0 .56.05.18.2.34.38.33.23-.01.37-.28.45-.5.08-.22.7-2.2 1.14-2.95"/><path stroke="#F48C9B" stroke-linecap="round" stroke-linejoin="round" stroke-width="1.8" d="M58.93 57.32c.13-.22.25-.34.33-.26.38.35.2 1.11.2 1.58 0 .72-.12 1.42-.23 2.14-.03.2-.06.4-.03.6.02.11.08.23.17.3.15.09.35.01.46-.13.12-.13.16-.31.2-.5.19-.73.32-1.42.39-2.17.04-.52.24-1.48.78-1.7.54-.22.5 2.37.5 2.73 0 .27.05.6.29.68.22.08.44-.13.52-.36.26-.73.13-1.61.16-2.37a.96.96 0 01.06-.38c.06-.11.17-.2.3-.19.12.02.2.15.26.27.23.46.24 1.03.54 1.45.48.68.86.2.73-.51-.24-1.3-.65-2.69-1.65-3.56-1.92-1.68-4.92-1.36-7.13-.66-.32.1-2.4.98-1.78 1.57.08.07.2.1.32.1.82.05 2.69-.85 3.02.54.05.21.02.44-.01.66l-.37 2.73c-.03.18-.05.38 0 .56.05.18.2.34.38.33.23-.01.37-.28.45-.5.08-.22.7-2.2 1.14-2.95z"/><path fill="#F48C9B" d="M35.2 57.45c-.14-.27-.26-.55-.41-.8-.32.42-.02 1.58.05 2.08.11.7.25 1.42.24 2.14 0 .18-.04.4-.2.48-.23.13-.46-.09-.6-.3-.65-.94-.93-2.13-1.38-3.18-.02-.05-.04-.1-.09-.11-.1-.04-.18.12-.19.24-.06.78-.08 1.5-.04 2.27.01.23.17 1.34-.19 1.44-.4.1-.75-.82-.83-1.1-.18-.55-.21-1.15-.32-1.72a.89.89 0 00-.12-.35c-.07-.1-.2-.17-.33-.12-.13.04-.2.19-.24.32-.15.42-.14.9-.27 1.33-.14.5-.82 1.25-.85.27-.04-1.46.1-3.06 1.13-4.25a6.21 6.21 0 013.52-1.85c2.34-.48 4.9.2 6.31 2.31a.58.58 0 01.12.27c.02.25-.27.4-.5.41-.87 0-2.66-2.13-3.08-.6-.24.91.34 2.17.6 3.02.05.18.1.36.08.55-.03.19-.17.38-.35.4-.25.05-.43-.19-.55-.4a50.15 50.15 0 01-1.51-2.75"/><path stroke="#F48C9B" stroke-linecap="round" stroke-linejoin="round" stroke-width="1.8" d="M35.2 57.45c-.14-.27-.26-.55-.41-.8-.32.42-.02 1.58.05 2.08.11.7.25 1.42.24 2.14 0 .18-.04.4-.2.48-.23.13-.46-.09-.6-.3-.65-.94-.93-2.13-1.38-3.18-.02-.05-.04-.1-.09-.11-.1-.04-.18.12-.19.24-.06.78-.08 1.5-.04 2.27.01.23.17 1.34-.19 1.44-.4.1-.75-.82-.83-1.1-.18-.55-.21-1.15-.32-1.72a.89.89 0 00-.12-.35c-.07-.1-.2-.17-.33-.12-.13.04-.2.19-.24.32-.15.42-.14.9-.27 1.33-.14.5-.82 1.25-.85.27-.04-1.46.1-3.06 1.13-4.25a6.21 6.21 0 013.52-1.85c2.34-.48 4.9.2 6.31 2.31a.58.58 0 01.12.27c.02.25-.27.4-.5.41-.87 0-2.66-2.13-3.08-.6-.24.91.34 2.17.6 3.02.05.18.1.36.08.55-.03.19-.17.38-.35.4-.25.05-.43-.19-.55-.4a50.15 50.15 0 01-1.51-2.75z"/></g></g></svg>