<svg xmlns="http://www.w3.org/2000/svg" width="156" height="96" fill="none"><path fill="#E7E5E5" fill-rule="evenodd" d="M54.16 91.1c.02.43.06.88.3 1.24.46.7 1.46.74 2.3.7l13.48-.6c3.3-.14 6.6-.29 9.87-.65a83.78 83.78 0 0 0 14.24-2.93c4.36-1.28 7.83-3.07 11.78-5.17 1.06-.57 2.22-1.24 2.58-2.4 1.08-3.5-5.73-7.41-8.07-8.55-2.65-1.3-5.46-2.41-7.82-4.1-3.38-2.42-5.6-5.85-7.51-9.27-7.37-13.1-11.67-27.4-19.8-40.17-.97-1.52-2.36-2.56-3.46-3.92-1.58-1.96-.13-4.4-1-6.55-1.28-3.22-7.17-2.8-9.79-2.17-.24.06-.5.13-.68.3-.38.37-.3 1-.24 1.52.36 3.27-.91 2.93-2.94 4.43-1.74 1.3-.87 4.64-.7 6.4a170 170 0 0 0 1.06 8.71c.84 5.67 1.9 11.3 2.95 16.93.79 4.2 1.57 8.39 2.26 12.6.32 1.97.76 3.99.88 5.98.12 1.98-.3 3.97-.62 5.91-.98 5.9-1.5 11.87-1.57 17.85-.01.52.02 1.11.42 1.44.32.27.77.27 1.17.37 1.05.26.87 1.26.91 2.1Z" clip-rule="evenodd"/><path stroke="#E7E5E5" stroke-linecap="round" stroke-linejoin="round" stroke-width=".44" d="M54.16 91.1c.02.43.06.88.3 1.24.46.7 1.46.74 2.3.7l13.48-.6c3.3-.14 6.6-.29 9.87-.65a83.8 83.8 0 0 0 14.24-2.93c4.36-1.28 7.83-3.07 11.78-5.17 1.06-.57 2.22-1.24 2.58-2.4 1.08-3.5-5.73-7.41-8.07-8.55-2.65-1.3-5.46-2.41-7.82-4.1-3.38-2.42-5.6-5.85-7.51-9.27-7.37-13.1-11.67-27.4-19.8-40.17-.97-1.52-2.36-2.56-3.46-3.92-1.58-1.96-.13-4.4-1-6.55-1.28-3.22-7.17-2.8-9.79-2.17-.24.06-.5.13-.68.3-.38.37-.3 1-.24 1.52.36 3.27-.91 2.93-2.94 4.43-1.74 1.3-.87 4.64-.7 6.4a170 170 0 0 0 1.06 8.71c.84 5.67 1.9 11.3 2.95 16.93.79 4.2 1.57 8.39 2.26 12.6.32 1.97.76 3.99.88 5.98.12 1.98-.3 3.97-.62 5.91-.98 5.9-1.5 11.87-1.57 17.85-.01.52.02 1.11.42 1.44.32.27.77.27 1.17.37 1.05.26.87 1.26.91 2.1Z" clip-rule="evenodd"/><path fill="#303AB2" fill-rule="evenodd" d="m110.47 84.84-.6.35a32.15 32.15 0 0 1-11.61 3.66c-2.21.25-4.46.29-6.64.69-1.84.33-3.6 1.11-5.42 1.3-1.89.2-13.8.44-17.77.54-2.9.07-11.53.42-12.1-.04-.44-.36-5.07-78.19-3.87-84.91.04-.24.1-.5.28-.65.19-.17.47-.2.73-.24.87-.09 43.9 1.08 48.47.97 2.32-.05 4.73-.28 7.04-.17 1.67.09 2.13.56 2.23 2.39.33 6.17.87 12.4.76 18.58l1.12 33.6.5 14.99c.13 3.86.6 6.63-3.12 8.94Z" clip-rule="evenodd"/><path stroke="#303AB2" stroke-linecap="round" stroke-linejoin="round" stroke-width=".44" d="m110.47 84.84-.6.35a32.15 32.15 0 0 1-11.61 3.66c-2.21.25-4.46.29-6.64.69-1.84.33-3.6 1.11-5.42 1.3-1.89.2-13.8.44-17.77.54-2.9.07-11.53.42-12.1-.04-.44-.36-5.07-78.19-3.87-84.91.04-.24.1-.5.28-.65.19-.17.47-.2.73-.24.87-.09 43.9 1.08 48.47.97 2.32-.05 4.73-.28 7.04-.17 1.67.09 2.13.56 2.23 2.39.33 6.17.87 12.4.76 18.58l1.12 33.6.5 14.99c.13 3.86.6 6.63-3.12 8.94Z" clip-rule="evenodd"/><path fill="#1EDBCF" fill-rule="evenodd" d="M115.74 71.11c.16 5.47 1.43 11.75 1.55 16.24.02.76-.3 1.57-1.02 1.97-.44.24-.97.3-1.48.35-7.02.76-33.46 2.78-39.65 3.38-3.22.3-14.07 1.27-15.16.47-.9-.66-.79-2.4-.95-3.42-3.99-25.96-7.33-52-10.63-78.06-.06-.45-.1-.94.22-1.28.3-.33.83-.38 1.3-.4 17.45-1.13 34.83-3.5 52.27-4.99a6.07 6.07 0 0 1 2.6.16c1.61.6 1.8 2.3 2.05 3.86 1.28 8 5.18 32.56 5.4 32.87l3.5 28.85Z" clip-rule="evenodd"/><path stroke="#1EDBCF" stroke-linecap="round" stroke-linejoin="round" stroke-width=".44" d="M115.74 71.11c.16 5.47 1.43 11.75 1.55 16.24.02.76-.3 1.57-1.02 1.97-.44.24-.97.3-1.48.35-7.02.76-33.46 2.78-39.65 3.38-3.22.3-14.07 1.27-15.16.47-.9-.66-.79-2.4-.95-3.42-3.99-25.96-7.33-52-10.63-78.06-.06-.45-.1-.94.22-1.28.3-.33.83-.38 1.3-.4 17.45-1.13 34.83-3.5 52.27-4.99a6.07 6.07 0 0 1 2.6.16c1.61.6 1.8 2.3 2.05 3.86 1.28 8 5.18 32.56 5.4 32.87l3.5 28.85Z" clip-rule="evenodd"/><path fill="#fff" fill-rule="evenodd" d="M115.15 51.82c-.46 6.09-1.4 33.5-2.13 38.05-.12.78-.6 1.55-1.4 1.85-.5.18-1.04.16-1.57.15-7.24-.22-34.33-1.89-40.7-2.16-3.3-.14-14.45-.69-15.4-1.65-.78-.8-.33-2.53-.3-3.6.89-26.8 2.45-53.6 4.05-80.44.03-.45.08-.96.47-1.26.37-.28.91-.26 1.4-.23C77.39 3.85 95.4 3.88 113.3 4.84c.89.05 1.82.1 2.58.52 1.53.83 1.4 2.59 1.35 4.2-.23 8.27-1.95 39.58-1.79 39.91" clip-rule="evenodd"/><path stroke="#1F2573" stroke-linecap="round" stroke-linejoin="round" stroke-width=".44" d="M115.15 51.82c-.46 6.09-1.4 33.5-2.13 38.05-.12.78-.6 1.55-1.4 1.85-.5.18-1.04.16-1.57.15-7.24-.22-34.33-1.89-40.7-2.16-3.3-.14-14.45-.69-15.4-1.65-.78-.8-.33-2.53-.3-3.6.89-26.8 2.45-53.6 4.05-80.44.03-.45.08-.96.47-1.26.37-.28.91-.26 1.4-.23C77.39 3.85 95.4 3.88 113.3 4.84c.89.05 1.82.1 2.58.52 1.53.83 1.4 2.59 1.35 4.2-.23 8.27-1.95 39.58-1.79 39.91"/><path stroke="#1EDBCF" stroke-linecap="round" stroke-linejoin="round" stroke-width=".73" d="m106.83 85.48-9.1-2.58-9.75-2.18-9.67.74L68 79.86l-9.52-3.8"/><path stroke="#F48C9B" stroke-linecap="round" stroke-linejoin="round" stroke-width=".73" d="m107.24 80.31-9.02 1.55-9.39.66-10.12-3.4-10.32 3.15-10.38-.84"/><path stroke="#303AB2" stroke-linecap="round" stroke-linejoin="round" stroke-width=".73" d="m107.07 83.95-9.5.89-8.79-6.43-10.8 4.53-9.47-6.72-10.32 3.06"/><path fill="#1EDBCF" fill-rule="evenodd" d="M78.48 49.22c-2.54-.08-5.08-.1-7.63-.18l-6.61-.17c-.19 0-.58-.04-.68.06a7.07 7.07 0 0 0-.12 1.68c.02.13-.04.3.05.42l.05.04.08.01c1.33.05 2.67.12 4 .19 1.02.05 7.93.22 10.4.32 2.75.11 9.92.42 12.69.4.73-.02.64-1.8.52-2.26-.01-.03-.03-.07-.06-.1-.05-.04-.13-.05-.2-.06-1.38-.16-6.98-.24-8.36-.28l-4.13-.07Z" clip-rule="evenodd"/><path stroke="#1EDBCF" stroke-linecap="round" stroke-linejoin="round" stroke-width=".44" d="M78.48 49.22c-2.54-.08-5.08-.1-7.63-.18l-6.61-.17c-.19 0-.58-.04-.68.06a7.07 7.07 0 0 0-.12 1.68c.02.13-.04.3.05.42l.05.04.08.01c1.33.05 2.67.12 4 .19 1.02.05 7.93.22 10.4.32 2.75.11 9.92.42 12.69.4.73-.02.64-1.8.52-2.26-.01-.03-.03-.07-.06-.1-.05-.04-.13-.05-.2-.06-1.38-.16-6.98-.24-8.36-.28l-4.13-.07Z" clip-rule="evenodd"/><path fill="#303AB2" fill-rule="evenodd" d="M73 55.51c2.86.1 1.46-.02 4.32.07l9.9.28c.22.01.66.05.77-.06a6.38 6.38 0 0 0 .12-1.67c-.02-.14.05-.3-.06-.42a.13.13 0 0 0-.06-.05h-.08l-3.85-.2c-1.14-.05-7.78-.2-10.54-.32-3.1-.12-6.46-.3-9.56-.29-.82.01-.71 1.8-.57 2.25 0 .04.02.08.06.1a.5.5 0 0 0 .22.06c1.55.17 3.16.12 4.71.16l4.62.1ZM73.48 61.75c-3.34-.1-1.7.01-5.05-.1-1.7-.05-3.17-.06-4.36-.1-.25 0-.77-.04-.9.06a5.42 5.42 0 0 0-.16 1.17c0 .17.02.34.03.5.02.14-.05.3.07.43l.07.04a664.07 664.07 0 0 1 5.35.24c1.33.06 1.13 0 4.36.13 3.62.14 2.16.17 5.79.16.96 0 .82-1.79.66-2.24-.02-.04-.04-.08-.08-.1a.66.66 0 0 0-.26-.07c-1.82-.17.2 0-1.62-.05-1.78-.05-2.1-.03-3.9-.07Z" clip-rule="evenodd"/><path fill="#1EDBCF" fill-rule="evenodd" d="M63.93 65.6c-.24 0-.76-.05-.89.06a5.42 5.42 0 0 0-.16 1.17c0 .17.01.34.03.5.02.14-.05.3.07.42.02.02.04.04.07.04l.1.02c1.75.06 3.5.15 5.25.23 1.33.06.63-.02 3.86.1 3.62.15.87.13 4.49.13.96 0 .82-1.79.66-2.24a.19.19 0 0 0-.08-.11.67.67 0 0 0-.26-.06c-1.81-.17-11.94-.23-13.14-.26Z" clip-rule="evenodd"/><path stroke="#1EDBCF" stroke-linecap="round" stroke-linejoin="round" stroke-width=".44" d="M63.93 65.6c-.24 0-.76-.05-.89.06a5.42 5.42 0 0 0-.16 1.17c0 .17.01.34.03.5.02.14-.05.3.07.42.02.02.04.04.07.04l.1.02c1.75.06 3.5.15 5.25.23 1.33.06.63-.02 3.86.1 3.62.15.87.13 4.49.13.96 0 .82-1.79.66-2.24a.19.19 0 0 0-.08-.11.67.67 0 0 0-.26-.06c-1.81-.17-11.94-.23-13.14-.26Z" clip-rule="evenodd"/><path fill="#303AB2" fill-rule="evenodd" d="M69.8 72.4c3.34.1 1.3-.07 2.5-.03.24 0 .76.05.88-.06.09-.07.17-1.09.17-1.17 0-.17-.02-.34-.04-.5-.01-.14.06-.3-.06-.42a.15.15 0 0 0-.07-.05h-.1c-1.75-.08-1.2-.08-2.95-.16.15 0 4.98.2.26.02-3.62-.14-3.25-.2-6.88-.2-.96 0-.82 1.79-.65 2.24.01.04.03.08.08.11.06.04.16.05.25.06 1.82.17 4.81.11 6.61.16Z" clip-rule="evenodd"/><path fill="#1EDBCF" fill-rule="evenodd" d="M72.04 59.78c3.35.1-.44-.09 2.9.02 1.7.06 4.33.1 5.53.14.24 0 .76.05.89-.06.08-.07.16-1.09.16-1.17 0-.17-.01-.34-.03-.5-.02-.14.05-.3-.07-.42a.16.16 0 0 0-.07-.05.37.37 0 0 0-.1 0l-4.26-.2c-1.33-.07-1.12 0-4.36-.13-2.16-.09-5.75-.12-8.7-.26-.96-.05-.83 1.79-.66 2.24.01.04.03.08.08.1.06.05.16.06.26.07 1.81.17 3.45.12 5.26.17 1.78.05 1.38 0 3.17.05Z" clip-rule="evenodd"/><path stroke="#1EDBCF" stroke-linecap="round" stroke-linejoin="round" stroke-width=".44" d="M72.04 59.78c3.35.1-.44-.09 2.9.02 1.7.06 4.33.1 5.53.14.24 0 .76.05.89-.06.08-.07.16-1.09.16-1.17 0-.17-.01-.34-.03-.5-.02-.14.05-.3-.07-.42a.16.16 0 0 0-.07-.05.37.37 0 0 0-.1 0l-4.26-.2c-1.33-.07-1.12 0-4.36-.13-2.16-.09-5.75-.12-8.7-.26-.96-.05-.83 1.79-.66 2.24.01.04.03.08.08.1.06.05.16.06.26.07 1.81.17 3.45.12 5.26.17 1.78.05 1.38 0 3.17.05Z" clip-rule="evenodd"/><path fill="#1EDBCF" fill-rule="evenodd" d="M102.9 58.9c-.44.65-1.94 2.6-2.7 3.74-.18.27 0 .64.33.67 2.6.23 5.53.4 8.32.45.23 0 .43-.17.44-.4.22-2.95-1.5-5.5-3.77-7.33a.44.44 0 0 0-.6.05c-.78.91-1.33 1.79-2.03 2.83Z" clip-rule="evenodd"/><path stroke="#1EDBCF" stroke-linecap="round" stroke-linejoin="round" stroke-width=".44" d="M102.9 58.9c-.44.65-1.94 2.6-2.7 3.74-.18.27 0 .64.33.67 2.6.23 5.53.4 8.32.45.23 0 .43-.17.44-.4.22-2.95-1.5-5.5-3.77-7.33a.44.44 0 0 0-.6.05c-.78.91-1.33 1.79-2.03 2.83Z" clip-rule="evenodd"/><path fill="#303AB2" fill-rule="evenodd" d="M95.7 58.28c.52 1.08 1.05 2.15 1.59 3.21.19.38.4.74.6 1.1v.01c.14.24.49.25.63.02.4-.64.86-1.25 1.27-1.89 1.04-1.62 1.98-3.31 3.15-4.85l.28-.35a.34.34 0 0 0-.1-.51 10.21 10.21 0 0 0-8.96-.8.34.34 0 0 0-.19.46l1.73 3.6Z" clip-rule="evenodd"/><path fill="#1EDBCF" fill-rule="evenodd" d="M96.08 63.99a.38.38 0 0 0 .2-.17c.1-.2-.05-.68-.16-.86-.26-.45-.49-.91-.72-1.38a343.32 343.32 0 0 1-3.09-6.37 9.72 9.72 0 0 0-5.5 7.91c-.03.2.13.37.33.38 1.52.05 3.05.1 4.58.17a75.37 75.37 0 0 1 3.46.26c.24.03.64.17.9.06Z" clip-rule="evenodd"/><path stroke="#1EDBCF" stroke-linecap="round" stroke-linejoin="round" stroke-width=".44" d="M96.08 63.99a.38.38 0 0 0 .2-.17c.1-.2-.05-.68-.16-.86-.26-.45-.49-.91-.72-1.38a343.32 343.32 0 0 1-3.09-6.37 9.72 9.72 0 0 0-5.5 7.91c-.03.2.13.37.33.38 1.52.05 3.05.1 4.58.17a75.37 75.37 0 0 1 3.46.26c.24.03.64.17.9.06Z" clip-rule="evenodd"/><path fill="#303AB2" fill-rule="evenodd" d="M108.67 67.62c.24-.72.38-1.45.44-2.18a.33.33 0 0 0-.3-.35 69.83 69.83 0 0 0-6.96-.21c-.38 0-.77 0-1.15.02-.21 0-.7-.13-.88 0-.1.07-.11.2-.08.32.04.1.12.2.2.29 1.84 2.09 3.77 4.14 5.52 6.3.12.15.34.17.48.04a9.69 9.69 0 0 0 2.73-4.23Z" clip-rule="evenodd"/><path fill="#F48C9B" fill-rule="evenodd" d="m104.2 72.76-1.45-1.54-2.52-2.7-.99-1.07c-.44-.46-.78-1.1-1.3-1.47-.8-.56-10.13-.45-10.13-.44C87.8 70 91.47 74 95.37 75.1a9 9 0 0 0 8.83-2.33Z" clip-rule="evenodd"/><path stroke="#F48C9B" stroke-linecap="round" stroke-linejoin="round" stroke-width=".44" d="m104.2 72.76-1.45-1.54-2.52-2.7-.99-1.07c-.44-.46-.78-1.1-1.3-1.47-.8-.56-10.13-.45-10.13-.44C87.8 70 91.47 74 95.37 75.1a9 9 0 0 0 8.83-2.33Z" clip-rule="evenodd"/><path fill="#E7E5E5" fill-rule="evenodd" d="M4.1 42.92c.94 2.54 2.13 5.25 3.07 7.79l.08.2c2.6 7.08 5.81 13.84 8.42 20.91.65 1.77 1.42 3.44 2.09 5.2.43 1.15 1.7 4.5 2.8 5.25 1.15.78 4.2-.43 6.53-1.13 4.56-1.36 9.27-3.3 13.71-5l5.14-1.97c3.9-1.49 6.72-2.78 10.62-4.28.2-.08.43-.16.58-.32.48-.48 1.09-2.34.9-2.89-.33-.92-1.08-.82-2.07-.43-2.2.87-4.43 1.7-6.65 2.54l-18.04 6.75c-3.17 1.19-6.47 2.4-9.85 2.14-.3-.03-.62-.07-.84-.25-.21-.16-.31-.41-.4-.65-4.48-11.39-8.92-22.8-12.7-34.41-.79-2.46-3.07-8.46-2.86-8.6a11.23 11.23 0 0 0-.52 9.15Z" clip-rule="evenodd"/><path stroke="#E7E5E5" stroke-linecap="round" stroke-linejoin="round" stroke-width=".44" d="M4.1 42.92c.94 2.54 2.13 5.25 3.07 7.79l.08.2c2.6 7.08 5.81 13.84 8.42 20.91.65 1.77 1.42 3.44 2.09 5.2.43 1.15 1.7 4.5 2.8 5.25 1.15.78 4.2-.43 6.53-1.13 4.56-1.36 9.27-3.3 13.71-5l5.14-1.97c3.9-1.49 6.72-2.78 10.62-4.28.2-.08.43-.16.58-.32.48-.48 1.09-2.34.9-2.89-.33-.92-1.08-.82-2.07-.43-2.2.87-4.43 1.7-6.65 2.54l-18.04 6.75c-3.17 1.19-6.47 2.4-9.85 2.14-.3-.03-.62-.07-.84-.25-.21-.16-.31-.41-.4-.65-4.48-11.39-8.92-22.8-12.7-34.41-.79-2.46-3.07-8.46-2.86-8.6a11.23 11.23 0 0 0-.52 9.15Z" clip-rule="evenodd"/><path fill="#fff" fill-rule="evenodd" d="M4.52 32.6a22 22 0 0 0-.94 4.44c0 .66.2 1.3.42 1.94.67 2.05 1.38 4.1 2.11 6.14 2.23 6.21 14.62 35.61 15.05 35.97 1.18 1 31-10.5 36.35-12.6.26-.1.54-.21.75-.4.24-.23.65-.86.77-1.16.5-1.28.45-1.02.95-2.3" clip-rule="evenodd"/><path stroke="#272D62" stroke-linecap="round" stroke-linejoin="round" stroke-width=".37" d="M4.52 32.6a22 22 0 0 0-.94 4.44c0 .66.2 1.3.42 1.94.67 2.05 1.38 4.1 2.11 6.14 2.23 6.21 14.62 35.61 15.05 35.97 1.18 1 31-10.5 36.35-12.6.26-.1.54-.21.75-.4.24-.23.65-.86.77-1.16.5-1.28.45-1.02.95-2.3"/><path fill="#fff" fill-rule="evenodd" d="m59.93 64.68-.02.03c-.3.42-.8.63-1.3.81l-5.1 1.96c-5.92 2.28-11.85 4.56-17.88 6.57-3.01 1-13.17 4.61-13.48 3.98a236.1 236.1 0 0 1-8.12-18.73c-1.1-2.87-2.74-6.72-3.86-9.76-1.16-3.13-2.3-6.25-3.44-9.38A45.13 45.13 0 0 1 4.8 34c-.37-1.73-.43-1.56.95-2.12 1.85-.76 5.31-2.25 7.19-3 5.08-2 10.24-3.81 15.4-5.58 3.84-1.32 7.65-2.67 11.51-3.91.42-.14.84-.27 1.29-.3.44-.01.9.1 1.21.4.21.2.33.48.44.74.87 2.1 1.6 4.25 2.4 6.39 1.07 2.85 2.31 5.63 3.5 8.43 3.67 8.6 6.67 17.4 10.02 26.1.3.8 1.56 2.87 1.21 3.52Z" clip-rule="evenodd"/><path stroke="#1F2573" stroke-linecap="round" stroke-linejoin="round" stroke-width=".37" d="m59.93 64.68-.02.03c-.3.42-.8.63-1.3.81l-5.1 1.96c-5.92 2.28-11.85 4.56-17.88 6.57-3.01 1-13.17 4.61-13.48 3.98a236.1 236.1 0 0 1-8.12-18.73c-1.1-2.87-2.74-6.72-3.86-9.76-1.16-3.13-2.3-6.25-3.44-9.38A45.13 45.13 0 0 1 4.8 34c-.37-1.73-.43-1.56.95-2.12 1.85-.76 5.31-2.25 7.19-3 5.08-2 10.24-3.81 15.4-5.58 3.84-1.32 7.65-2.67 11.51-3.91.42-.14.84-.27 1.29-.3.44-.01.9.1 1.21.4.21.2.33.48.44.74.87 2.1 1.6 4.25 2.4 6.39 1.07 2.85 2.31 5.63 3.5 8.43 3.67 8.6 6.67 17.4 10.02 26.1.3.8 1.56 2.87 1.21 3.52Z" clip-rule="evenodd"/><path stroke="#1F2573" stroke-linecap="round" stroke-linejoin="round" stroke-width=".37" d="M12.51 40.88c-.1.1-.18.24-.25.37-.1.16-.27.35-.32.53-.04.15.08.36.11.52.05.2.12.39.18.58.35 1.13.67 2.28 1.08 3.38.08.2.16.4.22.6.06.18.09.37.3.35.18-.02.34-.12.52-.17.2-.06.42-.09.63-.15 1.27-.36 2.5-.82 3.75-1.29.5-.2 1.03-.41 1.56-.56.24-.07.3-.19.37-.42.06-.2.2-.82.28-.9"/><path stroke="#1F2573" stroke-linecap="round" stroke-linejoin="round" stroke-width=".37" d="M13.57 47.02c.14-.14.18-.35.28-.51.06-.11.24-.38.34-.42M20.51 37.88c-.1.1-.16.25-.22.37-.08.17-.24.36-.28.54-.03.14.1.35.15.51.05.2.12.38.2.57.4 1.12.75 2.13 1.2 3.23.09.2.18.39.25.59.06.17.1.36.3.33.17-.02.32-.12.48-.17.2-.07.4-.1.6-.16 1.19-.4 2.33-.88 3.48-1.37.48-.2.96-.43 1.46-.59.22-.07.36-.15.42-.38.04-.2.16-.58.22-.67"/><path stroke="#1F2573" stroke-linecap="round" stroke-linejoin="round" stroke-width=".37" d="m21.88 43.8-.03.04c.13-.14.15-.34.24-.51.05-.11.2-.38.3-.43M28.86 35.16c.01-.02-.05-.02-.06 0l-.5.72c-.03.05-.07.1-.08.17 0 .05.02.1.03.14.53 1.4.94 2.85 1.52 4.24l.25.58c.06.18.1.37.3.34.18-.03.33-.13.5-.18.2-.07 5.25-1.85 5.76-2.01.24-.08.64-1.23.7-1.32M36.9 32.2c-.17.32-.49.7-.43 1.06.06.44.25.9.39 1.32.3.94.65 1.87 1.03 2.77.08.2.18.4.25.6.06.17.1.36.3.33.17-.03.32-.12.48-.18.2-.06 5.1-1.8 5.6-1.95.23-.07.61-1.22.67-1.3"/><path stroke="#1F2573" stroke-linecap="round" stroke-linejoin="round" stroke-width=".37" d="M38.2 38.06c0 .01 0 .03-.02.04.13-.14.56-1.16.66-1.2M14.96 48c-.1.1-.17.25-.24.38-.1.16-.26.35-.3.53-.04.15.09.36.13.52.05.2.12.38.19.58.39 1.11.74 2.25 1.19 3.35.08.2.17.4.23.59.07.17.1.37.31.34.18-.03.33-.13.5-.18l.62-.16c1.26-.4 2.46-.89 3.67-1.38.5-.2 1.02-.44 1.53-.6.24-.07.29-.2.36-.43.05-.2.17-.38.25-.57"/><path stroke="#1F2573" stroke-linecap="round" stroke-linejoin="round" stroke-width=".37" d="M16.25 54.23c0 .01.66-.93.76-.97M22.88 45.5c-.09.17-.24.36-.28.54-.03.14.1.35.14.51l.2.57c.4 1.12.78 2.25 1.23 3.34.08.2.18.4.25.6.06.17.1.36.3.33.17-.03.32-.12.48-.18l.6-.16c1.19-.39 2.33-.87 3.48-1.36.48-.2.96-.44 1.45-.6.23-.07.27-.19.33-.42.05-.2.16-.38.23-.57"/><path stroke="#1F2573" stroke-linecap="round" stroke-linejoin="round" stroke-width=".37" d="M24.48 51.17c0 .01 0 .03-.02.04.13-.14.15-.35.24-.52.05-.1.2-.38.3-.42M31.34 42.3c-.1.11-.56.7-.6.87-.03.15.1.36.14.52.05.2.13.38.2.57.4 1.12.77 2.25 1.23 3.34l.24.59c.07.17.1.36.31.33.18-.02.33-.12.5-.17l5.76-2.02c.23-.07.64-1.23.7-1.32"/><path stroke="#1F2573" stroke-linecap="round" stroke-linejoin="round" stroke-width=".37" d="m32.62 48.3-.02.05c.13-.15.16-.35.24-.52.06-.11.22-.39.31-.43M39.82 39.24c-.09.1-.65.8-.7.98-.02.15.1.36.15.52l.2.57c.4 1.11.77 2.24 1.23 3.34l.25.59c.06.17.1.36.3.33.17-.02.32-.12.48-.17.2-.06 5.1-1.8 5.6-1.95.23-.08.6-1.22.67-1.31"/><path stroke="#1F2573" stroke-linecap="round" stroke-linejoin="round" stroke-width=".37" d="M41.01 45.36s0 .02-.02.03c.13-.14.56-1.15.65-1.2M17.8 55.1c-.1.1-.17.23-.24.35-.08.16-.24.35-.29.52-.03.15 1.01 3.19 1.43 4.3.07.2.16.4.22.6.06.17.09.36.3.34.16-.02.3-.1.47-.15.2-.06.4-.08.6-.14 1.2-.33 2.34-.76 3.5-1.2.49-.18.97-.38 1.47-.52.23-.06.27-.18.34-.41.05-.2.17-.37.25-.56.04-.1.06-.21.12-.3"/><path stroke="#1F2573" stroke-linecap="round" stroke-linejoin="round" stroke-width=".37" d="M18.98 60.98c0 .01 0 .03-.02.04.14-.14.18-.35.28-.51.06-.11.23-.38.34-.42M25.9 52.34c-.1.1-.16.25-.22.38-.08.16-.24.35-.28.53-.03.15.1.36.15.52.05.19.05.25.12.44.4 1.11.77 2.24 1.23 3.34.08.2.17.39.24.59.07.17.1.36.31.33.17-.02.31-.12.48-.17.19-.07.4-.1.59-.17 1.2-.38 5.22-2.03 5.4-2.16.04-.03.33-.71.4-.8"/><path stroke="#1F2573" stroke-linecap="round" stroke-linejoin="round" stroke-width=".37" d="M27.3 58.45c.12-.14.33-1.05.42-1.1M34.1 49.08c-.09.1-.15.25-.22.38-.09.16-.25.36-.29.54-.03.14.1.35.14.51l.2.58c.4 1.1.77 2.24 1.23 3.33l.24.6c.07.17.1.36.32.33.17-.03.32-.13.48-.18.2-.07 5.26-1.85 5.77-2.01.23-.08.4-1.2.46-1.3M42.07 46.32a23.41 23.41 0 0 0-.5.91c0 .03 0 .07.02.1.22.73.51 1.45.77 2.17.26.75.53 1.5.84 2.22l.26.63c.07.18.1.38.32.35.17-.02.32-.12.49-.17.2-.07 5.27-1.86 5.78-2.02.23-.08.62-1.28.68-1.38M20.37 62.16c-.1.1-.17.25-.24.38-.1.16-.26.35-.3.53-.04.15.09.36.13.52.05.2.12.39.19.58.38 1.11.74 2.25 1.18 3.35l.24.6c.06.17.1.36.31.33.18-.03.33-.12.5-.18l.62-.16c1.25-.4 2.46-.88 3.67-1.38.5-.2 1.01-.44 1.53-.6.24-.07.44-1.17.5-1.26"/><path stroke="#1F2573" stroke-linecap="round" stroke-linejoin="round" stroke-width=".37" d="m21.64 68.23-.03.04c.14-.14.68-.97.78-1.01M28.5 59.42c-.09.16-.25.36-.3.54-.03.14.1.35.15.51.05.2.12.39.2.58.39 1.11.75 2.25 1.21 3.34l.24.6c.07.17.1.36.32.32.17-.02.32-.12.5-.18.2-.06.4-.1.6-.17 1.25-.4 2.44-.92 3.64-1.43.5-.21 1-.45 1.52-.62.23-.07.28-.2.34-.43.05-.2.17-.39.25-.58"/><path stroke="#1F2573" stroke-linecap="round" stroke-linejoin="round" stroke-width=".37" d="M30.22 65.3c.13-.13.38-1.28.48-1.32M37.07 56.09c-.1.1-.56.69-.6.87-.03.14.08.24.12.4l.2.57c.4 1.12.77 2.25 1.23 3.34l.24.59c.07.17.1.36.32.33.17-.02.32-.12.48-.17L44.83 60c.23-.07.52-1.03.58-1.12"/><path stroke="#1F2573" stroke-linecap="round" stroke-linejoin="round" stroke-width=".37" d="M38.4 62.18c.13-.14.55-1.17.64-1.21M39.51 63.72c-.1.09-.26.9-.3 1.05-.04.12.07.3.1.43.05.16.1.32.17.48.33.92.55 1.45.93 2.36.07.16.15.32.2.49.06.14.08.3.29.27.16-.03.3-.12.46-.17l5.52-1.93c.23-.07.66-1.06.72-1.14"/><path stroke="#1F2573" stroke-linecap="round" stroke-linejoin="round" stroke-width=".37" d="m40.68 68.63-.03.03c.13-.13.17-.3.26-.45.06-.1.21-.33.3-.37M23.12 69.44c-.1.1-.55.6-.6.76-.04.13.08.3.11.43.04.16.1.32.16.48.33.92.63 1.87 1.02 2.77l.2.49c.06.14.08.3.28.27.17-.03.31-.12.47-.17l13.88-4.87c.23-.07.49-.65.55-.73"/><path stroke="#1F2573" stroke-linecap="round" stroke-linejoin="round" stroke-width=".37" d="m24.07 74.47-.02.03c.13-.13.16-.3.25-.45.06-.1.22-.33.31-.37M47.36 60.4c-.09.1-.3.82-.34.99-.03.13.09.32.13.47.05.17.11.35.18.52.36 1.02.62 1.77 1.03 2.77l.23.54c.06.15.09.33.3.3.16-.03.3-.12.46-.17.2-.07 5.03-1.77 5.52-1.93.22-.07.63-1.14.69-1.22"/><path stroke="#1F2573" stroke-linecap="round" stroke-linejoin="round" stroke-width=".37" d="M48.73 65.93c.13-.13.46-1.03.55-1.08M45.21 53.24c-.09.1-.66.8-.7.98-.02.15.1.36.15.51.05.2.13.39.2.58.4 1.11.77 2.24 1.23 3.34.08.2.17.39.24.59.07.17.1.36.31.33.17-.02.31-.12.48-.17.19-.07 5.1-1.8 5.6-1.96.22-.07.6-1.22.67-1.3"/><path stroke="#1F2573" stroke-linecap="round" stroke-linejoin="round" stroke-width=".37" d="m46.4 59.36-.02.03c.13-.14.56-1.15.65-1.2"/><path fill="#1EDBCF" fill-rule="evenodd" d="M37.94 64.3c-.23-.3-.38-.23-.77-.14-.84.18-1.67.54-2.49.83-1.26.44-2.57.75-3.84 1.2-1.23.43-7.74 3.05-7.74 3.05-.02.04 1.43 4.33 1.62 4.5l6.35-2.05c.98-.34 1.92-.81 2.9-1.16.88-.3 5.14-1.6 5.25-1.77.15-.2-.2-.98-.26-1.2-.2-.76-.43-1.5-.68-2.25-.1-.3-.13-.74-.34-1Z" clip-rule="evenodd"/><path stroke="#1EDBCF" stroke-linecap="round" stroke-linejoin="round" stroke-width=".37" d="M37.94 64.3c-.23-.3-.38-.23-.77-.14-.84.18-1.67.54-2.49.83-1.26.44-2.57.75-3.84 1.2-1.23.43-7.74 3.05-7.74 3.05-.02.04 1.43 4.33 1.62 4.5l6.35-2.05c.98-.34 1.92-.81 2.9-1.16.88-.3 5.14-1.6 5.25-1.77.15-.2-.2-.98-.26-1.2-.2-.76-.43-1.5-.68-2.25-.1-.3-.13-.74-.34-1Z" clip-rule="evenodd"/><path fill="#1EDBCF" fill-rule="evenodd" d="M40.23 65.82c.22.67.53 1.43.87 2.06.52-.12 2.49-.83 3.08-1 1.06-.33 2.43-.9 3.39-1.36-.48-1.47-1.17-2.64-1.78-4.05-1.1.38-6.44 2.15-6.4 2.19 0 0 .61 1.48.84 2.16Z" clip-rule="evenodd"/><path stroke="#1EDBCF" stroke-linecap="round" stroke-linejoin="round" stroke-width=".37" d="M40.23 65.82c.22.67.53 1.43.87 2.06.52-.12 2.49-.83 3.08-1 1.06-.33 2.43-.9 3.39-1.36-.48-1.47-1.17-2.64-1.78-4.05-1.1.38-6.44 2.15-6.4 2.19 0 0 .61 1.48.84 2.16Z" clip-rule="evenodd"/><path fill="#303AB2" fill-rule="evenodd" d="M39.6 39.2c.45 1.17.75 2.36 1.26 3.5.24.57.62 1.69.83 1.71.65.06 6.14-1.96 6.27-2.16.19-.3-1.6-5.42-2.12-5.37-.28.02-1 .37-1.26.48-.86.35-4.98 1.84-4.98 1.84Z" clip-rule="evenodd"/><path stroke="#1F2573" stroke-linecap="round" stroke-linejoin="round" stroke-width=".37" d="M39.6 39.2c.45 1.17.75 2.36 1.26 3.5.24.57.62 1.69.83 1.71.65.06 6.14-1.96 6.27-2.16.19-.3-1.6-5.42-2.12-5.37-.28.02-1 .37-1.26.48-.86.35-4.98 1.84-4.98 1.84Z" clip-rule="evenodd"/><path fill="#303AB2" fill-rule="evenodd" d="M44.13 32.07c-.22-.53-.52-1.8-1-2.13-.14-.1-1.67.48-2.25.7-.72.3-1.46.48-2.17.76-.3.12-.62.21-.92.34-.22.08-.87.4-1.09.48-.13.04.78 2 .98 2.54.27.7.71 1.72 1.1 2.38.18.32 1.1-.07 1.72-.32.81-.32 4-1.55 4.7-1.9l-1.07-2.85Z" clip-rule="evenodd"/><path stroke="#1F2573" stroke-linecap="round" stroke-linejoin="round" stroke-width=".37" d="M44.13 32.07c-.22-.53-.52-1.8-1-2.13-.14-.1-1.67.48-2.25.7-.72.3-1.46.48-2.17.76-.3.12-.62.21-.92.34-.22.08-.87.4-1.09.48-.13.04.78 2 .98 2.54.27.7.71 1.72 1.1 2.38.18.32 1.1-.07 1.72-.32.81-.32 4-1.55 4.7-1.9l-1.07-2.85Z" clip-rule="evenodd"/><path fill="#1EDBCF" fill-rule="evenodd" d="M30.3 45.11c-.22-.52-.52-1.8-1-2.13-.14-.1-1.67.48-2.24.71-.72.3-1.47.47-2.18.76-.3.12-.61.2-.91.33-.22.09-.87.4-1.1.48-.13.04.78 2 .99 2.54.27.7.7 1.73 1.09 2.38.19.32 1.1-.07 1.72-.31.81-.33 4-1.55 4.71-1.91L30.3 45.1Z" clip-rule="evenodd"/><path stroke="#1EDBCF" stroke-linecap="round" stroke-linejoin="round" stroke-width=".37" d="M30.3 45.11c-.22-.52-.52-1.8-1-2.13-.14-.1-1.67.48-2.24.71-.72.3-1.47.47-2.18.76-.3.12-.61.2-.91.33-.22.09-.87.4-1.1.48-.13.04.78 2 .99 2.54.27.7.7 1.73 1.09 2.38.19.32 1.1-.07 1.72-.31.81-.33 4-1.55 4.71-1.91L30.3 45.1Z" clip-rule="evenodd"/><path fill="#1EDBCF" fill-rule="evenodd" d="M33.2 47.5c.37.09 1.07-.22 1.37-.38.45-.24 5.01-1.78 5.15-1.95.4-.48-.46-2.07-.67-2.6l-1.01-2.52c-.1-.27-6.74 2.24-6.7 2.25 0 0 1.63 5.14 1.86 5.2Z" clip-rule="evenodd"/><path stroke="#1EDBCF" stroke-linecap="round" stroke-linejoin="round" stroke-width=".37" d="M33.2 47.5c.37.09 1.07-.22 1.37-.38.45-.24 5.01-1.78 5.15-1.95.4-.48-.46-2.07-.67-2.6l-1.01-2.52c-.1-.27-6.74 2.24-6.7 2.25 0 0 1.63 5.14 1.86 5.2Z" clip-rule="evenodd"/><path fill="#1EDBCF" fill-rule="evenodd" d="M16.27 51.64c.26.76.63 1.72.86 1.64a50.8 50.8 0 0 0 2.78-1.1c.6-.26 1.23-.38 1.84-.56.6-.17 1.7-.6 1.7-.76-.02-.72-.63-1.84-.86-2.53-.22-.65-.52-1.16-.7-1.81-.27-.92-1.13-.53-1.85-.29-.82.28-4.86 1.6-5.21 1.8-.01.09 1.22 2.94 1.44 3.6Z" clip-rule="evenodd"/><path stroke="#1EDBCF" stroke-linecap="round" stroke-linejoin="round" stroke-width=".37" d="M16.27 51.64c.26.76.63 1.72.86 1.64a50.8 50.8 0 0 0 2.78-1.1c.6-.26 1.23-.38 1.84-.56.6-.17 1.7-.6 1.7-.76-.02-.72-.63-1.84-.86-2.53-.22-.65-.52-1.16-.7-1.81-.27-.92-1.13-.53-1.85-.29-.82.28-4.86 1.6-5.21 1.8-.01.09 1.22 2.94 1.44 3.6Z" clip-rule="evenodd"/><path fill="#1EDBCF" fill-rule="evenodd" d="M21.37 40.47c.28.8 1 2.51 1 2.51s5.17-1.74 5.54-1.88c.4-.14.87-.1.87-.51 0-.4-.32-1.02-.42-1.42-.11-.46-.28-.86-.45-1.3-.25-.65-.5-1.77-.9-2.33 0 0-1.26.4-1.88.7-.8.38-1.64.57-2.47.89l-2.2.79.91 2.55Z" clip-rule="evenodd"/><path stroke="#1EDBCF" stroke-linecap="round" stroke-linejoin="round" stroke-width=".37" d="M21.37 40.47c.28.8 1 2.51 1 2.51s5.17-1.74 5.54-1.88c.4-.14.87-.1.87-.51 0-.4-.32-1.02-.42-1.42-.11-.46-.28-.86-.45-1.3-.25-.65-.5-1.77-.9-2.33 0 0-1.26.4-1.88.7-.8.38-1.64.57-2.47.89l-2.2.79.91 2.55Z" clip-rule="evenodd"/><path fill="#303AB2" fill-rule="evenodd" d="M54.84 60.46c.3.68.84 2.23.84 2.23l-5.51 1.99c-.4.13-.74.43-1 .16-.25-.26-.41-.86-.58-1.17-.21-.38-.33-.73-.49-1.13-.22-.57-.75-1.53-.8-2.13 0 0 6.38-2.4 6.67-2.26 0 0 .68 1.88.87 2.31Z" clip-rule="evenodd"/><path stroke="#1F2573" stroke-linecap="round" stroke-linejoin="round" stroke-width=".37" d="M54.84 60.46c.3.68.84 2.23.84 2.23l-5.51 1.99c-.4.13-.74.43-1 .16-.25-.26-.41-.86-.58-1.17-.21-.38-.33-.73-.49-1.13-.22-.57-.75-1.53-.8-2.13 0 0 6.38-2.4 6.67-2.26 0 0 .68 1.88.87 2.31Z" clip-rule="evenodd"/><path fill="#F48C9B" fill-rule="evenodd" d="M12.5 40.85c-.11.14.24.92.32 1.22.15.55.3 1.1.49 1.65.15.46.33.9.48 1.37.09.28.13.82.45.97.43.22 1.66-.46 2.1-.67.76-.35 1.55-.63 2.34-.87.53-.16 2.25-.78 2.25-.78s-1.87-5.14-2.1-5.13c-.5.04-1.22.4-1.66.6-.78.33-1.64.52-2.43.85-.8.33-2.25.79-2.25.79Z" clip-rule="evenodd"/><path stroke="#F48C9B" stroke-linecap="round" stroke-linejoin="round" stroke-width=".37" d="M12.5 40.85c-.11.14.24.92.32 1.22.15.55.3 1.1.49 1.65.15.46.33.9.48 1.37.09.28.13.82.45.97.43.22 1.66-.46 2.1-.67.76-.35 1.55-.63 2.34-.87.53-.16 2.25-.78 2.25-.78s-1.87-5.14-2.1-5.13c-.5.04-1.22.4-1.66.6-.78.33-1.64.52-2.43.85-.8.33-2.25.79-2.25.79Z" clip-rule="evenodd"/><path fill="#1EDBCF" fill-rule="evenodd" d="M26.78 59.63c.46 1.16 1.05 2.25 1.46 3.43.2.58.68 1.66.54 1.81-.45.45-5.98 2.37-6.22 2.3-.34-.1-2.51-5.1-2.08-5.39.22-.15 1.01-.34 1.28-.42.89-.28 5.02-1.73 5.02-1.73Z" clip-rule="evenodd"/><path stroke="#1EDBCF" stroke-linecap="round" stroke-linejoin="round" stroke-width=".37" d="M26.78 59.63c.46 1.16 1.05 2.25 1.46 3.43.2.58.68 1.66.54 1.81-.45.45-5.98 2.37-6.22 2.3-.34-.1-2.51-5.1-2.08-5.39.22-.15 1.01-.34 1.28-.42.89-.28 5.02-1.73 5.02-1.73Z" clip-rule="evenodd"/><path fill="#1EDBCF" fill-rule="evenodd" d="M18.55 57.27c-.2-.53-.83-1.68-.7-2.24.03-.16 1.58-.68 2.18-.87.74-.23 1.42-.56 2.16-.79.3-.1.6-.23.92-.32.22-.07.93-.25 1.15-.33.13-.04.8 2 1 2.54.28.7.65 1.75.81 2.48.08.36-.88.64-1.52.84-.83.27-4.08 1.34-4.86 1.52l-1.14-2.83Z" clip-rule="evenodd"/><path stroke="#1EDBCF" stroke-linecap="round" stroke-linejoin="round" stroke-width=".37" d="M18.55 57.27c-.2-.53-.83-1.68-.7-2.24.03-.16 1.58-.68 2.18-.87.74-.23 1.42-.56 2.16-.79.3-.1.6-.23.92-.32.22-.07.93-.25 1.15-.33.13-.04.8 2 1 2.54.28.7.65 1.75.81 2.48.08.36-.88.64-1.52.84-.83.27-4.08 1.34-4.86 1.52l-1.14-2.83Z" clip-rule="evenodd"/><path fill="#1EDBCF" fill-rule="evenodd" d="M37.86 58.26c-.2-.53-.84-1.68-.71-2.23.03-.17 1.59-.69 2.18-.87.74-.24 1.43-.57 2.16-.8.3-.1.6-.23.92-.32.23-.07.93-.24 1.15-.32.13-.05.8 2 1 2.53.29.7.65 1.75.81 2.48.08.37-.88.64-1.51.85-.84.26-4.09 1.33-4.87 1.5l-1.13-2.82Z" clip-rule="evenodd"/><path stroke="#1EDBCF" stroke-linecap="round" stroke-linejoin="round" stroke-width=".37" d="M37.86 58.26c-.2-.53-.84-1.68-.71-2.23.03-.17 1.59-.69 2.18-.87.74-.24 1.43-.57 2.16-.8.3-.1.6-.23.92-.32.23-.07.93-.24 1.15-.32.13-.05.8 2 1 2.53.29.7.65 1.75.81 2.48.08.37-.88.64-1.51.85-.84.26-4.09 1.33-4.87 1.5l-1.13-2.82Z" clip-rule="evenodd"/><path fill="#1EDBCF" fill-rule="evenodd" d="M37.3 61.88c-.22.3-.95.5-1.3.57-.49.1-5 1.8-5.21 1.76-.63-.12-1.08-1.85-1.28-2.37-.24-.6-.74-1.95-.97-2.55-.1-.27 6.63-2.53 6.6-2.5 0 0 2.3 4.9 2.16 5.1Z" clip-rule="evenodd"/><path stroke="#1EDBCF" stroke-linecap="round" stroke-linejoin="round" stroke-width=".37" d="M37.3 61.88c-.22.3-.95.5-1.3.57-.49.1-5 1.8-5.21 1.76-.63-.12-1.08-1.85-1.28-2.37-.24-.6-.74-1.95-.97-2.55-.1-.27 6.63-2.53 6.6-2.5 0 0 2.3 4.9 2.16 5.1Z" clip-rule="evenodd"/><path fill="#1EDBCF" fill-rule="evenodd" d="M33.73 53.4c.33.74.7 1.7.47 1.78-.66.25-2.1.7-2.85.91-.62.18-1.18.5-1.77.74-.56.23-1.69.6-1.8.48-.48-.55-.79-1.78-1.09-2.44-.28-.63-.4-1.2-.7-1.81-.44-.86.47-1.1 1.19-1.37.8-.3 4.8-1.71 5.2-1.79.07.07 1.06 2.86 1.35 3.5Z" clip-rule="evenodd"/><path stroke="#1EDBCF" stroke-linecap="round" stroke-linejoin="round" stroke-width=".37" d="M33.73 53.4c.33.74.7 1.7.47 1.78-.66.25-2.1.7-2.85.91-.62.18-1.18.5-1.77.74-.56.23-1.69.6-1.8.48-.48-.55-.79-1.78-1.09-2.44-.28-.63-.4-1.2-.7-1.81-.44-.86.47-1.1 1.19-1.37.8-.3 4.8-1.71 5.2-1.79.07.07 1.06 2.86 1.35 3.5Z" clip-rule="evenodd"/><path fill="#303AB2" fill-rule="evenodd" d="M52.92 54.4c.33.73.71 1.69.48 1.77-.67.25-2.1.7-2.85.91-.63.18-1.2.5-1.78.74-.56.23-1.69.6-1.8.48-.47-.55-.78-1.78-1.08-2.44-.29-.63-.4-1.2-.72-1.81-.43-.86.49-1.1 1.2-1.37.81-.3 4.8-1.71 5.2-1.79.07.06 1.06 2.86 1.35 3.5Z" clip-rule="evenodd"/><path stroke="#1F2573" stroke-linecap="round" stroke-linejoin="round" stroke-width=".37" d="M52.92 54.4c.33.73.71 1.69.48 1.77-.67.25-2.1.7-2.85.91-.63.18-1.2.5-1.78.74-.56.23-1.69.6-1.8.48-.47-.55-.78-1.78-1.08-2.44-.29-.63-.4-1.2-.72-1.81-.43-.86.49-1.1 1.2-1.37.81-.3 4.8-1.71 5.2-1.79.07.06 1.06 2.86 1.35 3.5Z" clip-rule="evenodd"/><path stroke="#fff" stroke-linecap="round" stroke-linejoin="round" stroke-width=".37" d="M30.68 69.48c.71.47 1.32-.08 1.22-.8-.05-.35-.42-1-.78-1.14-.25-.1-.55.06-.68.28-.25.41-.2 1.37.24 1.66Z" clip-rule="evenodd"/><path stroke="#fff" stroke-linecap="round" stroke-linejoin="round" stroke-width=".37" d="M23.95 64.24s.3-1.15.58-1.53c.29.33.68 2.3.78 2.37M31.59 60.34c.08-.35.52-.98.95-.67.6.46-.22 1.45-.16 1.97.49-.2 1.05-.6 1.47-.8M20.33 55.02s.32 1.33.2 1.85c.31.04 1.5-.54 1.4-.52"/><path stroke="#fff" stroke-linecap="round" stroke-linejoin="round" stroke-width=".37" d="M21.72 54.8c.07 1.04.39 2.27.76 3.27-.08-.03-.02-.05-.03-.11M29.79 51.91c-1.18.2-.71.58-.44 1.35.38-.29 1.11-.78 1.53-.2.51.7-.72 1.93-1.28 1M18.04 48.77c.5-.14 1.53-.52 1.65-.5-.57.69-.23 1.78-.4 2.6M26.7 46.41c-.47-.25-.52-1.05.14-1.2 1.3-.3.13 1.37 0 1.72-.1.3-.3.85.07 1.04.35.18.84-.2.9-.53.07-.5-.87-1-1.2-1.13M43.59 63.8c0 .55-.56 1.04-.65 1.56M48.71 53.07c.06.59.27 1.51.55 2.17 0 .05 0-.04.02-.06"/><path stroke="#fff" stroke-linecap="round" stroke-linejoin="round" stroke-width=".37" d="M47.81 54.63c.66-.5 1.75-.64 2.36-1.15M44.5 39.51c-.27.18-.37.68-.49.96-.23.53-.43 1.16-.74 1.65"/><path stroke="#fff" stroke-linecap="round" stroke-linejoin="round" stroke-width=".37" d="M40 32.26c-.33.71.99 1.09.72.09-.04-.17-.18-.32-.35-.33a.4.4 0 0 0-.37.24Z" clip-rule="evenodd"/><path stroke="#fff" stroke-linecap="round" stroke-linejoin="round" stroke-width=".37" d="M41.02 34.4c-.67.19-.21 1.49.42.97.9-.73-.63-1.31-.64-.8M38.8 34.43c.84-.13 1.43-.54 2.22-.87.45-.2 1.22-.36 1.53-.68M23.39 37.91c-.15.49.24 1.32.1 1.77"/><path stroke="#fff" stroke-linecap="round" stroke-linejoin="round" stroke-width=".37" d="M22.7 38.89c-.04.06 1.79-.46 1.75-.48M25.92 37.68c-.08.13-2.16 3.66-2 3.74M25.88 39.74c.27-.09.54-.21.78-.36M50.15 61.5c.33-.1.94-.41 1.33-.61.45-.23.86-.27 1.3-.45M50.53 62.62c.47.01 1.12-.51 1.57-.7.42-.16.85-.3 1.27-.44M42.61 40.15c.57.67 2 .7 2.48 1.37M16.27 41.07c-.87.05-1.4.87-1.12 1.65.16.47.53.94 1.1.98.4.02.88-.27 1-.74M39.59 56.51c.55-1.18 2.65-.13.96.85.5-.33 1.64-.42 1.69.38.03.6-1.4 1.39-1.56.94"/><path stroke="#fff" stroke-linecap="round" stroke-linejoin="round" stroke-width=".37" d="M34.76 43.14c.45 1.16 1.75-.21.86-.88a.57.57 0 0 0-.54-.07c-.35.14-.45.6-.32.95Z" clip-rule="evenodd"/><path stroke="#fff" stroke-linecap="round" stroke-linejoin="round" stroke-width=".37" d="M35.85 42.4c.27.58.88 2.36.83 2.32"/><path fill="#1F2573" fill-rule="evenodd" d="M42.27 28.47c-.83.56-5.88 2.12-6.92 2.5-2.64.98-5.3 1.93-7.95 2.87-4.87 1.72-16.2 5.85-16.45 5.82-.12-.01-.23-.49-.26-.6-.5-1.5-1.23-2.95-1.59-4.48-.04-.19-.32-.8-.2-.96.07-.1 2.05-.76 2.53-.95 3.44-1.36 6.96-2.52 10.4-3.88a610.1 610.1 0 0 1 11.65-4.1c1.28-.44 2.35-.84 3.63-1.25.61-.19 2.96-1.08 3-.9l.28.84c.42 1.54 1.94 5.05 1.88 5.09Z" clip-rule="evenodd"/><path stroke="#1F2573" stroke-linecap="round" stroke-linejoin="round" stroke-width=".37" d="M42.27 28.47c-.83.56-5.88 2.12-6.92 2.5-2.64.98-5.3 1.93-7.95 2.87-4.87 1.72-16.2 5.85-16.45 5.82-.12-.01-.23-.49-.26-.6-.5-1.5-1.23-2.95-1.59-4.48-.04-.19-.32-.8-.2-.96.07-.1 2.05-.76 2.53-.95 3.44-1.36 6.96-2.52 10.4-3.88a610.1 610.1 0 0 1 11.65-4.1c1.28-.44 2.35-.84 3.63-1.25.61-.19 2.96-1.08 3-.9l.28.84c.42 1.54 1.94 5.05 1.88 5.09Z" clip-rule="evenodd"/><path stroke="#1EDBCF" stroke-linecap="round" stroke-linejoin="round" stroke-width=".37" d="M56.31 55.38a.43.43 0 0 1 .17-.58c.32-.17.72.09.91.39.22.33.3.75.17 1.11-.14.37-.54.65-.94.59a.95.95 0 0 1 1.08-.32c.38.15.62.57.54.96a.91.91 0 0 1-.88.69c.08-.18.25-.3.44-.36.45-.12.95.18 1.12.6.16.42.02.9-.26 1.26-.23.28-.64.5-.95.32"/><path stroke="#fff" stroke-linecap="round" stroke-linejoin="round" stroke-width=".37" d="M25.71 28.43c-.39.14-1.12.34-1.5.51M25.1 31.29s1.45-.48 1.48-.52M27.07 30.71c.3.82.48 1.39.79 2.18M24.57 31.6c.31.82.48 1.39.79 2.18M26.14 28.34c.28.73.42 1.25.7 1.97M23.74 29.19c.29.73.43 1.25.7 1.96M25.83 33.6l1.56-.58M29.04 27.24c-.39.13-1.12.34-1.5.5M27.02 27.84a78 78 0 0 0 .96 2.42M28.43 30.1s1.45-.49 1.48-.52M30.4 29.52c.31.81.49 1.38.79 2.17M31.63 31.1l.11.33M29.17 32.37l1.56-.58M32.63 25.85c-.38.14-1.11.34-1.49.5M31.57 28.85s2.22-.76 2.25-.8M31.73 29.3c.26.68.41 1.16.67 1.83M33.06 25.76c.28.73.36 1.2.66 1.76M32.76 30.95l1.56-.58M33.8 25.37c.3.81.6 1.46.96 2.42M35.2 27.63s1.46-.48 1.49-.52M37.18 27.05c.31.81.48 1.38.79 2.17M36.25 24.68c.22.9.42 1.25.7 1.96M39.06 23.68c-.4.14-1.12.34-1.5.51M37.04 24.28c.3.81.62 1.62.96 2.42M38.45 26.54s1.45-.48 1.48-.52M40.41 25.96c.32.82.43 1.27.73 2.06M38.15 27.13c.27.69.47 1.06.65 1.75M39.2 28.73l1.49-.58"/><path stroke="#1F2573" stroke-linecap="round" stroke-linejoin="round" stroke-width=".37" d="M35.59 55.3c0 .02-.03.02-.03 0v-.03c.21-.52.44-1.03.68-1.54M30.24 41.3c.2-.47.4-.93.63-1.38"/><path fill="#1EDBCF" fill-rule="evenodd" d="M30.02 38.67c.25.76.62 1.72.86 1.64.67-.23 2.06-.8 2.78-1.1.59-.26 1.23-.38 1.84-.56.59-.18 1.7-.6 1.69-.76-.02-.72-.63-1.84-.86-2.53-.21-.65-.52-1.16-.7-1.81-.26-.93-1.12-.53-1.84-.29-.82.28-4.8 1.72-5.16 1.92 0 .09 1.17 2.81 1.39 3.49Z" clip-rule="evenodd"/><path stroke="#1EDBCF" stroke-linecap="round" stroke-linejoin="round" stroke-width=".37" d="M30.02 38.67c.25.76.62 1.72.86 1.64.67-.23 2.06-.8 2.78-1.1.59-.26 1.23-.38 1.84-.56.59-.18 1.7-.6 1.69-.76-.02-.72-.63-1.84-.86-2.53-.21-.65-.52-1.16-.7-1.81-.26-.93-1.12-.53-1.84-.29-.82.28-4.8 1.72-5.16 1.92 0 .09 1.17 2.81 1.39 3.49Z" clip-rule="evenodd"/><path stroke="#fff" stroke-linecap="round" stroke-linejoin="round" stroke-width=".37" d="M31.84 36.6c.68.1.91-.93.39-1.24a.49.49 0 0 0-.29-.07c-.5.05-.68 1.22-.1 1.31Z" clip-rule="evenodd"/><path stroke="#fff" stroke-linecap="round" stroke-linejoin="round" stroke-width=".37" d="M33.9 35.52c-.1.04-1.26 2.2-1.36 2.88"/><path stroke="#fff" stroke-linecap="round" stroke-linejoin="round" stroke-width=".37" d="M34.27 37.92c.46-.11.35-1-.12-.93-.48.09-.48 1.07.12.93Z" clip-rule="evenodd"/><path fill="#1EDBCF" fill-rule="evenodd" d="M41.5 49.35c.33.77.97 2.51.97 2.51s-5.1 1.94-5.48 2.07c-.4.13-.73.46-1 .15-.28-.3-.47-.97-.66-1.33-.23-.43-.38-.83-.56-1.27-.25-.65-.83-1.64-.9-2.32 0 0 1.22-.49 1.88-.65.86-.22 1.63-.6 2.48-.88.34-.12 2.1-.83 2.42-.66 0 0 .63 1.89.84 2.38Z" clip-rule="evenodd"/><path stroke="#1EDBCF" stroke-linecap="round" stroke-linejoin="round" stroke-width=".37" d="M41.5 49.35c.33.77.97 2.51.97 2.51s-5.1 1.94-5.48 2.07c-.4.13-.73.46-1 .15-.28-.3-.47-.97-.66-1.33-.23-.43-.38-.83-.56-1.27-.25-.65-.83-1.64-.9-2.32 0 0 1.22-.49 1.88-.65.86-.22 1.63-.6 2.48-.88.34-.12 2.1-.83 2.42-.66 0 0 .63 1.89.84 2.38Z" clip-rule="evenodd"/><path stroke="#fff" stroke-linecap="round" stroke-linejoin="round" stroke-width=".37" d="M38.07 48.82c-1.23 0-1.34 2.73-.4 3.22.76.4 1.32-.67.93-1.23-.4-.58-1.26-.51-1.48.19"/><path stroke="#1F2573" stroke-linecap="round" stroke-linejoin="round" stroke-width=".37" d="M43.68 52.61a16 16 0 0 1 .7-1.53"/><path fill="#303AB2" fill-rule="evenodd" d="M48.45 44.07c.19.04.45.84.6 1.13.26.5.52 1.02.76 1.54l.58 1.34c.12.27.46.7.33 1.02-.18.43-1.57.69-2.05.81-.82.2-1.6.5-2.37.8-.5.22-2.23.83-2.23.83l-2.13-5.18s1.4-.47 1.86-.6c.82-.24 1.6-.64 2.42-.88.83-.25 2.23-.81 2.23-.81Z" clip-rule="evenodd"/><path stroke="#1F2573" stroke-linecap="round" stroke-linejoin="round" stroke-width=".37" d="M48.45 44.07c.19.04.45.84.6 1.13.26.5.52 1.02.76 1.54l.58 1.34c.12.27.46.7.33 1.02-.18.43-1.57.69-2.05.81-.82.2-1.6.5-2.37.8-.5.22-2.23.83-2.23.83l-2.13-5.18s1.4-.47 1.86-.6c.82-.24 1.6-.64 2.42-.88.83-.25 2.23-.81 2.23-.81Z" clip-rule="evenodd"/><path stroke="#fff" stroke-linecap="round" stroke-linejoin="round" stroke-width=".37" d="M44.53 48.66c.82-.13 1.48-.56 2.22-.87.45-.2 1.22-.37 1.53-.68"/><path stroke="#1F2573" stroke-linecap="round" stroke-linejoin="round" stroke-width=".37" d="M22.2 78.16c-.26 1.03-.51 2-1 2.96"/><path fill="#E7E5E5" fill-rule="evenodd" d="M125.97 62.1c.36-1.02 2.28-.8 3.15-.96 1.24-.23 16.41-2.63 18.73-3.27 1.38-.38 2.6.24 3.23 1.67.47 1.06.7 2.91.93 4.06.39 2.04 1.02 4.96-.72 6.67-.87.86-1.87 1.1-3 1.3-1.17.21-15.58 2.17-16.85 2.42-1.4.28-2.66.28-3.14-1.26-.43-1.37-.14-2.68-1.88-2.45-1.09.15-2.63.8-3.47-.33-.7-.95-.58-2.17 0-3.15.62-1.05 1.52-1.5 2.6-1.97.14-.07.29-.13.4-.24.22-.18.31-.47.32-.74.02-.56-.5-1.22-.3-1.76Z" clip-rule="evenodd"/><path stroke="#E7E5E5" stroke-linecap="round" stroke-linejoin="round" stroke-width=".44" d="M125.97 62.1c.36-1.02 2.28-.8 3.15-.96 1.24-.23 16.41-2.63 18.73-3.27 1.38-.38 2.6.24 3.23 1.67.47 1.06.7 2.91.93 4.06.39 2.04 1.02 4.96-.72 6.67-.87.86-1.87 1.1-3 1.3-1.17.21-15.58 2.17-16.85 2.42-1.4.28-2.66.28-3.14-1.26-.43-1.37-.14-2.68-1.88-2.45-1.09.15-2.63.8-3.47-.33-.7-.95-.58-2.17 0-3.15.62-1.05 1.52-1.5 2.6-1.97.14-.07.29-.13.4-.24.22-.18.31-.47.32-.74.02-.56-.5-1.22-.3-1.76Z" clip-rule="evenodd"/><path stroke="#979CD8" stroke-linecap="round" stroke-linejoin="round" stroke-width=".44" d="M127.42 50.44c2.8 3.62-1.78 7.43-1.92 10.83a5.2 5.2 0 0 0 .82 3"/><path fill="#E7E5E5" fill-rule="evenodd" d="M101.57 14.76a.76.76 0 0 0-1 .41c-1.4 3.44-5.3 11.7-6.43 14.53-.52 1.32-4.22 8.7-3.43 9.29.22.16 16.59 6.97 17.27 7.24.28.1 16.07 7.02 16.6 6.82.69-.26 10.66-22.92 10.54-24.01-.06-.52-28.57-12.24-33.55-14.28Z" clip-rule="evenodd"/><path stroke="#E7E5E5" stroke-linecap="round" stroke-linejoin="round" stroke-width=".44" d="M101.57 14.76a.76.76 0 0 0-1 .41c-1.4 3.44-5.3 11.7-6.43 14.53-.52 1.32-4.22 8.7-3.43 9.29.22.16 16.59 6.97 17.27 7.24.28.1 16.07 7.02 16.6 6.82.69-.26 10.66-22.92 10.54-24.01-.06-.52-28.57-12.24-33.55-14.28Z" clip-rule="evenodd"/><path fill="#fff" fill-rule="evenodd" d="M125.49 52.73a.76.76 0 0 0 1-.41c1.4-3.44 5.06-11.83 6.18-14.67.53-1.32 2.14-5.63 2.72-6.93.32-.72 1.26-1.9.47-2.5-.2-.16-16.1-6.69-16.78-6.95-.28-.12-16.07-7.02-16.6-6.83-.69.26-10.66 22.92-10.54 24.01.06.52 28.57 12.24 33.55 14.28Z" clip-rule="evenodd"/><path stroke="#272D62" stroke-linecap="round" stroke-linejoin="round" stroke-width=".44" d="M125.49 52.73a.76.76 0 0 0 1-.41c1.4-3.44 5.06-11.83 6.18-14.67.53-1.32 2.14-5.63 2.72-6.93.32-.72 1.26-1.9.47-2.5-.2-.16-16.1-6.69-16.78-6.95-.28-.12-16.07-7.02-16.6-6.83-.69.26-10.66 22.92-10.54 24.01.06.52 28.57 12.24 33.55 14.28Z" clip-rule="evenodd"/><path fill="#303AB2" fill-rule="evenodd" d="M127.1 60.24c.34-1 2.22-.83 3.07-1 1.2-.25 15.99-2.93 18.25-3.6 1.33-.4 2.53.18 3.18 1.57.48 1.02.76 2.83 1 3.95.42 1.99 1.1 4.82-.57 6.53-.83.86-1.8 1.1-2.89 1.33-1.15.24-15.19 2.46-16.43 2.73-1.36.3-2.6.33-3.1-1.17-.44-1.32-.19-2.6-1.88-2.35-1.06.17-2.56.84-3.4-.25-.7-.91-.62-2.11-.07-3.08.59-1.04 1.46-1.5 2.5-1.98.14-.06.28-.13.4-.24.2-.18.28-.46.28-.73.01-.54-.5-1.19-.33-1.71Z" clip-rule="evenodd"/><path stroke="#303AB2" stroke-linecap="round" stroke-linejoin="round" stroke-width=".44" d="M127.1 60.24c.34-1 2.22-.83 3.07-1 1.2-.25 15.99-2.93 18.25-3.6 1.33-.4 2.53.18 3.18 1.57.48 1.02.76 2.83 1 3.95.42 1.99 1.1 4.82-.57 6.53-.83.86-1.8 1.1-2.89 1.33-1.15.24-15.19 2.46-16.43 2.73-1.36.3-2.6.33-3.1-1.17-.44-1.32-.19-2.6-1.88-2.35-1.06.17-2.56.84-3.4-.25-.7-.91-.62-2.11-.07-3.08.59-1.04 1.46-1.5 2.5-1.98.14-.06.28-.13.4-.24.2-.18.28-.46.28-.73.01-.54-.5-1.19-.33-1.71Z" clip-rule="evenodd"/><path fill="#272D62" fill-rule="evenodd" d="M126.25 65.52c-.21.3-.17.94.53.92.92-.26.3-1.77-.37-1.1l-.16.18Z" clip-rule="evenodd"/><path stroke="#272D62" stroke-linecap="round" stroke-linejoin="round" stroke-width=".44" d="M126.25 65.52c-.21.3-.17.94.53.92.92-.26.3-1.77-.37-1.1l-.16.18Z" clip-rule="evenodd"/><path fill="#272D62" fill-rule="evenodd" d="M123.87 49.36c.57.82 1.63 0 1.48-.81a.52.52 0 0 0-.1-.24c-.09-.1-.22-.15-.36-.18-.71-.2-1.5.54-1.02 1.23Z" clip-rule="evenodd"/><path stroke="#272D62" stroke-linecap="round" stroke-linejoin="round" stroke-width=".44" d="M123.87 49.36c.57.82 1.63 0 1.48-.81a.52.52 0 0 0-.1-.24c-.09-.1-.22-.15-.36-.18-.71-.2-1.5.54-1.02 1.23Z" clip-rule="evenodd"/><path stroke="#fff" stroke-linecap="round" stroke-linejoin="round" stroke-width=".44" d="M148.01 59.84c-3.32 1.26-1.65 7.2 1.53 5.1"/><path stroke="#fff" stroke-linecap="round" stroke-linejoin="round" stroke-width=".44" d="M145.23 64.26c.1.02 3.78-.96 3.96-1M145.03 62.8a77.6 77.6 0 0 0 3.91-1.04"/><path stroke="#272D62" stroke-linecap="round" stroke-linejoin="round" stroke-width=".44" d="M128.15 69.09c.95 1.28.3 3.57 2.12 3.98 1.66.38 17.38-2.64 19.63-3.05 1.1-.2 2.34-.79 2.58-1.96.24-1.2.17-2.49 0-3.68-.22-1.5-.56-2.98-.77-4.48-.14-.98-.78-3.43-2.01-3.67-1.54-.31-12.11 2.24-13.16 2.42-1.83.32-3.63.84-5.48 1.07-1.06.13-3.09-.11-3.66 1.08-.22.45-.23.97-.3 1.47-.08.5-.28 1.02-.72 1.26-.3.15-.66.15-1 .2-1.62.25-2.57 1.96-2.27 3.49.09.44.22.9.53 1.21"/><path stroke="#979CD8" stroke-linecap="round" stroke-linejoin="round" stroke-width=".44" d="M120.37 58.24c-.6.28-3.57.22-2.4-.7.52-.42 2.38.68 2.5.48.33-.58-3.07-1.6-2.66-2.7 1.56-1.07 2.86 2.3 2.77 2.65l-.2.27Z" clip-rule="evenodd"/><path stroke="#fff" stroke-linecap="round" stroke-linejoin="round" stroke-width=".44" d="M130.42 66.78c.04.05-.03.12.06.08.57-.85.57-2.2 1.28-3 1.03-1.18.94 1.88.99 2.25.09.85.53 1.49 1.24.58.3-.4.71-1.67 1.38-1.57.56.08.43 1.11.94 1.2.58.08 1-1.57 1.23-1.94.55-.86.64.14.79.72.32 1.2.74-.06 1.01-.6.64-1.28.52.42 1.01.53.38.08.55-.58.88-.66.32-.07.64.25.85.46"/><path stroke="#979CD8" stroke-linecap="round" stroke-linejoin="round" stroke-width=".44" d="M125.28 49.03c-.94-.19-2.32.47-3.4 2.57-.3.6-1.45 2.87-1.2 6.27.26 3.39 2.5 6.53 5.55 8.02"/><path fill="#8589B7" fill-rule="evenodd" d="M120.16 30.77c.3.13 1.13.56 1.44.66.69.23.21-1.6.17-2.17-.07-.78-.1-1.58-.26-2.35-.1-.45-1.15-.86-1.7-1.09l-2.85-1.14c-1.88-.73-3.8-1.22-5.71-1.87-.58-.2-1.17-.6-1.78-.53-.52.05-.99.27-1.45.5l-1.71.84c-.3.14-1.55.81-1.57.86-.07.17.18.23.35.3 1.68.68 3.16 1.4 4.86 2.01l2.02.73c2.1.76 4.16 1.58 6.2 2.46.72.3 1.27.47 1.98.79Z" clip-rule="evenodd"/><path stroke="#8589B7" stroke-linecap="round" stroke-linejoin="round" stroke-width=".44" d="M120.16 30.77c.3.13 1.13.56 1.44.66.69.23.21-1.6.17-2.17-.07-.78-.1-1.58-.26-2.35-.1-.45-1.15-.86-1.7-1.09l-2.85-1.14c-1.88-.73-3.8-1.22-5.71-1.87-.58-.2-1.17-.6-1.78-.53-.52.05-.99.27-1.45.5l-1.71.84c-.3.14-1.55.81-1.57.86-.07.17.18.23.35.3 1.68.68 3.16 1.4 4.86 2.01l2.02.73c2.1.76 4.16 1.58 6.2 2.46.72.3 1.27.47 1.98.79Z" clip-rule="evenodd"/><path stroke="#1F2573" stroke-linecap="round" stroke-linejoin="round" stroke-width=".44" d="M104.54 24.59c1.23-.83 2.69-1.38 4.04-2.06.34-.18.66-.41 1.05-.31.3.07.62.22.92.31.76.23 1.57.46 2.32.74 1.5.55 3.05.92 4.5 1.56.7.31 1.35.65 2.07.88.38.12.76.26 1.11.44.23.11.69.23.84.42.21.25.32 2.14.4 2.63.12.74.21 1.62.09 2.35"/><path stroke="#1F2573" stroke-linecap="round" stroke-linejoin="round" stroke-width=".44" d="M110.76 22.61c-.7.43-3.47 2.32-3.9 2.9M112.13 23.06c-.27.12-.63.66-.86.94-.33.4-.68.79-1.03 1.18-.22.25-1.04 1.05-1.05 1.2M113.54 23.53c-.2.07-.56.72-.73.94-.28.4-.57.78-.87 1.15-.37.44-.7 1.03-1.07 1.34M114.8 24.07c-.04.1-1.19 2.08-1.39 2.46-.25.5-.42.6-.63 1.12M116.34 24.44c-.45.78-.67 1.52-1.05 2.33-.22.49-.62 1.15-.7 1.66M117.73 24.96s-1.22 3.7-1.47 4.2M119.03 25.72c.03.07-.72 3.64-.9 4.17M120.42 26.09c-.03.89-.3 4.15-.35 4.53"/><path stroke="#1F2573" stroke-linecap="round" stroke-linejoin="round" stroke-width=".44" d="M103.95 31.38c.02.1.45.19.77.32.47.2.55.26 1.01.47.35.17.77.36 1.16.4.24-.3.8-1.96.7-1.99-.19-.06-.64-.36-.85-.43a8.39 8.39 0 0 1-.66-.27c-.38-.17-.89-.38-1.29-.5a8.7 8.7 0 0 0-.84 2Z" clip-rule="evenodd"/><path stroke="#1F2573" stroke-linecap="round" stroke-linejoin="round" stroke-width=".44" d="M106.18 29.93c-.12.2-.8 1.55-.9 1.91"/><path stroke="#1F2573" stroke-linecap="round" stroke-linejoin="round" stroke-width=".44" d="M109.96 31.38c-.35.6-.72 1.34-.93 2.01.47.23 1.06.28 1.55.5.44.2.93.3 1.36.51.13-.33.25-.66.4-1 .1-.22.21-.49.24-.73.03-.3.05-.24-.24-.36-.42-.19-2.06-.96-2.41-.87l.03-.06Z" clip-rule="evenodd"/><path stroke="#1F2573" stroke-linecap="round" stroke-linejoin="round" stroke-width=".44" d="M111.19 31.87s-.6 1.46-.75 1.95"/><path stroke="#1F2573" stroke-linecap="round" stroke-linejoin="round" stroke-width=".44" d="M114.88 34.6c-.06.15-.45.74-.36.9.1.18.5.17.67.22.36.1.7.22 1.06.33.36.11.72.23 1.05.4.06.03.12.06.17.03.04-.02.06-.06.08-.1l.61-1.4c.04-.1.09-.2.1-.32 0-.1-.04-.22-.13-.28-.17-.11-.41-.15-.6-.21l-1.21-.38c-.2-.06-.78-.36-.98-.21-.12.08-.17.23-.2.37-.06.24-.17.43-.26.65Z" clip-rule="evenodd"/><path stroke="#1F2573" stroke-linecap="round" stroke-linejoin="round" stroke-width=".44" d="M116.93 34.08c-.02.05-.81 1.93-.82 1.87"/><path stroke="#1F2573" stroke-linecap="round" stroke-linejoin="round" stroke-width=".44" d="M103.35 32.35c-.2 0-.37.67-.46.87-.2.41-.55 1.08-.43 1.15.43.23 1.22.56 1.72.69.43.1.9.37 1.37.48.23-.34.4-.89.57-1.25.06-.15.28-.46.2-.62-.07-.16-.47-.26-.62-.3l-2.35-1.02Z" clip-rule="evenodd"/><path stroke="#1F2573" stroke-linecap="round" stroke-linejoin="round" stroke-width=".44" d="m104.7 32.98-.87 1.84"/><path stroke="#1F2573" stroke-linecap="round" stroke-linejoin="round" stroke-width=".44" d="M107.85 36.26c-.1.2 1.04.62 1.15.66l.9.33c.3.13.52.34.88.38l.12-.01c.04-.02.07-.07.1-.11.2-.4.41-.8.53-1.24.07-.25.21-.31.04-.48-.07-.06-.22-.1-.3-.14l-1.03-.44c-.12-.05-1.56-.7-1.6-.6l-.8 1.65Z" clip-rule="evenodd"/><path stroke="#1F2573" stroke-linecap="round" stroke-linejoin="round" stroke-width=".44" d="M110.14 35.2c-.12.17-.82 1.63-.71 1.81"/><path stroke="#1F2573" stroke-linecap="round" stroke-linejoin="round" stroke-width=".44" d="M113.55 37.94c-.06.16-.1.27-.07.3a20.84 20.84 0 0 0 .9.45c.56.24 1.12.45 1.7.59.07.01.14.03.2 0 .07-.03.1-.09.14-.15.25-.41.47-.84.65-1.28.3-.68-.87-.85-1.33-1-.44-.13-.97-.4-1.42-.36-.08 0-.57.95-.77 1.45Z" clip-rule="evenodd"/><path stroke="#1F2573" stroke-linecap="round" stroke-linejoin="round" stroke-width=".44" d="M115.76 36.9c-.25.35-.88 1.71-.92 1.84"/><path fill="#F48C9B" fill-rule="evenodd" d="M104.8 41.47c.14-.15.23-.62.31-.87.1-.3.25-.59.4-.89.34-.67.88-1.36 1.63-1.69.82-.36 1.78-.46 2.52.13.84.66.6 1.47.39 2.35-.1.43-.32.84-.48 1.25-.08.2-.5 1.27-.52 1.24" clip-rule="evenodd"/><path stroke="#F48C9B" stroke-linecap="round" stroke-linejoin="round" stroke-width=".44" d="M104.8 41.47c.14-.15.23-.62.31-.87.1-.3.25-.59.4-.89.34-.67.88-1.36 1.63-1.69.82-.36 1.78-.46 2.52.13.84.66.6 1.47.39 2.35-.1.43-.32.84-.48 1.25-.08.2-.5 1.27-.52 1.24"/><path fill="#303AB2" fill-rule="evenodd" d="M105.46 28.3c.62.98 2.23.2 2.17-.76-.03-.49-.6-.84-1.03-.9-.92-.12-1.66.86-1.14 1.66Z" clip-rule="evenodd"/><path stroke="#1F2573" stroke-linecap="round" stroke-linejoin="round" stroke-width=".44" d="M105.46 28.3c.62.98 2.23.2 2.17-.76-.03-.49-.6-.84-1.03-.9-.92-.12-1.66.86-1.14 1.66Z" clip-rule="evenodd"/><path fill="#303AB2" fill-rule="evenodd" d="M109.58 29.84c.2.55.85.72 1.33.48.42-.21.63-.73.56-1.18-.2-1.25-2.37-.6-1.89.7Z" clip-rule="evenodd"/><path stroke="#1F2573" stroke-linecap="round" stroke-linejoin="round" stroke-width=".44" d="M109.58 29.84c.2.55.85.72 1.33.48.42-.21.63-.73.56-1.18-.2-1.25-2.37-.6-1.89.7Z" clip-rule="evenodd"/><path fill="#303AB2" fill-rule="evenodd" d="M118.84 31.42c-.66-.35-1.77.46-1.57 1.2.35 1.3 2.23.83 2.11-.39-.05-.53-.5-.97-1.06-.88" clip-rule="evenodd"/><path stroke="#1F2573" stroke-linecap="round" stroke-linejoin="round" stroke-width=".44" d="M118.84 31.42c-.66-.35-1.77.46-1.57 1.2.35 1.3 2.23.83 2.11-.39-.05-.53-.5-.97-1.06-.88"/><path fill="#303AB2" fill-rule="evenodd" d="M101.55 35.85c-.2.42-.39.85-.57 1.28-.04.08-.08.19-.03.27a.3.3 0 0 0 .12.1c.56.33 1.16.49 1.75.75.27.12.74.39 1.03.36.12-.01.2-.12.27-.23a6.8 6.8 0 0 0 .68-1.44.15.15 0 0 0-.03-.06c-.48-.5-1.38-.6-2-.85-.3-.13-.58-.32-.91-.4a.25.25 0 0 0-.14 0c-.07.02-.1.09-.13.15l-.04.07Z" clip-rule="evenodd"/><path stroke="#1F2573" stroke-linecap="round" stroke-linejoin="round" stroke-width=".44" d="M101.55 35.85c-.2.42-.39.85-.57 1.28-.04.08-.08.19-.03.27a.3.3 0 0 0 .12.1c.56.33 1.16.49 1.75.75.27.12.74.39 1.03.36.12-.01.2-.12.27-.23a6.8 6.8 0 0 0 .68-1.44.15.15 0 0 0-.03-.06c-.48-.5-1.38-.6-2-.85-.3-.13-.58-.32-.91-.4a.25.25 0 0 0-.14 0c-.07.02-.1.09-.13.15l-.04.07Z" clip-rule="evenodd"/><path fill="#303AB2" fill-rule="evenodd" d="M115.83 41.61c.06-.21.11-.42.18-.6.04-.11.07-.25 0-.33a.31.31 0 0 0-.16-.07c-1.11-.29-2.14-.86-3.29-1.04h-.08a19.33 19.33 0 0 0-.5.95c-.12.31-.24.63-.32.95-.01.03-.02.06-.01.1.01.08.12.1.2.13.54.1 1.07.36 1.59.54.58.21 1.18.35 1.79.43h.15a.27.27 0 0 0 .1-.12c.17-.26.27-.6.35-.94Z" clip-rule="evenodd"/><path stroke="#1F2573" stroke-linecap="round" stroke-linejoin="round" stroke-width=".44" d="M115.83 41.61c.06-.21.11-.42.18-.6.04-.11.07-.25 0-.33a.31.31 0 0 0-.16-.07c-1.11-.29-2.14-.86-3.29-1.04h-.08a19.33 19.33 0 0 0-.5.95c-.12.31-.24.63-.32.95-.01.03-.02.06-.01.1.01.08.12.1.2.13.54.1 1.07.36 1.59.54.58.21 1.18.35 1.79.43h.15a.27.27 0 0 0 .1-.12c.17-.26.27-.6.35-.94Z" clip-rule="evenodd"/><path stroke="#1F2573" stroke-linecap="round" stroke-linejoin="round" stroke-width=".44" d="M121.46 42.23c-.37.28-.42.54-.67.88-.26.34-.38.74-.6 1.1-.23.34-1.06 1.75-1.28 2.1M122.41 42.35c-.33-.02-1.53 3.89-1.85 4.65"/><path fill="#1EDBCF" fill-rule="evenodd" d="M122.68 36.14c.83-1.65.53-3.7 1.65-5.21.55-.74.75-1.55 1.53-2.13.2-.16.79-.87 1.08-.78.48.14.38 1.29.4 1.56.01.46-.1.92 0 1.39.1.52.41.99.41 1.51.02 1.45-1.16 2.15-1.47 3.42-.35 1.41-.05 2.97-.38 4.37-.45 1.92-3.04 3.35-5.23 1.24-1.85-1.8 1.41-4.2 2-5.37Z" clip-rule="evenodd"/><path stroke="#1EDBCF" stroke-linecap="round" stroke-linejoin="round" stroke-width=".44" d="M122.68 36.14c.83-1.65.53-3.7 1.65-5.21.55-.74.75-1.55 1.53-2.13.2-.16.79-.87 1.08-.78.48.14.38 1.29.4 1.56.01.46-.1.92 0 1.39.1.52.41.99.41 1.51.02 1.45-1.16 2.15-1.47 3.42-.35 1.41-.05 2.97-.38 4.37-.45 1.92-3.04 3.35-5.23 1.24-1.85-1.8 1.41-4.2 2-5.37Z" clip-rule="evenodd"/><path fill="#303AB2" fill-rule="evenodd" d="M113.98 30.15c-.3.2-.55.51-.6.87-.06.37.11.77.45.92a1.06 1.06 0 0 0 .6.05.63.63 0 0 0 .22-.14c.25-.22.44-.52.5-.85.15-.83-.44-1.36-1.17-.85Z" clip-rule="evenodd"/><path stroke="#1F2573" stroke-linecap="round" stroke-linejoin="round" stroke-width=".44" d="M113.98 30.15c-.3.2-.55.51-.6.87-.06.37.11.77.45.92a1.06 1.06 0 0 0 .6.05.63.63 0 0 0 .22-.14c.25-.22.44-.52.5-.85.15-.83-.44-1.36-1.17-.85Z" clip-rule="evenodd"/><path stroke="#1F2573" stroke-linecap="round" stroke-linejoin="round" stroke-width=".44" d="M98.8 38.24c-.09.2 0 .45.23.56l1.4.7c1.62.84 3.2 1.63 4.91 2.26 1.73.64 10.12 3.71 10.5 3.7.74-.04 6.14-13.84 6.12-13.98l-2.03-.8c-1.47-.58-2.93-1.23-4.74-1.96-2.44-.97-4.9-1.84-7.35-2.77a37.65 37.65 0 0 1-3.12-1.37c-.25.53-4.99 11.5-5.92 13.66Z" clip-rule="evenodd"/><path stroke="#fff" stroke-linecap="round" stroke-linejoin="round" stroke-width=".44" d="M126.57 30.07a4.93 4.93 0 0 0-1.58 3.35c-.04.87.14 1.78-.17 2.59-.24.6-.71 1.06-1.1 1.58-.58.8-.96 1.78-1.05 2.77"/><path stroke="#1F2573" stroke-linecap="round" stroke-linejoin="round" stroke-width=".73" d="M60.57 38.31c9.04.53 17.8 1.66 26.76 2.22M60.86 34.92c8.8.3 17.62 1.03 26.47 1.73"/><path stroke="#1EDBCF" stroke-linecap="round" stroke-linejoin="round" stroke-width=".73" d="M64.31 10.54c10.36.25 20.69 1.72 31.07 2.02M64.32 13.94c9.67.92 19.35 1.73 29.03 2.57M63.15 18.99c4.93.24 9.86.5 14.78.81 4.59.28 9.14-.12 13.73.38M62.3 23.98l26.68 1.93"/><path stroke="#1EDBCF" stroke-linecap="round" stroke-linejoin="round" stroke-width=".44" d="M111.03 5.7a3.75 3.75 0 0 0-.82-2.07 2.1 2.1 0 0 0-.93-.7 1.5 1.5 0 0 0-1.8.84 1.5 1.5 0 0 0 .74 1.84 2.89 2.89 0 0 0-.9-2.35c-.48-.45-1.25-.71-1.8-.35-.4.25-.58.75-.59 1.22-.02.64.31 1.36.93 1.5.26-.52.03-1.17-.3-1.65-.5-.72-1.47-1.3-2.22-.85-.78.45-.73 1.58-.52 2.45"/><path stroke="#1F2573" stroke-linecap="round" stroke-linejoin="round" stroke-width=".73" d="M60.98 31.23c3.4 0 6.8.25 10.19.49l14.88 1.05"/></svg>