<svg width="71" height="43" fill="none" xmlns="http://www.w3.org/2000/svg"><path d="M31.87 4.45c.84.71 4.09 3.68 4.34 4.63.33 1.3-.23 12.31-.23 14.2" stroke="#1F2573" stroke-width="1.5" stroke-linecap="round" stroke-linejoin="round"/><path fill-rule="evenodd" clip-rule="evenodd" d="M9.7 23.1c.16-.21.05-1.06.05-1.4 0-.48-.04-.95.08-1.39.14-.5 1.73-.93 1.54 0 .15.4.04 1.02.04 1.46 0 .5.04.97.04 1.46 0 1.25-2.24.57-1.74-.13" fill="#1F2573"/><path clip-rule="evenodd" d="M9.7 23.1c.16-.21.05-1.06.05-1.4 0-.48-.04-.95.08-1.39.14-.5 1.73-.93 1.54 0 .15.4.04 1.02.04 1.46 0 .5.04.97.04 1.46 0 1.25-2.24.57-1.74-.13Z" stroke="#1F2573" stroke-width="1.5" stroke-linecap="round" stroke-linejoin="round"/><path fill-rule="evenodd" clip-rule="evenodd" d="M46.28 22.24c.15-.21.04-1.06.04-1.4 0-.48-.03-.95.09-1.39.14-.51 1.73-.94 1.54 0 .15.4.04 1.02.04 1.45 0 .5.04.97.04 1.46 0 1.26-2.25.57-1.75-.12" fill="#1F2573"/><path clip-rule="evenodd" d="M46.28 22.24c.15-.21.04-1.06.04-1.4 0-.48-.03-.95.09-1.39.14-.51 1.73-.94 1.54 0 .15.4.04 1.02.04 1.45 0 .5.04.97.04 1.46 0 1.26-2.25.57-1.75-.12Z" stroke="#1F2573" stroke-width="1.5" stroke-linecap="round" stroke-linejoin="round"/><path d="M4.13 23.55v16.8M67.51 23.55v16.8M24.72 28.37c0 1.8-.45 8.67 0 9.65M24.48 38.26c-.7.68-1.58 1.09-2.29 1.81-.7.73-1.35 1.53-2.17 2.05M24.6 38.38c.06.97.25 2.6.49 3.26M24.84 38.26c1.26 1.31 3.46 1.54 4.83 2.77M60.75 28.37c0 1.8-.46 8.67 0 9.65M60.5 38.26c-.7.68-1.58 1.09-2.29 1.81-.7.73-1.35 1.53-2.17 2.05M60.62 38.38c.06.97.25 2.6.49 3.26M60.87 38.26c1.26 1.31 3.45 1.54 4.82 2.77" stroke="#1F2573" stroke-width="1.5" stroke-linecap="round" stroke-linejoin="round"/><path fill-rule="evenodd" clip-rule="evenodd" d="M17.76 11.97c.31.7.15 1.9.17 2.66.04 1.14-.03 2.26-.08 3.4-.01.32 0 1.43-.22 1.7-.25.3-1.63.21-1.99.23-2.25.1-4.5.19-6.75.16-1.83-.03-3.78-.12-5.61-.04.01-1 .08-2 .1-2.98.05-1.54.22-3.09.53-4.6.17-.84.17-.84 1.1-.9.74-.04 12.2-.84 12.75.37" fill="#1F2573"/><path clip-rule="evenodd" d="M17.76 11.97c.31.7.15 1.9.17 2.66.04 1.14-.03 2.26-.08 3.4-.01.32 0 1.43-.22 1.7-.25.3-1.63.21-1.99.23-2.25.1-4.5.19-6.75.16-1.83-.03-3.78-.12-5.61-.04.01-1 .08-2 .1-2.98.05-1.54.22-3.09.53-4.6.17-.84.17-.84 1.1-.9.74-.04 12.2-.84 12.75.37Z" stroke="#1F2573" stroke-width="1.5" stroke-linecap="round" stroke-linejoin="round"/><path fill-rule="evenodd" clip-rule="evenodd" d="M53.78 11.97c.31.7.14 1.9.17 2.66.03 1.14-.03 2.26-.08 3.4-.01.32-.01 1.43-.23 1.7-.24.3-1.62.21-1.98.23-2.26.1-4.5.19-6.75.16-1.83-.03-3.78-.12-5.62-.04.02-1 .09-2 .12-2.98.04-1.54.2-3.09.52-4.6.17-.84.17-.84 1.1-.9.73-.04 12.2-.84 12.75.37" fill="#1F2573"/><path clip-rule="evenodd" d="M53.78 11.97c.31.7.14 1.9.17 2.66.03 1.14-.03 2.26-.08 3.4-.01.32-.01 1.43-.23 1.7-.24.3-1.62.21-1.98.23-2.26.1-4.5.19-6.75.16-1.83-.03-3.78-.12-5.62-.04.02-1 .09-2 .12-2.98.04-1.54.2-3.09.52-4.6.17-.84.17-.84 1.1-.9.73-.04 12.2-.84 12.75.37Z" stroke="#1F2573" stroke-width="1.5" stroke-linecap="round" stroke-linejoin="round"/><path fill-rule="evenodd" clip-rule="evenodd" d="M1.43 23.35c-.27.5-.12 1.3.33 1.61 2.9-.59 6.17-.44 9.12-.38 12.5.24 45-.63 48.66-.67 1.77-.01 3.55.12 5.31.2 1.14.05 5.68.53 4.25-1.7-.8-1.25-4.85-.68-6.38-.7-2.55-.01-5.11.01-7.67.01-12.18 0-24.32.73-36.5.73-3.98 0-8.1.55-12.02.36-1.05-.05-4.57-.47-5.1.54" fill="#1EDBCF"/><path clip-rule="evenodd" d="M1.43 23.35c-.27.5-.12 1.3.33 1.61 2.9-.59 6.17-.44 9.12-.38 12.5.24 45-.63 48.66-.67 1.77-.01 3.55.12 5.31.2 1.14.05 5.68.53 4.25-1.7-.8-1.25-4.85-.68-6.38-.7-2.55-.01-5.11.01-7.67.01-12.18 0-24.32.73-36.5.73-3.98 0-8.1.55-12.02.36-1.05-.05-4.57-.47-5.1.54Z" stroke="#1EDBCF" stroke-width="1.5"/><path fill-rule="evenodd" clip-rule="evenodd" d="M24.71 10.9c3.93-.73 4.94 4.2 5.27 7.06.24 2.06.26 4.14.2 6.21-.04 1.82.38 3.62-1.84 3.84-1.42.13-2.88.12-4.34.12-1.12 0-4.04.52-4.86-.33-.55-.58-.15-2.5-.09-3.3.22-2.82.53-5.99 1.37-8.7.66-2.13 1.89-4.44 4.3-4.9" fill="#fff"/><path clip-rule="evenodd" d="M24.71 10.9c3.93-.73 4.94 4.2 5.27 7.06.24 2.06.26 4.14.2 6.21-.04 1.82.38 3.62-1.84 3.84-1.42.13-2.88.12-4.34.12-1.12 0-4.04.52-4.86-.33-.55-.58-.15-2.5-.09-3.3.22-2.82.53-5.99 1.37-8.7.66-2.13 1.89-4.44 4.3-4.9Z" stroke="#1F2573" stroke-width="1.5" stroke-linecap="round" stroke-linejoin="round"/><path fill-rule="evenodd" clip-rule="evenodd" d="M60.36 10.9c3.68-.73 4.62 4.2 4.93 7.06.23 2.06.25 4.14.2 6.21-.05 1.82.35 3.62-1.73 3.84-1.33.13-2.7.12-4.06.12-1.05 0-3.79.52-4.55-.33-.53-.58-.15-2.5-.09-3.3.2-2.82.5-5.99 1.28-8.7.62-2.13 1.77-4.44 4.02-4.9" fill="#fff"/><path clip-rule="evenodd" d="M60.36 10.9c3.68-.73 4.62 4.2 4.93 7.06.23 2.06.25 4.14.2 6.21-.05 1.82.35 3.62-1.73 3.84-1.33.13-2.7.12-4.06.12-1.05 0-3.79.52-4.55-.33-.53-.58-.15-2.5-.09-3.3.2-2.82.5-5.99 1.28-8.7.62-2.13 1.77-4.44 4.02-4.9Z" stroke="#1F2573" stroke-width="1.5" stroke-linecap="round" stroke-linejoin="round"/><path fill-rule="evenodd" clip-rule="evenodd" d="M28.31 5.77c-1.46-.09-1.46 2.95-.1 3.47 1.4.55 2.8-1.1 2.66-2.44" fill="#1EDBCF"/><path d="M28.31 5.77c-1.46-.09-1.46 2.95-.1 3.47 1.4.55 2.8-1.1 2.66-2.44" stroke="#1EDBCF" stroke-width="1.5"/><path fill-rule="evenodd" clip-rule="evenodd" d="M25.98 4.8c1.43 1.18 2.73 2.5 4.17 3.67.3.24 1.1 1.21 1.48 1.1.93-.26 1.03-1.96.99-2.68-.06-.85-.55-1.48-.8-2.22-.16-.5 1.12-2.1 1.22-2a13.8 13.8 0 0 0-1.9-1.7c-.47.63-1.03 1.41-1.36 2.16-1.2-.27-2.66-.47-3.78.23-.86.55-.77.83-.02 1.45" fill="#979CD8"/><path clip-rule="evenodd" d="M25.98 4.8c1.43 1.18 2.73 2.5 4.17 3.67.3.24 1.1 1.21 1.48 1.1.93-.26 1.03-1.96.99-2.68-.06-.85-.55-1.48-.8-2.22-.16-.5 1.12-2.1 1.22-2a13.8 13.8 0 0 0-1.9-1.7c-.47.63-1.03 1.41-1.36 2.16-1.2-.27-2.66-.47-3.78.23-.86.55-.77.83-.02 1.45Z" stroke="#979CD8" stroke-width="1.5" stroke-linecap="round" stroke-linejoin="round"/></svg>