<svg width="68" height="51" fill="none" xmlns="http://www.w3.org/2000/svg"><path d="M2.67 1.48c0 4.64-.25 9.33-.41 13.97-.1 2.55-.85 31.16-.4 31.13 3.88-.23 47.9.11 55.56-.27 1.06-.05 2.09-.14 3.17-.13 1.34 0 1.39.16 1.73-1.02.64-2.16.25-4.73.28-6.96.02-1.92-.14-3.82-.14-5.74.02-10.23.41-20.44.41-30.7" stroke="#303AAF" stroke-width="1.5" stroke-linecap="round" stroke-linejoin="round"/><path fill-rule="evenodd" clip-rule="evenodd" d="M55.3 11.61c.84-.07 2.24.33 2.93-.3.6-.55.56-1.8.63-2.51.15-1.47.19-2.95.2-4.43 0-1.04.25-2.25-1.07-2.64-.9-.27-2.06-.05-3-.04-2.64 0-5.3-.12-7.95-.18-7.44-.17-14.9-.3-22.33-.3-3.68-.01-7.37.3-11.04.6-1.34.11-5.56-.21-6.8.27-1 .39-.7 2.9-.74 3.85-.04.93-.06 1.85-.06 2.78 0 1.21-.21 1.93.85 2.73.04.03 2.48.06 2.52.08.98.66 2.04.42 3.2.46 1.3.04 2.54.04 3.84-.01 4.7-.19 9.42-.05 14.12-.18 4.69-.14 9.38-.12 14.07-.12 3.53 0 7.1.23 10.62-.06" fill="#1EDBCF"/><path clip-rule="evenodd" d="M55.3 11.61c.84-.07 2.24.33 2.93-.3.6-.55.56-1.8.63-2.51.15-1.47.19-2.95.2-4.43 0-1.04.25-2.25-1.07-2.64-.9-.27-2.06-.05-3-.04-2.64 0-5.3-.12-7.95-.18-7.44-.17-14.9-.3-22.33-.3-3.68-.01-7.37.3-11.04.6-1.34.11-5.56-.21-6.8.27-1 .39-.7 2.9-.74 3.85-.04.93-.06 1.85-.06 2.78 0 1.21-.21 1.93.85 2.73.04.03 2.48.06 2.52.08.98.66 2.04.42 3.2.46 1.3.04 2.54.04 3.84-.01 4.7-.19 9.42-.05 14.12-.18 4.69-.14 9.38-.12 14.07-.12 3.53 0 7.1.23 10.62-.06Z" stroke="#1EDBCF" stroke-width="1.5" stroke-linecap="round" stroke-linejoin="round"/><path d="M4.96 46.5c0-6.77.27-13.53.29-20.3 0-1.93.05-3.85.23-5.77.06-.7-.02-2.33.5-2.89.39-.4 3.89-.21 4.46-.21 2.97-.01 5.16-.33 8.18-.33 3.73 0 6.62.08 10.34.1.88.01 1.73.17 2.62.17 1 0 2.1-.07 3.09.11.86.16.43 1.6.41 2.13-.02 1.07-.94 26.95-1.11 26.97M12.68 8c.62-1.56 2.64-2.95 4.08-3.7.67-.35 1.48-.78 2.26-.7 1 .11.95 1.17.94 2.02 0 .8-.3 2.06.24 2.75.47.6 1.38.59 2.04.4 1-.26 1.85-.95 2.65-1.56.8-.62 2-1.98 3.04-2.13 1.65-.23.6 2.76 2.21 2.74 1.51-.01 3.14-2.55 4.67-1.86.52.23.6.86.96 1.25.83.92 2.1.22 3-.24 1.5-.76 2.48-1.21 3.9-.3 1.07.66 2.2.17 3.25-.32.61-.3 1.47-.9 2.2-.69.6.18.92.94 1.5 1.15.42.15.98.02 1.38-.13" stroke="#1F2573" stroke-width="1.5" stroke-linecap="round" stroke-linejoin="round"/><path d="M57 36.04c.5-1.54.56-3.5.54-5.16a17.08 17.08 0 0 0-1.41-6.71c-.44-.98-.9-1.94-1.35-2.91M57.34 27.78c0-1.28.1-2.5.32-3.76.21-1.19.43-3.11 1.22-3.9M60.83 35.77c-.31-.54-.28-1.36-.35-1.97-.16-1.4-.38-2.82-.45-4.23-.09-1.8.4-3.42.53-5.15M62.58 35.9c1.15-1.65 1.34-4.2 1.66-6.16.25-1.54.23-3.04.29-4.6.02-.74.1-1.47.06-2.22-.02-.42-.22-1.13-.06-1.46" stroke="#1EDBCF" stroke-width="1.5" stroke-linecap="round" stroke-linejoin="round"/><path d="M64.32 29.32c.04-.94.58-2.13.94-2.99.45-1.06.8-2.68 1.75-3.4" stroke="#1EDBCF" stroke-width="1.5" stroke-linecap="round" stroke-linejoin="round"/><path fill-rule="evenodd" clip-rule="evenodd" d="M55.12 42.1c0 1.3.07 2.63 0 3.94-.03.6-.24 1.41-.06 2 .21.74.84.7 1.55.7 1.17 0 2.38-.06 3.55-.12.64-.02 1.29-.01 1.93-.01.83 0 2.32.32 2.9-.53.55-.83.2-2.84.2-3.82.03-1.88.02-3.75.01-5.62 0-.65-.04-1.32-.07-1.97-.02-.45.12-1.53-.07-1.91-.29-.6-1.8-.39-2.34-.4-1.15-.04-2.29-.17-3.43-.07-1.17.1-2.49.38-3.62.15-.19.51-.12 1.23-.15 1.77-.1 1.98-.4 3.91-.4 5.89" fill="#fff"/><path clip-rule="evenodd" d="M55.12 42.1c0 1.3.07 2.63 0 3.94-.03.6-.24 1.41-.06 2 .21.74.84.7 1.55.7 1.17 0 2.38-.06 3.55-.12.64-.02 1.29-.01 1.93-.01.83 0 2.32.32 2.9-.53.55-.83.2-2.84.2-3.82.03-1.88.02-3.75.01-5.62 0-.65-.04-1.32-.07-1.97-.02-.45.12-1.53-.07-1.91-.29-.6-1.8-.39-2.34-.4-1.15-.04-2.29-.17-3.43-.07-1.17.1-2.49.38-3.62.15-.19.51-.12 1.23-.15 1.77-.1 1.98-.4 3.91-.4 5.89Z" stroke="#1F2573" stroke-width="1.5" stroke-linecap="round" stroke-linejoin="round"/><path d="M25.04 49.8s.36-5.53.47-6.6c.06-.59.5-.48 1.02-.45.52.02 1.04.04 1.56.04.54 0 1.1-.02 1.64 0 .36 0 .36-.02.44.3.1.42-.12 6.65-.12 6.65M30.53 41.95c0-2.2-.15-4.45.07-6.62.05-.51.1-1.03.19-1.53" stroke="#1F2573" stroke-width="1.5" stroke-linecap="round" stroke-linejoin="round"/><path fill-rule="evenodd" clip-rule="evenodd" d="M30.54 43c.03-.3.05-.64.06-.93 0-.36-.04-.37-.39-.4-.64-.03-1.31.01-1.96.04-.88.02-1.77 0-2.65-.02-.94-.02-.84.52-.89 1.25 1.93.08 3.9.03 5.83.06" fill="#979CD8"/><path clip-rule="evenodd" d="M30.54 43c.03-.3.05-.64.06-.93 0-.36-.04-.37-.39-.4-.64-.03-1.31.01-1.96.04-.88.02-1.77 0-2.65-.02-.94-.02-.84.52-.89 1.25 1.93.08 3.9.03 5.83.06Z" stroke="#979CD8" stroke-width="1.5" stroke-linecap="round" stroke-linejoin="round"/><path d="M13.27 49.77s.04-5.44-.04-6.52c-.04-.59-.48-.48-1-.47-.53.01-1.05 0-1.57 0-.54-.02-1.1-.05-1.64-.04-.36 0-.36-.03-.44.3-.11.4-.37 6.67-.37 6.67M8.24 41.88c.05-2.2.26-4.44.09-6.62-.04-.51-.07-1.03-.15-1.53" stroke="#1F2573" stroke-width="1.5" stroke-linecap="round" stroke-linejoin="round"/><path fill-rule="evenodd" clip-rule="evenodd" d="M8.22 43.03c-.03-.3-.05-.64-.06-.93-.01-.36.04-.37.38-.4.65-.04 1.31 0 1.96.01.88.02 1.77 0 2.66-.03.93-.03.84.5.9 1.23-1.93.1-3.9.07-5.84.12" fill="#979CD8"/><path clip-rule="evenodd" d="M8.22 43.03c-.03-.3-.05-.64-.06-.93-.01-.36.04-.37.38-.4.65-.04 1.31 0 1.96.01.88.02 1.77 0 2.66-.03.93-.03.84.5.9 1.23-1.93.1-3.9.07-5.84.12Z" stroke="#979CD8" stroke-width="1.5" stroke-linecap="round" stroke-linejoin="round"/><path d="M19.45 37.06c-.18 2.15-.2 10.03-.2 11.25M17.2 48.65h4.15" stroke="#1F2573" stroke-width="1.5" stroke-linecap="round" stroke-linejoin="round"/><path fill-rule="evenodd" clip-rule="evenodd" d="M27.98 36.92c-.99-.04-2.38-.04-3.53-.07-2.5-.08-4.97.16-7.47.05-1.13-.04-2.25.15-3.37.12-.53-.01-2.03.27-2.38-.13.18-.98 1.33-.75 2.07-.77 1.18-.03 2.35-.08 3.52-.1 3.72-.02 7.53-.09 11.25.26-.02.17-.02.47-.09.64" fill="#1EDBCF"/><path clip-rule="evenodd" d="M27.98 36.92c-.99-.04-2.38-.04-3.53-.07-2.5-.08-4.97.16-7.47.05-1.13-.04-2.25.15-3.37.12-.53-.01-2.03.27-2.38-.13.18-.98 1.33-.75 2.07-.77 1.18-.03 2.35-.08 3.52-.1 3.72-.02 7.53-.09 11.25.26-.02.17-.02.47-.09.64Z" stroke="#1EDBCF" stroke-width="1.5" stroke-linecap="round" stroke-linejoin="round"/><path fill-rule="evenodd" clip-rule="evenodd" d="M37.84 46.45c.06-1.6-.05-25.64.92-28.26.33-.9 1.44-.63 2.29-.6 1.49.06 2.9-.09 4.38-.15 1.42-.06 1.19.09 2.6.04.65-.03 2.17-.31 2.75.13.57.42.32 1.6.26 2.19-.12 1.08-.81 23.38-.73 26.65H37.84Z" fill="#1F2573"/><path clip-rule="evenodd" d="M37.84 46.45c.06-1.6-.05-25.64.92-28.26.33-.9 1.44-.63 2.29-.6 1.49.06 2.9-.09 4.38-.15 1.42-.06 1.19.09 2.6.04.65-.03 2.17-.31 2.75.13.57.42.32 1.6.26 2.19-.12 1.08-.81 23.38-.73 26.65H37.84Z" stroke="#1F2573" stroke-width="1.5" stroke-linecap="round" stroke-linejoin="round"/><path d="M40.35 29.62c.39.11.77-.02 1.13.2.27.19.43.5.54.8.24.64.22 1.36.22 2.03 0 1.04.02 1.93-.23 2.93-.14.58-1.43.63-1.88.45" stroke="#9499D5" stroke-width="1.5" stroke-linecap="round" stroke-linejoin="round"/></svg>