<svg width="67" height="61" fill="none" xmlns="http://www.w3.org/2000/svg"><path d="M33.49 11.56c2.62.42 6.51 4.64 6.7 7.35M32.95 11.46c-1.6-1.1-7.9-1.18-7.67 1.64M33.62 11.55a5.08 5.08 0 0 1 7.24-.12M33.57 10.9c.26-2.55 3.5-4.8 6.12-4.24M32.88 11.08c-1.04-2.34-5.48-5.18-8-3.88M33 11.38c-.13-1.68.26-5.11.98-6.62M33.36 12.15c-2.93-.85-6.08 3.85-4.59 7.3" stroke="#303AAF" stroke-width="1.5" stroke-linecap="round" stroke-linejoin="round"/><path d="M33.26 11.71c4.1 12.33 4.76 32.01 4.5 47.44M9.91 45.65c.18 3.48-1.98 12.2-2.18 13.33M12.73 45.2c-.19 2.25.35 11.66.49 13.81" stroke="#1F2573" stroke-width="1.5" stroke-linecap="round" stroke-linejoin="round"/><path fill-rule="evenodd" clip-rule="evenodd" d="M6.13 28.46c.18-1.4.26-2.85.07-4.12-.4-2.63-1.15-5.19-1.44-7.83-.43-3.91-.1-7.56 1.12-11.36.72-2.2 3.9-5.65 5.56-2.2.6 1.25.62 3.34.94 4.72a10.2 10.2 0 0 0 1.79 3.97 10.5 10.5 0 0 1 1.6 8.35c-.56 2.7-.18 4.53.57 7.1.76 2.59 2.41 5.09 2.78 7.77a19.3 19.3 0 0 1-.02 5.7c-.66 3.83-3.12 7.1-7.18 7.46-2.96.26-5.33-1.4-6.9-3.78-1.6-2.41-1.15-5.63-.59-8.3.36-1.72 1-3.35 1.32-5.09.14-.74.28-1.56.38-2.39" fill="#1EDBCF"/><path clip-rule="evenodd" d="M6.13 28.46c.18-1.4.26-2.85.07-4.12-.4-2.63-1.15-5.19-1.44-7.83-.43-3.91-.1-7.56 1.12-11.36.72-2.2 3.9-5.65 5.56-2.2.6 1.25.62 3.34.94 4.72a10.2 10.2 0 0 0 1.79 3.97 10.5 10.5 0 0 1 1.6 8.35c-.56 2.7-.18 4.53.57 7.1.76 2.59 2.41 5.09 2.78 7.77a19.3 19.3 0 0 1-.02 5.7c-.66 3.83-3.12 7.1-7.18 7.46-2.96.26-5.33-1.4-6.9-3.78-1.6-2.41-1.15-5.63-.59-8.3.36-1.72 1-3.35 1.32-5.09.14-.74.28-1.56.38-2.39Z" stroke="#1EDBCF" stroke-width="1.5" stroke-linecap="round" stroke-linejoin="round"/><path d="M11.36 41.09C9.1 36.5 11.19 31.05 11 26.33c-.2-5.1-2.58-11.27-1.43-16.4" stroke="#fff" stroke-width="1.5" stroke-linecap="round" stroke-linejoin="round"/><path d="M53.96 32.29c.1 2.19-.49 10.45-1.3 12.44M55.73 32c-.11 1.42-.12 10.37.38 12.75" stroke="#1F2573" stroke-width="1.5" stroke-linecap="round" stroke-linejoin="round"/><path fill-rule="evenodd" clip-rule="evenodd" d="M50.1 26.16c-.08-.88-.17-1.76-.4-2.62-.45-1.78-1.6-3.24-2-5.04a15.72 15.72 0 0 1-.27-6.31c.96-4.86 5.37-7.76 10.04-5.97a6.61 6.61 0 0 1 4.32 7.26c-.32 2.6-1.45 5.04-1.56 7.68-.05 1.18-.25 2.18-.14 3.36.37 3.68-.62 9.17-5.26 9.05-4.37-.11-4.45-4.1-4.74-7.41" fill="#979CD8"/><path clip-rule="evenodd" d="M50.1 26.16c-.08-.88-.17-1.76-.4-2.62-.45-1.78-1.6-3.24-2-5.04a15.72 15.72 0 0 1-.27-6.31c.96-4.86 5.37-7.76 10.04-5.97a6.61 6.61 0 0 1 4.32 7.26c-.32 2.6-1.45 5.04-1.56 7.68-.05 1.18-.25 2.18-.14 3.36.37 3.68-.62 9.17-5.26 9.05-4.37-.11-4.45-4.1-4.74-7.41Z" stroke="#979CD8" stroke-width="1.5" stroke-linecap="round" stroke-linejoin="round"/><path d="M54.95 30.09c-1.42-2.88-.1-6.32-.23-9.28-.13-3.21-1.62-7.1-.9-10.32M56.8 15.94c.61-1.33 1.11-3.1 1.39-4.3M51.86 21.09c-1.16-1-1.51-3.42-2.15-4.72" stroke="#fff" stroke-width="1.5" stroke-linecap="round" stroke-linejoin="round"/><path d="M61.19 45.77c0-1.05-.07-2.25.32-3.22M53.79 51.67v-2.58M46.6 46.73c-.24-1-.24-2.03.21-3M40.91 49.84a5.9 5.9 0 0 0-.32-2.14M45.63 56.5c-.28-.7-.21-2.1.11-2.8M52.98 59.3c-.46-1.06.07-2.97.54-3.57M59.8 56.39v-2.36M30.94 57.57c.07-.81.35-1.66.32-2.47M19.35 58c.12-1.03-.25-2.07-.22-3.12M24.6 53.81c0-1.1-.06-2.26.22-3.32M19.88 47.48c0-.5-.07-1.13.11-1.5M31.26 47.91c.1-.67.19-1.35.21-2.04M25.9 44.05c-.04-.44.03-.89.2-1.29M3.58 50.27c.23-.35.33-.77.43-1.18M1.22 57.14c0-.76-.12-1.65.1-2.36M65.37 49.41c0 .65-.17 1.88-.1 2.26" stroke="#1EDBCF" stroke-width="1.5" stroke-linecap="round" stroke-linejoin="round"/></svg>