<svg width="71" height="49" fill="none" xmlns="http://www.w3.org/2000/svg"><path fill-rule="evenodd" clip-rule="evenodd" d="M62.56 4.63a18.58 18.58 0 0 0-3.83 4.23h-.07c-12.24.42-39.5.37-43 .54-.94.05-1.88.15-2.83.24a17.07 17.07 0 0 0-3.05-3.9c1.84-.03 3.66-.11 5.5-.11 3.69 0 25.08-.22 30.8-.36 4.28-.1 8.51-.48 12.79-.48.8 0 2.43-.24 3.7-.16" fill="#1EDBCF"/><path clip-rule="evenodd" d="M62.56 4.63a18.58 18.58 0 0 0-3.83 4.23h-.07c-12.24.42-39.5.37-43 .54-.94.05-1.88.15-2.83.24a17.07 17.07 0 0 0-3.05-3.9c1.84-.03 3.66-.11 5.5-.11 3.69 0 25.08-.22 30.8-.36 4.28-.1 8.51-.48 12.79-.48.8 0 2.43-.24 3.7-.16Z" stroke="#1EDBCF" stroke-width="1.5" stroke-linecap="round" stroke-linejoin="round"/><path fill-rule="evenodd" clip-rule="evenodd" d="M22.77 28.4c.2-1.1.48-2.13.53-3.24-.45.03-.93-.1-1.37-.1-.88-.01-.87.54-1.03 1.23-1.38 6-3.28 11.91-4.95 17.86-.34 1.19-.82 2.46-.97 3.66.52.17 1.36.05 1.93.05.47 0 1.62.18 2.03 0 .37-.16.53-1.55.66-2 .63-2.37.94-4.82 1.4-7.22.35-1.78 1.48-8.62 1.77-10.24" fill="#979CD8"/><path clip-rule="evenodd" d="M22.77 28.4c.2-1.1.48-2.13.53-3.24-.45.03-.93-.1-1.37-.1-.88-.01-.87.54-1.03 1.23-1.38 6-3.28 11.91-4.95 17.86-.34 1.19-.82 2.46-.97 3.66.52.17 1.36.05 1.93.05.47 0 1.62.18 2.03 0 .37-.16.53-1.55.66-2 .63-2.37.94-4.82 1.4-7.22.35-1.78 1.48-8.62 1.77-10.24Z" stroke="#979CD8" stroke-width="1.5" stroke-linecap="round" stroke-linejoin="round"/><path fill-rule="evenodd" clip-rule="evenodd" d="M46.33 28.4c-.2-1.1-.48-2.13-.54-3.24.46.03.93-.1 1.38-.1.88-.01.87.54 1.03 1.23 1.37 6 3.28 11.91 4.95 17.86.33 1.19.82 2.46.96 3.66-.52.17-1.35.05-1.92.05-.47 0-1.62.18-2.03 0-.38-.16-.54-1.55-.66-2-.64-2.37-.94-4.82-1.4-7.22-.36-1.78-1.48-8.62-1.77-10.24" fill="#979CD8"/><path clip-rule="evenodd" d="M46.33 28.4c-.2-1.1-.48-2.13-.54-3.24.46.03.93-.1 1.38-.1.88-.01.87.54 1.03 1.23 1.37 6 3.28 11.91 4.95 17.86.33 1.19.82 2.46.96 3.66-.52.17-1.35.05-1.92.05-.47 0-1.62.18-2.03 0-.38-.16-.54-1.55-.66-2-.64-2.37-.94-4.82-1.4-7.22-.36-1.78-1.48-8.62-1.77-10.24Z" stroke="#979CD8" stroke-width="1.5" stroke-linecap="round" stroke-linejoin="round"/><path d="M15.43 21.78h40.29M1.56 1.18c.54-.14 1.7.28 2.28.43.51.13.9.4 1.34.67 1.62.96 3.21 2.12 4.6 3.47a17.07 17.07 0 0 1 3.55 4.87c.76 1.65 1.07 3.64 1.42 5.43.77 3.95.7 7.73.43 11.74-.17 2.7-.08 5.53-.72 8.15" stroke="#1F2573" stroke-width="1.5" stroke-linecap="round" stroke-linejoin="round"/><path d="M1.52 19.14c1.76-.16 3.5-.17 5.28-.1 1.07.06 2.13.2 3.19.1.7-.08 1.38 0 1.57-.78.26-1.1-.35-2.3-.73-3.3-.45-1.2-.92-2.38-1.54-3.5A13.95 13.95 0 0 0 1.53 5.1" stroke="#1F2573" stroke-width="1.5" stroke-linecap="round" stroke-linejoin="round"/><path fill-rule="evenodd" clip-rule="evenodd" d="M9 45.27c-1.01.02-2.68.17-3.51-.55-1.63-1.4-1.07-4.16-.99-6.09.86 0 1.72-.03 2.58-.06 1.75-.07 3.53.15 5.27-.1.3 2.98-.03 6.72-3.34 6.8" fill="#1F2573"/><path clip-rule="evenodd" d="M9 45.27c-1.01.02-2.68.17-3.51-.55-1.63-1.4-1.07-4.16-.99-6.09.86 0 1.72-.03 2.58-.06 1.75-.07 3.53.15 5.27-.1.3 2.98-.03 6.72-3.34 6.8Z" stroke="#1F2573" stroke-width="1.5" stroke-linecap="round" stroke-linejoin="round"/><path d="M1.45 33.29c3.23-.17 6.47 0 9.73.01 1.55 0 3.05-.2 3.21 1.68.14 1.64-.03 3.19-1.91 3.48l-.13.01M4.5 38.63l-3 .03" stroke="#1F2573" stroke-width="1.5" stroke-linecap="round" stroke-linejoin="round"/><path d="M14.36 35.5c-1.32.02-2.7-.04-3.97.01-.66.03-1.31.1-1.98.1-.65.02-1.24.23-1.91.2-1.72-.09-3.45.04-5.2.13" stroke="#1F2573" stroke-width="1.5" stroke-linecap="round" stroke-linejoin="round"/><path fill-rule="evenodd" clip-rule="evenodd" d="M14.86 15.27a5.2 5.2 0 0 1 3.9.31c1.1.63.36 1.66-.35 2.4-1.04 1.07-3.6.8-4.56-.3-.8-.93-.33-1.9 1.01-2.41" fill="#303AB2"/><path clip-rule="evenodd" d="M14.86 15.27a5.2 5.2 0 0 1 3.9.31c1.1.63.36 1.66-.35 2.4-1.04 1.07-3.6.8-4.56-.3-.8-.93-.33-1.9 1.01-2.41Z" stroke="#303AB2" stroke-width="1.5" stroke-linecap="round" stroke-linejoin="round"/><path d="M56.63 35.94c-.64-2.62-.55-5.45-.72-8.15-.26-4.01-.34-7.79.43-11.74.35-1.79.66-3.78 1.42-5.43.28-.62.6-1.2.97-1.76a18.58 18.58 0 0 1 3.83-4.23c1.06-.89 2.2-1.67 3.35-2.35.44-.26.83-.54 1.34-.67.57-.15 1.74-.57 2.28-.43" stroke="#1F2573" stroke-width="1.5" stroke-linecap="round" stroke-linejoin="round"/><path d="M69.57 19.14c-1.76-.16-3.5-.17-5.28-.1-1.07.06-2.13.2-3.19.1-.7-.08-1.39 0-1.57-.78-.26-1.1.35-2.3.73-3.3.45-1.2.92-2.38 1.54-3.5a13.95 13.95 0 0 1 7.76-6.46" stroke="#1F2573" stroke-width="1.5" stroke-linecap="round" stroke-linejoin="round"/><path fill-rule="evenodd" clip-rule="evenodd" d="M65.6 44.72c-.83.72-2.5.57-3.52.55-3.3-.08-3.64-3.82-3.34-6.8 1.74.25 3.52.03 5.27.1l2.58.06c.08 1.93.64 4.68-.99 6.09" fill="#1F2573"/><path clip-rule="evenodd" d="M65.6 44.72c-.83.72-2.5.57-3.52.55-3.3-.08-3.64-3.82-3.34-6.8 1.74.25 3.52.03 5.27.1l2.58.06c.08 1.93.64 4.68-.99 6.09Z" stroke="#1F2573" stroke-width="1.5" stroke-linecap="round" stroke-linejoin="round"/><path d="m58.74 38.47-.13-.01c-1.88-.29-2.05-1.84-1.91-3.48.16-1.89 1.66-1.68 3.2-1.68 3.27 0 6.5-.18 9.74-.01M69.6 38.66c-1 0-2.01 0-3.01-.03" stroke="#1F2573" stroke-width="1.5" stroke-linecap="round" stroke-linejoin="round"/><path d="M56.73 35.5c1.32.02 2.7-.04 3.97.01.66.03 1.31.1 1.98.1.65.02 1.24.23 1.91.2 1.72-.09 3.45.04 5.2.13" stroke="#1F2573" stroke-width="1.5" stroke-linecap="round" stroke-linejoin="round"/><path fill-rule="evenodd" clip-rule="evenodd" d="M56.23 15.27a5.2 5.2 0 0 0-3.9.31c-1.1.63-.36 1.66.35 2.4 1.03 1.07 3.6.8 4.56-.3.8-.93.33-1.9-1.01-2.41" fill="#303AB2"/><path clip-rule="evenodd" d="M56.23 15.27a5.2 5.2 0 0 0-3.9.31c-1.1.63-.36 1.66.35 2.4 1.03 1.07 3.6.8 4.56-.3.8-.93.33-1.9-1.01-2.41Z" stroke="#303AB2" stroke-width="1.5" stroke-linecap="round" stroke-linejoin="round"/></svg>