<svg fill="none" xmlns="http://www.w3.org/2000/svg" viewBox="0 0 74 74">
  <path d="M1 5a4 4 0 0 1 4-4h64a4 4 0 0 1 4 4v64a4 4 0 0 1-4 4H5a4 4 0 0 1-4-4V5Z" fill="#F1F1F1"/>
  <path d="M1 5a4 4 0 0 1 4-4h64a4 4 0 0 1 4 4v64a4 4 0 0 1-4 4H5a4 4 0 0 1-4-4V5Z" stroke="#F1F1F1" stroke-width="2"/>
  <path fill-rule="evenodd" clip-rule="evenodd" d="M16.5 20.4c-.2-.3-.1-.8-.1-1v-2l.1-.5c.2-.3.9-.3 1.1-.3h10.1c.5 0 .3.7.3 1V20c0 .4-.3.5-.6.5l-11-.1Z" fill="#979CD8"/>
  <path clip-rule="evenodd" d="M16.5 20.4s0 0 0 0c-.2-.3-.1-.8-.1-1v-2l.1-.5c.2-.3.9-.3 1.1-.3h10.1c.5 0 .3.7.3 1V20c0 .4-.3.5-.6.5l-11-.1Z" stroke="#979CD8" stroke-width="1.5" stroke-linecap="round" stroke-linejoin="round"/>
  <path fill-rule="evenodd" clip-rule="evenodd" d="M28.1 23.2c.2.2.1.8.1 1v1.5l-.1.5c-.2.4-.8.3-1.1.3H17c-.4 0-.2-.8-.2-1l.1-2v-.2h.2c.6-.2 11-.2 11 0Z" fill="#979CD8"/>
  <path clip-rule="evenodd" d="M28.1 23.2s0 0 0 0c.2.2.1.8.1 1v1.5l-.1.5c-.2.4-.8.3-1.1.3H17c-.4 0-.2-.8-.2-1l.1-2v-.2h.2c.6-.2 11-.2 11 0Z" stroke="#979CD8" stroke-width="1.5" stroke-linecap="round" stroke-linejoin="round"/>
  <path fill-rule="evenodd" clip-rule="evenodd" d="M16.5 33.3c-.2-.3-.1-.8-.1-1v-2.8l.1-.5c.2-.3.9-.3 1.1-.3h10.1c.5 0 .3.7.3 1V33c0 .4-.3.5-.6.5l-11-.1Z" fill="#979CD8"/>
  <path clip-rule="evenodd" d="M16.5 33.3s0 0 0 0c-.2-.3-.1-.8-.1-1v-2.8l.1-.5c.2-.3.9-.3 1.1-.3h10.1c.5 0 .3.7.3 1V33c0 .4-.3.5-.6.5l-11-.1Z" stroke="#979CD8" stroke-width="1.5" stroke-linecap="round" stroke-linejoin="round"/>
  <path fill-rule="evenodd" clip-rule="evenodd" d="M27.5 36.2v.3c.3 1 .2 2.7.2 3.8v.1h-.1a122.7 122.7 0 0 1-10.6 0l-.2-.3.1-3.8c.1-.2.3-.2.5-.2h10v.1Z" fill="#979CD8"/>
  <path clip-rule="evenodd" d="M27.5 36.2v.3c.3 1 .2 2.7.2 3.8v.1h-.1a122.7 122.7 0 0 1-10.6 0l-.2-.3.1-3.8c.1-.2.3-.2.5-.2h10v.1Z" stroke="#979CD8" stroke-width="1.5" stroke-linecap="round" stroke-linejoin="round"/>
  <path fill-rule="evenodd" clip-rule="evenodd" d="M16.5 45.6c0 .5-.1 1 .1 1.5l.1.1h.2c1.4 0 10.6 0 10.8-.4l.1-.6-.1-2.5c0-.2 0-.4-.2-.5h-.3l-10.2.2h-.4v.3a9 9 0 0 0-.1 1.9Z" fill="#979CD8"/>
  <path clip-rule="evenodd" d="M16.5 45.6c0 .5-.1 1 .1 1.5l.1.1h.2c1.4 0 10.6 0 10.8-.4l.1-.6-.1-2.5c0-.2 0-.4-.2-.5h-.3l-10.2.2h-.4v.3a9 9 0 0 0-.1 1.9Z" stroke="#979CD8" stroke-width="1.5" stroke-linecap="round" stroke-linejoin="round"/>
  <path clip-rule="evenodd" d="m14 59.1-.4-44.6s16-.3 16.7 0c.7.2.8 21.4.9 22 .2 2 0 21.5-.2 22.5 0 .5-17 .1-17 .1Z" stroke="#1F2573" stroke-width="1.5" stroke-linecap="round" stroke-linejoin="round"/>
  <path d="M18.2 59.1c-.2-.3.3-8 .6-9s2-.8 3.2-.8h3.6c.6 0 1.2.5 1.2 1.1.2 2.5 0 8 0 8.7" stroke="#1F2573" stroke-width="1.5" stroke-linecap="round" stroke-linejoin="round"/>
  <path fill-rule="evenodd" clip-rule="evenodd" d="M12.3 14.7h.3a1152.5 1152.5 0 0 0 19.8 0c.1 0 .4-2-.2-2.1-.6-.2-16.5 0-18 0-.5 0-1.4 0-1.8.2-.2.2-.4 1.6-.1 1.9Z" fill="#1EDBCF"/>
  <path clip-rule="evenodd" d="M12.1 14.6h.3a1298.2 1298.2 0 0 0 18.4 0c.2 0 .4-1.5-.1-1.7H13.9c-.4.1-1.3 0-1.6.2-.3.1-.4 1.3-.2 1.5Z" stroke="#1EDBCF" stroke-width="1.5" stroke-linecap="round" stroke-linejoin="round"/>
  <path d="M23 49.4c-.2.1-.2.3-.2.4l-.3 9.3" stroke="#1F2573" stroke-width="1.5" stroke-linecap="round" stroke-linejoin="round"/>
  <path fill-rule="evenodd" clip-rule="evenodd" d="m41.6 59.2.2-6.6v-.3l-.3-.2c-.7-.2-1.8-.2-2.5-.2-1 0-1.2.4-1.3 1.3-.2 1.7-.4 3.8-.3 6" fill="#303AB2"/>
  <path d="m41.6 59.2.2-6.6v-.3l-.3-.2c-.7-.2-1.8-.2-2.5-.2-1 0-1.2.4-1.3 1.3-.2 1.7-.4 3.8-.3 6" stroke="#303AB2" stroke-width="1.5" stroke-linecap="round" stroke-linejoin="round"/>
  <path fill-rule="evenodd" clip-rule="evenodd" d="m33.7 41.7.2.2c.5.3 1.6 0 2.2.1h2.8l5.4.2 5.6.1c1.3 0 5-.5 5-.7a2 2 0 0 0-.4-.9l-1.3-2.5c-.7-1.3-1.3-3.2-2.8-4-.6-.4-1.4-.5-2.2-.6-2.3-.3-5.7-.1-6.8.1-1.6.3-2.8 2.1-3.8 3.2a140 140 0 0 0-4 4.3l.1.5Z" fill="#979CD8"/>
  <path clip-rule="evenodd" d="m33.7 41.7.2.2c.5.3 1.6 0 2.2.1h2.8l5.4.2 5.6.1c1.3 0 5-.5 5-.7a2 2 0 0 0-.4-.9l-1.3-2.5c-.7-1.3-1.3-3.2-2.8-4-.6-.4-1.4-.5-2.2-.6-2.3-.3-5.7-.1-6.8.1-1.6.3-2.8 2.1-3.8 3.2a140 140 0 0 0-4 4.3l.1.5Z" stroke="#979CD8" stroke-width="1.5" stroke-linecap="round" stroke-linejoin="round"/>
  <path clip-rule="evenodd" d="m34.3 59.1-.3-6c0-2.5.2-11.4.1-11.5 0 0 12 0 12 .5.2 1.4.3 16.8 0 17.1-.3.3-11.8 0-11.8 0Z" stroke="#1F2573" stroke-width="1.5" stroke-linecap="round" stroke-linejoin="round"/>
  <path d="M34.2 41.6a103.4 103.4 0 0 1 7-7.7c.7.6 4.5 6.8 5 8.1H55" stroke="#1F2573" stroke-width="1.5" stroke-linecap="round" stroke-linejoin="round"/>
  <path d="M41.2 33.8c1 0 8.6 0 9.3.4.4.3.6.8.8 1.2 1.2 2 2.3 4.1 3.6 6.1.7 1.1 1.3 17.6.6 17.7h-9.4" stroke="#1F2573" stroke-width="1.5" stroke-linecap="round" stroke-linejoin="round"/>
  <path clip-rule="evenodd" d="M37.7 49.3c3 1.6 5.8-2.3 4-4.4-1-1.4-3.6-1.3-4.8 0-1.3 1.2-.7 3.6.8 4.4ZM50.7 46.5c1.2.2 1.5-1.2 1-2a1 1 0 0 0-.7-.3c-1.2 0-1.7 2-.3 2.3ZM50.8 51.6c1.9.3 1.9-3.4-.2-2.5-.6.2-.7.9-.8 1.5 0 .5.4.9 1 1Z" stroke="#1F2573" stroke-width="1.5" stroke-linecap="round" stroke-linejoin="round"/>
  <path d="M57.4 59.4c.3-.8.3-2 .3-2.8a8 8 0 0 0-1-3.7l-.8-1.6M57.7 54.5c0-.6 0-1.3.2-2 .1-.6.3-1.6.7-2M60 59.3c1.1-.8 1.3-2 1.6-3 .3-.8.3-1.5.3-2.3v-1.8M59.5 59.4v-6.5M62.2 58.8c0-.5.4-1.3.7-1.8.3-.7.5-1.7 1.2-2.2" stroke="#1EDBCF" stroke-width="1.5" stroke-linecap="round" stroke-linejoin="round"/>
</svg>
