<svg width="67" height="65" fill="none" xmlns="http://www.w3.org/2000/svg"><path clip-rule="evenodd" d="M7.1 53.14c-.2.31-.14.84.2 1.02.28.15.57.04.73-.2.36-.55-.45-1.52-.93-.82Z" stroke="#1F2573" stroke-width="1.5" stroke-linecap="round" stroke-linejoin="round"/><path d="M7.52 54.04c1.35 2.01 2.76 4.03 3.92 6.14M8 53.9c1.6.84 4.56 1.1 5.9 1.57M7.85 53.47c-1.5-1.75-2.76-3.56-4.75-4.99M7.35 53.33c-1.86.21-4.98 1.4-5.99 1.32" stroke="#1F2573" stroke-width="1.5" stroke-linecap="round" stroke-linejoin="round"/><path d="M7.03 53.33c-.7 2.18-1.67 4.6-2.62 6.7" stroke="#1F2573" stroke-width="1.5" stroke-linecap="round" stroke-linejoin="round"/><path clip-rule="evenodd" d="M7.1 29.47c.83.69 1.33-.74.6-.99-.55-.18-1.05.6-.6.99Z" stroke="#1F2573" stroke-width="1.5" stroke-linecap="round" stroke-linejoin="round"/><path d="M7.52 28.93c.6-1.94 2.39-4.99 2.29-6.7M7.52 28.93a22.21 22.21 0 0 0-3.1 7M7.68 29.36c.28.37 3.82 6.03 3.93 6.14M7.35 29.08c-1.1-1.8-2.38-4.98-2.45-6.7" stroke="#1F2573" stroke-width="1.5" stroke-linecap="round" stroke-linejoin="round"/><path d="M7.35 28.65c-1.57-.29-4.2.75-5.56.85" stroke="#1F2573" stroke-width="1.5" stroke-linecap="round" stroke-linejoin="round"/><path fill-rule="evenodd" clip-rule="evenodd" d="M30.24 12.2c-1.48 1.93.38 4.82 2.85 4.65 2.14-.16 3.91-3.6 2.83-4.84" fill="#1EDBCF"/><path d="M30.24 12.2c-1.48 1.93.38 4.82 2.85 4.65 2.14-.16 3.91-3.6 2.83-4.84" stroke="#1EDBCF" stroke-width="1.5"/><path d="M5.6 20.64c.21.88.57 2.29 1.52 2.16.2-.02.39-.13.54-.3" stroke="#1EDBCF" stroke-width="1.5" stroke-linecap="round" stroke-linejoin="round"/><path fill-rule="evenodd" clip-rule="evenodd" d="M36.48 62.84c1.01 0 2.03-.02 3.04-.07.58-.04 1.7.01 2.25-.15 0-.94.05-3.72.05-5.47V40.73c0-3.75-.05-7.5-.16-11.24-.05-1.84-.04-3.7-.2-5.53-.05-.73.3-2.7-.36-3.15-.31-.2-1.08-.06-1.44-.08-.6-.02-1.21-.05-1.82-.05-1.06 0-11.49-.48-12.68.02-.81.33-.56 1.22-.6 1.98-.11 2.22-.06 4.47-.06 6.69 0 2.21.11 4.42.1 6.64-.06 5.39.01 10.81-.19 16.2-.12 3.48-.24 6.87-.18 10.35 1.48.4 3.33.2 4.88.2 1.85 0 3.7.07 5.54.07h1.83" fill="#15459e"/><path clip-rule="evenodd" d="M36.48 62.84c1.01 0 2.03-.02 3.04-.07.58-.04 1.7.01 2.25-.15 0-.94.05-3.72.05-5.47V40.73c0-3.75-.05-7.5-.16-11.24-.05-1.84-.04-3.7-.2-5.53-.05-.73.3-2.7-.36-3.15-.31-.2-1.08-.06-1.44-.08-.6-.02-1.21-.05-1.82-.05-1.06 0-11.49-.48-12.68.02-.81.33-.56 1.22-.6 1.98-.11 2.22-.06 4.47-.06 6.69 0 2.21.11 4.42.1 6.64-.06 5.39.01 10.81-.19 16.2-.12 3.48-.24 6.87-.18 10.35 1.48.4 3.33.2 4.88.2 1.85 0 3.7.07 5.54.07h1.83Z" stroke="#15459e" stroke-width="1.5" stroke-linecap="round" stroke-linejoin="round"/><path d="M32.87 1.6c-.03 2.86-.16 3.14-.16 5.4" stroke="#1F2573" stroke-width="1.5" stroke-linecap="round" stroke-linejoin="round"/><path clip-rule="evenodd" d="M33.14 6.95c1.52-.16 3.2 0 4.53.83.62.38 1.15.9 1.5 1.55.1.19.8 2.1.52 2.2-.72.22-1.71.13-2.49.18-1.53.08-3.08.1-4.61.26-2.51.24-5.01-.07-7.54 0 1.5-2.98 4.89-4.69 8.1-5.02Z" stroke="#1F2573" stroke-width="1.5" stroke-linecap="round" stroke-linejoin="round"/><path fill-rule="evenodd" clip-rule="evenodd" d="M27.28 43.86c.13.42.31.6.54.19.5-.89.32-3.7.28-4.87-.02-.6-.1-3.14-.63-2.1-.46.9-.45 3-.47 4.22-.01.47.07 1.85.28 2.56" fill="#fff"/><path clip-rule="evenodd" d="M27.28 43.86c.13.42.31.6.54.19.5-.89.32-3.7.28-4.87-.02-.6-.1-3.14-.63-2.1-.46.9-.45 3-.47 4.22-.01.47.07 1.85.28 2.56Z" stroke="#fff" stroke-width="1.5" stroke-linecap="round" stroke-linejoin="round"/><path d="M27.57 40.29c1.38.13 2.87-.14 4.29-.14" stroke="#fff" stroke-width="1.5" stroke-linecap="round" stroke-linejoin="round"/><path d="M48.1 63.59c-.22-10.97.45-21.18.45-32.16 0-3.06-.66-6.86 0-9.77M48.25 61.46c1.39.52 16.98-.33 17.42-.6" stroke="#1F2573" stroke-width="1.5" stroke-linecap="round" stroke-linejoin="round"/><path d="M65.37 20.9c-.03 5.15 0 10.3 0 15.5 0 6.14.32 23.63.27 26.75" stroke="#1F2573" stroke-width="1.5" stroke-linecap="round" stroke-linejoin="round"/><path d="M48.55 24.32s5.83.02 9.54-.16c3.26-.17 3.96.03 7.28.03M49.16 35.49c6.2-.02 9.6-.13 15.75-.15M48.41 47.29c2.6-.05 15.05-.41 16.92-.7" stroke="#1F2573" stroke-width="1.5" stroke-linecap="round" stroke-linejoin="round"/><path fill-rule="evenodd" clip-rule="evenodd" d="M62.28 58.13a1 1 0 0 0 .06-.22c.28-1.58.14-3.25.14-4.84 0-.65-.08-1.3-.08-1.95 0-.35.2-.9-.11-1.22-.54-.56-2.14-.55-3.1-.53-1.62.03-3.3-.09-4.92.04-4.04.32-3.38 1.9-3.52 3.8a29 29 0 0 0 .28 5.21c.07.6 2.74.47 3.39.46 1.97-.05 3.98-.17 5.98-.23 1.04-.03 1.66-.02 1.88-.52" fill="#979CD8"/><path clip-rule="evenodd" d="M62.28 58.13a1 1 0 0 0 .06-.22c.28-1.58.14-3.25.14-4.84 0-.65-.08-1.3-.08-1.95 0-.35.2-.9-.11-1.22-.54-.56-2.14-.55-3.1-.53-1.62.03-3.3-.09-4.92.04-4.04.32-3.38 1.9-3.52 3.8a29 29 0 0 0 .28 5.21c.07.6 2.74.47 3.39.46 1.97-.05 3.98-.17 5.98-.23 1.04-.03 1.66-.02 1.88-.52Z" stroke="#979CD8" stroke-width="1.5" stroke-linecap="round" stroke-linejoin="round"/><path fill-rule="evenodd" clip-rule="evenodd" d="M56.28 33.57c.47 0 .93-.01 1.37-.03.8-.03 2.18.05 2.8-.46 1.08-.88 1.65-2.85 2.27-4.04 1.04-2.01-.4-2.16-2.23-2.03-1.66.13-3.33.1-5 .15-1.39.04-4.92-.66-4.6 1.37.22 1.35 1.16 2.53 1.72 3.78.36.81.37.94 1.28 1.09.75.12 1.58.16 2.39.17" fill="#1EDBCF"/><path clip-rule="evenodd" d="M56.28 33.57c.47 0 .93-.01 1.37-.03.8-.03 2.18.05 2.8-.46 1.08-.88 1.65-2.85 2.27-4.04 1.04-2.01-.4-2.16-2.23-2.03-1.66.13-3.33.1-5 .15-1.39.04-4.92-.66-4.6 1.37.22 1.35 1.16 2.53 1.72 3.78.36.81.37.94 1.28 1.09.75.12 1.58.16 2.39.17Z" stroke="#1EDBCF" stroke-width="1.5"/><path clip-rule="evenodd" d="M4.08 35.8c3.2 2.63 7.99.82 9.37-2.34 1.6-3.65-.74-13.67-7.41-11.82C-.28 23.39.12 32.53 4.08 35.79ZM4.08 60.33c3.2 2.64 7.99.83 9.37-2.33 1.6-3.65-.74-13.67-7.41-11.82C-.28 47.93.12 57.07 4.08 60.33Z" stroke="#9499D5" stroke-width="1.5" stroke-linecap="round" stroke-linejoin="round"/><path d="M7.49 28.67c.18.16 8.24 1.26 11.94 1.14-.06.87.17 1.72.36 2.55" stroke="#1F2573" stroke-width="1.5" stroke-linecap="round" stroke-linejoin="round"/><path d="M17.81 29.94c-1.14 2.38-1.35 6.48-1.46 9.13-.1 2.48-.16 4.3-.16 6.74" stroke="#1F2573" stroke-width="1.5" stroke-linecap="round" stroke-linejoin="round"/><path d="M17.33 30.08c-1.8 2.09-7.91 13.15-9.11 15.73 1.32.44 6.3-.04 7.8-.04M7.85 53.33c.1.13 8.32-7.2 8.22-7.36M16.19 45.91c.78-.09 1.53.1 2.29.15" stroke="#1F2573" stroke-width="1.5" stroke-linecap="round" stroke-linejoin="round"/><path fill-rule="evenodd" clip-rule="evenodd" d="M18.97 43.2c-.57 1.86-.29 3.98-.34 5.95.11-.04.68-.33.8-.4-.14-1.38-.73-4.4-.46-5.12" fill="#1EDBCF"/><path d="M18.97 43.2c-.57 1.86-.29 3.98-.34 5.95.11-.04.68-.33.8-.4-.14-1.38-.73-4.4-.46-5.12" stroke="#1EDBCF" stroke-width="1.5" stroke-linecap="round" stroke-linejoin="round"/><path clip-rule="evenodd" d="M7.92 43.57c-1.83 1-2.57 4.85.62 4.71 2.5-.1 3.35-2.81 1.7-4.3-.82-.76-1.65-.78-2.32-.4Z" stroke="#1F2573" stroke-width="1.5" stroke-linecap="round" stroke-linejoin="round"/><path fill-rule="evenodd" clip-rule="evenodd" d="M54.18 22c2.55-.7 2.78-6.02-.22-5.3-3.22.76-3.43 6.3.22 5.3" fill="#979CD8"/><path clip-rule="evenodd" d="M54.18 22c2.55-.7 2.78-6.02-.22-5.3-3.22.76-3.43 6.3.22 5.3Z" stroke="#979CD8" stroke-width="1.5" stroke-linecap="round" stroke-linejoin="round"/><path fill-rule="evenodd" clip-rule="evenodd" d="M58.35 18.68c-.96 2.44 2.82 5.39 4.03 2.57 1.3-3.03-2.66-6.07-4.03-2.57" fill="#15459e"/><path clip-rule="evenodd" d="M58.35 18.68c-.96 2.44 2.82 5.39 4.03 2.57 1.3-3.03-2.66-6.07-4.03-2.57Z" stroke="#15459e" stroke-width="1.5" stroke-linecap="round" stroke-linejoin="round"/><path fill-rule="evenodd" clip-rule="evenodd" d="M51.78 44.64c.99.45 2.47-.07 3.53-.2-.2-1.92.12-4.58-.25-6.3-.69.34-1.49 0-2.19-.02-.3 0-.72-.2-.93.29-.22.52-.29 6.17-.16 6.23" fill="#1F2573"/><path clip-rule="evenodd" d="M51.78 44.64c.99.45 2.47-.07 3.53-.2-.2-1.92.12-4.58-.25-6.3-.69.34-1.49 0-2.19-.02-.3 0-.72-.2-.93.29-.22.52-.29 6.17-.16 6.23Z" stroke="#1F2573" stroke-width="1.5" stroke-linecap="round" stroke-linejoin="round"/><path fill-rule="evenodd" clip-rule="evenodd" d="M57.62 44.64c.98.45 2.47-.07 3.52-.2-.07 0-.04-2.62-.03-2.9.05-1.01.1-2.04.01-3.06-.05-.57-.58-.6-1.06-.63-.48-.03-.98.04-1.46.06-.37.02-.66.12-.82.5-.22.52-.3 6.17-.16 6.23" fill="#1F2573"/><path clip-rule="evenodd" d="M57.62 44.64c.98.45 2.47-.07 3.52-.2-.07 0-.04-2.62-.03-2.9.05-1.01.1-2.04.01-3.06-.05-.57-.58-.6-1.06-.63-.48-.03-.98.04-1.46.06-.37.02-.66.12-.82.5-.22.52-.3 6.17-.16 6.23Z" stroke="#1F2573" stroke-width="1.5" stroke-linecap="round" stroke-linejoin="round"/><path d="M7.66 22.5c.63-.62.9-2.07.95-2.64.02-.28.03-.55.03-.83M1.53 18.56s2.88-.1 3.3.2c.42.27.5 1 .63 1.4l.13.48" stroke="#1EDBCF" stroke-width="1.5" stroke-linecap="round" stroke-linejoin="round"/><path d="M7.35 53.33c.18-1.2 1.1-7.28 1.05-7.36" stroke="#1F2573" stroke-width="1.5" stroke-linecap="round" stroke-linejoin="round"/></svg>